<?xml version="1.0" standalone="no"?>
<!DOCTYPE svg PUBLIC "-//W3C//DTD SVG 1.1//EN" "http://www.w3.org/Graphics/SVG/1.1/DTD/svg11.dtd" >
<svg xmlns="http://www.w3.org/2000/svg">
<metadata></metadata>
<defs>
<font id="antartida_rounded_mediumRg" horiz-adv-x="1146" >
<font-face units-per-em="2048" ascent="1536" descent="-512" />
<missing-glyph horiz-adv-x="577" />
<glyph unicode="&#xfb01;" horiz-adv-x="1112" d="M10 1030v66q0 22 14.5 36.5t36.5 14.5h78v45q0 184 108.5 274t305.5 90q144 0 285 -38q19 -5 34 -24.5t15 -39.5v-61q0 -22 -14.5 -33.5t-36.5 -7.5q-166 34 -277 34q-107 0 -161 -49t-54 -163v-27h565q22 0 38 -15t16 -36v-1045q0 -21 -16 -36t-38 -15h-98 q-22 0 -37.5 14.5t-15.5 36.5v928h-414v-928q0 -22 -15.5 -36.5t-37.5 -14.5h-98q-22 0 -38 15t-16 36v928h-78q-22 0 -36.5 14.5t-14.5 36.5z" />
<glyph unicode="&#xfb02;" horiz-adv-x="1095" d="M10 961v61q0 22 14.5 36.5t36.5 14.5h78v76q0 194 113.5 300.5t310.5 106.5q178 0 346 -77q20 -9 33.5 -30.5t13.5 -43.5v-1354q0 -22 -14.5 -36.5t-36.5 -14.5h-100q-22 0 -36.5 14.5t-14.5 36.5v1307q-96 28 -183 28q-227 0 -227 -262v-51h248q22 0 37.5 -14.5 t15.5 -36.5v-61q0 -22 -15.5 -37t-37.5 -15h-248v-858q0 -22 -15.5 -36.5t-37.5 -14.5h-98q-22 0 -38 15t-16 36v858h-78q-22 0 -36.5 15t-14.5 37z" />
<glyph unicode="&#xfb03;" horiz-adv-x="1609" d="M10 1034v62q0 22 14.5 36.5t36.5 14.5h78q0 201 97.5 287t285.5 86q68 0 145.5 -25t137.5 -61q116 122 323 122q101 0 240 -30q20 -4 34.5 -24.5t14.5 -41.5v-55q0 -21 -14 -32.5t-35 -8.5q-124 31 -227 31q-115 0 -171.5 -56.5t-56.5 -191.5h506q22 0 36.5 -14.5 t14.5 -36.5v-1045q0 -22 -14.5 -36.5t-36.5 -14.5h-100q-22 0 -36.5 14.5t-14.5 36.5v932h-355v-932q0 -22 -15.5 -36.5t-37.5 -14.5h-100q-22 0 -36.5 14.5t-14.5 36.5v932h-365v-932q0 -22 -15.5 -36.5t-37.5 -14.5h-98q-22 0 -38 15t-16 36v932h-78q-22 0 -36.5 14.5 t-14.5 36.5zM344 1147h365q0 89 28 156q-98 53 -194 53q-107 0 -153 -42.5t-46 -166.5z" />
<glyph unicode="&#xfb04;" horiz-adv-x="1662" d="M10 961v61q0 22 14.5 36.5t36.5 14.5h78v74q0 192 102 282.5t289 90.5q70 0 146 -24t137 -60q117 120 320 120q176 0 344 -77q20 -9 33.5 -30.5t13.5 -43.5v-1354q0 -22 -14.5 -36.5t-36.5 -14.5h-101q-22 0 -36.5 14.5t-14.5 36.5v1307q-96 28 -180 28q-228 0 -228 -260 v-53h248q22 0 36.5 -14.5t14.5 -36.5v-61q0 -22 -14.5 -37t-36.5 -15h-248v-858q0 -22 -15.5 -36.5t-37.5 -14.5h-100q-22 0 -36.5 14.5t-14.5 36.5v858h-365v-858q0 -22 -15.5 -36.5t-37.5 -14.5h-98q-22 0 -38 15t-16 36v858h-78q-22 0 -36.5 15t-14.5 37zM344 1073h365 v78q0 81 28 145q-100 54 -194 54q-105 0 -152 -48.5t-47 -179.5v-49z" />
<glyph horiz-adv-x="2048" />
<glyph horiz-adv-x="2048" />
<glyph unicode="&#xd;" horiz-adv-x="2048" />
<glyph unicode=" "  horiz-adv-x="577" />
<glyph unicode="&#x09;" horiz-adv-x="577" />
<glyph unicode="&#xa0;" horiz-adv-x="577" />
<glyph unicode="!" horiz-adv-x="505" d="M141 94q0 54 30 81.5t79 27.5q53 0 84 -27.5t31 -81.5q0 -57 -31 -85.5t-84 -28.5q-49 0 -79 29t-30 85zM152 1077v305q0 22 14.5 37t36.5 15h100q22 0 36.5 -15t14.5 -37v-305l-18 -667q0 -22 -15.5 -37t-37.5 -15h-62q-21 0 -36 15t-15 37z" />
<glyph unicode="&#x22;" horiz-adv-x="604" d="M70 1485q-2 20 12.5 35.5t34.5 15.5h92q22 0 36.5 -15.5t12.5 -35.5l-18 -293q-1 -22 -17.5 -36.5t-38.5 -14.5h-43q-21 0 -36.5 14.5t-18.5 36.5zM346 1485q0 20 14.5 35.5t34.5 15.5h92q21 0 35.5 -15t14.5 -36l-19 -293q-1 -22 -17 -36.5t-38 -14.5h-43 q-22 0 -38 14.5t-17 36.5z" />
<glyph unicode="#" horiz-adv-x="1398" d="M70 455v57q0 22 14.5 37.5t36.5 15.5h221l66 303h-187q-22 0 -37.5 16t-15.5 38v55q0 22 15.5 37.5t37.5 15.5h221l78 352q4 23 22 37.5t40 14.5h82q19 0 32 -16t9 -36l-78 -352h278l78 352q4 23 22.5 37.5t41.5 14.5h79q20 0 32.5 -16t8.5 -36l-77 -352h188 q22 0 36.5 -15.5t14.5 -37.5v-55q0 -22 -15 -38t-36 -16h-221l-68 -303h189q22 0 36.5 -15.5t14.5 -37.5v-57q0 -22 -14.5 -37t-36.5 -15h-224l-75 -352q-4 -22 -23 -36.5t-41 -14.5h-78q-20 0 -33 15.5t-10 35.5l78 352h-283l-75 -352q-4 -22 -22 -36.5t-40 -14.5h-80 q-19 0 -32 15.5t-9 35.5l76 352h-186q-22 0 -36.5 15t-14.5 37zM526 565h281l65 303h-278z" />
<glyph unicode="$" horiz-adv-x="1216" d="M104 412q0 22 13.5 36.5t34.5 14.5h108q22 0 34.5 -13t12.5 -36q0 -46 26.5 -95.5t82 -91t127.5 -53.5v459q-70 11 -127 28.5t-110.5 47.5t-90 70t-58.5 98.5t-22 130.5v41q0 167 101.5 270.5t306.5 116.5v151q0 22 14.5 36.5t36.5 14.5h37q22 0 36.5 -14.5t14.5 -36.5 v-153q99 -11 177.5 -51t126.5 -98t72.5 -125t24.5 -138q0 -22 -13.5 -36.5t-35.5 -14.5h-106q-22 0 -34.5 13t-12.5 36q0 80 -52 149t-147 88v-456q428 -58 428 -361v-49q0 -173 -109 -277.5t-319 -117.5v-150q0 -22 -14.5 -36.5t-36.5 -14.5h-37q-22 0 -36.5 14.5 t-14.5 36.5v152q-104 10 -189 49t-138.5 96t-82.5 126.5t-29 142.5zM336 1044q0 -101 52.5 -150t154.5 -69v437q-104 -12 -155.5 -70t-51.5 -148zM682 170q111 12 169 73.5t58 162.5q0 90 -58 137t-169 67v-440z" />
<glyph unicode="%" horiz-adv-x="1886" d="M104 891v260q0 141 91 224t241 83t241 -83t91 -224v-260q0 -140 -91 -223.5t-241 -83.5t-241 83.5t-91 223.5zM287 907q0 -84 40 -129t109 -45t109.5 45t40.5 129v226q0 86 -40.5 131t-109.5 45t-109 -45t-40 -131v-226zM344.5 15q-7.5 15 1.5 28l975 1348q29 43 82 43 h115q17 0 24 -15t-2 -28l-981 -1348q-29 -43 -82 -43h-110q-15 0 -22.5 15zM1118 287v258q0 143 91 226t243 83q149 0 239.5 -83t90.5 -226v-258q0 -142 -90.5 -226t-239.5 -84q-151 0 -242.5 84t-91.5 226zM1300 301q0 -85 40.5 -129.5t111.5 -44.5q69 0 109.5 45t40.5 129 v227q0 85 -40.5 131t-109.5 46q-70 0 -111 -46t-41 -131v-227z" />
<glyph unicode="&#x26;" horiz-adv-x="1402" d="M111 334v24q0 201 290 402q-87 92 -139.5 178t-52.5 176q0 152 102.5 250t288.5 98q204 0 297.5 -86.5t93.5 -238.5q0 -52 -17 -99.5t-39.5 -81.5t-69.5 -76t-80 -66.5t-99 -70.5l297 -327q67 110 80 223q2 23 17.5 37t41.5 14h84q21 0 36 -16t13 -35 q-8 -89 -45.5 -187.5t-97.5 -183.5l209 -229q9 -11 3 -25t-19 -14h-152q-52 0 -88 39l-82 86q-164 -154 -399 -154q-225 0 -349 91t-124 272zM324 336q0 -195 268 -195q155 0 274 119l-340 371q-103 -77 -152.5 -143t-49.5 -142v-10zM414 1122q0 -15 2.5 -29.5t5.5 -26.5 t10.5 -27.5t12 -24.5t17 -25t17.5 -23t20.5 -24t20.5 -22.5t23 -24.5t22 -23q7 5 37 26t37.5 26.5t32.5 24.5t33 27.5t26.5 26t25 29.5t16 28.5t12.5 33t3 34.5q0 83 -42 124.5t-146 41.5q-91 0 -138.5 -43.5t-47.5 -128.5z" />
<glyph unicode="'" horiz-adv-x="327" d="M70 1485q-2 20 12.5 35.5t34.5 15.5h92q22 0 36.5 -15.5t12.5 -35.5l-18 -293q-1 -22 -17.5 -36.5t-38.5 -14.5h-43q-21 0 -36.5 14.5t-18.5 36.5z" />
<glyph unicode="(" horiz-adv-x="634" d="M127 264v783q0 112 40.5 209.5t102.5 159.5t134 97t139 35q19 0 31 -11t12 -30v-61q0 -52 -51 -72q-96 -32 -152.5 -128t-56.5 -226v-729q0 -130 56.5 -226t152.5 -128q51 -20 51 -72v-62q0 -19 -12 -30t-31 -11q-67 0 -139 35.5t-134 97.5t-102.5 159.5t-40.5 209.5z " />
<glyph unicode=")" horiz-adv-x="634" d="M49 -135q0 29 11.5 45t39.5 27q94 32 150.5 128t56.5 226v729q0 130 -56.5 226t-150.5 128q-28 11 -39.5 27t-11.5 45v61q0 19 12 30t31 11q67 0 139 -35t134 -97t102.5 -159.5t40.5 -209.5v-783q0 -112 -40.5 -209.5t-102.5 -159.5t-134 -97.5t-139 -35.5q-19 0 -31 11 t-12 30v62z" />
<glyph unicode="*" horiz-adv-x="937" d="M92 1184l21 61q6 19 25.5 28.5t39.5 2.5l217 -76l-6 230q-1 21 13.5 36t35.5 15h64q22 0 36.5 -14.5t14.5 -36.5l-6 -228l211 74q20 8 39.5 -1.5t25.5 -29.5l21 -61q6 -21 -4 -39.5t-31 -24.5l-221 -63l141 -185q12 -17 9.5 -37.5t-19.5 -33.5l-49 -35 q-17 -13 -38.5 -9.5t-33.5 21.5l-129 193l-129 -193q-12 -18 -33.5 -21.5t-38.5 9.5l-49 37q-18 12 -21 33t11 38l145 185l-227 61q-20 6 -30.5 25t-4.5 39z" />
<glyph unicode="+" horiz-adv-x="1202" d="M102 582v77q0 22 16 37t38 15h350v389q0 22 15.5 36.5t37.5 14.5h86q22 0 36.5 -14.5t14.5 -36.5v-389h353q22 0 36.5 -15t14.5 -37v-77q0 -22 -14.5 -37t-36.5 -15h-353v-389q0 -22 -14.5 -36.5t-36.5 -14.5h-86q-22 0 -37.5 14.5t-15.5 36.5v389h-350q-22 0 -38 15 t-16 37z" />
<glyph unicode="," horiz-adv-x="411" d="M37 -174q0 33 31 57q28 19 44.5 51t16.5 66q-47 29 -47 102q0 62 33 94.5t88 32.5q58 0 92.5 -32.5t34.5 -94.5q0 -125 -85 -225t-169 -100q-39 0 -39 33v16z" />
<glyph unicode="-" horiz-adv-x="813" d="M102 582v73q0 22 16 38t38 16h501q22 0 38 -16t16 -38v-73q0 -22 -16 -37t-38 -15h-501q-22 0 -38 15t-16 37z" />
<glyph unicode="." horiz-adv-x="411" d="M82 100q0 64 32.5 96.5t88.5 32.5q59 0 93 -32.5t34 -96.5q0 -61 -34 -92t-93 -31q-56 0 -88.5 31t-32.5 92z" />
<glyph unicode="/" horiz-adv-x="1007" d="M31 -176l743 1663q22 49 74 49h96q19 0 28.5 -15t2.5 -34l-744 -1663q-22 -49 -73 -49h-97q-18 0 -27.5 15.5t-2.5 33.5z" />
<glyph unicode="0" horiz-adv-x="1187" d="M115 422v590q0 207 131.5 328.5t347.5 121.5t347.5 -121.5t131.5 -328.5v-590q0 -207 -131.5 -329t-347.5 -122t-347.5 122t-131.5 329zM326 451q0 -145 71 -221t197 -76q125 0 195.5 76t70.5 221v532q0 145 -70.5 221t-195.5 76q-126 0 -197 -76t-71 -221v-532z" />
<glyph unicode="1" horiz-adv-x="589" d="M43 1305v77q0 22 15.5 37t35.5 15h320q22 0 36.5 -15t14.5 -37v-1331q0 -22 -14.5 -36.5t-36.5 -14.5h-109q-22 0 -36.5 14.5t-14.5 36.5v1202h-160q-20 0 -35.5 15.5t-15.5 36.5z" />
<glyph unicode="2" horiz-adv-x="1175" d="M104 51v29q0 44 35 88l563 620q74 82 108 147t34 126q0 96 -63.5 157.5t-184.5 61.5q-65 0 -116.5 -23.5t-82.5 -62.5t-47 -85.5t-16 -94.5q0 -49 -47 -49h-115q-22 0 -34.5 13.5t-12.5 35.5q0 89 29.5 168t86 142.5t148 100.5t207.5 37q226 0 346.5 -109.5t120.5 -289.5 q0 -62 -17.5 -120.5t-53 -114.5t-69 -97.5t-85.5 -97.5l-416 -453h610q22 0 36.5 -14.5t14.5 -36.5v-78q0 -22 -14.5 -36.5t-36.5 -14.5h-876q-21 0 -36.5 15t-15.5 36z" />
<glyph unicode="3" horiz-adv-x="1173" d="M104 416q0 22 14 35.5t34 13.5h118q47 0 47 -47q0 -49 14.5 -94.5t44 -84t81 -62t118.5 -23.5q127 0 194 60.5t67 174.5v35q0 114 -50.5 182t-130.5 68h-184q-22 0 -37.5 14.5t-15.5 36.5v68q0 22 15.5 36.5t37.5 14.5h182q52 0 92.5 41t58 91t17.5 93q0 96 -60.5 156.5 t-178.5 60.5q-117 0 -180.5 -72t-63.5 -172q0 -47 -47 -47h-115q-22 0 -34.5 13.5t-12.5 35.5q0 81 28.5 154.5t83 133t143 95t198.5 35.5q219 0 334.5 -108.5t115.5 -280.5q0 -85 -38.5 -168t-106.5 -139q75 -38 123.5 -129t48.5 -188v-64q0 -188 -128.5 -301t-357.5 -113 q-115 0 -206.5 36t-147.5 98t-85.5 141.5t-29.5 169.5z" />
<glyph unicode="4" horiz-adv-x="1193" d="M63 328v22q0 43 23 99l477 937q9 21 29.5 34.5t44.5 13.5h127q17 0 26.5 -15.5t2.5 -32.5l-467 -929h462v489q0 22 15 37.5t37 15.5h106q22 0 37.5 -15.5t15.5 -37.5v-489h97q22 0 37.5 -16t15.5 -38v-75q0 -22 -15.5 -37t-37.5 -15h-97v-225q0 -22 -15.5 -36.5 t-37.5 -14.5h-106q-22 0 -37 14.5t-15 36.5v225h-673q-21 0 -36.5 15.5t-15.5 36.5z" />
<glyph unicode="5" horiz-adv-x="1148" d="M94 410q0 22 12.5 35.5t34.5 13.5h119q47 0 47 -47q0 -35 8 -69t27 -68t47.5 -60t73 -42.5t100.5 -16.5q126 0 192 60.5t66 170.5v141q0 141 -61.5 198.5t-184.5 57.5q-120 0 -235 -61q-54 -25 -113 -25h-53q-20 0 -34 16t-11 36l92 632q3 22 20.5 37t39.5 15h651 q22 0 37.5 -15t15.5 -37v-75q0 -22 -15.5 -38t-37.5 -16h-516l-51 -350q44 27 107 44.5t126 17.5q210 0 328 -102t118 -312v-168q0 -188 -126 -299t-355 -111q-116 0 -207.5 36.5t-147.5 98t-85 139t-29 163.5z" />
<glyph unicode="6" horiz-adv-x="1206" d="M115 383v629q0 205 132 327.5t349 122.5q218 0 346.5 -110.5t128.5 -298.5q0 -22 -14 -37t-35 -15h-113q-22 0 -34.5 13.5t-12.5 36.5q0 105 -70.5 167t-195.5 62q-127 0 -197.5 -76.5t-70.5 -220.5v-211q59 42 146.5 67t174.5 25q99 0 178.5 -23.5t139.5 -70.5 t92.5 -125t32.5 -182v-64q0 -207 -132.5 -317.5t-353.5 -110.5q-146 0 -254.5 43t-172.5 137t-64 232zM328 418q0 -264 278 -264q129 0 202 67t73 209q0 136 -60.5 194t-189.5 58q-87 0 -167.5 -25.5t-135.5 -68.5v-170z" />
<glyph unicode="7" horiz-adv-x="960" d="M27 1305v77q0 22 15.5 37t35.5 15h811q22 0 37.5 -15t15.5 -37v-22q0 -52 -20 -100l-519 -1211q-9 -22 -28.5 -35.5t-42.5 -13.5h-125q-19 0 -28.5 15t-2.5 34l520 1204h-618q-20 0 -35.5 15.5t-15.5 36.5z" />
<glyph unicode="8" horiz-adv-x="1226" d="M109 385v70q0 96 48.5 183.5t125.5 133.5q-67 57 -106.5 139.5t-39.5 165.5q0 172 126.5 278.5t348.5 106.5q223 0 350.5 -106.5t127.5 -278.5q0 -83 -39 -165t-107 -140q79 -44 126.5 -131.5t47.5 -185.5v-70q0 -189 -132 -301.5t-374 -112.5t-372.5 112.5t-130.5 301.5 zM332 389q0 -111 71 -173t209 -62q140 0 211.5 62t71.5 173v45q0 110 -55 177t-135 67h-185q-80 0 -134 -67t-54 -177v-45zM346 1071q0 -96 50.5 -160.5t129.5 -64.5h164q82 0 136.5 65t54.5 160q0 94 -73.5 154.5t-195.5 60.5q-121 0 -193.5 -60.5t-72.5 -154.5z" />
<glyph unicode="9" horiz-adv-x="1200" d="M115 983v57q0 205 131 313.5t352 108.5q224 0 355.5 -101.5t131.5 -305.5v-633q0 -205 -132.5 -328t-350.5 -123q-219 0 -350 112t-131 302q0 22 13.5 36.5t35.5 14.5h113q22 0 34.5 -13.5t12.5 -35.5q0 -104 73 -168.5t199 -64.5q127 0 198.5 77t71.5 220v200 q-106 -65 -315 -65q-204 0 -323 98t-119 299zM328 1012q0 -132 59 -188t188 -56q182 0 297 63v189q0 260 -274 260q-270 0 -270 -268z" />
<glyph unicode=":" horiz-adv-x="454" d="M104 102q0 64 32 96.5t89 32.5q59 0 92 -32.5t33 -96.5q0 -61 -33 -91.5t-92 -30.5q-57 0 -89 30.5t-32 91.5zM104 1038q0 64 32 96.5t89 32.5q59 0 92 -32.5t33 -96.5q0 -61 -33 -92t-92 -31q-57 0 -89 31t-32 92z" />
<glyph unicode=";" horiz-adv-x="460" d="M61 -174q0 33 33 57q27 18 43.5 50.5t18.5 66.5q-47 29 -47 102q0 62 32.5 94.5t87.5 32.5q58 0 92.5 -32.5t34.5 -94.5q0 -125 -85 -225t-169 -100q-41 0 -41 33v16zM109 1038q0 64 32 96.5t88 32.5q60 0 93.5 -32.5t33.5 -96.5q0 -61 -33.5 -92t-93.5 -31q-56 0 -88 31 t-32 92z" />
<glyph unicode="&#x3c;" horiz-adv-x="757" d="M102 549v47q0 52 39 86l475 432q10 9 24.5 2.5t14.5 -20.5v-144q0 -52 -39 -86l-321 -293l319 -292q41 -33 41 -86v-144q0 -14 -14.5 -20.5t-24.5 2.5l-475 432q-39 31 -39 84z" />
<glyph unicode="=" horiz-adv-x="1189" d="M102 326v73q0 22 16 38t38 16h880q21 0 36 -16t15 -38v-73q0 -22 -14.5 -37t-36.5 -15h-880q-22 0 -38 15t-16 37zM102 788v74q0 21 16 36t38 15h880q22 0 36.5 -14.5t14.5 -36.5v-74q0 -22 -14.5 -37.5t-36.5 -15.5h-880q-22 0 -38 15.5t-16 37.5z" />
<glyph unicode="&#x3e;" horiz-adv-x="757" d="M102 51v144q0 53 41 86l320 292l-322 293q-39 34 -39 86v144q0 14 14 20.5t25 -2.5l475 -432q39 -34 39 -86v-47q0 -53 -39 -84l-475 -432q-11 -9 -25 -2.5t-14 20.5z" />
<glyph unicode="?" horiz-adv-x="1050" d="M76 1085q0 73 27.5 139.5t80 120t137.5 85.5t191 32q209 0 322.5 -96.5t113.5 -247.5v-33q0 -65 -14 -119t-44.5 -101t-60.5 -80.5t-79 -79.5q-92 -88 -131 -155t-39 -151v-18q0 -17 -11 -28t-26 -11h-129q-15 0 -27 12t-12 29v33q0 76 11 130t39 98t54 72t79 77 q20 18 30 28q73 70 108 133.5t35 151.5q0 84 -53.5 132t-165.5 48q-114 0 -170.5 -58t-56.5 -143q0 -23 -13.5 -37t-35.5 -14h-111q-22 0 -35.5 14.5t-13.5 36.5zM360 90q0 56 32.5 85.5t84.5 29.5q55 0 88 -29.5t33 -85.5q0 -57 -33 -87t-88 -30q-52 0 -84.5 30.5 t-32.5 86.5z" />
<glyph unicode="@" horiz-adv-x="1538" d="M109 414l84 602q14 102 76.5 186t156 139t208 85t236.5 30t229.5 -31t186.5 -86.5t118.5 -140t25.5 -184.5l-64 -451q-15 -119 -80 -185.5t-178 -66.5q-138 0 -178 115q-45 -46 -114.5 -80.5t-127.5 -34.5q-133 0 -193.5 73t-41.5 208l34 246q19 135 97.5 206.5 t206.5 71.5q56 0 107.5 -22t84.5 -58l2 27q4 19 18 30t31 11h37q20 0 34 -15.5t11 -35.5l-69 -500q-9 -69 6.5 -99t64.5 -30q99 0 117 135l63 442q11 81 -21.5 147t-96.5 106t-146.5 61.5t-175.5 21.5q-94 0 -183 -21.5t-165 -62t-127.5 -107t-63.5 -149.5l-79 -569 q-11 -82 21.5 -148t96 -106.5t146 -62t174.5 -21.5q157 0 297 49q18 6 31.5 -5t11.5 -30l-2 -24q-11 -52 -58 -66q-136 -43 -292 -43q-163 0 -295.5 52.5t-206.5 155.5t-55 235zM586 606q-12 -92 16 -139t105 -47q54 0 112.5 34t91.5 78l54 381q-27 38 -74.5 66.5 t-97.5 28.5q-79 0 -122 -47.5t-57 -141.5z" />
<glyph unicode="A" horiz-adv-x="1245" d="M20 49l480 1335q8 22 27 36t42 14h107q23 0 42 -14t27 -36l480 -1335q2 -7 2 -14q0 -11 -6 -20q-10 -15 -29 -15h-123q-23 0 -43 13.5t-27 35.5l-118 348h-523l-114 -348q-8 -22 -26.5 -35.5t-41.5 -13.5h-121q-21 0 -31 15q-7 10 -6 21q0 6 2 13zM416 575h407l-207 609z " />
<glyph unicode="B" horiz-adv-x="1216" d="M125 51v1331q0 22 14.5 37t36.5 15h469q221 0 336 -93.5t115 -279.5v-72q0 -80 -36.5 -155t-107.5 -115q78 -33 128 -112.5t50 -176.5v-76q0 -160 -109.5 -257t-322.5 -97h-522q-22 0 -36.5 14.5t-14.5 36.5zM338 182h356q112 0 166.5 53t54.5 144v31q0 97 -51.5 152.5 t-146.5 55.5h-379v-436zM338 791h358q88 0 137.5 53.5t49.5 165.5v22q0 120 -55.5 168.5t-178.5 48.5h-311v-458z" />
<glyph unicode="C" horiz-adv-x="1222" d="M115 426v582q0 206 139.5 330t359.5 124q219 0 358.5 -112t139.5 -285v-41q0 -22 -13.5 -35.5t-35.5 -13.5h-115q-22 0 -34.5 13t-12.5 36v20q0 104 -79.5 169t-207.5 65q-129 0 -206.5 -78t-77.5 -221v-524q0 -143 77.5 -221t206.5 -78q128 0 207.5 66t79.5 175v31 q0 23 12.5 36t34.5 13h115q22 0 35.5 -13.5t13.5 -35.5v-59q0 -173 -139.5 -285.5t-358.5 -112.5t-359 125t-140 330z" />
<glyph unicode="D" horiz-adv-x="1245" d="M125 51v1331q0 22 14.5 37t36.5 15h481q218 0 345.5 -123t127.5 -332v-524q0 -209 -127.5 -332t-345.5 -123h-481q-22 0 -36.5 14.5t-14.5 36.5zM338 182h319q125 0 191.5 76.5t66.5 222.5v471q0 146 -66.5 221.5t-191.5 75.5h-319v-1067z" />
<glyph unicode="E" horiz-adv-x="1062" d="M125 51v1331q0 22 14.5 37t36.5 15h754q22 0 37.5 -15t15.5 -37v-82q0 -22 -15.5 -36.5t-37.5 -14.5h-592v-463h485q22 0 38 -15t16 -36v-80q0 -21 -16 -36t-38 -15h-485v-422h608q22 0 37.5 -14.5t15.5 -36.5v-80q0 -22 -15.5 -36.5t-37.5 -14.5h-770q-22 0 -36.5 14.5 t-14.5 36.5z" />
<glyph unicode="F" horiz-adv-x="1034" d="M125 51v1331q0 22 14.5 37t36.5 15h756q22 0 36.5 -15t14.5 -37v-82q0 -22 -14.5 -36.5t-36.5 -14.5h-594v-477h487q22 0 37 -14.5t15 -36.5v-80q0 -22 -15 -36.5t-37 -14.5h-487v-539q0 -22 -14.5 -36.5t-36.5 -14.5h-111q-22 0 -36.5 14.5t-14.5 36.5z" />
<glyph unicode="G" horiz-adv-x="1234" d="M115 426v582q0 207 141 330.5t365 123.5q220 0 360.5 -110.5t140.5 -284.5v-27q0 -22 -12.5 -35.5t-34.5 -13.5h-114q-22 0 -35 13t-13 36v15q0 96 -80.5 159.5t-211.5 63.5q-132 0 -211.5 -78t-79.5 -221v-524q0 -144 77 -221.5t214 -77.5q88 0 165 36t123 97v262h-250 q-22 0 -36.5 15.5t-14.5 37.5v78q0 22 14.5 36.5t36.5 14.5h412q22 0 36.5 -14.5t14.5 -36.5v-633q0 -22 -14.5 -36.5t-36.5 -14.5h-84q-22 0 -39 14.5t-22 36.5l-4 41q-54 -54 -141.5 -86.5t-178.5 -32.5q-213 0 -350 125t-137 330z" />
<glyph unicode="H" horiz-adv-x="1253" d="M125 51v1331q0 22 14.5 37t36.5 15h111q22 0 36.5 -15t14.5 -37v-602h577v602q0 22 15 37t37 15h110q22 0 37.5 -15t15.5 -37v-1331q0 -22 -15.5 -36.5t-37.5 -14.5h-110q-22 0 -37 14.5t-15 36.5v547h-577v-547q0 -22 -14.5 -36.5t-36.5 -14.5h-111q-22 0 -36.5 14.5 t-14.5 36.5z" />
<glyph unicode="I" horiz-adv-x="462" d="M125 51v1331q0 22 14.5 37t36.5 15h111q22 0 36.5 -15t14.5 -37v-1331q0 -22 -14.5 -36.5t-36.5 -14.5h-111q-22 0 -36.5 14.5t-14.5 36.5z" />
<glyph unicode="J" horiz-adv-x="606" d="M8 29v73q0 29 11.5 45t39.5 23q101 15 155 90.5t54 202.5v919q0 22 16 37t38 15h110q22 0 36.5 -15t14.5 -37v-954q0 -196 -118.5 -321t-303.5 -125q-22 0 -37.5 13t-15.5 34z" />
<glyph unicode="K" horiz-adv-x="1148" d="M125 51v1331q0 22 14.5 37t36.5 15h105q22 0 37.5 -15t15.5 -37v-600h82l458 611q33 41 84 41h138q15 0 21.5 -14.5t-3.5 -26.5l-549 -705l563 -649q5 -7 5 -15q0 -4 -2 -10q-6 -14 -23 -14h-156q-55 0 -86 39l-454 545h-78v-533q0 -22 -15.5 -36.5t-37.5 -14.5h-105 q-22 0 -36.5 14.5t-14.5 36.5z" />
<glyph unicode="L" horiz-adv-x="1009" d="M125 51v1331q0 22 14.5 37t36.5 15h111q22 0 36.5 -15t14.5 -37v-1200h602q22 0 37.5 -14.5t15.5 -36.5v-80q0 -22 -15.5 -36.5t-37.5 -14.5h-764q-22 0 -36.5 14.5t-14.5 36.5z" />
<glyph unicode="M" horiz-adv-x="1648" d="M125 51v1331q0 22 14.5 37t36.5 15h131q25 0 46.5 -13t31.5 -35l442 -792l437 792q11 22 31.5 35t45.5 13h132q22 0 36.5 -15t14.5 -37v-1331q0 -22 -14.5 -36.5t-36.5 -14.5h-109q-22 0 -36.5 14.5t-14.5 36.5l6 1047l-371 -670q-26 -47 -78 -47h-94q-24 0 -45 13 t-31 34l-370 668l6 -1045q0 -22 -14.5 -36.5t-36.5 -14.5h-109q-22 0 -36.5 14.5t-14.5 36.5z" />
<glyph unicode="N" horiz-adv-x="1290" d="M125 51v1331q0 22 14.5 37t36.5 15h137q25 0 46 -12.5t32 -32.5l567 -1035l-4 1028q0 22 15 37t37 15h108q22 0 36.5 -15t14.5 -37v-1331q0 -22 -14.5 -36.5t-36.5 -14.5h-141q-25 0 -46 12.5t-32 32.5l-563 1032l4 -1026q1 -21 -14 -36t-37 -15h-109q-22 0 -36.5 14.5 t-14.5 36.5z" />
<glyph unicode="O" horiz-adv-x="1275" d="M115 426v582q0 138 70.5 242.5t188.5 158t263 53.5q146 0 264.5 -53.5t189 -158t70.5 -242.5v-582q0 -137 -70.5 -241.5t-189 -159t-264.5 -54.5q-145 0 -263 54.5t-188.5 159t-70.5 241.5zM330 455q0 -142 86.5 -220.5t220.5 -78.5q135 0 222 78.5t87 220.5v524 q0 142 -87 220.5t-222 78.5q-134 0 -220.5 -78.5t-86.5 -220.5v-524z" />
<glyph unicode="P" horiz-adv-x="1218" d="M125 51v1331q0 22 14.5 37t36.5 15h481q218 0 345.5 -123t127.5 -332v-96q0 -208 -127.5 -331.5t-345.5 -123.5h-319v-377q0 -22 -14.5 -36.5t-36.5 -14.5h-111q-22 0 -36.5 14.5t-14.5 36.5zM338 610h319q125 0 191.5 76.5t66.5 222.5v43q0 146 -66.5 221.5t-191.5 75.5 h-319v-639z" />
<glyph unicode="Q" horiz-adv-x="1275" d="M115 426v582q0 136 70 240.5t188 159t264 54.5q147 0 265.5 -54.5t188.5 -159t70 -240.5v-582q0 -125 -60 -224t-165 -159l141 -215q9 -15 1 -30t-23 -15h-111q-53 0 -80 45l-102 156q-63 -13 -125 -13q-146 0 -264 55t-188 159.5t-70 240.5zM330 453q0 -146 88.5 -221 t236.5 -78l-110 168q-8 14 -0.5 28.5t24.5 14.5h109q55 0 80 -43l67 -105q121 74 121 236v528q0 142 -86.5 220.5t-222.5 78.5q-134 0 -220.5 -79t-86.5 -220v-528z" />
<glyph unicode="R" horiz-adv-x="1239" d="M125 51v1331q0 22 14.5 37t36.5 15h481q221 0 347 -114t126 -321v-79q0 -157 -74.5 -262t-211.5 -142l309 -471q3 -7 3 -14q0 -8 -4 -16q-8 -15 -24 -15h-149q-53 0 -80 45l-283 440h-278v-434q0 -22 -14.5 -36.5t-36.5 -14.5h-111q-22 0 -36.5 14.5t-14.5 36.5zM338 666 h319q258 0 258 278v29q0 276 -258 276h-319v-583z" />
<glyph unicode="S" horiz-adv-x="1228" d="M98 412q0 22 13 36.5t34 14.5h121q22 0 34.5 -13t12.5 -36q0 -94 87 -175t229 -81q141 0 215 65t74 178q0 106 -78 156.5t-222 63.5q-491 45 -491 397v41q0 182 121 291.5t360 109.5q98 0 180.5 -24t139.5 -65.5t97 -98t58.5 -119.5t18.5 -131q0 -22 -13.5 -36.5 t-35.5 -14.5h-117q-22 0 -34.5 13t-12.5 36q0 44 -15.5 86.5t-47 82t-88 63.5t-130.5 24q-132 0 -200 -62.5t-68 -164.5q0 -53 16 -93t42.5 -65t68 -42t83.5 -25t99 -13q75 -6 139.5 -20.5t129 -43t110 -69t74 -104t28.5 -142.5v-51q0 -189 -129 -299.5t-372 -110.5 q-123 0 -224.5 35t-167.5 95.5t-102.5 140.5t-36.5 170z" />
<glyph unicode="T" horiz-adv-x="1040" d="M12 1303v79q0 22 16 37t38 15h909q22 0 37.5 -15t15.5 -37v-79q0 -22 -15.5 -37t-37.5 -15h-348v-1200q0 -22 -15 -36.5t-37 -14.5h-110q-22 0 -36.5 14.5t-14.5 36.5v1200h-348q-22 0 -38 15t-16 37z" />
<glyph unicode="U" horiz-adv-x="1241" d="M121 426v956q0 22 14.5 37t36.5 15h111q22 0 36.5 -15t14.5 -37v-927q0 -144 76.5 -221.5t210.5 -77.5t210 77.5t76 221.5v927q0 22 14.5 37t36.5 15h111q22 0 37.5 -15t15.5 -37v-956q0 -208 -137.5 -331.5t-363.5 -123.5t-363 123.5t-137 331.5z" />
<glyph unicode="V" horiz-adv-x="1206" d="M20 1384q-3 7 -3 14q0 10 7 20q11 16 31 16h123q23 0 42.5 -14t23.5 -36l366 -1134l355 1134q6 22 25 36t42 14h119q20 0 31 -16q7 -9 7 -20q0 -7 -3 -14l-457 -1335q-7 -22 -27 -35.5t-43 -13.5h-108q-23 0 -43 13.5t-27 35.5z" />
<glyph unicode="W" horiz-adv-x="1888" d="M18 1382q-2 7 -2 13q0 12 8 23q12 16 31 16h125q22 0 41 -14.5t25 -37.5l297 -1095l276 1095q4 23 23 37.5t41 14.5h129q22 0 40.5 -14.5t22.5 -37.5l277 -1095l297 1095q6 23 24 37.5t41 14.5h119q19 0 31 -16q8 -11 8 -23q0 -6 -2 -13l-402 -1331q-8 -23 -26 -37 t-41 -14h-127q-22 0 -41 14t-23 37l-272 1067l-268 -1067q-6 -23 -24.5 -37t-41.5 -14h-119q-23 0 -41 14t-26 37z" />
<glyph unicode="X" horiz-adv-x="1159" d="M28 15q-4 7 -4 14q0 8 5 16l354 631l-350 710q-8 18 1 33t27 15h127q25 0 46 -13t30 -35l285 -606h43l309 606q9 22 30 35t46 13h125q19 0 27 -16q4 -7 4 -14q0 -9 -5 -18l-376 -708l378 -633q4 -8 4 -15.5t-4 -14.5q-8 -15 -26 -15h-139q-23 0 -44.5 12.5t-31.5 32.5 l-301 533h-41l-285 -531q-10 -21 -31 -34t-45 -13h-131q-19 0 -27 15z" />
<glyph unicode="Y" horiz-adv-x="1136" d="M27 1386q-4 8 -4 16q0 9 5 17q9 15 27 15h129q23 0 43 -13t31 -35l313 -694l316 694q9 22 29 35t45 13h122q17 0 27 -16q5 -8 5 -18q0 -7 -3 -14l-434 -897v-438q0 -22 -15.5 -36.5t-37.5 -14.5h-109q-22 0 -37.5 14.5t-15.5 36.5v434z" />
<glyph unicode="Z" horiz-adv-x="1126" d="M59 51v62q0 52 29 96l686 1042h-639q-22 0 -36.5 15t-14.5 37v79q0 22 14.5 37t36.5 15h848q22 0 36.5 -15t14.5 -37v-61q0 -54 -28 -96l-684 -1043h692q22 0 36.5 -14.5t14.5 -36.5v-80q0 -22 -14.5 -36.5t-36.5 -14.5h-901q-22 0 -38 15t-16 36z" />
<glyph unicode="[" horiz-adv-x="571" d="M139 -174v1659q0 22 14.5 36.5t36.5 14.5h273q22 0 37.5 -14.5t15.5 -36.5v-66q0 -22 -15.5 -36.5t-37.5 -14.5h-135v-1425h135q22 0 37.5 -15t15.5 -37v-65q0 -22 -15.5 -36.5t-37.5 -14.5h-273q-22 0 -36.5 14.5t-14.5 36.5z" />
<glyph unicode="\" horiz-adv-x="1007" d="M33 1487q-9 18 0.5 33.5t27.5 15.5h99q51 0 73 -49l742 -1663q9 -18 -0.5 -33.5t-28.5 -15.5h-94q-55 0 -74 49z" />
<glyph unicode="]" horiz-adv-x="571" d="M57 -109q0 22 15 37t37 15h137v1425h-137q-22 0 -37 14.5t-15 36.5v66q0 22 15 36.5t37 14.5h272q22 0 37.5 -14.5t15.5 -36.5v-1659q0 -22 -15.5 -36.5t-37.5 -14.5h-272q-22 0 -37 14.5t-15 36.5v65z" />
<glyph unicode="^" horiz-adv-x="817" d="M76 1039q-9 15 0 30l217 397q11 20 32 32.5t46 12.5h75q25 0 46 -12.5t32 -32.5l215 -397q9 -15 1 -30t-25 -15h-92q-24 0 -44.5 13t-27.5 34l-143 295l-146 -295q-9 -22 -29 -34.5t-45 -12.5h-86q-17 0 -26 15z" />
<glyph unicode="_" horiz-adv-x="1030" d="M10 -154q0 22 14.5 37t36.5 15h908q21 0 36 -15t15 -37v-41q0 -22 -15.5 -37.5t-35.5 -15.5h-908q-22 0 -36.5 15.5t-14.5 37.5v41z" />
<glyph unicode="`" horiz-adv-x="600" d="M131.5 1505.5q6.5 14.5 20.5 14.5h127q49 0 79 -45l113 -170q9 -13 2 -28t-24 -15h-80q-56 0 -86 38l-148 179q-10 12 -3.5 26.5z" />
<glyph unicode="a" horiz-adv-x="1126" d="M106 301q0 160 104.5 238.5t293.5 78.5q142 0 282 -40v184q0 125 -53.5 180t-171.5 55q-107 0 -165 -57t-58 -139q0 -43 -51 -43h-101q-22 0 -36.5 13t-14.5 36q0 66 27 129t78 115t134.5 84t186.5 32q208 0 319 -97.5t111 -283.5v-735q0 -22 -15.5 -36.5t-37.5 -14.5 h-76q-22 0 -39 14.5t-20 36.5l-6 66q-61 -63 -154.5 -100t-196.5 -37q-163 0 -251.5 83.5t-88.5 237.5zM311 307q0 -80 51 -123t138 -43q88 0 163.5 40.5t122.5 99.5v149q-127 43 -270 43q-102 0 -153.5 -43t-51.5 -123z" />
<glyph unicode="b" horiz-adv-x="1150" d="M139 51v1434q0 22 14.5 36.5t36.5 14.5h101q22 0 36.5 -14.5t14.5 -36.5v-447q132 129 299 129q381 0 381 -409v-369q0 -409 -381 -409q-87 0 -168.5 37.5t-140.5 99.5l-6 -66q-3 -22 -20.5 -36.5t-39.5 -14.5h-76q-22 0 -36.5 14.5t-14.5 36.5zM342 293 q47 -58 120 -98.5t144 -40.5q114 0 163.5 63.5t49.5 196.5v319q0 133 -49.5 196.5t-163.5 63.5q-71 0 -144 -40.5t-120 -98.5v-561z" />
<glyph unicode="c" horiz-adv-x="1138" d="M127 403v340q0 197 120 310.5t326 113.5q207 0 325 -101.5t118 -262.5q0 -23 -13.5 -37t-35.5 -14h-105q-23 0 -36 13.5t-13 35.5q0 87 -62 140.5t-178 53.5q-118 0 -180.5 -70t-62.5 -206v-291q0 -136 62.5 -206t180.5 -70t179 54t61 138q0 49 49 49h103 q22 0 36.5 -13.5t14.5 -35.5q0 -155 -119 -259.5t-324 -104.5q-206 0 -326 113t-120 310z" />
<glyph unicode="d" horiz-adv-x="1150" d="M129 389v369q0 409 381 409q84 0 164 -34t135 -91v443q0 22 14.5 36.5t36.5 14.5h101q22 0 36.5 -14.5t14.5 -36.5v-1434q0 -22 -14.5 -36.5t-36.5 -14.5h-76q-22 0 -39.5 14.5t-20.5 36.5l-4 66q-61 -62 -142.5 -99.5t-168.5 -37.5q-381 0 -381 409zM332 414 q0 -133 49.5 -196.5t163.5 -63.5q73 0 145.5 40.5t118.5 98.5v561q-47 57 -120.5 98t-143.5 41q-114 0 -163.5 -63.5t-49.5 -196.5v-319z" />
<glyph unicode="e" horiz-adv-x="1142" d="M127 403v340q0 197 120 310.5t326 113.5q207 0 327 -113t120 -311v-159q0 -21 -15 -36.5t-36 -15.5h-639v-112q0 -135 62.5 -202.5t180.5 -67.5q63 0 111.5 17.5t75 46t40 58.5t13.5 60q0 47 47 47h107q22 0 34.5 -14t12.5 -37q0 -61 -30 -122t-84 -112t-139.5 -82.5 t-187.5 -31.5q-206 0 -326 113t-120 310zM330 682l487 2v41q0 133 -62.5 202.5t-181.5 69.5q-118 0 -180.5 -69.5t-62.5 -204.5v-41z" />
<glyph unicode="f" horiz-adv-x="737" d="M10 1034v62q0 22 14.5 36.5t36.5 14.5h78v35q0 185 108 279.5t306 94.5q58 0 123 -10q20 -3 35.5 -21t15.5 -38v-66q0 -22 -14.5 -34t-36.5 -9q-49 8 -113 8q-219 0 -219 -204v-35h283q22 0 37.5 -14.5t15.5 -36.5v-62q0 -22 -15.5 -36.5t-37.5 -14.5h-283v-932 q0 -22 -15.5 -36.5t-37.5 -14.5h-98q-22 0 -38 15t-16 36v932h-78q-22 0 -36.5 14.5t-14.5 36.5z" />
<glyph unicode="g" horiz-adv-x="1026" d="M59 -10q0 90 41.5 157t116.5 103q-31 51 -31 112q0 77 47 142q-53 35 -84.5 94.5t-31.5 122.5v131q0 133 107.5 224t281.5 91q139 0 235 -59q62 47 62 139v15q0 38 41 38h92q44 0 47 -40q4 -12 4 -39q0 -143 -125 -228q35 -62 35 -141v-131q0 -124 -105.5 -211.5 t-277.5 -87.5q-64 0 -113 12q-30 -27 -30 -74q0 -40 28 -75q40 4 70 4h158q171 0 267.5 -77.5t96.5 -221.5q0 -156 -100.5 -237t-280.5 -81h-168q-182 0 -282.5 81t-100.5 237zM258 -16q0 -81 50 -117.5t153 -36.5h129q102 0 150 36.5t48 117.5t-47.5 116t-150.5 35h-129 q-104 0 -153.5 -35.5t-49.5 -115.5zM315 745q0 -75 52 -121t139 -46q89 0 140.5 45.5t51.5 121.5v95q0 76 -51.5 121t-140.5 45q-87 0 -139 -45.5t-52 -120.5v-95z" />
<glyph unicode="h" horiz-adv-x="1144" d="M139 51v1434q0 22 14.5 36.5t36.5 14.5h101q22 0 36.5 -14.5t14.5 -36.5v-447q129 129 293 129q194 0 284.5 -96.5t90.5 -290.5v-729q0 -22 -15 -36.5t-37 -14.5h-100q-22 0 -36.5 14.5t-14.5 36.5v703q0 127 -46.5 183t-160.5 56q-71 0 -140.5 -40t-117.5 -99v-803 q0 -22 -14.5 -36.5t-36.5 -14.5h-101q-22 0 -36.5 14.5t-14.5 36.5z" />
<glyph unicode="i" horiz-adv-x="481" d="M115 1411q0 64 32 94.5t89 30.5q126 0 126 -125q0 -119 -126 -119q-57 0 -89 29t-32 90zM139 51v1045q0 22 14.5 36.5t36.5 14.5h101q22 0 36.5 -14.5t14.5 -36.5v-1045q0 -22 -14.5 -36.5t-36.5 -14.5h-101q-22 0 -36.5 14.5t-14.5 36.5z" />
<glyph unicode="j" horiz-adv-x="495" d="M-78 -227q0 52 53 67q94 13 136.5 75.5t42.5 180.5v1000q0 22 14.5 36.5t36.5 14.5h100q22 0 36.5 -14.5t14.5 -36.5v-1028q0 -188 -110 -291t-271 -103q-21 0 -37 13t-16 34v52zM129 1417q0 64 32 94.5t89 30.5q127 0 127 -125q0 -119 -127 -119q-57 0 -89 29t-32 90z " />
<glyph unicode="k" horiz-adv-x="1042" d="M139 51v1434q0 22 14.5 36.5t36.5 14.5h101q22 0 36.5 -14.5t14.5 -36.5v-836h80l344 457q33 41 84 41h133q17 0 23.5 -14.5t-2.5 -26.5l-426 -543l446 -524q7 -7 7 -15q0 -5 -2 -10q-6 -14 -23 -14h-140q-55 0 -86 39l-358 428h-80v-416q0 -22 -14.5 -36.5t-36.5 -14.5 h-101q-22 0 -36.5 14.5t-14.5 36.5z" />
<glyph unicode="l" horiz-adv-x="481" d="M139 51v1434q0 22 14.5 36.5t36.5 14.5h101q22 0 36.5 -14.5t14.5 -36.5v-1434q0 -22 -14.5 -36.5t-36.5 -14.5h-101q-22 0 -36.5 14.5t-14.5 36.5z" />
<glyph unicode="m" horiz-adv-x="1714" d="M139 51v1045q0 22 14.5 36.5t36.5 14.5h76q23 0 40 -14.5t20 -36.5l6 -66q134 137 284 137q228 0 308 -161q140 161 307 161q189 0 268.5 -94.5t79.5 -292.5v-729q0 -22 -14.5 -36.5t-36.5 -14.5h-101q-22 0 -36.5 14.5t-14.5 36.5v703q0 132 -36.5 185.5t-145.5 53.5 q-126 0 -236 -131q9 -74 9 -102v-709q0 -21 -16 -36t-38 -15h-98q-22 0 -36.5 14.5t-14.5 36.5v688q0 134 -37 194t-145 60q-134 0 -240 -139v-803q0 -22 -14.5 -36.5t-36.5 -14.5h-101q-22 0 -36.5 14.5t-14.5 36.5z" />
<glyph unicode="n" horiz-adv-x="1140" d="M139 51v1045q0 22 14.5 36.5t36.5 14.5h76q23 0 40 -14.5t20 -36.5l6 -66q134 137 301 137q192 0 282.5 -96.5t90.5 -290.5v-729q0 -22 -15 -36.5t-37 -14.5h-100q-22 0 -36.5 14.5t-14.5 36.5v703q0 127 -46 183t-159 56q-72 0 -139.5 -40t-116.5 -99v-803 q0 -22 -14.5 -36.5t-36.5 -14.5h-101q-22 0 -36.5 14.5t-14.5 36.5z" />
<glyph unicode="o" d="M127 403v340q0 197 120 310.5t326 113.5q207 0 327 -113t120 -311v-340q0 -197 -119.5 -310t-327.5 -113q-206 0 -326 113t-120 310zM330 428q0 -136 62.5 -207t180.5 -71q119 0 181.5 71t62.5 207v291q0 136 -62.5 207t-181.5 71q-118 0 -180.5 -71t-62.5 -207v-291z " />
<glyph unicode="p" horiz-adv-x="1150" d="M139 -256v1352q0 22 14.5 36.5t36.5 14.5h76q22 0 39.5 -14.5t20.5 -36.5l6 -66q59 62 140.5 99.5t168.5 37.5q381 0 381 -409v-369q0 -409 -381 -409q-174 0 -299 122v-358q0 -22 -14.5 -36.5t-36.5 -14.5h-101q-22 0 -36.5 14.5t-14.5 36.5zM342 293q47 -58 120 -98.5 t144 -40.5q114 0 163.5 63.5t49.5 196.5v319q0 133 -49.5 196.5t-163.5 63.5q-71 0 -144 -40.5t-120 -98.5v-561z" />
<glyph unicode="q" horiz-adv-x="1150" d="M129 389v369q0 409 381 409q87 0 168.5 -37.5t142.5 -99.5l6 66q3 22 20.5 36.5t39.5 14.5h74q22 0 36.5 -14.5t14.5 -36.5v-1352q0 -22 -14.5 -36.5t-36.5 -14.5h-101q-22 0 -36.5 14.5t-14.5 36.5v365q-132 -129 -299 -129q-381 0 -381 409zM332 414 q0 -133 49.5 -196.5t163.5 -63.5q73 0 145.5 40.5t118.5 98.5v561q-46 58 -118.5 98.5t-145.5 40.5q-114 0 -163.5 -63.5t-49.5 -196.5v-319z" />
<glyph unicode="r" horiz-adv-x="681" d="M139 51v1045q0 22 14.5 36.5t36.5 14.5h74q22 0 39.5 -14.5t20.5 -36.5l8 -88q40 67 123 112t145 45q22 0 34.5 -11t12.5 -30v-96q0 -20 -12.5 -31.5t-32.5 -11.5q-68 0 -144 -44t-116 -112v-778q0 -22 -14.5 -36.5t-36.5 -14.5h-101q-22 0 -36.5 14.5t-14.5 36.5z" />
<glyph unicode="s" horiz-adv-x="1064" d="M94 311q0 22 13.5 35.5t35.5 13.5h101q22 0 35.5 -12.5t13.5 -34.5q0 -65 68 -119.5t184 -54.5q111 0 168 49.5t57 130.5q0 44 -19 75t-59 51t-84.5 31.5t-113.5 21.5q-81 11 -143.5 31t-118.5 55t-86.5 93.5t-30.5 137.5v33q0 147 105.5 236.5t305.5 89.5 q102 0 183.5 -29.5t131 -78t75.5 -107t26 -121.5q0 -22 -13 -36t-34 -14h-96q-22 0 -36.5 13.5t-14.5 34.5q0 66 -55 119t-167 53q-106 0 -157.5 -47.5t-51.5 -126.5q0 -86 64.5 -124t198.5 -57q66 -10 116.5 -22t104.5 -35t89 -54.5t58 -81.5t23 -114v-41q0 -144 -113 -238 t-313 -94q-204 0 -327.5 98.5t-123.5 239.5z" />
<glyph unicode="t" horiz-adv-x="735" d="M20 1034v62q0 21 16 36t38 15h73l19 235q2 22 17.5 37t37.5 15h74q22 0 36.5 -15t14.5 -37v-235h279q22 0 37.5 -14.5t15.5 -36.5v-62q0 -22 -15.5 -36.5t-37.5 -14.5h-279v-604q0 -122 51 -180t158 -58q51 0 107 9q21 3 35 -8.5t14 -32.5v-62q0 -20 -16 -38t-38 -21 q-77 -15 -122 -15q-392 0 -392 394v616h-69q-22 0 -38 15t-16 36z" />
<glyph unicode="u" horiz-adv-x="1132" d="M135 367v729q0 22 14.5 36.5t36.5 14.5h101q22 0 36.5 -14.5t14.5 -36.5v-703q0 -130 39.5 -184.5t152.5 -54.5q72 0 142.5 40t118.5 99v803q0 22 14.5 36.5t36.5 14.5h100q22 0 36.5 -14.5t14.5 -36.5v-1045q0 -22 -14.5 -36.5t-36.5 -14.5h-78q-22 0 -39 14.5t-18 36.5 l-6 66q-62 -63 -142.5 -100t-166.5 -37q-194 0 -275.5 95t-81.5 292z" />
<glyph unicode="v" horiz-adv-x="1009" d="M20 1098q-3 7 -3 14q0 11 7 20q11 15 31 15h115q23 0 41.5 -13.5t24.5 -35.5l272 -862l270 862q6 22 25.5 35.5t42.5 13.5h108q20 0 30 -15q7 -10 7 -21q0 -6 -2 -13l-368 -1049q-6 -22 -25.5 -35.5t-42.5 -13.5h-96q-23 0 -43 13.5t-27 35.5z" />
<glyph unicode="w" horiz-adv-x="1603" d="M18 1098q-2 7 -2 13q0 12 8 21q12 15 31 15h113q22 0 40.5 -14t24.5 -37l232 -856l217 856q4 23 22.5 37t40.5 14h113q22 0 41 -14t23 -37l223 -856l231 856q6 23 24 37t40 14h110q19 0 30 -15q7 -10 7 -21q0 -6 -2 -13l-325 -1049q-6 -22 -25.5 -35.5t-42.5 -13.5h-113 q-22 0 -40.5 14t-22.5 37l-219 826l-213 -826q-4 -23 -23 -37t-41 -14h-112q-23 0 -41.5 13.5t-26.5 35.5z" />
<glyph unicode="x" horiz-adv-x="1044" d="M36 15q-3 7 -4 13q0 8 5 15l307 512l-301 547q-9 15 -0.5 30t27.5 15h123q25 0 45.5 -12.5t29.5 -34.5l230 -443h41l233 443q10 21 31 34t45 13h121q17 0 24.5 -15t-0.5 -30l-309 -543l324 -516q5 -7 5 -15q1 -6 -3 -13q-8 -15 -25 -15h-133q-51 0 -78 45l-242 416h-40 l-232 -414q-26 -47 -78 -47h-121q-17 0 -25 15z" />
<glyph unicode="y" horiz-adv-x="1009" d="M20 1098q-2 7 -2 13q0 11 6 21q11 15 31 15h115q23 0 41.5 -13.5t24.5 -35.5l272 -862l270 862q6 22 25.5 35.5t42.5 13.5h108q20 0 30 -15q7 -10 7 -21q0 -6 -2 -13l-391 -1118q-50 -141 -156.5 -221.5t-251.5 -84.5q-20 0 -36.5 16t-16.5 36v57q0 51 53 57 q159 13 211 174z" />
<glyph unicode="z" horiz-adv-x="958" d="M66 51v47q0 50 28 97l527 784h-492q-22 0 -36.5 15.5t-14.5 37.5v64q0 22 14.5 36.5t36.5 14.5h696q22 0 37 -14.5t15 -36.5v-47q0 -53 -29 -97l-526 -784h528q22 0 36.5 -15.5t14.5 -37.5v-64q0 -22 -14.5 -36.5t-36.5 -14.5h-731q-22 0 -37.5 14.5t-15.5 36.5z" />
<glyph unicode="{" horiz-adv-x="718" d="M70 608v94q0 19 12.5 32.5t30.5 13.5h26q72 0 116 54t44 156v283q0 155 75 225t228 70q23 0 37 -13.5t14 -35.5v-68q0 -22 -13.5 -36.5t-35.5 -14.5q-62 0 -85 -36.5t-23 -112.5v-273q0 -104 -39 -179.5t-115 -111.5q75 -35 114.5 -111t39.5 -179v-273q0 -76 23 -112.5 t85 -36.5q21 0 35 -15t14 -37v-67q0 -22 -14 -35.5t-37 -13.5q-153 0 -228 70t-75 225v282q0 102 -44 156.5t-116 54.5h-26q-19 0 -31 13t-12 32z" />
<glyph unicode="|" horiz-adv-x="458" d="M139 -297v1823q0 21 16 36t38 15h73q22 0 36.5 -14.5t14.5 -36.5v-1823q0 -22 -14.5 -36.5t-36.5 -14.5h-73q-22 0 -38 15t-16 36z" />
<glyph unicode="}" horiz-adv-x="718" d="M68 -109q0 22 13 37t34 15q63 0 86.5 36.5t23.5 112.5v273q0 103 39 179t113 111q-152 73 -152 291v273q0 76 -23.5 112.5t-86.5 36.5q-21 0 -34 14.5t-13 36.5v68q0 22 13.5 35.5t35.5 13.5q153 0 228 -70t75 -225v-283q0 -102 45 -156t117 -54h24q18 0 30.5 -13.5 t12.5 -32.5v-94q0 -19 -12 -32t-31 -13h-24q-72 0 -117 -54.5t-45 -156.5v-282q0 -155 -75 -225t-228 -70q-22 0 -35.5 13.5t-13.5 35.5v67z" />
<glyph unicode="~" horiz-adv-x="1222" d="M111 602q16 93 92.5 159t191.5 66q56 0 121 -21t114 -45.5t104.5 -45.5t94.5 -21q75 0 113 74q26 45 74 45h55q20 0 32 -13.5t9 -31.5q-13 -98 -88 -162.5t-197 -64.5q-56 0 -119 21t-109 46.5t-102.5 46.5t-101.5 21q-74 0 -114 -74q-26 -45 -74 -45h-55 q-18 0 -30.5 13.5t-10.5 31.5z" />
<glyph unicode="&#xa1;" horiz-adv-x="505" d="M141 1339q0 56 30 85.5t79 29.5q53 0 84 -29t31 -86q0 -54 -31 -81t-84 -27q-49 0 -79 27.5t-30 80.5zM152 51v305l18 668q0 21 15 36t36 15h62q22 0 37.5 -14.5t15.5 -36.5l18 -668v-305q0 -22 -14.5 -36.5t-36.5 -14.5h-100q-22 0 -36.5 14.5t-14.5 36.5z" />
<glyph unicode="&#xa2;" horiz-adv-x="1142" d="M135 592v250q0 184 102.5 294.5t284.5 125.5v127q0 20 11.5 32.5t31.5 12.5h37q20 0 32.5 -12.5t12.5 -32.5v-125q177 -15 277 -114t100 -243q0 -23 -12.5 -37t-34.5 -14h-100q-48 0 -48 49q0 70 -47.5 121.5t-134.5 63.5v-748q88 13 135 65t47 121q0 47 48 47h98 q22 0 35.5 -13.5t13.5 -35.5q0 -140 -100.5 -239.5t-276.5 -116.5v-125q0 -20 -12.5 -32.5t-32.5 -12.5h-37q-20 0 -31.5 12.5t-11.5 32.5v125q-182 15 -284.5 126.5t-102.5 295.5zM332 614q0 -237 190 -272v748q-190 -30 -190 -271v-205z" />
<glyph unicode="&#xa3;" horiz-adv-x="1167" d="M68 51v39q0 57 43 92q58 47 91.5 115t33.5 145v179h-115q-22 0 -37.5 14.5t-15.5 36.5v71q0 22 15.5 37t37.5 15h115v217q0 212 107 331t321 119q212 0 315.5 -108.5t103.5 -302.5q0 -22 -13 -37t-34 -15h-114q-22 0 -35 13.5t-13 36.5q0 111 -47.5 171t-162.5 60 q-119 0 -168.5 -72t-49.5 -221v-192h242q22 0 36.5 -15t14.5 -37v-71q0 -22 -14.5 -36.5t-36.5 -14.5h-242v-148q0 -172 -104 -293h707q22 0 36.5 -14.5t14.5 -36.5v-78q0 -22 -14.5 -36.5t-36.5 -14.5h-928q-22 0 -37.5 14.5t-15.5 36.5z" />
<glyph unicode="&#xa4;" horiz-adv-x="1232" d="M119.5 1088.5q0.5 22.5 15.5 37.5l55 56q14 14 36.5 14t37.5 -14l105 -107q101 66 247 66q147 0 248 -66l105 107q15 14 37 14t36 -14l56 -56q15 -15 15 -37.5t-15 -35.5l-109 -111q45 -85 45 -197v-90q0 -108 -45 -200l109 -109q15 -14 15 -36.5t-15 -37.5l-56 -55 q-14 -13 -36 -13t-37 13l-105 107q-97 -66 -248 -66q-148 0 -249 66l-103 -105q-13 -15 -36 -15.5t-38 13.5l-55 55q-15 15 -15 37.5t15 36.5l109 109q-45 85 -45 200v90q0 112 45 197l-111 109q-14 15 -13.5 37.5zM377 674q0 -125 64 -190.5t175 -65.5q113 0 176.5 65.5 t63.5 190.5v51q0 125 -63.5 190.5t-176.5 65.5q-111 0 -175 -65.5t-64 -190.5v-51z" />
<glyph unicode="&#xa5;" horiz-adv-x="1140" d="M35 1386q-9 17 0 32.5t26 15.5h136q25 0 45.5 -13t31.5 -35l301 -575l302 575q11 22 31.5 35t45.5 13h125q18 0 27 -15.5t0 -32.5l-393 -718h301q22 0 37.5 -16t15.5 -38v-57q0 -22 -15.5 -37.5t-37.5 -15.5h-334v-150h334q22 0 37.5 -14.5t15.5 -36.5v-59 q0 -22 -15.5 -36.5t-37.5 -14.5h-334v-142q0 -22 -14.5 -36.5t-36.5 -14.5h-109q-22 0 -36.5 14.5t-14.5 36.5v142h-336q-22 0 -36.5 14.5t-14.5 36.5v59q0 22 14.5 36.5t36.5 14.5h336v150h-336q-22 0 -36.5 15.5t-14.5 37.5v57q0 22 15 38t36 16h299z" />
<glyph unicode="&#xa6;" horiz-adv-x="458" d="M139 -297v606q0 21 16 36t38 15h73q22 0 36.5 -14.5t14.5 -36.5v-606q0 -22 -14.5 -36.5t-36.5 -14.5h-73q-22 0 -38 15t-16 36zM139 918v608q0 21 16 36t38 15h73q22 0 36.5 -14.5t14.5 -36.5v-608q0 -22 -15 -38t-36 -16h-73q-22 0 -38 16t-16 38z" />
<glyph unicode="&#xa7;" horiz-adv-x="1083" d="M102 637q0 81 42.5 152.5t111.5 113.5q-125 79 -125 217v29q0 141 100.5 227t294.5 86q98 0 175.5 -28.5t124 -76.5t70.5 -106t24 -121q0 -20 -13 -33.5t-33 -13.5h-100q-22 0 -35.5 12t-13.5 33q0 73 -49 121.5t-150 48.5t-143.5 -41t-42.5 -118q0 -33 13.5 -59.5 t34.5 -44.5t55 -32.5t67 -23.5t78 -18q62 -12 110.5 -25.5t104.5 -39t92.5 -58t61 -83.5t24.5 -114v-27q0 -63 -51 -133.5t-117 -111.5q65 -35 103 -92.5t38 -131.5v-28q0 -138 -114 -229t-308 -91q-196 0 -307.5 97t-111.5 237q0 22 12.5 34.5t32.5 12.5h106q22 0 35.5 -12 t13.5 -33q0 -69 56 -120.5t163 -51.5q105 0 159 46.5t54 123.5q0 71 -61.5 108t-179.5 60q-66 12 -117.5 27t-107.5 42t-92.5 61.5t-60.5 88t-24 119.5zM313 645q0 -36 15.5 -64t39 -46.5t70.5 -35.5t90 -28t117 -27q55 30 91 78t36 96q0 39 -19 69.5t-47 48.5t-69 32 t-76.5 21t-78 16t-64.5 16q-44 -25 -74.5 -70t-30.5 -94v-12z" />
<glyph unicode="&#xa8;" horiz-adv-x="872" d="M86 1374q0 62 29.5 95.5t83.5 33.5q57 0 86.5 -33.5t29.5 -95.5q0 -59 -29.5 -91t-86.5 -32q-54 0 -83.5 32t-29.5 91zM557 1374q0 62 29.5 95.5t83.5 33.5q57 0 86.5 -33.5t29.5 -95.5q0 -59 -29.5 -91t-86.5 -32q-54 0 -83.5 32t-29.5 91z" />
<glyph unicode="&#xa9;" horiz-adv-x="1462" d="M115 420v588q0 136 86.5 239t225.5 155t304 52t304 -52t226 -155t87 -239v-588q0 -137 -87 -241t-226 -156t-304 -52q-123 0 -234 31t-196 87t-135.5 142t-50.5 189zM268 428q0 -99 69.5 -171.5t172.5 -106t221 -33.5q119 0 222 33.5t172 106t69 171.5v571q0 98 -69 171 t-172.5 107t-221.5 34q-87 0 -168.5 -20.5t-148 -58.5t-106.5 -98.5t-40 -134.5v-571zM428 565q0 -130 84 -207t221 -77q135 0 218 70.5t83 180.5v33q0 17 -11 28t-28 11h-77q-37 0 -37 -39v-18q0 -56 -40.5 -89.5t-105.5 -33.5q-69 0 -109 39.5t-40 111.5v277 q0 73 40.5 112.5t106.5 39.5q67 0 107.5 -32.5t40.5 -90.5v-7q0 -17 10 -27.5t27 -10.5h77q17 0 28 11t11 30v20q0 109 -83 179.5t-218 70.5q-137 0 -221 -77.5t-84 -205.5v-299z" />
<glyph unicode="&#xaa;" horiz-adv-x="843" d="M104 848q0 229 304 229q74 0 180 -24v100q0 176 -156 176q-74 0 -113.5 -39.5t-39.5 -99.5q0 -35 -37 -35h-78q-16 0 -27.5 10.5t-11.5 28.5q0 111 81 187.5t226 76.5q148 0 227.5 -76t79.5 -213v-501q0 -22 -12.5 -34.5t-34.5 -12.5h-49q-19 0 -33 12.5t-14 30.5v24 q-99 -82 -229 -82q-125 0 -194 62t-69 180zM258 848q0 -54 34.5 -83.5t94.5 -29.5q58 0 112 26t89 64v109q-90 22 -189 22q-141 0 -141 -108z" />
<glyph unicode="&#xab;" horiz-adv-x="1021" d="M102 557v31q0 45 37 88l318 309q11 9 24 3.5t13 -19.5v-131q0 -57 -39 -88l-187 -179l187 -178q39 -31 39 -86v-131q0 -15 -13 -20.5t-24 4.5l-318 309q-37 37 -37 88zM528 557v31q0 51 37 88l318 309q9 9 23 3t14 -19v-131q0 -23 -11 -48t-28 -40l-189 -179l189 -178 q39 -34 39 -86v-131q0 -15 -14 -21t-23 5l-318 309q-37 32 -37 88z" />
<glyph unicode="&#xac;" horiz-adv-x="1343" d="M117 778v74q0 22 15.5 37.5t37.5 15.5h1004q22 0 36.5 -15.5t14.5 -37.5v-385q0 -22 -14.5 -36.5t-36.5 -14.5h-95q-22 0 -36.5 14.5t-14.5 36.5v260h-858q-22 0 -37.5 14.5t-15.5 36.5z" />
<glyph unicode="&#xad;" horiz-adv-x="808" d="M119 582v73q0 22 15 38t36 16h504q21 0 36 -16t15 -38v-73q0 -22 -14.5 -37t-36.5 -15h-504q-22 0 -36.5 15t-14.5 37z" />
<glyph unicode="&#xae;" horiz-adv-x="1462" d="M115 420v588q0 136 86.5 239t225.5 155t304 52t304 -52t226 -155t87 -239v-588q0 -137 -87 -241t-226 -156t-304 -52q-123 0 -234 31t-196 87t-135.5 142t-50.5 189zM268 428q0 -99 69.5 -171.5t172.5 -106t221 -33.5q119 0 222 33.5t172 106t69 171.5v571q0 98 -69 171 t-172.5 107t-221.5 34q-87 0 -168.5 -20.5t-148 -58.5t-106.5 -98.5t-40 -134.5v-571zM436 350v729q0 22 14.5 36.5t36.5 14.5h271q136 0 213.5 -63.5t77.5 -185.5v-47q0 -85 -43 -145t-119 -85l170 -262q9 -14 0.5 -29.5t-25.5 -15.5h-80q-24 0 -46 12.5t-32 32.5l-151 242 h-129v-234q0 -22 -15.5 -37.5t-37.5 -15.5h-54q-22 0 -36.5 15.5t-14.5 37.5zM594 715h151q73 0 109.5 33t36.5 110q0 76 -36 107.5t-110 31.5h-151v-282z" />
<glyph unicode="&#xaf;" horiz-adv-x="806" d="M100 1327v76q0 22 15 36.5t37 14.5h503q22 0 37 -14.5t15 -36.5v-76q0 -22 -15 -36.5t-37 -14.5h-503q-22 0 -37 14.5t-15 36.5z" />
<glyph unicode="&#xb0;" horiz-adv-x="735" d="M90 1165v33q0 120 74.5 193t197.5 73q130 0 206.5 -72.5t76.5 -193.5v-33q0 -126 -75.5 -196t-207.5 -70q-125 0 -198.5 70t-73.5 196zM229 1178q0 -75 33 -115.5t98 -40.5q146 0 146 156q0 159 -146 159q-131 0 -131 -159z" />
<glyph unicode="&#xb1;" horiz-adv-x="1230" d="M117 115v65q0 22 15.5 37.5t37.5 15.5h893q22 0 36.5 -15.5t14.5 -37.5v-65q0 -22 -14.5 -37t-36.5 -15h-893q-22 0 -37.5 15t-15.5 37zM117 707v67q0 22 15.5 37.5t37.5 15.5h354v269q0 22 14.5 36.5t36.5 14.5h80q22 0 37 -14.5t15 -36.5v-269h356q22 0 36.5 -15.5 t14.5 -37.5v-67q0 -22 -14.5 -37t-36.5 -15h-356v-268q0 -22 -15 -37.5t-37 -15.5h-80q-22 0 -36.5 15.5t-14.5 37.5v268h-354q-22 0 -37.5 15t-15.5 37z" />
<glyph unicode="&#xb2;" horiz-adv-x="874" d="M104 535v16q0 41 33 74l361 389q90 100 90 170q0 57 -38.5 94t-111.5 37q-76 0 -119 -49.5t-43 -112.5q0 -35 -36 -35h-84q-16 0 -27.5 10.5t-11.5 28.5q0 58 20 110.5t58 95t101 68t142 25.5q155 0 236.5 -74t81.5 -196q0 -133 -150 -287l-252 -268h365q22 0 36.5 -14.5 t14.5 -36.5v-39q0 -21 -15 -36.5t-36 -15.5h-567q-20 0 -34 13.5t-14 32.5z" />
<glyph unicode="&#xb3;" horiz-adv-x="856" d="M104 766q0 17 11 27t28 10h86q39 0 39 -35q0 -63 40.5 -109.5t113.5 -46.5q75 0 115.5 38t40.5 106v24q0 70 -26.5 111t-72.5 41h-106q-20 0 -33.5 12.5t-13.5 32.5v33q0 19 13.5 32t33.5 13h104q45 0 68.5 44t23.5 91q0 56 -36.5 92.5t-106.5 36.5q-68 0 -107.5 -42 t-39.5 -103q0 -35 -37 -35h-84q-16 0 -27.5 10t-11.5 27q0 54 19 103t55.5 89t97 64t137.5 24q147 0 227 -72.5t80 -189.5q0 -55 -23 -107t-65 -88q45 -28 75 -87t30 -119v-39q0 -128 -87 -205.5t-243 -77.5q-154 0 -236 85.5t-82 209.5z" />
<glyph unicode="&#xb4;" horiz-adv-x="600" d="M127.5 1277q-7.5 15 1.5 28l113 170q30 45 80 45h127q14 0 20 -14.5t-4 -26.5l-148 -179q-30 -38 -86 -38h-79q-17 0 -24.5 15z" />
<glyph unicode="&#xb5;" d="M139 -256v1352q0 22 14.5 36.5t36.5 14.5h101q22 0 36.5 -14.5t14.5 -36.5v-717q3 -119 47.5 -172t153.5 -53q72 0 143 40.5t117 98.5v803q0 22 15.5 36.5t37.5 14.5h98q22 0 38 -15t16 -36v-1045q0 -21 -16 -36t-38 -15h-80q-22 0 -38 14.5t-17 36.5l-4 66 q-63 -64 -142 -100.5t-161 -36.5q-116 0 -178 53v-289q1 -21 -14 -36t-37 -15h-93q-22 0 -36.5 14.5t-14.5 36.5z" />
<glyph unicode="&#xb6;" horiz-adv-x="1198" d="M131 967v55q0 198 116.5 305t334.5 107h426q22 0 36.5 -15t14.5 -37v-1556q0 -22 -14.5 -36.5t-36.5 -14.5h-33q-22 0 -36.5 14.5t-14.5 36.5v1458h-158v-1458q0 -22 -14.5 -36.5t-36.5 -14.5h-33q-22 0 -37.5 14.5t-15.5 36.5v729h-62q-205 0 -320.5 107t-115.5 305z " />
<glyph unicode="&#xb7;" horiz-adv-x="411" d="M82 643q0 64 32.5 96.5t88.5 32.5q59 0 93 -32.5t34 -96.5q0 -61 -34 -92t-93 -31q-56 0 -88.5 31t-32.5 92z" />
<glyph unicode="&#xb8;" horiz-adv-x="544" d="M100 -276q0 30 35 30h41q41 0 66.5 14.5t25.5 41.5q0 44 -75 57q-21 3 -29 17.5t0 33.5l24 59q9 23 35 23h88q14 0 19 -8.5t2 -20.5l-17 -43q58 -6 93.5 -37t35.5 -88q0 -40 -19.5 -68.5t-53 -43t-69.5 -21t-77 -6.5q-55 0 -82 2q-43 6 -43 35v23z" />
<glyph unicode="&#xb9;" horiz-adv-x="499" d="M70 1352v34q0 22 14.5 37t36.5 15h223q22 0 36.5 -15t14.5 -37v-845q0 -21 -15 -36.5t-36 -15.5h-59q-22 0 -38 16t-16 36v757h-110q-21 0 -36 16t-15 38z" />
<glyph unicode="&#xba;" horiz-adv-x="849" d="M104 911v242q0 141 86.5 223t235.5 82q148 0 233.5 -82t85.5 -223v-242q0 -141 -85.5 -223t-233.5 -82q-149 0 -235.5 82t-86.5 223zM258 928q0 -94 43 -142.5t125 -48.5t125 48.5t43 142.5v207q0 95 -43 144.5t-125 49.5t-125 -49.5t-43 -144.5v-207z" />
<glyph unicode="&#xbb;" horiz-adv-x="1021" d="M102 176v131q0 52 39 86l187 178l-187 179q-17 15 -28 40t-11 48v131q0 13 14 19t23 -3l318 -309q37 -37 37 -88v-31q0 -56 -37 -88l-318 -309q-9 -11 -23 -5t-14 21zM528 176v131q0 55 39 86l187 178l-187 179q-39 31 -39 88v131q0 14 13 19.5t24 -3.5l318 -309 q37 -43 37 -88v-31q0 -51 -37 -88l-318 -309q-11 -10 -24 -4.5t-13 20.5z" />
<glyph unicode="&#xbc;" horiz-adv-x="1691" d="M104 1348v34q0 22 16 38t38 16h223q20 0 35.5 -16t15.5 -38v-843q0 -21 -15 -36.5t-36 -15.5h-62q-22 0 -36.5 15t-14.5 37v757h-110q-22 0 -38 15t-16 37zM243 15q-8 15 1 28l905 1348q29 43 80 43h110q15 0 23.5 -15t-0.5 -28l-909 -1348q-29 -43 -80 -43h-107 q-15 0 -23 15zM838 225v4q0 47 18 88l287 584q9 21 29.5 34t44.5 13h69q18 0 27.5 -14.5t3.5 -32.5l-277 -584h275v289q0 22 14.5 37.5t36.5 15.5h59q22 0 38 -15.5t16 -37.5v-289h47q19 0 31 -12t12 -31v-53q0 -19 -12 -31t-31 -12h-47v-127q0 -21 -16 -36t-38 -15h-59 q-22 0 -36.5 14.5t-14.5 36.5v127h-432q-19 0 -32 13.5t-13 33.5z" />
<glyph unicode="&#xbd;" horiz-adv-x="1796" d="M104 1352v34q0 22 16 37t38 15h223q21 0 36 -15t15 -37v-845q0 -20 -15.5 -36t-35.5 -16h-62q-21 0 -36 15.5t-15 36.5v757h-110q-22 0 -38 16t-16 38zM221.5 15q-8.5 15 1.5 28l905 1348q12 20 34 31.5t46 11.5h111q17 0 25 -15t-1 -28l-909 -1348q-29 -43 -82 -43h-106 q-16 0 -24.5 15zM1006 45v16q0 41 30 74l361 389q92 98 92 170q0 57 -39 94t-111 37q-76 0 -118.5 -49t-42.5 -112q0 -35 -37 -35h-84q-17 0 -28 10t-11 27q0 58 20 111t58 96t101 68.5t142 25.5q154 0 236 -74.5t82 -196.5q0 -130 -150 -288l-254 -267h365q22 0 37.5 -15.5 t15.5 -37.5v-37q0 -22 -15.5 -36.5t-37.5 -14.5h-565q-20 0 -33.5 12.5t-13.5 32.5z" />
<glyph unicode="&#xbe;" horiz-adv-x="1916" d="M121 766q0 17 11 27t28 10h88q37 0 37 -35q0 -62 41 -109t114 -47t114.5 38t41.5 106v24q0 70 -27 111t-73 41h-107q-20 0 -33.5 12.5t-13.5 32.5v33q0 19 13.5 32t33.5 13h105q45 0 69.5 44t24.5 91q0 56 -37.5 92.5t-106.5 36.5t-108 -41.5t-39 -103.5q0 -35 -39 -35 h-84q-16 0 -27.5 10t-11.5 27q0 54 19 103t55.5 89t97.5 64t139 24q146 0 226 -72.5t80 -189.5q0 -55 -23 -107t-65 -88q46 -28 76 -87t30 -119v-39q0 -128 -88 -205.5t-242 -77.5q-155 0 -237 85t-82 210zM468.5 15q-8.5 15 0.5 28l905 1348q29 43 82 43h109q17 0 25 -15 t-1 -28l-909 -1348q-29 -43 -82 -43h-104q-17 0 -25.5 15zM1063 225v4q0 47 18 88l287 584q9 21 29.5 34t44.5 13h69q19 0 28.5 -15t2.5 -32l-276 -584h274v289q0 22 14.5 37.5t36.5 15.5h62q22 0 36.5 -15.5t14.5 -37.5v-289h47q19 0 31 -12t12 -31v-53q0 -19 -12 -31 t-31 -12h-47v-127q0 -22 -14.5 -36.5t-36.5 -14.5h-62q-22 0 -36.5 14.5t-14.5 36.5v127h-430q-20 0 -33.5 13.5t-13.5 33.5z" />
<glyph unicode="&#xbf;" horiz-adv-x="1050" d="M102 315v33q0 65 14.5 119.5t45 101t60.5 80.5t79 80q92 88 131 154.5t39 150.5v19q0 17 11 28t26 11h129q17 0 28 -12t11 -29v-33q0 -33 -3 -63t-5.5 -53t-13 -48t-14.5 -39.5t-21.5 -38t-22.5 -32t-29.5 -33l-30 -30t-36 -34.5t-37.5 -35q-74 -70 -109 -133.5 t-35 -150.5q0 -83 54.5 -132t165.5 -49q114 0 170.5 58t56.5 143q0 23 13.5 37t35.5 14h111q22 0 35.5 -14.5t13.5 -36.5q0 -73 -27.5 -139.5t-80 -120t-137.5 -85.5t-191 -32q-208 0 -322.5 96.5t-114.5 247.5zM455 1343q0 57 32.5 87t85.5 30t85 -30t32 -87q0 -56 -32 -85 t-85 -29t-85.5 29t-32.5 85z" />
<glyph unicode="&#xc0;" horiz-adv-x="1245" d="M20 49l480 1335q8 22 27 36t42 14h107q23 0 42 -14t27 -36l480 -1335q6 -19 -4 -34t-29 -15h-123q-23 0 -43 13.5t-27 35.5l-118 348h-523l-114 -348q-8 -22 -26.5 -35.5t-41.5 -13.5h-121q-20 0 -30.5 15t-4.5 34zM405 1791.5q6 14.5 21 14.5h125q52 0 82 -45l110 -170 q10 -13 2.5 -28t-24.5 -15h-80q-53 0 -84 39l-149 178q-9 12 -3 26.5zM416 575h407l-207 609z" />
<glyph unicode="&#xc1;" horiz-adv-x="1245" d="M20 49l480 1335q8 22 27 36t42 14h107q23 0 42 -14t27 -36l480 -1335q6 -19 -4 -34t-29 -15h-123q-23 0 -43 13.5t-27 35.5l-118 348h-523l-114 -348q-8 -22 -26.5 -35.5t-41.5 -13.5h-121q-20 0 -30.5 15t-4.5 34zM416 575h407l-207 609zM555.5 1563q-7.5 15 1.5 28 l111 170q30 45 82 45h124q15 0 22 -14.5t-3 -26.5l-148 -178q-31 -39 -86 -39h-79q-17 0 -24.5 15z" />
<glyph unicode="&#xc2;" horiz-adv-x="1245" d="M20 49l480 1335q8 22 27 36t42 14h107q23 0 42 -14t27 -36l480 -1335q6 -19 -4 -34t-29 -15h-123q-23 0 -43 13.5t-27 35.5l-118 348h-523l-114 -348q-8 -22 -26.5 -35.5t-41.5 -13.5h-121q-20 0 -30.5 15t-4.5 34zM379 1563q-7 15 2 28l119 172q31 43 82 43h73 q51 0 82 -43l119 -172q9 -13 3 -28t-23 -15h-78q-53 0 -78 45l-62 103l-59 -103q-25 -45 -78 -45h-78q-17 0 -24 15zM416 575h407l-207 609z" />
<glyph unicode="&#xc3;" horiz-adv-x="1245" d="M20 49l480 1335q8 22 27 36t42 14h107q23 0 42 -14t27 -36l480 -1335q6 -19 -4 -34t-29 -15h-123q-23 0 -43 13.5t-27 35.5l-118 348h-523l-114 -348q-8 -22 -26.5 -35.5t-41.5 -13.5h-121q-20 0 -30.5 15t-4.5 34zM258 1622q11 80 64.5 131t138.5 51q52 0 114 -22 t112.5 -44t74.5 -22q43 0 63 33q18 27 32 35t46 8h35q20 0 34.5 -16t12.5 -35q-11 -81 -63 -131.5t-140 -50.5q-60 0 -163 44t-140 44q-45 0 -65 -33q-13 -26 -28.5 -34.5t-47.5 -8.5h-37q-18 0 -32 16.5t-11 34.5zM416 575h407l-207 609z" />
<glyph unicode="&#xc4;" horiz-adv-x="1245" d="M20 49l480 1335q8 22 27 36t42 14h107q23 0 42 -14t27 -36l480 -1335q6 -19 -4 -34t-29 -15h-123q-23 0 -43 13.5t-27 35.5l-118 348h-523l-114 -348q-8 -22 -26.5 -35.5t-41.5 -13.5h-121q-20 0 -30.5 15t-4.5 34zM270 1661q0 62 29 95.5t84 33.5q57 0 87 -33.5 t30 -95.5q0 -59 -30 -91t-87 -32q-55 0 -84 32t-29 91zM416 575h407l-207 609zM741 1661q0 62 29 95.5t84 33.5q57 0 87 -33.5t30 -95.5q0 -59 -30 -91t-87 -32q-55 0 -84 32t-29 91z" />
<glyph unicode="&#xc5;" horiz-adv-x="1245" d="M20 49l480 1335q8 22 27 36t42 14h107q23 0 42 -14t27 -36l480 -1335q6 -19 -4 -34t-29 -15h-123q-23 0 -43 13.5t-27 35.5l-118 348h-523l-114 -348q-8 -22 -26.5 -35.5t-41.5 -13.5h-121q-20 0 -30.5 15t-4.5 34zM416 575h407l-207 609zM463 1673v21q0 70 45.5 112.5 t116.5 42.5q73 0 118 -42.5t45 -112.5v-21q0 -71 -45 -112t-118 -41q-72 0 -117 41t-45 112zM557 1681q0 -37 17.5 -58t50.5 -21q69 0 69 79q0 84 -69 84q-68 0 -68 -84z" />
<glyph unicode="&#xc6;" horiz-adv-x="1945" d="M23 45l735 1344q10 20 31.5 32.5t44.5 12.5h974q22 0 37 -15t15 -37v-82q0 -22 -15 -36.5t-37 -14.5h-589v-540h483q22 0 36.5 -15t14.5 -37v-75q0 -22 -14.5 -37t-36.5 -15h-483v-348h606q22 0 36.5 -14.5t14.5 -36.5v-80q0 -22 -14.5 -36.5t-36.5 -14.5h-770 q-22 0 -36.5 14.5t-14.5 36.5v484h-484l-258 -488q-26 -47 -78 -47h-135q-17 0 -25.5 15t-0.5 30zM608 709h396v540h-109z" />
<glyph unicode="&#xc7;" horiz-adv-x="1222" d="M115 426v582q0 206 139.5 330t359.5 124q219 0 358.5 -112t139.5 -285v-41q0 -22 -13.5 -35.5t-35.5 -13.5h-115q-22 0 -34.5 13t-12.5 36v20q0 104 -79.5 169t-207.5 65q-129 0 -206.5 -78t-77.5 -221v-524q0 -143 77.5 -221t206.5 -78q128 0 207.5 66t79.5 175v31 q0 23 12.5 36t34.5 13h115q22 0 35.5 -13.5t13.5 -35.5v-59q0 -156 -116 -264t-304 -128l-16 -49q58 -6 93.5 -37t35.5 -88q0 -52 -35.5 -85t-80.5 -43.5t-101 -10.5q-57 0 -84 2q-43 6 -43 35v23q0 30 35 30h41q41 0 67.5 14.5t26.5 41.5q0 44 -78 57q-43 6 -29 51l23 57 q-195 21 -313.5 141.5t-118.5 309.5z" />
<glyph unicode="&#xc8;" horiz-adv-x="1067" d="M125 51v1331q0 22 14.5 37t36.5 15h754q22 0 37.5 -15t15.5 -37v-82q0 -22 -15.5 -36.5t-37.5 -14.5h-592v-463h485q22 0 38 -15t16 -36v-80q0 -21 -16 -36t-38 -15h-485v-422h608q22 0 37.5 -14.5t15.5 -36.5v-80q0 -22 -15.5 -36.5t-37.5 -14.5h-770q-22 0 -36.5 14.5 t-14.5 36.5zM358.5 1791.5q6.5 14.5 20.5 14.5h127q50 0 80 -45l112 -170q9 -13 2 -28t-24 -15h-80q-55 0 -86 39l-148 178q-10 12 -3.5 26.5z" />
<glyph unicode="&#xc9;" horiz-adv-x="1067" d="M125 51v1331q0 22 14.5 37t36.5 15h754q22 0 37.5 -15t15.5 -37v-82q0 -22 -15.5 -36.5t-37.5 -14.5h-592v-463h485q22 0 38 -15t16 -36v-80q0 -21 -16 -36t-38 -15h-485v-422h608q22 0 37.5 -14.5t15.5 -36.5v-80q0 -22 -15.5 -36.5t-37.5 -14.5h-770q-22 0 -36.5 14.5 t-14.5 36.5zM458.5 1563q-7.5 15 2.5 28l110 170q30 45 82 45h125q15 0 21.5 -14.5t-2.5 -26.5l-150 -178q-31 -39 -84 -39h-80q-17 0 -24.5 15z" />
<glyph unicode="&#xca;" horiz-adv-x="1067" d="M125 51v1331q0 22 14.5 37t36.5 15h754q22 0 37.5 -15t15.5 -37v-82q0 -22 -15.5 -36.5t-37.5 -14.5h-592v-463h485q22 0 38 -15t16 -36v-80q0 -21 -16 -36t-38 -15h-485v-422h608q22 0 37.5 -14.5t15.5 -36.5v-80q0 -22 -15.5 -36.5t-37.5 -14.5h-770q-22 0 -36.5 14.5 t-14.5 36.5zM331 1563q-6 15 3 28l117 172q34 43 84 43h71q50 0 84 -43l119 -172q9 -13 1.5 -28t-24.5 -15h-75q-55 0 -80 45l-62 103l-57 -103q-28 -45 -80 -45h-78q-17 0 -23 15z" />
<glyph unicode="&#xcb;" horiz-adv-x="1067" d="M125 51v1331q0 22 14.5 37t36.5 15h754q22 0 37.5 -15t15.5 -37v-82q0 -22 -15.5 -36.5t-37.5 -14.5h-592v-463h485q22 0 38 -15t16 -36v-80q0 -21 -16 -36t-38 -15h-485v-422h608q22 0 37.5 -14.5t15.5 -36.5v-80q0 -22 -15.5 -36.5t-37.5 -14.5h-770q-22 0 -36.5 14.5 t-14.5 36.5zM186 1661q0 62 29.5 95.5t83.5 33.5q57 0 88 -33.5t31 -95.5q0 -59 -31 -91t-88 -32q-54 0 -83.5 32t-29.5 91zM659 1661q0 62 28.5 95.5t82.5 33.5q58 0 88.5 -33.5t30.5 -95.5q0 -59 -30.5 -91t-88.5 -32q-54 0 -82.5 32t-28.5 91z" />
<glyph unicode="&#xcc;" horiz-adv-x="462" d="M18.5 1791q7.5 15 22.5 15h125q23 0 44.5 -13t33.5 -32l98 -168q9 -15 1 -30t-26 -15h-79q-54 0 -84 41l-134 174q-9 13 -1.5 28zM125 51v1331q0 22 14.5 37t36.5 15h111q22 0 36.5 -15t14.5 -37v-1331q0 -22 -14.5 -36.5t-36.5 -14.5h-111q-22 0 -36.5 14.5t-14.5 36.5z " />
<glyph unicode="&#xcd;" horiz-adv-x="462" d="M125 51v1331q0 22 14.5 37t36.5 15h111q22 0 36.5 -15t14.5 -37v-1331q0 -22 -14.5 -36.5t-36.5 -14.5h-111q-22 0 -36.5 14.5t-14.5 36.5zM152 1563q-8 15 0 30l98 168q12 19 33.5 32t44.5 13h108q17 0 24.5 -15t-3.5 -28l-133 -174q-33 -41 -84 -41h-62q-18 0 -26 15z " />
<glyph unicode="&#xce;" horiz-adv-x="462" d="M11.5 1563q-8.5 15 0.5 30l105 168q27 45 78 45h71q53 0 80 -45l105 -168q9 -15 0.5 -30t-25.5 -15h-68q-24 0 -44 13t-29 34l-54 101l-53 -101q-9 -21 -29.5 -34t-44.5 -13h-67q-17 0 -25.5 15zM125 51v1331q0 22 14.5 37t36.5 15h111q22 0 36.5 -15t14.5 -37v-1331 q0 -22 -14.5 -36.5t-36.5 -14.5h-111q-22 0 -36.5 14.5t-14.5 36.5z" />
<glyph unicode="&#xcf;" horiz-adv-x="462" d="M-37 1661q0 62 28.5 95.5t82.5 33.5q56 0 85 -33.5t29 -95.5q0 -59 -29 -91t-85 -32q-54 0 -82.5 32t-28.5 91zM125 51v1331q0 22 14.5 37t36.5 15h111q22 0 36.5 -15t14.5 -37v-1331q0 -22 -14.5 -36.5t-36.5 -14.5h-111q-22 0 -36.5 14.5t-14.5 36.5zM279 1661 q0 129 108 129q56 0 85.5 -33.5t29.5 -95.5q0 -59 -29.5 -91t-85.5 -32q-53 0 -80.5 32t-27.5 91z" />
<glyph unicode="&#xd0;" horiz-adv-x="1245" d="M14 655v72q0 22 15 36.5t37 14.5h59v604q0 22 14.5 37t36.5 15h481q218 0 345.5 -123t127.5 -332v-524q0 -209 -127.5 -332t-345.5 -123h-481q-22 0 -36.5 14.5t-14.5 36.5v553h-59q-22 0 -37 14.5t-15 36.5zM338 182h319q125 0 191.5 76.5t66.5 222.5v471 q0 146 -66.5 221.5t-191.5 75.5h-319v-471h266q22 0 36.5 -14.5t14.5 -36.5v-72q0 -22 -14.5 -36.5t-36.5 -14.5h-266v-422z" />
<glyph unicode="&#xd1;" horiz-adv-x="1290" d="M125 51v1331q0 22 14.5 37t36.5 15h137q25 0 46 -12.5t32 -32.5l567 -1035l-4 1028q0 22 15 37t37 15h108q22 0 36.5 -15t14.5 -37v-1331q0 -22 -14.5 -36.5t-36.5 -14.5h-141q-25 0 -46 12.5t-32 32.5l-563 1032l4 -1026q1 -21 -14 -36t-37 -15h-109q-22 0 -36.5 14.5 t-14.5 36.5zM281 1622q13 80 66 131t136 51q52 0 114 -22t113 -44t76 -22q44 0 64 33q18 27 32 35t44 8h37q20 0 34.5 -16t12.5 -35q-13 -82 -64.5 -132t-140.5 -50q-61 0 -163 44t-138 44q-46 0 -66 -33q-13 -26 -28.5 -34.5t-47.5 -8.5h-36q-19 0 -33 16t-12 35z" />
<glyph unicode="&#xd2;" horiz-adv-x="1275" d="M115 426v582q0 138 70.5 242.5t188.5 158t263 53.5q146 0 264.5 -53.5t189 -158t70.5 -242.5v-582q0 -137 -70.5 -241.5t-189 -159t-264.5 -54.5q-145 0 -263 54.5t-188.5 159t-70.5 241.5zM330 455q0 -142 86.5 -220.5t220.5 -78.5q135 0 222 78.5t87 220.5v524 q0 142 -87 220.5t-222 78.5q-134 0 -220.5 -78.5t-86.5 -220.5v-524zM410.5 1791.5q6.5 14.5 21.5 14.5h125q52 0 82 -45l111 -170q9 -13 1.5 -28t-24.5 -15h-80q-55 0 -86 39l-147 178q-10 12 -3.5 26.5z" />
<glyph unicode="&#xd3;" horiz-adv-x="1275" d="M115 426v582q0 138 70.5 242.5t188.5 158t263 53.5q146 0 264.5 -53.5t189 -158t70.5 -242.5v-582q0 -137 -70.5 -241.5t-189 -159t-264.5 -54.5q-145 0 -263 54.5t-188.5 159t-70.5 241.5zM330 455q0 -142 86.5 -220.5t220.5 -78.5q135 0 222 78.5t87 220.5v524 q0 142 -87 220.5t-222 78.5q-134 0 -220.5 -78.5t-86.5 -220.5v-524zM565.5 1563q-7.5 15 1.5 28l113 170q12 20 34.5 32.5t45.5 12.5h127q14 0 20 -14.5t-4 -26.5l-147 -178q-31 -39 -86 -39h-80q-17 0 -24.5 15z" />
<glyph unicode="&#xd4;" horiz-adv-x="1275" d="M115 426v582q0 138 70.5 242.5t188.5 158t263 53.5q146 0 264.5 -53.5t189 -158t70.5 -242.5v-582q0 -137 -70.5 -241.5t-189 -159t-264.5 -54.5q-145 0 -263 54.5t-188.5 159t-70.5 241.5zM330 455q0 -142 86.5 -220.5t220.5 -78.5q135 0 222 78.5t87 220.5v524 q0 142 -87 220.5t-222 78.5q-134 0 -220.5 -78.5t-86.5 -220.5v-524zM397.5 1563q-7.5 15 1.5 28l119 172q31 43 82 43h74q51 0 82 -43l118 -172q10 -13 2.5 -28t-22.5 -15h-78q-52 0 -80 45l-59 103l-59 -103q-25 -45 -80 -45h-76q-17 0 -24.5 15z" />
<glyph unicode="&#xd5;" horiz-adv-x="1275" d="M115 426v582q0 138 70.5 242.5t188.5 158t263 53.5q146 0 264.5 -53.5t189 -158t70.5 -242.5v-582q0 -137 -70.5 -241.5t-189 -159t-264.5 -54.5q-145 0 -263 54.5t-188.5 159t-70.5 241.5zM274 1622q13 80 66.5 131t136.5 51q52 0 114 -22t113 -44t76 -22q44 0 64 33 q18 27 32 35t44 8h36q20 0 35 -16t13 -35q-13 -82 -64.5 -132t-140.5 -50q-60 0 -163 44t-140 44q-44 0 -64 -33q-13 -26 -28.5 -34.5t-47.5 -8.5h-37q-19 0 -33 16t-12 35zM330 455q0 -142 86.5 -220.5t220.5 -78.5q135 0 222 78.5t87 220.5v524q0 142 -87 220.5t-222 78.5 q-134 0 -220.5 -78.5t-86.5 -220.5v-524z" />
<glyph unicode="&#xd6;" horiz-adv-x="1290" d="M123 426v582q0 138 70.5 242.5t188.5 158t263 53.5t263 -53.5t188.5 -158t70.5 -242.5v-582q0 -137 -70.5 -241.5t-188.5 -159t-263 -54.5t-263 54.5t-188.5 159t-70.5 241.5zM295 1661q0 62 28.5 95.5t82.5 33.5q57 0 87.5 -33.5t30.5 -95.5q0 -59 -30.5 -91t-87.5 -32 q-54 0 -82.5 32t-28.5 91zM338 455q0 -142 86.5 -220.5t220.5 -78.5t220.5 78.5t86.5 220.5v524q0 142 -86.5 220.5t-220.5 78.5t-220.5 -78.5t-86.5 -220.5v-524zM766 1661q0 62 28.5 95.5t82.5 33.5q58 0 88 -33.5t30 -95.5q0 -59 -30 -91t-88 -32q-54 0 -82.5 32 t-28.5 91z" />
<glyph unicode="&#xd7;" d="M108 202q0 22 13 36l330 329l-330 330q-13 13 -13 36t13 38l51 49q14 14 36 14t36 -14l329 -330l330 330q13 14 36 14t38 -14l49 -49q14 -15 14 -38t-14 -36l-330 -330l330 -329q14 -14 14 -36t-14 -36l-49 -51q-15 -13 -38 -13t-36 13l-330 329l-329 -329 q-14 -13 -36 -13t-36 13l-51 51q-13 14 -13 36z" />
<glyph unicode="&#xd8;" horiz-adv-x="1275" d="M8 139v140q0 48 41 86l66 51v590q0 138 70.5 243t188.5 159t263 54q158 0 282.5 -65.5t182.5 -182.5l123 99q12 9 26.5 2.5t14.5 -21.5v-139q0 -56 -41 -86l-64 -53v-588q0 -138 -70.5 -243t-189 -159.5t-264.5 -54.5q-158 0 -282 65t-185 183l-121 -98 q-12 -10 -26.5 -3.5t-14.5 21.5zM330 590l602 485q-29 97 -108.5 150t-186.5 53q-134 0 -220.5 -78.5t-86.5 -220.5v-389zM342 356q27 -97 107 -148.5t188 -51.5q135 0 222 78.5t87 220.5v389z" />
<glyph unicode="&#xd9;" horiz-adv-x="1241" d="M121 426v956q0 22 14.5 37t36.5 15h111q22 0 36.5 -15t14.5 -37v-927q0 -144 76.5 -221.5t210.5 -77.5t210 77.5t76 221.5v927q0 22 14.5 37t36.5 15h111q22 0 37.5 -15t15.5 -37v-956q0 -208 -137.5 -331.5t-363.5 -123.5t-363 123.5t-137 331.5zM407 1791.5 q6 14.5 21 14.5h125q52 0 82 -45l110 -170q10 -13 2.5 -28t-24.5 -15h-78q-55 0 -86 39l-149 178q-9 12 -3 26.5z" />
<glyph unicode="&#xda;" horiz-adv-x="1241" d="M121 426v956q0 22 14.5 37t36.5 15h111q22 0 36.5 -15t14.5 -37v-927q0 -144 76.5 -221.5t210.5 -77.5t210 77.5t76 221.5v927q0 22 14.5 37t36.5 15h111q22 0 37.5 -15t15.5 -37v-956q0 -208 -137.5 -331.5t-363.5 -123.5t-363 123.5t-137 331.5zM547 1563q-7 15 2 28 l110 170q30 45 82 45h125q15 0 21.5 -14.5t-2.5 -26.5l-148 -178q-31 -39 -86 -39h-80q-17 0 -24 15z" />
<glyph unicode="&#xdb;" horiz-adv-x="1241" d="M121 426v956q0 22 14.5 37t36.5 15h111q22 0 36.5 -15t14.5 -37v-927q0 -144 76.5 -221.5t210.5 -77.5t210 77.5t76 221.5v927q0 22 14.5 37t36.5 15h111q22 0 37.5 -15t15.5 -37v-956q0 -208 -137.5 -331.5t-363.5 -123.5t-363 123.5t-137 331.5zM379 1563q-7 15 4 28 l117 172q31 43 84 43h71q51 0 82 -43l119 -172q11 -13 4 -28t-24 -15h-76q-55 0 -80 45l-62 103l-59 -103q-25 -45 -78 -45h-78q-17 0 -24 15z" />
<glyph unicode="&#xdc;" horiz-adv-x="1241" d="M121 426v956q0 22 14.5 37t36.5 15h111q22 0 36.5 -15t14.5 -37v-927q0 -144 76.5 -221.5t210.5 -77.5t210 77.5t76 221.5v927q0 22 14.5 37t36.5 15h111q22 0 37.5 -15t15.5 -37v-956q0 -208 -137.5 -331.5t-363.5 -123.5t-363 123.5t-137 331.5zM270 1661 q0 62 29.5 95.5t83.5 33.5q57 0 87 -33.5t30 -95.5q0 -59 -30 -91t-87 -32q-54 0 -83.5 32t-29.5 91zM741 1661q0 62 29.5 95.5t83.5 33.5q57 0 87 -33.5t30 -95.5q0 -59 -30 -91t-87 -32q-54 0 -83.5 32t-29.5 91z" />
<glyph unicode="&#xdd;" horiz-adv-x="1136" d="M27 1386q-8 18 1 33t27 15h129q23 0 43 -13t31 -35l313 -694l316 694q9 22 29 35t45 13h122q17 0 26.5 -15.5t2.5 -32.5l-434 -897v-438q0 -22 -15.5 -36.5t-37.5 -14.5h-109q-22 0 -37.5 14.5t-15.5 36.5v434zM475.5 1563q-7.5 15 1.5 28l111 170q30 45 82 45h125 q15 0 21.5 -14.5t-3.5 -26.5l-147 -178q-31 -39 -86 -39h-80q-17 0 -24.5 15z" />
<glyph unicode="&#xde;" horiz-adv-x="1204" d="M125 51v1331q0 22 14.5 37t36.5 15h111q22 0 36.5 -15t14.5 -37v-204h295q222 0 347.5 -112t125.5 -316v-66q0 -204 -125.5 -316t-347.5 -112h-295v-205q0 -22 -14.5 -36.5t-36.5 -14.5h-111q-22 0 -36.5 14.5t-14.5 36.5zM338 438h295q260 0 260 271v16q0 139 -66 203.5 t-194 64.5h-295v-555z" />
<glyph unicode="&#xdf;" horiz-adv-x="1196" d="M10 817v70q0 22 13.5 35.5t35.5 13.5h80v197q0 200 105 311.5t299 111.5q179 0 277 -79t98 -230q0 -57 -25 -107t-61 -85.5t-72 -68t-61 -69t-25 -73.5q0 -45 23.5 -83.5t60.5 -68.5t82 -59t90 -62t82 -71t60.5 -93t23.5 -120q0 -142 -100.5 -229t-299.5 -87 q-73 0 -149 13q-23 4 -37 19.5t-14 35.5v78q0 22 14 33.5t35 5.5q73 -13 141 -13q85 0 142 38t57 108q0 40 -22.5 76t-59 64.5t-80.5 57.5t-88 62.5t-80.5 71t-59 91t-22.5 115.5q0 66 24.5 117.5t59 83.5t69 61.5t59 69t24.5 88.5q0 139 -168 139q-103 0 -150 -67t-47 -205 v-1063q0 -22 -15.5 -36.5t-37.5 -14.5h-98q-22 0 -38 15t-16 36v717h-80q-22 0 -35.5 13.5t-13.5 35.5z" />
<glyph unicode="&#xe0;" horiz-adv-x="1126" d="M106 301q0 160 104.5 238.5t293.5 78.5q142 0 282 -40v184q0 125 -53.5 180t-171.5 55q-107 0 -165 -57t-58 -139q0 -43 -51 -43h-101q-22 0 -36.5 13t-14.5 36q0 66 27 129t78 115t134.5 84t186.5 32q208 0 319 -97.5t111 -283.5v-735q0 -22 -15.5 -36.5t-37.5 -14.5 h-76q-22 0 -39 14.5t-20 36.5l-6 66q-61 -63 -154.5 -100t-196.5 -37q-163 0 -251.5 83.5t-88.5 237.5zM311 307q0 -80 51 -123t138 -43q88 0 163.5 40.5t122.5 99.5v149q-127 43 -270 43q-102 0 -153.5 -43t-51.5 -123zM347 1505.5q7 14.5 22 14.5h125q51 0 81 -45 l111 -170q9 -13 2 -28t-24 -15h-80q-56 0 -86 38l-148 179q-10 12 -3 26.5z" />
<glyph unicode="&#xe1;" horiz-adv-x="1126" d="M106 301q0 160 104.5 238.5t293.5 78.5q142 0 282 -40v184q0 125 -53.5 180t-171.5 55q-107 0 -165 -57t-58 -139q0 -43 -51 -43h-101q-22 0 -36.5 13t-14.5 36q0 66 27 129t78 115t134.5 84t186.5 32q208 0 319 -97.5t111 -283.5v-735q0 -22 -15.5 -36.5t-37.5 -14.5 h-76q-22 0 -39 14.5t-20 36.5l-6 66q-61 -63 -154.5 -100t-196.5 -37q-163 0 -251.5 83.5t-88.5 237.5zM311 307q0 -80 51 -123t138 -43q88 0 163.5 40.5t122.5 99.5v149q-127 43 -270 43q-102 0 -153.5 -43t-51.5 -123zM473.5 1277q-7.5 15 1.5 28l113 170q12 20 34.5 32.5 t45.5 12.5h125q15 0 21.5 -14.5t-3.5 -26.5l-147 -179q-30 -38 -86 -38h-80q-17 0 -24.5 15z" />
<glyph unicode="&#xe2;" horiz-adv-x="1126" d="M106 301q0 160 104.5 238.5t293.5 78.5q142 0 282 -40v184q0 125 -53.5 180t-171.5 55q-107 0 -165 -57t-58 -139q0 -43 -51 -43h-101q-22 0 -36.5 13t-14.5 36q0 66 27 129t78 115t134.5 84t186.5 32q208 0 319 -97.5t111 -283.5v-735q0 -22 -15.5 -36.5t-37.5 -14.5 h-76q-22 0 -39 14.5t-20 36.5l-6 66q-61 -63 -154.5 -100t-196.5 -37q-163 0 -251.5 83.5t-88.5 237.5zM311 307q0 -80 51 -123t138 -43q88 0 163.5 40.5t122.5 99.5v149q-127 43 -270 43q-102 0 -153.5 -43t-51.5 -123zM338 1277q-7 15 2 28l119 172q31 43 82 43h73 q51 0 82 -43l119 -172q9 -13 2 -28t-24 -15h-76q-55 0 -80 45l-59 102l-60 -102q-25 -45 -80 -45h-76q-17 0 -24 15z" />
<glyph unicode="&#xe3;" horiz-adv-x="1126" d="M106 301q0 160 104.5 238.5t293.5 78.5q142 0 282 -40v184q0 125 -53.5 180t-171.5 55q-107 0 -165 -57t-58 -139q0 -43 -51 -43h-101q-22 0 -36.5 13t-14.5 36q0 66 27 129t78 115t134.5 84t186.5 32q208 0 319 -97.5t111 -283.5v-735q0 -22 -15.5 -36.5t-37.5 -14.5 h-76q-22 0 -39 14.5t-20 36.5l-6 66q-61 -63 -154.5 -100t-196.5 -37q-163 0 -251.5 83.5t-88.5 237.5zM217 1335q11 80 65 131.5t138 51.5q52 0 114 -22t113 -44t76 -22q44 0 63 32q15 26 30 34.5t46 8.5h37q19 0 33.5 -16t11.5 -35q-11 -81 -63 -131.5t-140 -50.5 q-60 0 -163 44t-140 44q-43 0 -63 -33q-15 -26 -30 -34.5t-46 -8.5h-37q-19 0 -33 16t-12 35zM311 307q0 -80 51 -123t138 -43q88 0 163.5 40.5t122.5 99.5v149q-127 43 -270 43q-102 0 -153.5 -43t-51.5 -123z" />
<glyph unicode="&#xe4;" horiz-adv-x="1126" d="M106 301q0 160 104.5 238.5t293.5 78.5q142 0 282 -40v184q0 125 -53.5 180t-171.5 55q-107 0 -165 -57t-58 -139q0 -43 -51 -43h-101q-22 0 -36.5 13t-14.5 36q0 66 27 129t78 115t134.5 84t186.5 32q208 0 319 -97.5t111 -283.5v-735q0 -22 -15.5 -36.5t-37.5 -14.5 h-76q-22 0 -39 14.5t-20 36.5l-6 66q-61 -63 -154.5 -100t-196.5 -37q-163 0 -251.5 83.5t-88.5 237.5zM225 1374q0 62 29 95.5t84 33.5q57 0 87 -33.5t30 -95.5q0 -59 -30 -91t-87 -32q-55 0 -84 32t-29 91zM311 307q0 -80 51 -123t138 -43q88 0 163.5 40.5t122.5 99.5v149 q-127 43 -270 43q-102 0 -153.5 -43t-51.5 -123zM696 1374q0 62 29.5 95.5t83.5 33.5q57 0 87 -33.5t30 -95.5q0 -59 -30 -91t-87 -32q-54 0 -83.5 32t-29.5 91z" />
<glyph unicode="&#xe5;" horiz-adv-x="1126" d="M106 301q0 160 104.5 238.5t293.5 78.5q142 0 282 -40v184q0 125 -53.5 180t-171.5 55q-107 0 -165 -57t-58 -139q0 -43 -51 -43h-101q-22 0 -36.5 13t-14.5 36q0 66 27 129t78 115t134.5 84t186.5 32q208 0 319 -97.5t111 -283.5v-735q0 -22 -15.5 -36.5t-37.5 -14.5 h-76q-22 0 -39 14.5t-20 36.5l-6 66q-61 -63 -154.5 -100t-196.5 -37q-163 0 -251.5 83.5t-88.5 237.5zM311 307q0 -80 51 -123t138 -43q88 0 163.5 40.5t122.5 99.5v149q-127 43 -270 43q-102 0 -153.5 -43t-51.5 -123zM408 1397v20q0 70 45 113t116 43q73 0 118.5 -43 t45.5 -113v-20q0 -72 -45.5 -114t-118.5 -42q-72 0 -116.5 42t-44.5 114zM502 1405q0 -80 67 -80q70 0 70 80q0 82 -70 82q-67 0 -67 -82z" />
<glyph unicode="&#xe6;" horiz-adv-x="1806" d="M106 319q0 162 98.5 243t284.5 81h299v105q0 125 -54.5 187t-170.5 62q-110 0 -166.5 -57.5t-56.5 -142.5q0 -21 -14 -32t-37 -11h-101q-22 0 -36.5 13t-14.5 36q0 70 27 134t78.5 116t134.5 83t186 31q229 0 336 -145q113 145 338 145q206 0 326 -113.5t120 -310.5v-180 q0 -22 -15.5 -36.5t-37.5 -14.5h-639v-98q0 -132 63.5 -198t182.5 -66q111 0 174.5 53.5t63.5 124.5q0 45 49 45h104q22 0 35.5 -13t13.5 -36q0 -61 -29.5 -121t-83 -110t-139.5 -81.5t-188 -31.5q-254 0 -371 167q-159 -167 -415 -167q-165 0 -255 91.5t-90 247.5zM313 324 q0 -81 50.5 -130t138.5 -49q87 0 163.5 39t122.5 97v215h-280q-195 0 -195 -172zM991 657l490 2v60q0 134 -63 206t-181 72q-117 0 -181 -70t-65 -202v-68z" />
<glyph unicode="&#xe7;" horiz-adv-x="1138" d="M127 403v340q0 197 120 310.5t326 113.5q207 0 325 -101.5t118 -262.5q0 -23 -13.5 -37t-35.5 -14h-105q-23 0 -36 13.5t-13 35.5q0 87 -62 140.5t-178 53.5q-118 0 -180.5 -70t-62.5 -206v-291q0 -136 62.5 -206t180.5 -70t179 54t61 138q0 49 49 49h103 q22 0 36.5 -13.5t14.5 -35.5q0 -137 -94.5 -236.5t-259.5 -119.5l-21 -60q57 -7 93 -37.5t36 -87.5q0 -40 -19.5 -68.5t-53 -43t-69.5 -21t-77 -6.5q-55 0 -82 2q-43 6 -43 35v23q0 30 35 30h41q41 0 66.5 14.5t25.5 41.5q0 44 -76 57q-22 3 -29.5 17.5t0.5 33.5l25 66 q-182 15 -284.5 125.5t-102.5 293.5z" />
<glyph unicode="&#xe8;" horiz-adv-x="1142" d="M127 403v340q0 197 120 310.5t326 113.5q207 0 327 -113t120 -311v-159q0 -21 -15 -36.5t-36 -15.5h-639v-112q0 -135 62.5 -202.5t180.5 -67.5q63 0 111.5 17.5t75 46t40 58.5t13.5 60q0 47 47 47h107q22 0 34.5 -14t12.5 -37q0 -61 -30 -122t-84 -112t-139.5 -82.5 t-187.5 -31.5q-206 0 -326 113t-120 310zM330 682l487 2v41q0 133 -62.5 202.5t-181.5 69.5q-118 0 -180.5 -69.5t-62.5 -204.5v-41zM338.5 1505.5q6.5 14.5 21.5 14.5h125q23 0 45.5 -12.5t34.5 -32.5l113 -170q9 -13 1.5 -28t-24.5 -15h-80q-56 0 -86 38l-147 179 q-10 12 -3.5 26.5z" />
<glyph unicode="&#xe9;" horiz-adv-x="1142" d="M127 403v340q0 197 120 310.5t326 113.5q207 0 327 -113t120 -311v-159q0 -21 -15 -36.5t-36 -15.5h-639v-112q0 -135 62.5 -202.5t180.5 -67.5q63 0 111.5 17.5t75 46t40 58.5t13.5 60q0 47 47 47h107q22 0 34.5 -14t12.5 -37q0 -61 -30 -122t-84 -112t-139.5 -82.5 t-187.5 -31.5q-206 0 -326 113t-120 310zM330 682l487 2v41q0 133 -62.5 202.5t-181.5 69.5q-118 0 -180.5 -69.5t-62.5 -204.5v-41zM504 1277q-7 15 2 28l112 170q12 20 34.5 32.5t45.5 12.5h125q15 0 22 -14.5t-3 -26.5l-148 -179q-30 -38 -86 -38h-80q-17 0 -24 15z" />
<glyph unicode="&#xea;" horiz-adv-x="1142" d="M127 403v340q0 197 120 310.5t326 113.5q207 0 327 -113t120 -311v-159q0 -21 -15 -36.5t-36 -15.5h-639v-112q0 -135 62.5 -202.5t180.5 -67.5q63 0 111.5 17.5t75 46t40 58.5t13.5 60q0 47 47 47h107q22 0 34.5 -14t12.5 -37q0 -61 -30 -122t-84 -112t-139.5 -82.5 t-187.5 -31.5q-206 0 -326 113t-120 310zM330 682l487 2v41q0 133 -62.5 202.5t-181.5 69.5q-118 0 -180.5 -69.5t-62.5 -204.5v-41zM344.5 1277q-7.5 15 1.5 28l119 172q31 43 82 43h74q50 0 81 -43l119 -172q9 -13 3 -28t-23 -15h-78q-53 0 -78 45l-61 102l-60 -102 q-25 -45 -78 -45h-77q-17 0 -24.5 15z" />
<glyph unicode="&#xeb;" horiz-adv-x="1142" d="M127 403v340q0 197 120 310.5t326 113.5q207 0 327 -113t120 -311v-159q0 -21 -15 -36.5t-36 -15.5h-639v-112q0 -135 62.5 -202.5t180.5 -67.5q63 0 111.5 17.5t75 46t40 58.5t13.5 60q0 47 47 47h107q22 0 34.5 -14t12.5 -37q0 -61 -30 -122t-84 -112t-139.5 -82.5 t-187.5 -31.5q-206 0 -326 113t-120 310zM236 1374q0 62 29 95.5t83 33.5q57 0 88 -33.5t31 -95.5q0 -59 -31 -91t-88 -32q-54 0 -83 32t-29 91zM330 682l487 2v41q0 133 -62.5 202.5t-181.5 69.5q-118 0 -180.5 -69.5t-62.5 -204.5v-41zM707 1374q0 62 29 95.5t83 33.5 q57 0 88 -33.5t31 -95.5q0 -59 -31 -91t-88 -32q-54 0 -83 32t-29 91z" />
<glyph unicode="&#xec;" horiz-adv-x="481" d="M-18 1505q7 15 24 15h125q23 0 44.5 -13t33.5 -32l98 -168q9 -15 1 -30t-27 -15h-80q-52 0 -82 41l-135 174q-9 13 -2 28zM139 51v1045q0 22 14.5 36.5t36.5 14.5h101q22 0 36.5 -14.5t14.5 -36.5v-1045q0 -22 -14.5 -36.5t-36.5 -14.5h-101q-22 0 -36.5 14.5t-14.5 36.5 z" />
<glyph unicode="&#xed;" horiz-adv-x="481" d="M139 51v1045q0 22 14.5 36.5t36.5 14.5h101q22 0 36.5 -14.5t14.5 -36.5v-1045q0 -22 -14.5 -36.5t-36.5 -14.5h-101q-22 0 -36.5 14.5t-14.5 36.5zM163 1277q-8 15 1 28l106 170q30 45 80 45h119q17 0 23 -14.5t-3 -26.5l-137 -176q-27 -41 -84 -41h-80q-17 0 -25 15z " />
<glyph unicode="&#xee;" horiz-adv-x="481" d="M21.5 1277q-7.5 15 1.5 30l102 168q27 45 80 45h71q23 0 45.5 -12.5t34.5 -32.5l103 -168q9 -15 1 -30t-26 -15h-63q-24 0 -45 13t-31 34l-55 100l-54 -100q-23 -47 -75 -47h-64q-18 0 -25.5 15zM139 51v1045q0 22 14.5 36.5t36.5 14.5h101q22 0 36.5 -14.5t14.5 -36.5 v-1045q0 -22 -14.5 -36.5t-36.5 -14.5h-101q-22 0 -36.5 14.5t-14.5 36.5z" />
<glyph unicode="&#xef;" horiz-adv-x="481" d="M-23 1374q0 58 28 89.5t79 31.5q53 0 82 -31.5t29 -89.5q0 -55 -29 -86t-82 -31q-51 0 -79 30.5t-28 86.5zM139 51v1045q0 22 14.5 36.5t36.5 14.5h101q22 0 36.5 -14.5t14.5 -36.5v-1045q0 -22 -14.5 -36.5t-36.5 -14.5h-101q-22 0 -36.5 14.5t-14.5 36.5zM289 1374 q0 58 27.5 89.5t78.5 31.5q53 0 82 -31.5t29 -89.5q0 -55 -29 -86t-82 -31q-51 0 -78.5 30.5t-27.5 86.5z" />
<glyph unicode="&#xf0;" horiz-adv-x="1142" d="M127 389v303q0 198 100.5 300t292.5 102q82 0 159 -31.5t132 -85.5v129q0 98 -41 166l-94 -72q-15 -11 -35 -8t-33 20l-26 37q-28 44 6 68l65 51q-57 23 -135 23q-56 0 -121 -7q-22 -3 -36.5 10.5t-14.5 35.5v61q0 21 15 40t36 23q67 13 127 13q174 0 287 -72l102 78 q17 12 37 9.5t33 -19.5l27 -35q15 -17 13.5 -37.5t-19.5 -32.5l-78 -61q82 -105 82 -258v-742q0 -198 -116.5 -307.5t-330.5 -109.5q-201 0 -317.5 107.5t-116.5 301.5zM319 430q0 -145 60 -216t184 -71q248 0 248 287v361q-45 58 -120.5 98.5t-149.5 40.5 q-120 0 -171 -68.5t-51 -210.5v-221z" />
<glyph unicode="&#xf1;" horiz-adv-x="1140" d="M139 51v1045q0 22 14.5 36.5t36.5 14.5h76q23 0 40 -14.5t20 -36.5l6 -66q134 137 301 137q373 0 373 -401v-715q0 -22 -15 -36.5t-37 -14.5h-100q-22 0 -36.5 14.5t-14.5 36.5v688q0 129 -46.5 191.5t-158.5 62.5q-72 0 -139.5 -40t-116.5 -99v-803q0 -22 -14.5 -36.5 t-36.5 -14.5h-101q-22 0 -36.5 14.5t-14.5 36.5zM215 1335q11 80 64.5 131.5t138.5 51.5q52 0 114 -22t112.5 -44t74.5 -22q44 0 63 32q18 27 32 35t46 8h35q20 0 34.5 -16t12.5 -35q-11 -81 -63 -131.5t-140 -50.5q-60 0 -163 44t-140 44q-43 0 -63 -33 q-15 -26 -30.5 -34.5t-47.5 -8.5h-37q-18 0 -32 16.5t-11 34.5z" />
<glyph unicode="&#xf2;" d="M127 403v340q0 197 120 310.5t326 113.5q207 0 327 -113t120 -311v-340q0 -197 -119.5 -310t-327.5 -113q-206 0 -326 113t-120 310zM330 428q0 -136 62.5 -207t180.5 -71q119 0 181.5 71t62.5 207v291q0 136 -62.5 207t-181.5 71q-118 0 -180.5 -71t-62.5 -207v-291z M351.5 1505.5q6.5 14.5 21.5 14.5h125q52 0 82 -45l110 -170q9 -13 2 -28t-24 -15h-80q-56 0 -86 38l-148 179q-9 12 -2.5 26.5z" />
<glyph unicode="&#xf3;" d="M127 403v340q0 197 120 310.5t326 113.5q207 0 327 -113t120 -311v-340q0 -197 -119.5 -310t-327.5 -113q-206 0 -326 113t-120 310zM330 428q0 -136 62.5 -207t180.5 -71q119 0 181.5 71t62.5 207v291q0 136 -62.5 207t-181.5 71q-118 0 -180.5 -71t-62.5 -207v-291z M502 1277q-7 15 2 28l112 170q12 20 34.5 32.5t45.5 12.5h125q15 0 22 -14.5t-3 -26.5l-148 -179q-30 -38 -86 -38h-80q-17 0 -24 15z" />
<glyph unicode="&#xf4;" d="M127 403v340q0 197 120 310.5t326 113.5q207 0 327 -113t120 -311v-340q0 -197 -119.5 -310t-327.5 -113q-206 0 -326 113t-120 310zM330 428q0 -136 62.5 -207t180.5 -71q119 0 181.5 71t62.5 207v291q0 136 -62.5 207t-181.5 71q-118 0 -180.5 -71t-62.5 -207v-291z M332 1277q-7 15 4 28l117 172q34 43 84 43h71q50 0 84 -43l119 -172q9 -13 1.5 -28t-24.5 -15h-75q-55 0 -80 45l-62 102l-57 -102q-28 -45 -80 -45h-78q-17 0 -24 15z" />
<glyph unicode="&#xf5;" d="M127 403v340q0 197 120 310.5t326 113.5q207 0 327 -113t120 -311v-340q0 -197 -119.5 -310t-327.5 -113q-206 0 -326 113t-120 310zM211 1335q11 80 64.5 131.5t138.5 51.5q52 0 114 -22t112.5 -44t74.5 -22q44 0 63 32q18 27 32 35t44 8h37q20 0 34.5 -16t12.5 -35 q-13 -82 -64.5 -132t-140.5 -50q-59 0 -161.5 44t-139.5 44q-45 0 -65 -33q-13 -26 -28.5 -34.5t-47.5 -8.5h-37q-19 0 -32.5 16t-10.5 35zM330 428q0 -136 62.5 -207t180.5 -71q119 0 181.5 71t62.5 207v291q0 136 -62.5 207t-181.5 71q-118 0 -180.5 -71t-62.5 -207v-291z " />
<glyph unicode="&#xf6;" d="M127 403v340q0 197 120 310.5t326 113.5q207 0 327 -113t120 -311v-340q0 -197 -119.5 -310t-327.5 -113q-206 0 -326 113t-120 310zM223 1374q0 62 29 95.5t84 33.5q57 0 87 -33.5t30 -95.5q0 -59 -30 -91t-87 -32q-55 0 -84 32t-29 91zM330 428q0 -136 62.5 -207 t180.5 -71q119 0 181.5 71t62.5 207v291q0 136 -62.5 207t-181.5 71q-118 0 -180.5 -71t-62.5 -207v-291zM694 1374q0 62 29.5 95.5t83.5 33.5q57 0 87 -33.5t30 -95.5q0 -59 -30 -91t-87 -32q-54 0 -83.5 32t-29.5 91z" />
<glyph unicode="&#xf7;" horiz-adv-x="1177" d="M88 537v73q0 22 15.5 38t37.5 16h897q22 0 37 -16t15 -38v-73q0 -22 -15 -38t-37 -16h-897q-22 0 -37.5 16t-15.5 38zM459 102q0 64 33 96.5t90 32.5q59 0 92 -32.5t33 -96.5q0 -61 -33 -91.5t-92 -30.5q-58 0 -90.5 30.5t-32.5 91.5zM459 1038q0 64 33 96.5t90 32.5 q59 0 92 -32.5t33 -96.5q0 -61 -33 -92t-92 -31q-57 0 -90 31t-33 92z" />
<glyph unicode="&#xf8;" d="M2 43v135q0 53 41 86l88 70q-4 25 -4 69v340q0 197 120 310.5t326 113.5q126 0 221.5 -45t151.5 -129l160 129q12 10 26.5 3.5t14.5 -21.5v-137q0 -52 -43 -84l-88 -72q4 -23 4 -68v-340q0 -197 -119.5 -310t-327.5 -113q-127 0 -222.5 44.5t-149.5 129.5l-158 -129 q-13 -10 -27 -3.5t-14 21.5zM330 498l461 368q-53 131 -218 131q-118 0 -180.5 -71t-62.5 -207v-221zM354 279q56 -129 219 -129q119 0 182.5 71t63.5 207v221z" />
<glyph unicode="&#xf9;" horiz-adv-x="1132" d="M135 373v723q0 22 14.5 36.5t36.5 14.5h101q22 0 36.5 -14.5t14.5 -36.5v-697q0 -133 40 -189t152 -56q72 0 142.5 40t118.5 99v803q0 22 14.5 36.5t36.5 14.5h100q22 0 36.5 -14.5t14.5 -36.5v-1045q0 -22 -14.5 -36.5t-36.5 -14.5h-78q-22 0 -39 14.5t-18 36.5l-6 66 q-62 -63 -142.5 -100t-166.5 -37q-193 0 -275 97.5t-82 295.5zM356.5 1505.5q6.5 14.5 20.5 14.5h127q50 0 80 -45l112 -170q9 -13 2 -28t-24 -15h-80q-56 0 -86 38l-148 179q-10 12 -3.5 26.5z" />
<glyph unicode="&#xfa;" horiz-adv-x="1132" d="M135 373v723q0 22 14.5 36.5t36.5 14.5h101q22 0 36.5 -14.5t14.5 -36.5v-697q0 -132 40.5 -188.5t153.5 -56.5q72 0 141.5 40t117.5 99v803q0 22 14.5 36.5t36.5 14.5h100q22 0 36.5 -14.5t14.5 -36.5v-1045q0 -22 -14.5 -36.5t-36.5 -14.5h-78q-22 0 -39 14.5t-18 36.5 l-6 66q-62 -63 -142 -100t-165 -37q-193 0 -276 97.5t-83 295.5zM465 1277q-7 15 2 28l111 170q30 45 81 45h125q15 0 22 -14.5t-3 -26.5l-148 -179q-30 -38 -86 -38h-80q-17 0 -24 15z" />
<glyph unicode="&#xfb;" horiz-adv-x="1132" d="M135 373v723q0 22 14.5 36.5t36.5 14.5h101q22 0 36.5 -14.5t14.5 -36.5v-697q0 -133 40 -189t152 -56q72 0 142.5 40t118.5 99v803q0 22 14.5 36.5t36.5 14.5h100q22 0 36.5 -14.5t14.5 -36.5v-1045q0 -22 -14.5 -36.5t-36.5 -14.5h-78q-22 0 -39 14.5t-18 36.5l-6 66 q-62 -63 -142.5 -100t-166.5 -37q-194 0 -275.5 97t-81.5 296zM324 1277q-7 15 2 28l118 172q31 43 82 43h72q53 0 84 -43l119 -172q9 -13 1.5 -28t-24.5 -15h-76q-54 0 -79 45l-62 102l-57 -102q-25 -45 -80 -45h-78q-15 0 -22 15z" />
<glyph unicode="&#xfc;" horiz-adv-x="1132" d="M135 373v723q0 22 14.5 36.5t36.5 14.5h101q22 0 36.5 -14.5t14.5 -36.5v-697q0 -133 40 -189t152 -56q72 0 142.5 40t118.5 99v803q0 22 14.5 36.5t36.5 14.5h100q22 0 36.5 -14.5t14.5 -36.5v-1045q0 -22 -14.5 -36.5t-36.5 -14.5h-78q-22 0 -39 14.5t-18 36.5l-6 66 q-62 -63 -142.5 -100t-166.5 -37q-193 0 -275 97.5t-82 295.5zM215 1374q0 62 29.5 95.5t83.5 33.5q57 0 86.5 -33.5t29.5 -95.5q0 -59 -29.5 -91t-86.5 -32q-54 0 -83.5 32t-29.5 91zM686 1374q0 62 29.5 95.5t83.5 33.5q57 0 86.5 -33.5t29.5 -95.5q0 -59 -29.5 -91 t-86.5 -32q-54 0 -83.5 32t-29.5 91z" />
<glyph unicode="&#xfd;" horiz-adv-x="1009" d="M20 1098q-6 19 4.5 34t30.5 15h115q23 0 41.5 -13.5t24.5 -35.5l272 -862l270 862q6 22 25.5 35.5t42.5 13.5h108q20 0 30.5 -15t4.5 -34l-391 -1118q-50 -141 -156.5 -221.5t-251.5 -84.5q-20 0 -36.5 16t-16.5 36v57q0 51 53 57q159 13 211 174zM406 1277q-7 15 2 28 l110 170q30 45 82 45h125q15 0 21.5 -14.5t-3.5 -26.5l-147 -179q-30 -38 -86 -38h-80q-17 0 -24 15z" />
<glyph unicode="&#xfe;" horiz-adv-x="1153" d="M139 -256v1741q0 22 14.5 36.5t36.5 14.5h101q22 0 36.5 -14.5t14.5 -36.5v-445q134 127 299 127q383 0 383 -409v-369q0 -409 -383 -409q-83 0 -164 35t-135 91v-362q0 -22 -14.5 -36.5t-36.5 -14.5h-101q-22 0 -36.5 14.5t-14.5 36.5zM342 293q48 -58 120.5 -98.5 t145.5 -40.5q113 0 162 64t49 196v319q0 132 -49 196t-162 64q-73 0 -145.5 -40.5t-120.5 -98.5v-561z" />
<glyph unicode="&#xff;" horiz-adv-x="1009" d="M20 1098q-6 19 4.5 34t30.5 15h115q23 0 41.5 -13.5t24.5 -35.5l272 -862l270 862q6 22 25.5 35.5t42.5 13.5h108q20 0 30.5 -15t4.5 -34l-391 -1118q-50 -141 -156.5 -221.5t-251.5 -84.5q-20 0 -36.5 16t-16.5 36v57q0 51 53 57q159 13 211 174zM156 1374q0 62 29 95.5 t83 33.5q57 0 88 -33.5t31 -95.5q0 -59 -31 -91t-88 -32q-54 0 -83 32t-29 91zM627 1374q0 62 29 95.5t83 33.5q57 0 88 -33.5t31 -95.5q0 -59 -31 -91t-88 -32q-54 0 -83 32t-29 91z" />
<glyph unicode="&#x152;" horiz-adv-x="1818" d="M123 428v578q0 210 135 333t356 123q91 0 173.5 -33.5t125.5 -93.5v60q0 15 12 27t27 12h729q22 0 37 -15t15 -37v-82q0 -22 -15 -36.5t-37 -14.5h-553v-475h445q22 0 37.5 -14.5t15.5 -36.5v-80q0 -22 -15.5 -36.5t-37.5 -14.5h-445v-410h568q22 0 37.5 -14.5 t15.5 -36.5v-80q0 -22 -15.5 -36.5t-37.5 -14.5h-744q-17 0 -28 11t-11 28v53q-107 -121 -299 -121q-221 0 -356 123.5t-135 333.5zM338 455q0 -144 78.5 -221.5t208.5 -77.5q127 0 207.5 78.5t80.5 216.5v532q0 138 -80.5 216.5t-207.5 78.5q-130 0 -208.5 -77.5 t-78.5 -221.5v-524z" />
<glyph unicode="&#x153;" horiz-adv-x="1835" d="M127 403v340q0 197 120 310.5t326 113.5q229 0 345 -153q116 153 348 153q206 0 326 -113.5t120 -310.5v-159q0 -20 -16 -36t-37 -16h-639v-126q0 -256 246 -256q118 0 177.5 57.5t59.5 124.5q0 47 49 47h105q22 0 35.5 -14t13.5 -37q0 -61 -29.5 -122t-83.5 -112 t-139.5 -82.5t-187.5 -31.5q-239 0 -348 151q-109 -151 -345 -151q-206 0 -326 113t-120 310zM330 428q0 -136 62.5 -207t180.5 -71q117 0 180.5 62t63.5 187v336q0 132 -62.5 197t-181.5 65q-118 0 -180.5 -71t-62.5 -207v-291zM1020 682h489v45q0 133 -62 201.5t-181 68.5 t-182.5 -63.5t-63.5 -190.5v-61z" />
<glyph unicode="&#x178;" horiz-adv-x="1136" d="M27 1386q-8 18 1 33t27 15h129q23 0 43 -13t31 -35l313 -694l316 694q9 22 29 35t45 13h122q17 0 26.5 -15.5t2.5 -32.5l-434 -897v-438q0 -22 -15.5 -36.5t-37.5 -14.5h-109q-22 0 -37.5 14.5t-15.5 36.5v434zM219 1661q0 62 29 95.5t84 33.5q57 0 87 -33.5t30 -95.5 q0 -59 -30 -91t-87 -32q-55 0 -84 32t-29 91zM690 1661q0 62 29.5 95.5t83.5 33.5q57 0 87 -33.5t30 -95.5q0 -59 -30 -91t-87 -32q-54 0 -83.5 32t-29.5 91z" />
<glyph unicode="&#x2c6;" horiz-adv-x="737" d="M129.5 1277q-7.5 15 1.5 28l119 172q31 43 82 43h71q53 0 84 -43l119 -172q9 -13 2 -28t-24 -15h-76q-55 0 -80 45l-61 102l-58 -102q-25 -45 -80 -45h-77q-15 0 -22.5 15z" />
<glyph unicode="&#x2dc;" horiz-adv-x="909" d="M90 1335q13 80 66.5 131.5t136.5 51.5q52 0 114 -22t113 -44t76 -22q44 0 63 32q18 27 32 35t44 8h37q19 0 33.5 -16t13.5 -35q-13 -82 -64.5 -132t-140.5 -50q-60 0 -163 44t-140 44q-43 0 -63 -33q-15 -26 -30 -34.5t-46 -8.5h-37q-19 0 -33 16t-12 35z" />
<glyph unicode="&#x2000;" horiz-adv-x="924" />
<glyph unicode="&#x2001;" horiz-adv-x="1849" />
<glyph unicode="&#x2002;" horiz-adv-x="924" />
<glyph unicode="&#x2003;" horiz-adv-x="1849" />
<glyph unicode="&#x2004;" horiz-adv-x="616" />
<glyph unicode="&#x2005;" horiz-adv-x="462" />
<glyph unicode="&#x2006;" horiz-adv-x="308" />
<glyph unicode="&#x2007;" horiz-adv-x="308" />
<glyph unicode="&#x2008;" horiz-adv-x="231" />
<glyph unicode="&#x2009;" horiz-adv-x="369" />
<glyph unicode="&#x200a;" horiz-adv-x="102" />
<glyph unicode="&#x2010;" horiz-adv-x="813" d="M102 582v73q0 22 16 38t38 16h501q22 0 38 -16t16 -38v-73q0 -22 -16 -37t-38 -15h-501q-22 0 -38 15t-16 37z" />
<glyph unicode="&#x2011;" horiz-adv-x="813" d="M102 582v73q0 22 16 38t38 16h501q22 0 38 -16t16 -38v-73q0 -22 -16 -37t-38 -15h-501q-22 0 -38 15t-16 37z" />
<glyph unicode="&#x2012;" horiz-adv-x="813" d="M102 582v73q0 22 16 38t38 16h501q22 0 38 -16t16 -38v-73q0 -22 -16 -37t-38 -15h-501q-22 0 -38 15t-16 37z" />
<glyph unicode="&#x2013;" horiz-adv-x="1034" d="M10 582v73q0 22 15 38t36 16h912q21 0 36 -16t15 -38v-73q0 -22 -14.5 -37t-36.5 -15h-912q-22 0 -36.5 15t-14.5 37z" />
<glyph unicode="&#x2014;" horiz-adv-x="1705" d="M10 582v73q0 22 15 38t36 16h1581q22 0 38 -16t16 -38v-73q0 -22 -16 -37t-38 -15h-1581q-22 0 -36.5 15t-14.5 37z" />
<glyph unicode="&#x2018;" horiz-adv-x="419" d="M82 1409q0 62 34.5 94.5t92.5 32.5q55 0 88 -33t33 -94q0 -73 -47 -102q3 -75 61 -117q31 -20 31 -55v-19q0 -33 -39 -33q-84 0 -169 100.5t-85 225.5z" />
<glyph unicode="&#x2019;" horiz-adv-x="430" d="M53 1116v19q0 34 33 55q58 45 61 117q-47 27 -47 102q0 62 32 94.5t89 32.5q58 0 91.5 -32.5t33.5 -94.5q0 -125 -85 -225.5t-169 -100.5q-39 0 -39 33z" />
<glyph unicode="&#x201a;" horiz-adv-x="419" d="M53 -174q0 33 33 57q26 19 42.5 51t18.5 66q-47 27 -47 102q0 62 32 94.5t89 32.5q58 0 91.5 -32.5t33.5 -94.5q0 -125 -85 -225t-169 -100q-39 0 -39 33v16z" />
<glyph unicode="&#x201c;" horiz-adv-x="772" d="M82 1409q0 62 34.5 94.5t92.5 32.5q55 0 88 -33t33 -94q0 -73 -47 -102q3 -75 61 -117q31 -20 31 -55v-19q0 -33 -39 -33q-84 0 -169 100.5t-85 225.5zM426 1409q0 62 33.5 94.5t91.5 32.5q57 0 90 -32.5t33 -94.5q0 -74 -49 -102q3 -72 61 -117q33 -21 33 -55v-19 q0 -33 -39 -33q-84 0 -169 100.5t-85 225.5z" />
<glyph unicode="&#x201d;" horiz-adv-x="772" d="M53 1116v19q0 34 33 55q58 45 61 117q-47 27 -47 102q0 62 32 94.5t89 32.5q58 0 91.5 -32.5t33.5 -94.5q0 -125 -85 -225.5t-169 -100.5q-39 0 -39 33zM397 1116v19q0 33 31 55q61 45 61 117q-47 29 -47 102q0 61 33 94t88 33q58 0 92.5 -32.5t34.5 -94.5 q0 -125 -85 -225.5t-169 -100.5q-39 0 -39 33z" />
<glyph unicode="&#x201e;" horiz-adv-x="770" d="M53 -174q0 33 33 57q26 19 42.5 51t18.5 66q-47 27 -47 102q0 62 32 94.5t89 32.5q58 0 91.5 -32.5t33.5 -94.5q0 -125 -85 -225t-169 -100q-39 0 -39 33v16zM395 -174q0 33 33 57q26 19 42.5 51t18.5 66q-49 28 -49 102q0 62 33 94.5t88 32.5q60 0 93.5 -32.5 t33.5 -94.5q0 -125 -85 -225t-169 -100q-39 0 -39 33v16z" />
<glyph unicode="&#x2022;" horiz-adv-x="886" d="M121 659q0 170 84 256t231 86q154 0 242 -86t88 -256q0 -163 -88 -245t-242 -82q-147 0 -231 82t-84 245z" />
<glyph unicode="&#x2026;" horiz-adv-x="1112" d="M82 100q0 62 31 95.5t86 33.5q56 0 88 -33.5t32 -95.5q0 -59 -32 -91t-88 -32q-55 0 -86 32t-31 91zM438 100q0 62 31 95.5t84 33.5q58 0 89.5 -33.5t31.5 -95.5q0 -60 -32 -91.5t-89 -31.5q-53 0 -84 32t-31 91zM793 100q0 62 30.5 95.5t85.5 33.5q56 0 87.5 -33.5 t31.5 -95.5q0 -59 -31.5 -91t-87.5 -32q-55 0 -85.5 32t-30.5 91z" />
<glyph unicode="&#x202f;" horiz-adv-x="369" />
<glyph unicode="&#x2039;" horiz-adv-x="595" d="M102 557v31q0 45 37 88l318 309q11 9 24 3.5t13 -19.5v-131q0 -57 -39 -88l-187 -179l187 -178q39 -31 39 -86v-131q0 -15 -13 -20.5t-24 4.5l-318 309q-37 37 -37 88z" />
<glyph unicode="&#x203a;" horiz-adv-x="595" d="M102 176v131q0 52 39 86l187 178l-187 179q-17 15 -28 40t-11 48v131q0 13 14 19t23 -3l318 -309q37 -37 37 -88v-31q0 -56 -37 -88l-318 -309q-9 -11 -23 -5t-14 21z" />
<glyph unicode="&#x205f;" horiz-adv-x="462" />
<glyph unicode="&#x20ac;" horiz-adv-x="1005" d="M16 535l27 55q19 43 66 43h51v174h-111q-19 0 -29 16t-2 33l25 53q19 45 63 45h54v60q0 197 147 322.5t369 125.5q81 0 172 -16q21 -3 36 -21.5t15 -40.5v-69q0 -22 -15 -35.5t-36 -9.5q-82 10 -160 10q-144 0 -229.5 -76.5t-85.5 -210.5v-39h430q19 0 29 -15t4 -34 l-25 -49q-9 -23 -28.5 -36t-43.5 -13h-368v-174h432q19 0 29 -15t4 -34l-25 -49q-9 -23 -28.5 -36.5t-43.5 -13.5h-366v-41q0 -133 87 -211.5t228 -78.5q78 0 160 10q22 3 36.5 -10t14.5 -35v-70q0 -22 -15 -40t-36 -21q-97 -17 -172 -17q-222 0 -369 126t-147 325v63h-113 q-17 0 -27.5 16.5t-3.5 33.5z" />
<glyph unicode="&#x2122;" horiz-adv-x="1832" d="M57 1352v34q0 22 15 37t37 15h585q22 0 38 -15t16 -37v-34q0 -22 -16 -38t-38 -16h-209v-757q0 -21 -15.5 -36.5t-37.5 -15.5h-59q-21 0 -36 15.5t-15 36.5v757h-213q-22 0 -37 16t-15 38zM803 541v845q0 22 15.5 37t37.5 15h64q23 0 45 -12.5t32 -32.5l273 -478l266 478 q27 45 78 45h67q22 0 37 -15t15 -37v-845q0 -21 -15.5 -36.5t-36.5 -15.5h-61q-21 0 -36 15.5t-15 36.5l4 604l-207 -363q-26 -47 -80 -47h-39q-52 0 -78 47l-204 361l2 -602q0 -21 -15.5 -36.5t-36.5 -15.5h-59q-22 0 -37.5 15.5t-15.5 36.5z" />
<glyph unicode="&#xe000;" d="M0 0v1147h1147v-1147h-1147z" />
</font>
</defs>
</svg>
