<?xml version="1.0" standalone="no"?>
<!DOCTYPE svg PUBLIC "-//W3C//DTD SVG 1.1//EN" "http://www.w3.org/Graphics/SVG/1.1/DTD/svg11.dtd" >
<svg xmlns="http://www.w3.org/2000/svg">
<metadata></metadata>
<defs>
<font id="antartida_rounded_lightRg" horiz-adv-x="1216" >
<font-face units-per-em="2048" ascent="1536" descent="-512" />
<missing-glyph horiz-adv-x="585" />
<glyph unicode="&#xfb01;" horiz-adv-x="1103" d="M10 1059v47q0 17 12 29t29 12h103v39q0 370 403 370q146 0 258 -38q14 -5 26.5 -22t12.5 -32v-47q0 -17 -12 -26t-29 -5q-161 39 -256 39q-132 0 -195 -58.5t-63 -201.5v-18h594q17 0 29 -12t12 -29v-1065q0 -17 -12 -29t-29 -12h-64q-17 0 -29 12t-12 29v977h-489v-977 q0 -17 -12 -29t-29 -12h-63q-17 0 -29 12t-12 29v977h-103q-17 0 -29 12t-12 29z" />
<glyph unicode="&#xfb02;" horiz-adv-x="1071" d="M10 985v47q0 17 12 29t29 12h103v78q0 192 112 298.5t303 106.5q169 0 312 -63q15 -6 26 -23t11 -34v-1395q0 -17 -12 -29t-29 -12h-64q-17 0 -29 12t-12 29v1358q-99 26 -203 26q-129 0 -199.5 -74.5t-70.5 -224.5v-53h317q17 0 29 -12t12 -29v-47q0 -17 -12 -29 t-29 -12h-317v-903q0 -17 -12 -29t-29 -12h-63q-17 0 -29 12t-12 29v903h-103q-17 0 -29 12t-12 29z" />
<glyph unicode="&#xfb03;" horiz-adv-x="1558" d="M10 1059v47q0 17 12 29t29 12h103q0 105 27 179t79 115.5t117.5 60t152.5 18.5q68 0 146 -25.5t137 -60.5q116 122 309 122q92 0 195 -28q15 -4 27 -21t12 -32v-48q0 -17 -11.5 -25t-27.5 -5q-103 28 -195 28q-132 0 -199 -64t-67 -214h508q17 0 29 -12t12 -29v-1065 q0 -17 -12 -29t-29 -12h-64q-17 0 -28.5 12t-11.5 29v977h-404v-977q0 -17 -12 -29t-29 -12h-63q-17 0 -29 12t-12 29v977h-412v-977q0 -17 -12 -29t-29 -12h-63q-17 0 -29 12t-12 29v977h-103q-17 0 -29 12t-12 29zM299 1147h412q0 71 8.5 109t30.5 79q-114 54 -220 54 q-61 0 -100 -9t-71 -34t-46 -74t-14 -125z" />
<glyph unicode="&#xfb04;" horiz-adv-x="1628" d="M10 985v47q0 17 12 29t29 12h103v86q0 187 100.5 274t275.5 87q131 0 291 -78q114 114 305 114q169 0 312 -63q15 -6 26 -23t11 -34v-1395q0 -17 -12 -29t-29 -12h-64q-17 0 -29 12t-12 29v1358q-99 26 -203 26q-270 0 -270 -290v-62h318q17 0 28.5 -12t11.5 -29v-47 q0 -17 -11.5 -29t-28.5 -12h-318v-903q0 -17 -12 -29t-29 -12h-63q-17 0 -29 12t-12 29v903h-412v-903q0 -17 -12 -29t-29 -12h-63q-17 0 -29 12t-12 29v903h-103q-17 0 -29 12t-12 29zM299 1073h412v86q0 94 39 176q-114 54 -220 54q-59 0 -99.5 -11t-71.5 -39t-45.5 -78 t-14.5 -126v-62z" />
<glyph horiz-adv-x="2048" />
<glyph horiz-adv-x="2048" />
<glyph unicode="&#xd;" horiz-adv-x="2048" />
<glyph unicode=" "  horiz-adv-x="585" />
<glyph unicode="&#x09;" horiz-adv-x="585" />
<glyph unicode="&#xa0;" horiz-adv-x="585" />
<glyph unicode="!" horiz-adv-x="473" d="M154 76q0 44 21.5 67t57.5 23q40 0 63 -23t23 -67q0 -48 -23 -72t-63 -24q-37 0 -58 24t-21 72zM164 1085v308q0 17 12 29t29 12h63q17 0 29 -12t12 -29v-308l-14 -708q0 -17 -12 -29t-29 -12h-35q-17 0 -29 12t-12 29z" />
<glyph unicode="&#x22;" horiz-adv-x="542" d="M74 1495q0 17 11 29t28 12h71q17 0 28 -12t11 -29l-16 -303q-2 -17 -14 -29t-29 -12h-31q-17 0 -29 12t-14 29zM319 1495q0 17 11 29t28 12h72q17 0 28 -12t11 -29l-16 -303q-2 -17 -14 -29t-29 -12h-31q-17 0 -29 12t-14 29z" />
<glyph unicode="#" horiz-adv-x="1388" d="M72 461v39q0 17 12 29t29 12h258l75 352h-233q-17 0 -29 12t-12 29v39q0 17 12 29t29 12h258l84 379q3 18 17 29.5t32 11.5h49q15 0 25.5 -13t7.5 -28l-84 -379h309l84 379q3 18 17 29.5t32 11.5h50q15 0 25 -13t7 -28l-84 -379h234q17 0 29 -12t12 -29v-39 q0 -17 -12 -29t-29 -12h-258l-78 -352h234q17 0 28.5 -12t11.5 -29v-39q0 -17 -11.5 -29t-28.5 -12h-261l-82 -379q-3 -17 -17.5 -29t-31.5 -12h-47q-15 0 -25.5 13t-7.5 28l82 379h-311l-82 -379q-3 -17 -17.5 -29t-31.5 -12h-47q-15 0 -25.5 13t-7.5 28l82 379h-231 q-17 0 -29 12t-12 29zM500 541h311l76 352h-309z" />
<glyph unicode="$" horiz-adv-x="1185" d="M111 408q0 38 36 38h82q37 0 37 -38q0 -48 30.5 -104.5t96.5 -105t150 -57.5v512q-400 54 -400 363v41q0 163 99.5 264t300.5 111v165q0 17 12 29t29 12h30q17 0 29 -12t12 -29v-167q97 -10 173.5 -49.5t122.5 -97.5t69.5 -124t23.5 -135q0 -18 -9.5 -28.5t-26.5 -10.5 h-80q-37 0 -37 39q0 57 -24 111.5t-79.5 98.5t-132.5 56v-510q418 -46 418 -346v-49q0 -169 -107.5 -271t-310.5 -114v-164q0 -17 -12 -29t-29 -12h-30q-17 0 -29 12t-12 29v166q-103 8 -187 47t-136.5 96.5t-80.5 125t-28 137.5zM291 1044q0 -119 63.5 -173.5t188.5 -75.5 v499q-127 -10 -189.5 -77.5t-62.5 -172.5zM655 139q132 10 200.5 80.5t68.5 183.5q0 106 -69.5 161t-199.5 75v-500z" />
<glyph unicode="%" horiz-adv-x="1804" d="M113 879v282q0 137 85.5 217t227.5 80q141 0 226 -80t85 -217v-282q0 -136 -85.5 -216.5t-225.5 -80.5q-142 0 -227.5 80.5t-85.5 216.5zM236 895q0 -99 51 -152t139 -53q87 0 137.5 53t50.5 152v248q0 99 -50.5 153t-137.5 54q-88 0 -139 -53.5t-51 -153.5v-248zM304 12 q-6 12 1 21l1036 1368q23 33 66 33h78q12 0 17.5 -11t-1.5 -22l-1044 -1368q-23 -33 -66 -33h-69q-12 0 -18 12zM1071 276v283q0 137 85.5 217t227.5 80q138 0 223 -80.5t85 -216.5v-283q0 -135 -85 -215.5t-223 -80.5q-142 0 -227.5 80t-85.5 216zM1190 293 q0 -100 51.5 -152.5t142.5 -52.5q87 0 138 53t51 152v248q0 99 -51 153t-138 54q-91 0 -142.5 -53.5t-51.5 -153.5v-248z" />
<glyph unicode="&#x26;" horiz-adv-x="1437" d="M133 324v26q0 53 20.5 105.5t49.5 93t74.5 83t81.5 70.5t83 60q-45 47 -74 81t-63.5 82.5t-51.5 98t-17 98.5q0 150 97.5 245t274.5 95q195 0 285 -83.5t90 -231.5q0 -52 -16.5 -98.5t-40.5 -81.5t-68 -74t-82 -66.5t-99 -69.5l-18 -12l357 -376q81 135 98 262 q2 19 14.5 30t32.5 11h60q17 0 29 -13t10 -28q-8 -84 -45.5 -182.5t-98.5 -186.5l221 -231q7 -9 3 -20t-15 -11h-117q-38 0 -69 31l-115 119q-182 -179 -424 -179q-224 0 -345.5 88t-121.5 265zM287 328q0 -226 313 -226q187 0 328 148l-389 412q-132 -92 -192 -164.5 t-60 -161.5v-8zM383 1133q0 -34 8 -63.5t31.5 -63t36.5 -49t54 -57.5t52 -54q22 16 65.5 45.5t65.5 45.5t54 43.5t48 49.5t28 51.5t12 61.5q0 96 -51.5 142t-178.5 46q-225 0 -225 -198z" />
<glyph unicode="'" horiz-adv-x="296" d="M74 1495q0 17 11 29t28 12h71q17 0 28 -12t11 -29l-16 -303q-2 -17 -14 -29t-29 -12h-31q-17 0 -29 12t-14 29z" />
<glyph unicode="(" horiz-adv-x="608" d="M133 258v795q0 109 37 205.5t94.5 158.5t125.5 97.5t132 35.5q15 0 25 -9.5t10 -24.5v-46q0 -41 -41 -53q-107 -33 -174.5 -140t-67.5 -253v-737q0 -146 67.5 -253t174.5 -140q41 -12 41 -54v-45q0 -15 -10 -25t-25 -10q-64 0 -132 35.5t-125.5 98t-94.5 159t-37 205.5z " />
<glyph unicode=")" horiz-adv-x="608" d="M51 -160q0 42 41 54q107 33 174.5 140t67.5 253v737q0 146 -67.5 253t-174.5 140q-41 12 -41 53v46q0 15 10 24.5t25 9.5q64 0 132 -35.5t125.5 -97.5t94.5 -158.5t37 -205.5v-795q0 -109 -37 -205.5t-94.5 -159t-125.5 -98t-132 -35.5q-15 0 -25 10t-10 25v45z" />
<glyph unicode="*" horiz-adv-x="931" d="M96 1192l19 53q5 15 20.5 23t30.5 2l240 -82l-7 252q0 17 12 29t29 12h56q17 0 29 -12t12 -29l-7 -250l236 80q15 6 30.5 -2t20.5 -23l19 -53q5 -15 -3.5 -31t-25.5 -20l-244 -72l156 -203q9 -13 6 -30t-16 -27l-41 -31q-14 -10 -31.5 -7t-26.5 17l-143 211l-143 -211 q-11 -14 -28.5 -17t-31.5 7l-41 31q-14 9 -16 26t8 31l158 205l-248 70q-17 4 -25.5 20t-3.5 31z" />
<glyph unicode="+" d="M113 592v57q0 17 12 29t29 12h385v422q0 17 12 29t29 12h57q17 0 29 -12t12 -29v-422h385q17 0 29 -12t12 -29v-57q0 -17 -12 -29t-29 -12h-385v-422q0 -17 -12 -29t-29 -12h-57q-17 0 -29 12t-12 29v422h-385q-17 0 -29 12t-12 29z" />
<glyph unicode="," horiz-adv-x="374" d="M39 -174q0 33 27 49q28 17 45.5 50t19.5 69q-39 25 -39 90q0 55 24.5 83t67.5 28q46 0 72.5 -28t26.5 -83q0 -121 -73.5 -211t-137.5 -90q-33 0 -33 29v14z" />
<glyph unicode="-" horiz-adv-x="796" d="M113 592v57q0 17 12 29t29 12h489q17 0 29 -12t12 -29v-57q0 -17 -12 -29t-29 -12h-489q-17 0 -29 12t-12 29z" />
<glyph unicode="." horiz-adv-x="374" d="M92 84q0 55 24.5 83t67.5 28q46 0 72.5 -28t26.5 -83q0 -52 -26.5 -78t-72.5 -26q-43 0 -67.5 26t-24.5 78z" />
<glyph unicode="/" horiz-adv-x="970" d="M29 -186l774 1683q19 39 59 39h58q14 0 21.5 -13t0.5 -26l-776 -1683q-19 -39 -60 -39h-55q-14 0 -21.5 13t-0.5 26z" />
<glyph unicode="0" horiz-adv-x="1175" d="M123 418v598q0 205 128 325.5t337 120.5t337 -120.5t128 -325.5v-598q0 -205 -128 -326t-337 -121t-337 121t-128 326zM276 446q0 -161 83 -246t229 -85q145 0 228 85t83 246v541q0 161 -83 246.5t-228 85.5t-228.5 -85.5t-83.5 -246.5v-541z" />
<glyph unicode="1" horiz-adv-x="561" d="M51 1333v60q0 17 12 29t29 12h295q17 0 29 -12t12 -29v-1352q0 -17 -12 -29t-29 -12h-72q-17 0 -29 12t-12 29v1251h-182q-17 0 -29 12t-12 29z" />
<glyph unicode="2" horiz-adv-x="1165" d="M113 41v27q0 39 28 67l584 633q83 91 120.5 161.5t37.5 137.5q0 110 -75 181t-218 71q-74 0 -134 -26.5t-95.5 -69.5t-54.5 -94.5t-19 -106.5q0 -39 -37 -39h-80q-17 0 -27 11t-10 28q0 86 28.5 164t83.5 140t144 99t201 37q220 0 336 -107.5t116 -283.5 q0 -82 -34.5 -163.5t-77.5 -137.5t-113 -131l-459 -498h666q17 0 29 -12t12 -29v-59q0 -17 -12 -29t-29 -12h-870q-17 0 -29 12t-12 29z" />
<glyph unicode="3" horiz-adv-x="1161" d="M113 412q0 17 10 28t27 11h81q37 0 37 -39q0 -54 17.5 -104.5t51.5 -95t94 -71t136 -26.5q147 0 226 71t79 197v37q0 123 -56.5 199.5t-145.5 76.5h-191q-17 0 -29 12t-12 29v51q0 17 12 29t29 12h189q60 0 105.5 47t65 102.5t19.5 100.5q0 106 -72.5 176t-210.5 70 q-71 0 -127.5 -24.5t-90 -66t-51 -92t-17.5 -104.5q0 -39 -37 -39h-78q-17 0 -27 11t-10 28q0 83 27.5 158t80 135t138 95.5t192.5 35.5q212 0 324.5 -105t112.5 -274q0 -88 -40.5 -172.5t-111.5 -142.5q78 -32 128 -125.5t50 -198.5v-65q0 -185 -124 -296.5t-347 -111.5 q-112 0 -200.5 37t-143 99.5t-82.5 140.5t-28 164z" />
<glyph unicode="4" horiz-adv-x="1183" d="M72 328v22q0 37 18 78l508 969q16 37 59 37h86q13 0 21 -12.5t2 -24.5l-496 -969h547v541q0 17 12 29t29 12h72q17 0 29 -12t12 -29v-541h121q17 0 29 -12t12 -29v-59q0 -17 -12 -29t-29 -12h-121v-246q0 -17 -12 -29t-29 -12h-72q-17 0 -29 12t-12 29v246h-704 q-17 0 -29 12t-12 29z" />
<glyph unicode="5" horiz-adv-x="1144" d="M104 412q0 17 10 28t27 11h82q37 0 37 -39q0 -51 16.5 -100.5t49.5 -95t93.5 -73.5t139.5 -28q148 0 225.5 69t77.5 195v147q0 159 -71 223t-211 64q-144 0 -277 -72q-41 -20 -86 -20h-39q-15 0 -26.5 13t-8.5 28l93 631q3 17 16.5 29t30.5 12h641q17 0 29 -12t12 -29 v-60q0 -17 -12 -29t-29 -12h-547l-60 -405q124 69 267 69q214 0 329 -99t115 -306v-176q0 -185 -123 -294.5t-346 -109.5q-112 0 -201 37t-143 99.5t-82.5 140.5t-28.5 164z" />
<glyph unicode="6" horiz-adv-x="1196" d="M123 375v641q0 203 128 324.5t339 121.5q213 0 338 -111t125 -307q0 -17 -10 -27.5t-27 -10.5h-78q-37 0 -37 38q0 129 -82.5 202t-228.5 73q-148 0 -231 -86t-83 -246v-244q68 50 165.5 79.5t195.5 29.5q211 0 323.5 -98t112.5 -295v-68q0 -202 -130 -311t-343 -109 q-141 0 -246.5 42.5t-168 135t-62.5 226.5zM276 414q0 -299 324 -299q149 0 234.5 76.5t85.5 236.5q0 154 -69.5 217.5t-217.5 63.5q-101 0 -198.5 -31.5t-158.5 -83.5v-180z" />
<glyph unicode="7" horiz-adv-x="954" d="M35 1333v60q0 17 12 29t29 12h811q17 0 29 -12t12 -29v-23q0 -41 -17 -80l-542 -1251q-17 -39 -58 -39h-86q-14 0 -22 13t-2 26l542 1253h-667q-17 0 -29 12t-12 29z" />
<glyph unicode="8" horiz-adv-x="1228" d="M123 379v65q0 103 49 192.5t131 135.5q-72 58 -112.5 140.5t-40.5 170.5q0 166 124.5 272.5t339.5 106.5t340 -106.5t125 -272.5q0 -88 -40.5 -170.5t-112.5 -140.5q82 -41 131 -132t49 -196v-65q0 -186 -128 -297t-364 -111t-363.5 111t-127.5 297zM289 383 q0 -127 82 -197.5t243 -70.5q162 0 244 70.5t82 197.5v37q0 125 -62 200.5t-155 75.5h-217q-93 0 -155 -75.5t-62 -200.5v-37zM303 1079q0 -105 60 -177.5t155 -72.5h184q96 0 160 73t64 177q0 103 -85.5 174.5t-226.5 71.5q-140 0 -225.5 -71.5t-85.5 -174.5z" />
<glyph unicode="9" horiz-adv-x="1187" d="M123 389q0 17 10 28t27 11h78q36 0 36 -39q0 -125 86 -199.5t234 -74.5t232.5 86t84.5 245v226q-123 -72 -352 -72q-210 0 -323 98t-113 293v60q0 201 127.5 306t341.5 105q217 0 345 -99t128 -298v-647q0 -203 -129.5 -325t-341.5 -122q-214 0 -342.5 111.5 t-128.5 306.5zM276 1018q0 -148 70 -211.5t217 -63.5q214 0 348 74v207q0 295 -319 295q-316 0 -316 -301z" />
<glyph unicode=":" horiz-adv-x="436" d="M123 84q0 55 24.5 83t67.5 28q46 0 72 -28t26 -83q0 -52 -26 -78t-72 -26q-43 0 -67.5 26t-24.5 78zM123 1057q0 55 24.5 82.5t67.5 27.5q46 0 72 -27.5t26 -82.5q0 -52 -26 -78.5t-72 -26.5q-43 0 -67.5 26.5t-24.5 78.5z" />
<glyph unicode=";" horiz-adv-x="442" d="M76 -174q0 33 26 49q28 17 46 50.5t20 68.5q-39 25 -39 90q0 55 24.5 83t67.5 28q46 0 72 -28t26 -83q0 -121 -73 -211t-137 -90q-33 0 -33 29v14zM129 1057q0 55 24.5 82.5t67.5 27.5q46 0 72 -27.5t26 -82.5q0 -52 -26 -78.5t-72 -26.5q-43 0 -67.5 26.5t-24.5 78.5z " />
<glyph unicode="&#x3c;" horiz-adv-x="733" d="M113 549v49q0 42 28 70l451 450q8 7 18.5 3t10.5 -15v-125q0 -41 -29 -70l-340 -338l340 -337q29 -29 29 -70v-125q0 -11 -10.5 -15t-18.5 3l-451 450q-28 28 -28 70z" />
<glyph unicode="=" horiz-adv-x="1196" d="M113 326v57q0 17 12 29t29 12h888q17 0 29 -12t12 -29v-57q0 -17 -12 -29t-29 -12h-888q-17 0 -29 12t-12 29zM113 807v57q0 17 12 29t29 12h888q17 0 29 -12t12 -29v-57q0 -17 -12 -29t-29 -12h-888q-17 0 -29 12t-12 29z" />
<glyph unicode="&#x3e;" horiz-adv-x="733" d="M113 41v125q0 42 28 70l340 337l-340 338q-28 28 -28 70v125q0 11 10.5 15t17.5 -3l451 -450q29 -29 29 -70v-49q0 -41 -29 -70l-451 -450q-7 -7 -17.5 -3t-10.5 15z" />
<glyph unicode="?" horiz-adv-x="1032" d="M78 1100q0 68 26.5 131t77 115.5t133 84t185.5 31.5q200 0 310 -94.5t110 -241.5v-32q0 -65 -14 -119.5t-44 -101t-60.5 -81t-78.5 -79.5q-101 -96 -143.5 -168.5t-42.5 -165.5v-12q0 -17 -12 -29t-29 -12h-66q-17 0 -29 12t-12 29v30q0 50 4 89.5t17 73.5t23 56.5 t35.5 52t39.5 44t51 49.5t55 53q77 77 111.5 142.5t34.5 156.5q0 98 -63.5 154.5t-196.5 56.5t-202 -65t-69 -160q0 -18 -10.5 -28.5t-28.5 -10.5h-75q-17 0 -27 11t-10 28zM379 76q0 46 23 70t61 24q41 0 65.5 -24t24.5 -70q0 -49 -24.5 -75t-65.5 -26q-38 0 -61 26t-23 75 z" />
<glyph unicode="@" horiz-adv-x="1536" d="M117 410l86 614q19 133 118.5 234.5t243.5 152.5t307 51t293 -51t201.5 -152.5t52.5 -234.5l-65 -459q-15 -119 -76 -183.5t-168 -64.5q-140 0 -172 127q-45 -50 -119 -88.5t-133 -38.5q-128 0 -185 71t-38 204l35 250q19 133 96 203.5t205 70.5q61 0 114.5 -24t87.5 -66 l5 37q3 17 16.5 29t30.5 12h16q15 0 26.5 -13t8.5 -28l-70 -506q-11 -77 8 -112t78 -35q60 0 92 35.5t43 111.5l64 451q12 87 -22 156.5t-100.5 112t-153.5 65t-185 22.5t-191 -22.5t-171.5 -65t-131.5 -112t-65 -156.5l-82 -582q-13 -87 20.5 -156.5t100 -112t153.5 -65 t185 -22.5q156 0 295 51q13 6 24 -3t9 -24l-3 -22q-3 -18 -15.5 -33t-29.5 -21q-136 -47 -292 -47q-163 0 -293 51t-201.5 153t-52.5 235zM563 608q-14 -101 19 -151.5t123 -50.5q60 0 126 40.5t101 90.5l53 381q-30 45 -82.5 77.5t-109.5 32.5q-90 0 -137.5 -51t-61.5 -152 z" />
<glyph unicode="A" d="M25 39l489 1356q14 39 55 39h78q41 0 55 -39l490 -1356q2 -5 2 -10q0 -9 -6 -17q-8 -12 -23 -12h-82q-41 0 -55 39l-139 401h-565l-138 -401q-14 -39 -55 -39h-80q-15 0 -23 12q-5 8 -5 16q0 6 2 11zM373 582h467l-236 673z" />
<glyph unicode="B" horiz-adv-x="1196" d="M133 41v1352q0 17 12 29t29 12h463q432 0 432 -359v-84q0 -87 -34.5 -161.5t-108.5 -114.5q80 -34 129 -115t49 -180v-76q0 -155 -104.5 -249.5t-307.5 -94.5h-518q-17 0 -29 12t-12 29zM287 141h401q132 0 197 62.5t65 167.5v22q0 111 -62 175.5t-177 64.5h-424v-492z M287 770h403q107 0 166 61t59 187v26q0 135 -65 190.5t-209 55.5h-354v-520z" />
<glyph unicode="C" horiz-adv-x="1202" d="M123 418v598q0 202 135 324t348 122q210 0 344.5 -109.5t134.5 -277.5v-31q0 -38 -36 -38h-76q-37 0 -37 38v13q0 117 -92.5 189.5t-237.5 72.5q-150 0 -240 -87t-90 -245v-541q0 -158 90 -244.5t240 -86.5q147 0 238.5 74t91.5 198v23q0 39 37 39h76q17 0 26.5 -10.5 t9.5 -28.5v-52q0 -168 -134.5 -277.5t-344.5 -109.5q-213 0 -348 122.5t-135 324.5z" />
<glyph unicode="D" horiz-adv-x="1226" d="M133 41v1352q0 17 12 29t29 12h475q210 0 332.5 -121t122.5 -326v-541q0 -205 -122.5 -325.5t-332.5 -120.5h-475q-17 0 -29 12t-12 29zM287 141h362q146 0 223.5 85.5t77.5 246.5v488q0 161 -77 245t-224 84h-362v-1149z" />
<glyph unicode="E" horiz-adv-x="1042" d="M133 41v1352q0 17 12 29t29 12h748q17 0 29 -12t12 -29v-62q0 -17 -12 -29t-29 -12h-635v-526h524q17 0 29 -12t12 -29v-59q0 -17 -12 -29t-29 -12h-524v-482h651q17 0 29 -12t12 -29v-59q0 -17 -12 -29t-29 -12h-764q-17 0 -29 12t-12 29z" />
<glyph unicode="F" horiz-adv-x="1013" d="M133 41v1352q0 17 12 29t29 12h748q17 0 29 -12t12 -29v-62q0 -17 -12 -29t-29 -12h-635v-534h524q17 0 29 -12t12 -29v-60q0 -17 -12 -29t-29 -12h-524v-573q0 -17 -12 -29t-29 -12h-72q-17 0 -29 12t-12 29z" />
<glyph unicode="G" horiz-adv-x="1206" d="M123 418v598q0 202 134.5 324t350.5 122q212 0 347 -109.5t135 -277.5v-14q0 -17 -10 -28t-27 -11h-76q-37 0 -37 39v8q0 102 -92.5 176t-239.5 74q-152 0 -242 -87t-90 -245v-541q0 -158 89 -244.5t241 -86.5q99 0 188.5 42.5t141.5 110.5v316h-277q-17 0 -29 12t-12 29 v59q0 17 12 29t29 12h390q17 0 29 -12t12 -29v-643q0 -17 -12 -29t-29 -12h-54q-17 0 -30.5 12t-16.5 29l-6 55q-56 -56 -149 -90.5t-187 -34.5q-215 0 -349 122t-134 325z" />
<glyph unicode="H" horiz-adv-x="1236" d="M133 41v1352q0 17 12 29t29 12h72q17 0 29 -12t12 -29v-637h663v637q0 17 12 29t29 12h72q17 0 29 -12t12 -29v-1352q0 -17 -12 -29t-29 -12h-72q-17 0 -29 12t-12 29v573h-663v-573q0 -17 -12 -29t-29 -12h-72q-17 0 -29 12t-12 29z" />
<glyph unicode="I" horiz-adv-x="419" d="M133 41v1352q0 17 12 29t29 12h72q17 0 29 -12t12 -29v-1352q0 -17 -12 -29t-29 -12h-72q-17 0 -29 12t-12 29z" />
<glyph unicode="J" horiz-adv-x="598" d="M10 20v60q0 19 11 31.5t30 13.5q126 12 193 96.5t67 233.5v938q0 17 12 29t29 12h72q17 0 29 -12t12 -29v-977q0 -190 -120 -312t-294 -122q-16 0 -28.5 10.5t-12.5 27.5z" />
<glyph unicode="K" horiz-adv-x="1103" d="M133 41v1352q0 17 12 29t29 12h64q17 0 29 -12t12 -29v-648h110l512 656q26 33 68 33h90q12 0 17.5 -11t-3.5 -22l-559 -719l569 -651q5 -6 5 -12q0 -4 -2 -8q-5 -11 -17 -11h-108q-40 0 -68 31l-508 585h-106v-575q0 -17 -12 -29t-29 -12h-64q-17 0 -29 12t-12 29z" />
<glyph unicode="L" horiz-adv-x="995" d="M133 41v1352q0 17 12 29t29 12h72q17 0 29 -12t12 -29v-1252h657q17 0 29 -12t12 -29v-59q0 -17 -12 -29t-29 -12h-770q-17 0 -29 12t-12 29z" />
<glyph unicode="M" horiz-adv-x="1644" d="M133 41v1352q0 17 12 29t29 12h98q43 0 62 -37l491 -865l486 865q19 37 61 37h98q17 0 29 -12t12 -29v-1352q0 -17 -12 -29t-29 -12h-71q-17 0 -29 12t-12 29l6 1163l-442 -774q-19 -37 -62 -37h-78q-42 0 -61 37l-440 770l6 -1159q0 -17 -12 -29t-29 -12h-72 q-17 0 -29 12t-12 29z" />
<glyph unicode="N" horiz-adv-x="1273" d="M133 41v1352q0 17 12 29t29 12h111q42 0 61 -37l645 -1184l-4 1180q0 17 12 29t29 12h72q17 0 29 -12t12 -29v-1352q0 -17 -12 -29t-29 -12h-115q-42 0 -61 37l-641 1182l4 -1178q0 -17 -12 -29t-29 -12h-72q-17 0 -29 12t-12 29z" />
<glyph unicode="O" horiz-adv-x="1257" d="M123 418v598q0 134 68 237t182.5 156t255.5 53t255.5 -53t182.5 -156t68 -237v-598q0 -202 -145 -324.5t-361 -122.5t-361 122.5t-145 324.5zM276 446q0 -158 100 -244.5t253 -86.5t252.5 86.5t99.5 244.5v541q0 158 -99.5 245t-252.5 87t-253 -87t-100 -245v-541z" />
<glyph unicode="P" horiz-adv-x="1196" d="M133 41v1352q0 17 12 29t29 12h475q210 0 332.5 -121t122.5 -326v-98q0 -205 -122.5 -326t-332.5 -121h-362v-401q0 -17 -12 -29t-29 -12h-72q-17 0 -29 12t-12 29zM287 584h362q146 0 223.5 85t77.5 246v46q0 161 -77 245t-224 84h-362v-706z" />
<glyph unicode="Q" horiz-adv-x="1257" d="M123 418v598q0 200 144 323t362 123t362 -123t144 -323v-598q0 -128 -61.5 -227t-168.5 -156l148 -217q7 -10 1 -22.5t-18 -12.5h-102q-42 0 -66 35l-112 166q-67 -13 -127 -13q-218 0 -362 123.5t-144 323.5zM276 446q0 -169 107 -251t287 -82l-125 182q-6 11 0 23 t18 12h103q39 0 63 -35l92 -135q74 40 117 113t43 173v541q0 156 -98.5 244t-253.5 88t-254 -88t-99 -244v-541z" />
<glyph unicode="R" horiz-adv-x="1218" d="M133 41v1352q0 17 12 29t29 12h475q212 0 333.5 -112t121.5 -314v-82q0 -161 -78.5 -266.5t-220.5 -141.5l330 -483q3 -5 3 -11t-4 -12q-6 -12 -18 -12h-106q-19 0 -37 10t-27 25l-317 465h-342v-459q0 -17 -12 -29t-29 -12h-72q-17 0 -29 12t-12 29zM287 641h362 q301 0 301 311v29q0 309 -301 309h-362v-649z" />
<glyph unicode="S" horiz-adv-x="1204" d="M102 408q0 17 10 27.5t27 10.5h84q37 0 37 -38q0 -108 98.5 -200.5t257.5 -92.5q163 0 246.5 74t83.5 202q0 122 -86.5 179.5t-249.5 72.5q-79 7 -144.5 21.5t-129 43.5t-107 70t-70 105t-26.5 145v43q0 177 116.5 284t346.5 107q118 0 211 -36.5t149.5 -99t85.5 -139.5 t29 -163q0 -17 -10 -28t-27 -11h-82q-37 0 -37 39q0 50 -17 99t-52.5 94.5t-100 73.5t-149.5 28q-154 0 -230.5 -71.5t-76.5 -188.5q0 -60 17.5 -105.5t46.5 -74t75.5 -48t94 -28.5t112.5 -15q467 -42 467 -366v-51q0 -185 -125 -292.5t-361 -107.5q-119 0 -217.5 35 t-162.5 94.5t-99 138.5t-35 169z" />
<glyph unicode="T" horiz-adv-x="1013" d="M10 1333v60q0 17 12 29t29 12h912q17 0 29 -12t12 -29v-60q0 -17 -12 -29t-29 -12h-379v-1251q0 -17 -12 -29t-29 -12h-72q-17 0 -29 12t-12 29v1251h-379q-17 0 -29 12t-12 29z" />
<glyph unicode="U" horiz-adv-x="1224" d="M129 418v975q0 17 12 29t29 12h72q17 0 29 -12t12 -29v-947q0 -159 87.5 -245t241.5 -86t242 86t88 245v947q0 17 12 29t29 12h72q17 0 29 -12t12 -29v-975q0 -203 -133 -325t-351 -122t-350.5 122t-132.5 325z" />
<glyph unicode="V" horiz-adv-x="1175" d="M25 1395q-2 5 -2 11q1 8 5 15q8 13 23 13h82q19 0 34 -11t19 -28l406 -1217l399 1217q4 17 19 28t34 11h80q15 0 24 -13q5 -8 5 -16q0 -5 -2 -10l-467 -1356q-14 -39 -55 -39h-80q-41 0 -55 39z" />
<glyph unicode="W" horiz-adv-x="1873" d="M23 1393q-2 5 -2 10q0 9 6 18q9 13 24 13h82q17 0 32 -11t21 -30l342 -1215l314 1215q4 18 18.5 29.5t32.5 11.5h94q18 0 32.5 -11.5t18.5 -29.5l316 -1215l338 1215q4 18 18.5 29.5t32.5 11.5h80q15 0 24 -13q6 -8 6 -18q0 -5 -2 -10l-409 -1352q-13 -41 -53 -41h-91 q-18 0 -32.5 11.5t-18.5 29.5l-311 1200l-309 -1200q-4 -18 -19 -29.5t-33 -11.5h-90q-40 0 -53 41z" />
<glyph unicode="X" horiz-adv-x="1112" d="M30 12q-3 6 -3 12t4 13l360 637l-358 723q-3 5 -3 11q0 8 4 14q8 12 21 12h86q44 0 60 -37l317 -658h57l343 658q16 37 59 37h84q15 0 21 -12q3 -6 3 -12t-4 -13l-385 -721l385 -641q3 -5 3 -11t-4 -12q-6 -12 -19 -12h-96q-43 0 -62 37l-332 573h-55l-315 -573 q-19 -37 -62 -37h-88q-15 0 -21 12z" />
<glyph unicode="Y" horiz-adv-x="1095" d="M29 1397q-3 5 -3 11q0 7 4 14q8 12 21 12h90q41 0 60 -37l348 -750l350 750q19 37 59 37h86q13 0 21 -12q5 -8 5 -15q0 -5 -3 -10l-440 -912v-444q0 -17 -12 -29t-29 -12h-72q-17 0 -29 12t-12 29v440z" />
<glyph unicode="Z" horiz-adv-x="1105" d="M63 41v59q0 43 23 76l741 1116h-698q-17 0 -29 12t-12 29v60q0 17 12 29t29 12h840q17 0 29 -12t12 -29v-60q0 -43 -23 -76l-739 -1116h753q17 0 29 -12t12 -29v-59q0 -17 -12 -29t-29 -12h-897q-17 0 -29 12t-12 29z" />
<glyph unicode="[" horiz-adv-x="557" d="M154 -184v1679q0 17 12 29t29 12h249q17 0 29 -12t12 -29v-47q0 -17 -12 -29t-29 -12h-153v-1503h153q17 0 29 -12t12 -29v-47q0 -17 -12 -29t-29 -12h-249q-17 0 -29 12t-12 29z" />
<glyph unicode="\" horiz-adv-x="970" d="M29 1497q-7 13 0.5 26t21.5 13h58q40 0 59 -39l774 -1683q7 -13 -0.5 -26t-21.5 -13h-56q-40 0 -59 39z" />
<glyph unicode="]" horiz-adv-x="557" d="M72 -137q0 17 12 29t29 12h153v1503h-153q-17 0 -29 12t-12 29v47q0 17 12 29t29 12h249q17 0 29 -12t12 -29v-1679q0 -17 -12 -29t-29 -12h-249q-17 0 -29 12t-12 29v47z" />
<glyph unicode="^" horiz-adv-x="749" d="M71.5 1063q-6.5 12 0.5 24l211 388q19 36 61 36h62q42 0 61 -36l211 -388q7 -12 0 -24t-21 -12h-61q-43 0 -59 36l-164 318l-164 -318q-16 -36 -59 -36h-58q-14 0 -20.5 12z" />
<glyph unicode="_" horiz-adv-x="1021" d="M10 -156q0 17 12 29t29 12h920q17 0 29 -12t12 -29v-37q0 -17 -12 -28.5t-29 -11.5h-920q-17 0 -29 11.5t-12 28.5v37z" />
<glyph unicode="`" horiz-adv-x="557" d="M136 1500.5q6 10.5 18 10.5h92q39 0 63 -34l113 -181q8 -10 1 -22t-20 -12h-59q-43 0 -65 32l-142 185q-7 11 -1 21.5z" />
<glyph unicode="a" horiz-adv-x="1124" d="M121 301q0 162 107.5 238.5t297.5 76.5q71 0 156.5 -14.5t146.5 -34.5v203q0 141 -64.5 203.5t-203.5 62.5q-127 0 -196.5 -65t-69.5 -162q0 -17 -11.5 -26t-29.5 -9h-64q-18 0 -29 11t-11 30q0 65 26.5 127t76 112.5t130 81.5t178.5 31q202 0 308 -91.5t106 -274.5v-760 q0 -17 -12 -29t-29 -12h-47q-17 0 -30.5 12t-14.5 29l-6 84q-67 -67 -162.5 -106t-202.5 -39q-169 0 -259.5 81.5t-90.5 239.5zM268 301q0 -94 60 -144.5t166 -50.5q101 0 191.5 49.5t143.5 118.5v168q-159 50 -315 50q-246 0 -246 -191z" />
<glyph unicode="b" horiz-adv-x="1148" d="M154 41v1454q0 17 12 29t29 12h63q17 0 29 -12t12 -29v-469q144 141 319 141q191 0 290.5 -105.5t99.5 -301.5v-373q0 -196 -99.5 -301.5t-290.5 -105.5q-89 0 -173 38.5t-152 106.5l-6 -84q-1 -17 -14.5 -29t-30.5 -12h-47q-17 0 -29 12t-12 29zM299 274 q51 -67 136.5 -115t172.5 -48q135 0 194.5 75.5t59.5 227.5v319q0 152 -59.5 227.5t-194.5 75.5q-87 0 -172.5 -48.5t-136.5 -115.5v-598z" />
<glyph unicode="c" horiz-adv-x="1136" d="M141 397v353q0 194 116 305.5t316 111.5q198 0 312 -98.5t114 -249.5q0 -39 -36 -39h-68q-39 0 -39 37q0 96 -74 157.5t-209 61.5q-139 0 -212.5 -79t-73.5 -232v-303q0 -153 73.5 -232t212.5 -79q137 0 210 62t73 155q0 37 39 37h66q38 0 38 -39q0 -144 -115 -245 t-311 -101q-200 0 -316 111.5t-116 305.5z" />
<glyph unicode="d" horiz-adv-x="1148" d="M141 387v373q0 196 99 301.5t290 105.5q90 0 174.5 -36.5t145.5 -98.5v463q0 17 12 29t29 12h63q17 0 29 -12t12 -29v-1454q0 -17 -12 -29t-29 -12h-47q-17 0 -30.5 12t-14.5 29l-6 84q-68 -68 -152.5 -106.5t-173.5 -38.5q-191 0 -290 105.5t-99 301.5zM287 414 q0 -152 59.5 -227.5t194.5 -75.5q87 0 172.5 48t136.5 115v598q-54 67 -139.5 115.5t-169.5 48.5q-135 0 -194.5 -75.5t-59.5 -227.5v-319z" />
<glyph unicode="e" horiz-adv-x="1142" d="M141 397v353q0 194 116 305.5t316 111.5t316.5 -111.5t116.5 -305.5v-168q0 -17 -12 -29t-29 -12h-678v-119q0 -153 73.5 -232t212.5 -79q74 0 131.5 21.5t89 55.5t47 69.5t15.5 70.5q0 37 39 37h66q38 0 38 -39q0 -63 -29.5 -124t-82.5 -111t-135 -80.5t-179 -30.5 q-200 0 -316 111.5t-116 305.5zM287 670h573v55q0 153 -74 232t-213 79t-212.5 -79t-73.5 -232v-55z" />
<glyph unicode="f" horiz-adv-x="735" d="M10 1059v47q0 17 12 29t29 12h103v33q0 184 105.5 280t295.5 96q71 0 129 -12q15 -3 28 -18.5t13 -30.5v-47q0 -17 -12 -26.5t-29 -6.5q-54 10 -129 10q-256 0 -256 -241v-37h338q17 0 29 -12t12 -29v-47q0 -17 -12 -29t-29 -12h-338v-977q0 -17 -12 -29t-29 -12h-63 q-17 0 -29 12t-12 29v977h-103q-17 0 -29 12t-12 29z" />
<glyph unicode="g" horiz-adv-x="1021" d="M80 -20q0 191 156 264q-35 46 -35 116q0 81 51 144q-111 85 -111 223v137q0 128 101.5 215.5t267.5 87.5q147 0 248 -69q80 50 80 157v5q0 34 36 34h68q37 0 37 -34v-23q0 -151 -133 -236q35 -62 35 -137v-137q0 -127 -101.5 -215t-269.5 -88q-78 0 -139 18 q-31 -34 -31 -82q0 -37 29 -79q50 4 75 4h174q172 0 268.5 -78.5t96.5 -226.5q0 -150 -96.5 -229t-268.5 -79h-174q-173 0 -268.5 79t-95.5 229zM225 -20q0 -95 59.5 -138t184.5 -43h123q125 0 183.5 42.5t58.5 138.5q0 95 -58.5 136.5t-183.5 41.5h-123q-126 0 -185 -41.5 t-59 -136.5zM287 752q0 -91 58.5 -145t164.5 -54q107 0 166 54t59 145v90q0 91 -59 143.5t-166 52.5q-106 0 -164.5 -53t-58.5 -143v-90z" />
<glyph unicode="h" horiz-adv-x="1140" d="M154 41v1454q0 17 12 29t29 12h63q17 0 29 -12t12 -29v-469q144 141 313 141q192 0 285.5 -96t93.5 -291v-739q0 -17 -12 -29t-29 -12h-63q-17 0 -29 12t-12 29v713q0 151 -54.5 216.5t-189.5 65.5q-86 0 -168.5 -48t-134.5 -116v-831q0 -17 -12 -29t-29 -12h-63 q-17 0 -29 12t-12 29z" />
<glyph unicode="i" horiz-adv-x="452" d="M129 1425q0 55 24.5 83t67.5 28q46 0 72 -28t26 -83q0 -52 -26 -78t-72 -26q-43 0 -67.5 26t-24.5 78zM154 41v1065q0 17 12 29t29 12h63q17 0 29 -12t12 -29v-1065q0 -17 -12 -29t-29 -12h-63q-17 0 -29 12t-12 29z" />
<glyph unicode="j" horiz-adv-x="464" d="M-86 -246q0 40 41 47q114 13 162.5 83.5t48.5 207.5v1014q0 17 12 29t29 12h63q17 0 29 -12t12 -29v-1047q0 -98 -30 -173.5t-81 -120.5t-113 -68t-132 -23q-16 0 -28.5 11t-12.5 28v41zM143 1425q0 55 25 83t68 28q46 0 72 -28t26 -83q0 -52 -26 -78t-72 -26 q-43 0 -68 26t-25 78z" />
<glyph unicode="k" horiz-adv-x="1011" d="M154 41v1454q0 17 12 29t29 12h63q17 0 29 -12t12 -29v-874h111l389 493q26 33 67 33h101q12 0 17 -11.5t-3 -21.5l-451 -555l465 -528q6 -6 6 -13q1 -3 -1 -7q-4 -11 -17 -11h-100q-39 0 -70 31l-405 461h-109v-451q0 -17 -12 -29t-29 -12h-63q-17 0 -29 12t-12 29z" />
<glyph unicode="l" horiz-adv-x="452" d="M154 41v1454q0 17 12 29t29 12h63q17 0 29 -12t12 -29v-1454q0 -17 -12 -29t-29 -12h-63q-17 0 -29 12t-12 29z" />
<glyph unicode="m" horiz-adv-x="1730" d="M154 41v1065q0 17 12 29t29 12h47q17 0 30.5 -12t14.5 -29l6 -84q72 72 141.5 108.5t155.5 36.5q231 0 313 -172q73 82 149.5 127t172.5 45q189 0 272.5 -94t83.5 -293v-739q0 -17 -12 -29t-29 -12h-63q-17 0 -29 12t-12 29v713q0 156 -45 219t-177 63q-151 0 -276 -159 q8 -74 8 -117v-719q0 -17 -12 -29t-29 -12h-63q-17 0 -29 12t-12 29v692q0 79 -9 131.5t-32.5 93t-67.5 59.5t-112 19q-155 0 -281 -164v-831q0 -17 -12 -29t-29 -12h-63q-17 0 -29 12t-12 29z" />
<glyph unicode="n" horiz-adv-x="1140" d="M154 41v1065q0 17 12 29t29 12h47q17 0 30.5 -12t14.5 -29l6 -84q145 145 317 145q192 0 286.5 -96t94.5 -291v-739q0 -17 -12 -29t-29 -12h-63q-17 0 -29 12t-12 29v713q0 151 -55 216.5t-191 65.5q-86 0 -167.5 -48t-133.5 -116v-831q0 -17 -12 -29t-29 -12h-63 q-17 0 -29 12t-12 29z" />
<glyph unicode="o" horiz-adv-x="1146" d="M141 397v353q0 194 116 305.5t316 111.5t316.5 -111.5t116.5 -305.5v-353q0 -194 -116.5 -305.5t-316.5 -111.5t-316 111.5t-116 305.5zM287 422q0 -153 73.5 -232t212.5 -79t213 79t74 232v303q0 153 -74 232t-213 79t-212.5 -79t-73.5 -232v-303z" />
<glyph unicode="p" horiz-adv-x="1148" d="M154 -266v1372q0 17 12 29t29 12h47q17 0 30.5 -12t14.5 -29l6 -84q68 68 152 106.5t173 38.5q191 0 290.5 -105.5t99.5 -301.5v-373q0 -196 -99.5 -301.5t-290.5 -105.5q-183 0 -319 133v-379q0 -17 -12 -29t-29 -12h-63q-17 0 -29 12t-12 29zM299 274 q51 -67 136.5 -115t172.5 -48q135 0 194.5 75.5t59.5 227.5v319q0 152 -59.5 227.5t-194.5 75.5q-87 0 -172.5 -48.5t-136.5 -115.5v-598z" />
<glyph unicode="q" horiz-adv-x="1148" d="M141 387v373q0 196 99 301.5t290 105.5q89 0 173.5 -38.5t152.5 -106.5l6 84q1 17 14.5 29t30.5 12h47q17 0 29 -12t12 -29v-1372q0 -17 -12 -29t-29 -12h-63q-17 0 -29 12t-12 29v387q-144 -141 -320 -141q-191 0 -290 105.5t-99 301.5zM287 414q0 -152 59.5 -227.5 t194.5 -75.5q87 0 172.5 48t136.5 115v598q-51 67 -136.5 115.5t-172.5 48.5q-135 0 -194.5 -75.5t-59.5 -227.5v-319z" />
<glyph unicode="r" horiz-adv-x="651" d="M154 41v1065q0 17 12 29t29 12h45q17 0 30.5 -12t14.5 -29l8 -102q43 67 131 114t149 47q18 0 29.5 -10t11.5 -25v-63q0 -35 -34 -35q-69 0 -154.5 -52t-126.5 -126v-813q0 -17 -12 -29t-29 -12h-63q-17 0 -29 12t-12 29z" />
<glyph unicode="s" horiz-adv-x="1058" d="M104 313q0 17 12 29t29 12h68q17 0 29 -12t12 -29q0 -79 77.5 -145t211.5 -66q132 0 199 59.5t67 155.5q0 92 -67 133t-205 56q-67 8 -121.5 19.5t-110 35t-92.5 56t-60.5 84t-23.5 116.5v35q0 143 101.5 233.5t293.5 90.5q188 0 296 -102t108 -238q0 -17 -12 -29 t-29 -12h-62q-17 0 -29 12t-12 29q0 36 -14 71t-43 66.5t-81.5 51t-121.5 19.5q-128 0 -189 -54t-61 -148q0 -42 14 -75t38 -54t61 -36.5t77 -23.5t93 -14q64 -7 114 -16.5t106 -31t92.5 -52.5t60.5 -81t24 -116v-41q0 -141 -109.5 -235.5t-301.5 -94.5q-194 0 -316.5 100 t-122.5 242z" />
<glyph unicode="t" horiz-adv-x="731" d="M23 1059v47q0 17 11.5 29t28.5 12h91l14 246q0 17 13 29t30 12h47q17 0 29 -12t12 -29v-246h322q17 0 29 -12t12 -29v-47q0 -17 -12 -29t-29 -12h-322v-649q0 -138 59 -204.5t185 -66.5q65 0 121 11q17 3 29 -6.5t12 -26.5v-39q0 -16 -12 -31t-29 -18q-66 -17 -121 -17 q-389 0 -389 377v670h-91q-17 0 -28.5 12t-11.5 29z" />
<glyph unicode="u" horiz-adv-x="1132" d="M150 367v739q0 17 11.5 29t28.5 12h64q17 0 29 -12t12 -29v-713q0 -155 47.5 -218.5t183.5 -63.5q87 0 172 48t136 115v832q0 17 11.5 29t28.5 12h64q17 0 29 -12t12 -29v-1065q0 -17 -12 -29t-29 -12h-47q-17 0 -30.5 12t-14.5 29l-6 84q-67 -67 -154 -106t-176 -39 q-194 0 -277 93.5t-83 293.5z" />
<glyph unicode="v" horiz-adv-x="980" d="M25 1108q-2 5 -2 11q1 8 5 15q8 13 23 13h76q19 0 34 -11t19 -28l312 -938l311 938q4 17 19 28t34 11h74q16 -1 24 -13q5 -7 4 -15q0 -6 -2 -11l-374 -1069q-6 -17 -21.5 -28t-34.5 -11h-73q-19 0 -34.5 11t-21.5 28z" />
<glyph unicode="w" horiz-adv-x="1581" d="M23 1108q-2 5 -2 10q0 8 6 16q9 12 24 13h76q17 0 32 -11t21 -30l271 -932l247 932q4 18 19 29.5t33 11.5h84q18 0 32.5 -11.5t18.5 -29.5l248 -932l270 932q6 19 21 30t32 11h74q14 -1 24 -13q6 -8 7 -17q0 -5 -2 -9l-338 -1069q-4 -17 -19.5 -28t-34.5 -11h-73 q-18 0 -33 11.5t-19 29.5l-251 905l-254 -905q-4 -18 -19 -29.5t-33 -11.5h-73q-19 0 -34.5 11t-19.5 28z" />
<glyph unicode="x" horiz-adv-x="1011" d="M40 12q-3 5 -3 11t4 12l311 518l-307 557q-7 12 0 24.5t21 12.5h84q42 0 61 -37l262 -489h55l265 489q19 37 61 37h82q13 0 19.5 -12.5t0.5 -24.5l-313 -551l328 -524q4 -6 4 -12q0 -5 -3 -11q-7 -12 -20 -12h-92q-40 0 -61 35l-275 457h-57l-262 -455q-19 -37 -62 -37 h-84q-13 0 -19 12z" />
<glyph unicode="y" horiz-adv-x="980" d="M25 1108q-2 5 -2 11q0 7 5 15q8 13 23 13h76q19 0 34 -11t19 -28l312 -938l311 938q4 17 19 28t34 11h74q15 0 24 -13q4 -7 4 -15q0 -5 -2 -11l-401 -1145q-47 -136 -142 -211t-220 -78q-15 0 -28 13t-13 28v41q0 42 41 45q80 3 137 51.5t86 141.5z" />
<glyph unicode="z" horiz-adv-x="937" d="M72 41v47q0 39 22 76l578 854h-547q-17 0 -29 12t-12 29v47q0 17 12 29t29 12h684q17 0 29 -12t12 -29v-47q0 -38 -23 -76l-577 -854h584q17 0 28.5 -12t11.5 -29v-47q0 -17 -11.5 -29t-28.5 -12h-721q-17 0 -29 12t-12 29z" />
<glyph unicode="{" horiz-adv-x="716" d="M72 614v84q0 11 9 20t21 9h33q90 0 144.5 67t54.5 189v268q0 285 270 285q17 0 29 -12t12 -29v-47q0 -17 -12 -29t-29 -12q-78 0 -105.5 -44t-27.5 -138v-267q0 -234 -164 -303q164 -69 164 -303v-266q0 -94 27.5 -138t105.5 -44q17 0 29 -12t12 -29v-47q0 -17 -12 -29 t-29 -12q-132 0 -201 68t-69 216v269q0 122 -54.5 189t-144.5 67h-33q-12 0 -21 9t-9 21z" />
<glyph unicode="|" horiz-adv-x="432" d="M154 -307v1843q0 17 12 29t29 12h43q17 0 29 -12t12 -29v-1843q0 -17 -12 -29t-29 -12h-43q-17 0 -29 12t-12 29z" />
<glyph unicode="}" horiz-adv-x="716" d="M72 -137q0 17 12 29t29 12q78 0 105.5 44t27.5 138v266q0 234 164 303q-164 69 -164 303v267q0 94 -27.5 138t-105.5 44q-17 0 -29 12t-12 29v47q0 17 12 29t29 12q270 0 270 -285v-268q0 -122 54.5 -189t144.5 -67h32q12 0 21.5 -9t9.5 -20v-84q0 -12 -9.5 -21t-21.5 -9 h-32q-90 0 -144.5 -67t-54.5 -189v-269q0 -148 -69 -216t-201 -68q-17 0 -29 12t-12 29v47z" />
<glyph unicode="~" horiz-adv-x="1236" d="M119 614q23 91 95.5 151t180.5 60q56 0 124 -23.5t120 -52t112.5 -52t104.5 -23.5q45 0 77 24.5t48 63.5q17 41 61 41h43q15 0 25.5 -13.5t7.5 -27.5q-20 -95 -90 -153t-186 -58q-56 0 -121 23.5t-114 52t-111.5 52t-114.5 23.5q-89 0 -125 -88q-17 -41 -59 -41h-45 q-15 0 -25.5 13.5t-7.5 27.5z" />
<glyph unicode="&#xa1;" horiz-adv-x="473" d="M154 1358q0 48 21 72t58 24q40 0 63 -24t23 -72q0 -44 -23 -67t-63 -23q-36 0 -57.5 23t-21.5 67zM164 41v307l14 709q0 17 12 29t29 12h35q17 0 29 -12t12 -29l14 -709v-307q0 -17 -12 -29t-29 -12h-63q-17 0 -29 12t-12 29z" />
<glyph unicode="&#xa2;" horiz-adv-x="1144" d="M154 594v246q0 180 100 289t276 124v140q0 17 12 29t29 12h31q17 0 29 -12t12 -29v-138q173 -15 271 -111t98 -235q0 -39 -37 -39h-68q-39 0 -39 37q0 85 -59 144t-166 71v-813q109 13 167 73.5t58 141.5q0 37 39 37h66q18 0 28.5 -10.5t10.5 -28.5q0 -132 -99 -229.5 t-270 -114.5v-137q0 -17 -12 -29t-29 -12h-31q-17 0 -29 12t-12 29v137q-176 15 -276 125t-100 291zM299 618q0 -137 59 -215.5t172 -93.5v813q-113 -14 -172 -92.5t-59 -214.5v-197z" />
<glyph unicode="&#xa3;" horiz-adv-x="1150" d="M72 41v37q0 47 34 69q65 51 102.5 126.5t37.5 162.5v211h-133q-17 0 -29 12t-12 29v57q0 17 12 29t29 12h133v230q0 210 103 328t308 118q206 0 306 -107.5t100 -310.5q0 -17 -10 -27.5t-27 -10.5h-78q-37 0 -37 38q0 137 -57 206t-197 69q-141 0 -199.5 -82t-58.5 -250 v-201h265q17 0 29 -12t12 -29v-57q0 -17 -12 -29t-29 -12h-265v-178q0 -61 -12 -116.5t-27.5 -90.5t-35 -64.5t-29.5 -40.5t-16 -16h759q17 0 29 -12t12 -29v-59q0 -17 -12 -29t-29 -12h-925q-17 0 -29 12t-12 29z" />
<glyph unicode="&#xa4;" horiz-adv-x="1224" d="M130 299q0 19 11 29l119 118q-49 90 -49 211v95q0 119 49 209l-119 118q-11 12 -11 30.5t11 29.5l37 37q10 10 29 10t29 -10l112 -113q104 78 264 78q161 0 265 -78l112 113q11 10 29 10t29 -10l36 -37q11 -11 11 -29t-11 -29l-120 -120q51 -88 51 -209v-95 q0 -123 -51 -211l118 -118q12 -10 12.5 -29t-10.5 -29l-36 -37q-11 -11 -29 -11t-29 11l-112 113q-104 -78 -265 -78q-162 0 -266 78l-110 -110q-10 -12 -29 -13t-29 10l-37 37q-11 10 -11 29zM342 678q0 -144 69.5 -218.5t200.5 -74.5t201 74.5t70 218.5v53 q0 144 -70 218.5t-201 74.5t-200.5 -74.5t-69.5 -218.5v-53z" />
<glyph unicode="&#xa5;" horiz-adv-x="1095" d="M30.5 1421.5q6.5 12.5 20.5 12.5h101q42 0 61 -37l336 -629l338 629q19 37 61 37h96q14 0 21 -12.5t0 -24.5l-418 -750h346q17 0 29 -12t12 -29v-57q0 -17 -12 -29t-29 -12h-366v-166h366q17 0 29 -12t12 -29v-57q0 -17 -12 -29t-29 -12h-366v-162q0 -17 -12 -29t-29 -12 h-72q-17 0 -29 12t-12 29v162h-369q-17 0 -29 12t-12 29v57q0 17 12 29t29 12h369v166h-369q-17 0 -29 12t-12 29v57q0 17 12 29t29 12h345l-418 750q-7 12 -0.5 24.5z" />
<glyph unicode="&#xa6;" horiz-adv-x="432" d="M154 -307v614q0 17 12 29t29 12h43q17 0 29 -12t12 -29v-614q0 -17 -12 -29t-29 -12h-43q-17 0 -29 12t-12 29zM154 922v614q0 17 12 29t29 12h43q17 0 29 -12t12 -29v-614q0 -17 -12 -29t-29 -12h-43q-17 0 -29 12t-12 29z" />
<glyph unicode="&#xa7;" horiz-adv-x="1073" d="M113 645q0 79 45 152.5t118 115.5q-135 83 -135 226v22q0 136 96.5 218.5t282.5 82.5q94 0 168 -28.5t118.5 -76t67.5 -105t23 -119.5q0 -15 -11 -27t-26 -12h-63q-17 0 -28 11.5t-11 27.5q0 87 -59 145.5t-179 58.5q-123 0 -175 -48t-52 -138q0 -46 21.5 -80t64 -57 t88 -37t111.5 -27q62 -12 109 -25t101.5 -38.5t90 -57t59 -81.5t23.5 -113v-23q0 -67 -55.5 -141t-125.5 -115q152 -81 152 -227v-25q0 -133 -111.5 -220t-298.5 -87q-189 0 -295 93.5t-106 236.5q0 17 11.5 28t27.5 11h71q16 0 27.5 -11t11.5 -28q0 -83 64 -144t188 -61 q128 0 193 54t65 145q0 78 -70 119t-206 67q-65 13 -116 28.5t-105 42.5t-89.5 62t-58 87.5t-22.5 117.5zM264 645q0 -40 15 -70.5t42 -53t76.5 -42.5t107 -35.5t144.5 -33.5q67 35 113.5 93t46.5 115q0 46 -21.5 81.5t-54 56t-79.5 37t-87.5 24.5t-89.5 19t-76 20 q-57 -28 -97 -83t-40 -116v-12z" />
<glyph unicode="&#xa8;" horiz-adv-x="819" d="M92 1362q0 55 24.5 83t67.5 28q46 0 72.5 -28t26.5 -83q0 -52 -26.5 -78.5t-72.5 -26.5q-43 0 -67.5 26.5t-24.5 78.5zM537 1362q0 55 24.5 83t67.5 28q46 0 72 -28t26 -83q0 -52 -26 -78.5t-72 -26.5q-43 0 -67.5 26.5t-24.5 78.5z" />
<glyph unicode="&#xa9;" horiz-adv-x="1462" d="M123 414v600q0 133 85.5 235t222.5 153.5t300 51.5t300 -51.5t222.5 -153.5t85.5 -235v-600q0 -135 -85.5 -237.5t-222.5 -154t-300 -51.5t-300 51.5t-222.5 154t-85.5 237.5zM248 430q0 -81 41 -146.5t110 -105.5t154 -61t178 -21t178 21t154 61t110 105.5t41 146.5v567 q0 107 -71.5 184.5t-179 113.5t-232.5 36t-232.5 -36t-179 -113.5t-71.5 -184.5v-567zM430 555q0 -127 85.5 -205t219.5 -78q130 0 214.5 70t84.5 176v37q0 15 -8 24t-22 9h-54q-15 0 -23.5 -8.5t-8.5 -22.5v-20q0 -68 -50 -108t-133 -40q-84 0 -134 47.5t-50 134.5v285 q0 87 50 134.5t134 47.5q83 0 133 -39t50 -108v-6q0 -14 8.5 -22.5t23.5 -8.5h54q14 0 22 9t8 24v22q0 106 -84.5 176t-214.5 70q-134 0 -219.5 -77.5t-85.5 -203.5v-319z" />
<glyph unicode="&#xaa;" horiz-adv-x="800" d="M113 891q0 109 73 160t201 51q78 0 184 -29v107q0 178 -161 178q-74 0 -116 -41t-42 -103q0 -13 -9.5 -20.5t-23.5 -7.5h-53q-14 0 -23.5 8.5t-9.5 22.5q0 100 73.5 170.5t203.5 70.5q134 0 206 -68.5t72 -193.5v-469q0 -17 -12 -29t-29 -12h-24q-17 0 -30 12t-13 29 l-2 29q-98 -82 -226 -82q-115 0 -177 55.5t-62 161.5zM231 891q0 -57 36.5 -87t99.5 -30q60 0 114 28.5t90 69.5v107q-96 27 -192 27q-74 0 -111 -30t-37 -85z" />
<glyph unicode="&#xab;" horiz-adv-x="991" d="M113 557v31q0 41 28 69l314 312q7 7 17.5 2.5t10.5 -15.5v-108q0 -43 -30 -70l-211 -207l211 -204q30 -27 30 -70v-109q0 -11 -10.5 -15t-17.5 3l-314 311q-28 28 -28 70zM508 557v31q0 40 29 69l313 312q8 7 18.5 2.5t10.5 -15.5v-108q0 -42 -31 -70l-211 -207l211 -204 q31 -28 31 -70v-109q0 -11 -10.5 -15t-18.5 3l-313 311q-29 29 -29 70z" />
<glyph unicode="&#xac;" horiz-adv-x="1366" d="M133 797v57q0 17 12 29t29 12h1018q17 0 29 -12t12 -29v-381q0 -17 -12 -29t-29 -12h-57q-17 0 -29 12t-12 29v283h-920q-17 0 -29 12t-12 29z" />
<glyph unicode="&#xad;" horiz-adv-x="796" d="M113 592v57q0 17 12 29t29 12h489q17 0 29 -12t12 -29v-57q0 -17 -12 -29t-29 -12h-489q-17 0 -29 12t-12 29z" />
<glyph unicode="&#xae;" horiz-adv-x="1462" d="M123 414v600q0 133 85.5 235t222.5 153.5t300 51.5t300 -51.5t222.5 -153.5t85.5 -235v-600q0 -135 -85.5 -237.5t-222.5 -154t-300 -51.5t-300 51.5t-222.5 154t-85.5 237.5zM248 430q0 -81 41 -146.5t110 -105.5t154 -61t178 -21t178 21t154 61t110 105.5t41 146.5v567 q0 107 -71.5 184.5t-179 113.5t-232.5 36t-232.5 -36t-179 -113.5t-71.5 -184.5v-567zM438 332v764q0 17 12 29t29 12h281q135 0 212 -63.5t77 -184.5v-51q0 -87 -45.5 -147t-124.5 -87l190 -278q6 -11 0 -23t-18 -12h-66q-42 0 -63 35l-183 266h-180v-260q0 -17 -12 -29 t-29 -12h-39q-17 0 -29 12t-12 29zM559 702h201q85 0 126.5 37.5t41.5 124.5q0 86 -41.5 122t-126.5 36h-201v-320z" />
<glyph unicode="&#xaf;" horiz-adv-x="796" d="M113 1323v57q0 17 12 29t29 12h489q17 0 29 -12t12 -29v-57q0 -17 -12 -29t-29 -12h-489q-17 0 -29 12t-12 29z" />
<glyph unicode="&#xb0;" horiz-adv-x="722" d="M92 1171v33q0 117 72.5 187.5t191.5 70.5q127 0 201 -70t74 -188v-33q0 -122 -73.5 -190t-201.5 -68q-120 0 -192 68.5t-72 189.5zM211 1184q0 -81 36 -125.5t107 -44.5q160 0 160 170q0 87 -39 130.5t-121 43.5q-143 0 -143 -174z" />
<glyph unicode="&#xb1;" horiz-adv-x="1257" d="M133 121v57q0 17 12 29t29 12h909q17 0 29 -12t12 -29v-57q0 -17 -12 -29t-29 -12h-909q-17 0 -29 12t-12 29zM133 709v57q0 17 12 29t29 12h385v299q0 17 12 29t29 12h57q17 0 29 -12t12 -29v-299h385q17 0 29 -12t12 -29v-57q0 -17 -12 -29t-29 -12h-385v-299 q0 -17 -12 -29t-29 -12h-57q-17 0 -29 12t-12 29v299h-385q-17 0 -29 12t-12 29z" />
<glyph unicode="&#xb2;" horiz-adv-x="866" d="M113 532v15q0 28 24 55l375 406q100 106 100 188q0 67 -45.5 110.5t-132.5 43.5q-89 0 -139.5 -56t-50.5 -131q0 -13 -9.5 -20.5t-23.5 -7.5h-53q-33 0 -33 30q0 122 80.5 207.5t228.5 85.5q149 0 227 -71.5t78 -188.5q0 -77 -40.5 -145t-108.5 -140l-285 -307h408 q17 0 29 -12t12 -29v-26q0 -17 -12 -29t-29 -12h-566q-15 0 -24.5 9.5t-9.5 24.5z" />
<glyph unicode="&#xb3;" horiz-adv-x="847" d="M113 770q0 15 9 23t23 8h58q14 0 23.5 -8t9.5 -21q0 -74 48.5 -129t133.5 -55q89 0 136.5 43.5t47.5 122.5v24q0 76 -33 122t-86 46h-118q-17 0 -29 12t-12 29v23q0 17 12 29t29 12h116q51 0 82 52.5t31 100.5q0 64 -44 107t-126 43t-130 -51.5t-48 -126.5 q0 -13 -9.5 -21t-23.5 -8h-53q-14 0 -23.5 8.5t-9.5 22.5q0 116 77.5 198t219.5 82q141 0 217 -70t76 -182q0 -58 -24.5 -112t-69.5 -90q49 -24 80.5 -85.5t31.5 -125.5v-41q0 -124 -83.5 -198.5t-233.5 -74.5q-148 0 -226.5 84.5t-78.5 206.5z" />
<glyph unicode="&#xb4;" horiz-adv-x="557" d="M134 1274q-7 12 1 22l113 181q24 34 63 34h92q12 0 18 -10.5t-1 -21.5l-141 -185q-22 -32 -66 -32h-59q-13 0 -20 12z" />
<glyph unicode="&#xb5;" horiz-adv-x="1144" d="M154 -266v1372q0 17 12 29t29 12h63q17 0 29 -12t12 -29v-733q3 -138 56 -200t184 -62q87 0 171.5 48t135.5 115v832q0 17 12 29t29 12h63q17 0 29 -12t12 -29v-1065q0 -17 -12 -29t-29 -12h-47q-17 0 -30.5 12t-14.5 29l-6 84q-67 -67 -154 -106t-176 -39 q-149 0 -223 71v-317q0 -17 -12 -29t-29 -12h-63q-17 0 -29 12t-12 29z" />
<glyph unicode="&#xb6;" horiz-adv-x="1202" d="M154 971v57q0 196 112 301t322 105h420q17 0 29 -12t12 -29v-1577q0 -17 -12 -29t-29 -12h-31q-17 0 -29 12t-12 29v1489h-152v-1489q0 -17 -12 -29t-29 -12h-30q-17 0 -29 12t-12 29v749h-84q-210 0 -322 105t-112 301z" />
<glyph unicode="&#xb7;" horiz-adv-x="374" d="M92 608q0 55 24.5 83t67.5 28q46 0 72.5 -28t26.5 -83q0 -52 -26.5 -78t-72.5 -26q-43 0 -67.5 26t-24.5 78z" />
<glyph unicode="&#xb8;" horiz-adv-x="544" d="M113 -283q0 31 34 31h39q43 0 72 16t29 46q0 46 -82 59q-19 3 -25.5 15.5t0.5 27.5l27 70q8 18 29 18h63q28 0 20 -27l-16 -49q57 -5 93 -35.5t36 -87.5q0 -50 -32.5 -81t-75.5 -41.5t-97 -10.5q-52 0 -77 2q-37 3 -37 31v16z" />
<glyph unicode="&#xb9;" horiz-adv-x="475" d="M72 1374v25q0 17 12 29t29 12h209q17 0 28.5 -12t11.5 -29v-860q0 -17 -11.5 -29t-28.5 -12h-41q-17 0 -29 12t-12 29v794h-127q-17 0 -29 12t-12 29z" />
<glyph unicode="&#xba;" horiz-adv-x="806" d="M113 950v230q0 129 78 203.5t212 74.5q135 0 213 -74.5t78 -203.5v-230q0 -128 -78 -202t-213 -74q-134 0 -212 74.5t-78 201.5zM231 967q0 -93 44 -142t128 -49q85 0 130 49t45 142v196q0 95 -45 145t-130 50q-83 0 -127.5 -50t-44.5 -145v-196z" />
<glyph unicode="&#xbb;" horiz-adv-x="991" d="M113 188v109q0 43 30 70l209 204l-209 207q-30 27 -30 70v108q0 11 10.5 15.5t17.5 -2.5l314 -312q28 -28 28 -69v-31q0 -42 -28 -70l-314 -311q-7 -7 -17.5 -3t-10.5 15zM508 188v109q0 42 31 70l209 204l-209 207q-31 28 -31 70v108q0 11 11 15.5t18 -2.5l313 -312 q29 -29 29 -69v-31q0 -41 -29 -70l-313 -311q-7 -7 -18 -3t-11 15z" />
<glyph unicode="&#xbc;" horiz-adv-x="1585" d="M133 1370v25q0 17 12 29t29 12h209q17 0 29 -12t12 -29v-860q0 -17 -12 -29t-29 -12h-41q-17 0 -29 12t-12 29v794h-127q-17 0 -29 12t-12 29zM217 12q-7 12 0 23l918 1364q25 35 63 35h68q11 0 17 -12t-1 -23l-922 -1364q-24 -35 -61 -35h-63q-12 0 -19 12zM739 221v4 q0 36 17 70l323 610q7 17 23.5 27t34.5 10h51q13 0 20.5 -12.5t1.5 -24.5l-315 -614h326v336q0 17 12 29t29 12h41q17 0 28.5 -12t11.5 -29v-336h64q17 0 29 -12t12 -29v-25q0 -17 -12 -29t-29 -12h-64v-143q0 -17 -11.5 -29t-28.5 -12h-41q-17 0 -29 12t-12 29v143h-445 q-15 0 -26 11t-11 26z" />
<glyph unicode="&#xbd;" horiz-adv-x="1724" d="M133 1374v25q0 17 12 29t29 12h209q17 0 29 -12t12 -29v-860q0 -17 -12 -29t-29 -12h-41q-17 0 -29 12t-12 29v794h-127q-17 0 -29 12t-12 29zM210.5 12q-6.5 12 0.5 23l917 1364q24 35 64 35h70q12 0 18.5 -12t-0.5 -23l-922 -1364q-24 -35 -63 -35h-66q-12 0 -18.5 12z M944 35v14q0 26 25 55l374 406q101 107 101 188q0 67 -45.5 110.5t-132.5 43.5q-90 0 -141.5 -55.5t-51.5 -130.5q0 -13 -9.5 -21t-23.5 -8h-51q-14 0 -23.5 8.5t-9.5 22.5q0 121 81 207t229 86q147 0 225 -72t78 -189q0 -76 -40.5 -143.5t-109.5 -140.5l-284 -307h409 q15 0 27 -12t12 -29v-27q0 -17 -12 -29t-27 -12h-565q-15 0 -25 10t-10 25z" />
<glyph unicode="&#xbe;" horiz-adv-x="1814" d="M133 770q0 14 9.5 22.5t23.5 8.5h57q14 0 23.5 -8t9.5 -21q0 -74 48.5 -129t133.5 -55q89 0 137 43.5t48 122.5v24q0 76 -33 122t-86 46h-119q-17 0 -29 12t-12 29v23q0 17 12 29t29 12h117q51 0 81.5 52.5t30.5 100.5q0 64 -44 107t-126 43t-130 -51.5t-48 -126.5 q0 -13 -9.5 -21t-23.5 -8h-53q-14 0 -23.5 8.5t-9.5 22.5q0 116 77.5 198t219.5 82q141 0 217 -70t76 -182q0 -58 -24.5 -112t-69.5 -90q49 -24 81 -85.5t32 -125.5v-41q0 -124 -84 -198.5t-234 -74.5q-148 0 -226.5 84.5t-78.5 206.5zM444 12q-7 12 0 23l918 1364 q24 35 63 35h68q11 0 17 -12t-1 -23l-921 -1364q-24 -35 -62 -35h-63q-12 0 -19 12zM969 221v4q0 38 16 70l324 610q16 37 59 37h49q13 0 21 -12.5t2 -24.5l-316 -614h326v336q0 17 12 29t29 12h41q17 0 29 -12t12 -29v-336h63q17 0 29 -12t12 -29v-25q0 -17 -12 -29 t-29 -12h-63v-143q0 -17 -12 -29t-29 -12h-41q-17 0 -29 12t-12 29v143h-444q-15 0 -26 11t-11 26z" />
<glyph unicode="&#xbf;" horiz-adv-x="1032" d="M113 307v33q0 65 14 119.5t43.5 101t60 81t78.5 79.5q101 96 144 169t43 165v12q0 17 12 29t29 12h65q17 0 29 -12t12 -29v-31q0 -50 -4 -89.5t-17 -73.5t-23 -56.5t-35.5 -52t-39.5 -44t-51 -49.5t-55 -53q-77 -77 -111.5 -142.5t-34.5 -156.5q0 -98 63.5 -154 t196.5 -56t202 65t69 160q0 18 10.5 28.5t28.5 10.5h76q17 0 26.5 -10.5t9.5 -28.5q0 -68 -26.5 -131.5t-77 -116t-133 -84t-185.5 -31.5q-200 0 -309.5 94.5t-109.5 241.5zM479 1358q0 49 24.5 74.5t65.5 25.5q38 0 61 -25.5t23 -74.5q0 -46 -23 -70t-61 -24 q-41 0 -65.5 24t-24.5 70z" />
<glyph unicode="&#xc0;" d="M25 39l489 1356q14 39 55 39h78q41 0 55 -39l490 -1356q5 -14 -3.5 -26.5t-23.5 -12.5h-82q-41 0 -55 39l-139 401h-565l-138 -401q-14 -39 -55 -39h-80q-15 0 -23 12.5t-3 26.5zM373 582h467l-236 673zM431 1787q6 11 18 11h92q39 0 63 -35l113 -180q8 -11 1 -23 t-20 -12h-59q-43 0 -66 33l-141 184q-7 11 -1 22z" />
<glyph unicode="&#xc1;" d="M25 39l489 1356q14 39 55 39h78q41 0 55 -39l490 -1356q5 -14 -3.5 -26.5t-23.5 -12.5h-82q-41 0 -55 39l-139 401h-565l-138 -401q-14 -39 -55 -39h-80q-15 0 -23 12.5t-3 26.5zM373 582h467l-236 673zM566 1560q-7 12 1 23l113 180q24 35 63 35h93q12 0 17.5 -11 t-1.5 -22l-141 -184q-23 -33 -66 -33h-59q-13 0 -20 12z" />
<glyph unicode="&#xc2;" d="M25 39l489 1356q14 39 55 39h78q41 0 55 -39l490 -1356q5 -14 -3.5 -26.5t-23.5 -12.5h-82q-41 0 -55 39l-139 401h-565l-138 -401q-14 -39 -55 -39h-80q-15 0 -23 12.5t-3 26.5zM373 582h467l-236 673zM400 1560q-7 12 1 23l113 180q24 35 64 35h59q39 0 63 -35 l113 -180q8 -11 1.5 -23t-19.5 -12h-60q-42 0 -61 37l-68 117l-65 -117q-19 -37 -62 -37h-59q-13 0 -20 12z" />
<glyph unicode="&#xc3;" d="M25 39l489 1356q14 39 55 39h78q41 0 55 -39l490 -1356q5 -14 -3.5 -26.5t-23.5 -12.5h-82q-41 0 -55 39l-139 401h-565l-138 -401q-14 -39 -55 -39h-80q-15 0 -23 12.5t-3 26.5zM285 1616q9 66 59 111t125 45q45 0 101 -22t103.5 -44.5t69.5 -22.5q41 0 62 35 q15 24 28.5 31.5t40.5 7.5h23q15 0 27 -13.5t10 -27.5q-11 -68 -58 -111.5t-126 -43.5q-46 0 -143 44t-134 44q-40 0 -61 -35q-12 -23 -26 -31t-42 -8h-25q-13 0 -24.5 13.5t-9.5 27.5zM373 582h467l-236 673z" />
<glyph unicode="&#xc4;" d="M25 39l489 1356q14 39 55 39h78q41 0 55 -39l490 -1356q5 -14 -3.5 -26.5t-23.5 -12.5h-82q-41 0 -55 39l-139 401h-565l-138 -401q-14 -39 -55 -39h-80q-15 0 -23 12.5t-3 26.5zM291 1649q0 55 24.5 82.5t67.5 27.5q46 0 72 -27.5t26 -82.5q0 -52 -26 -78.5t-72 -26.5 q-43 0 -67.5 26.5t-24.5 78.5zM373 582h467l-236 673zM735 1649q0 55 24.5 82.5t67.5 27.5q46 0 72.5 -27.5t26.5 -82.5q0 -52 -26.5 -78.5t-72.5 -26.5q-43 0 -67.5 26.5t-24.5 78.5z" />
<glyph unicode="&#xc5;" d="M25 39l489 1356q14 39 55 39h78q41 0 55 -39l490 -1356q5 -14 -3.5 -26.5t-23.5 -12.5h-82q-41 0 -55 39l-139 401h-565l-138 -401q-14 -39 -55 -39h-80q-15 0 -23 12.5t-3 26.5zM373 582h467l-236 673zM463 1681v21q0 67 42 108t111 41t111.5 -41t42.5 -108v-21 q0 -70 -42 -109.5t-112 -39.5t-111.5 39.5t-41.5 109.5zM543 1690q0 -86 73 -86q36 0 55 23t19 63q0 88 -74 88q-73 0 -73 -88z" />
<glyph unicode="&#xc6;" horiz-adv-x="1939" d="M30.5 12.5q-6.5 12.5 0.5 24.5l743 1360q19 37 62 37h974q17 0 29 -12t12 -29v-62q0 -17 -12 -29t-29 -12h-622v-602h512q17 0 29 -12t12 -29v-59q0 -17 -12 -29t-29 -12h-512v-406h639q17 0 29 -12t12 -29v-59q0 -17 -12 -29t-29 -12h-752q-17 0 -29 12t-12 29v506h-553 l-274 -510q-19 -37 -62 -37h-94q-14 0 -20.5 12.5zM557 688h477v602h-151z" />
<glyph unicode="&#xc7;" horiz-adv-x="1202" d="M123 418v598q0 202 135 324t348 122q210 0 344.5 -109.5t134.5 -277.5v-31q0 -38 -36 -38h-76q-37 0 -37 38v13q0 117 -92.5 189.5t-237.5 72.5q-150 0 -240 -87t-90 -245v-541q0 -158 90 -244.5t240 -86.5q147 0 238.5 74t91.5 198v23q0 39 37 39h76q17 0 26.5 -10.5 t9.5 -28.5v-52q0 -154 -114.5 -259t-298.5 -124l-17 -51q57 -5 93 -35.5t36 -87.5q0 -38 -18 -65t-48.5 -41.5t-64.5 -20.5t-73 -6q-53 0 -78 2q-37 3 -37 31v16q0 15 10 23t25 8h39q43 0 71.5 15.5t28.5 46.5q0 46 -82 59q-19 3 -25.5 15.5t0.5 27.5l23 61 q-195 18 -313.5 137t-118.5 308z" />
<glyph unicode="&#xc8;" horiz-adv-x="1050" d="M133 41v1352q0 17 12 29t29 12h748q17 0 29 -12t12 -29v-62q0 -17 -12 -29t-29 -12h-635v-526h524q17 0 29 -12t12 -29v-59q0 -17 -12 -29t-29 -12h-524v-482h651q17 0 29 -12t12 -29v-59q0 -17 -12 -29t-29 -12h-764q-17 0 -29 12t-12 29zM381.5 1787q5.5 11 17.5 11h93 q38 0 63 -35l113 -180q8 -11 1 -23t-20 -12h-59q-43 0 -66 33l-141 184q-7 11 -1.5 22z" />
<glyph unicode="&#xc9;" horiz-adv-x="1050" d="M133 41v1352q0 17 12 29t29 12h748q17 0 29 -12t12 -29v-62q0 -17 -12 -29t-29 -12h-635v-526h524q17 0 29 -12t12 -29v-59q0 -17 -12 -29t-29 -12h-524v-482h651q17 0 29 -12t12 -29v-59q0 -17 -12 -29t-29 -12h-764q-17 0 -29 12t-12 29zM476 1560q-7 12 1 23l113 180 q24 35 63 35h92q12 0 18 -11t-1 -22l-141 -184q-23 -33 -66 -33h-59q-13 0 -20 12z" />
<glyph unicode="&#xca;" horiz-adv-x="1050" d="M133 41v1352q0 17 12 29t29 12h748q17 0 29 -12t12 -29v-62q0 -17 -12 -29t-29 -12h-635v-526h524q17 0 29 -12t12 -29v-59q0 -17 -12 -29t-29 -12h-524v-482h651q17 0 29 -12t12 -29v-59q0 -17 -12 -29t-29 -12h-764q-17 0 -29 12t-12 29zM363.5 1560q-6.5 12 1.5 23 l112 180q25 35 64 35h59q40 0 64 -35l112 -180q8 -11 1.5 -23t-19.5 -12h-60q-42 0 -61 37l-68 117l-65 -117q-19 -37 -62 -37h-59q-13 0 -19.5 12z" />
<glyph unicode="&#xcb;" horiz-adv-x="1050" d="M133 41v1352q0 17 12 29t29 12h748q17 0 29 -12t12 -29v-62q0 -17 -12 -29t-29 -12h-635v-526h524q17 0 29 -12t12 -29v-59q0 -17 -12 -29t-29 -12h-524v-482h651q17 0 29 -12t12 -29v-59q0 -17 -12 -29t-29 -12h-764q-17 0 -29 12t-12 29zM207 1649q0 55 24.5 82.5 t67.5 27.5q46 0 72 -27.5t26 -82.5q0 -52 -26 -78.5t-72 -26.5q-43 0 -67.5 26.5t-24.5 78.5zM651 1649q0 55 24.5 82.5t67.5 27.5q46 0 72.5 -27.5t26.5 -82.5q0 -52 -26.5 -78.5t-72.5 -26.5q-43 0 -67.5 26.5t-24.5 78.5z" />
<glyph unicode="&#xcc;" horiz-adv-x="419" d="M23.5 1787q5.5 11 17.5 11h92q39 0 64 -35l112 -180q8 -11 1.5 -23t-19.5 -12h-60q-42 0 -65 33l-141 184q-7 11 -1.5 22zM133 41v1352q0 17 12 29t29 12h72q17 0 29 -12t12 -29v-1352q0 -17 -12 -29t-29 -12h-72q-17 0 -29 12t-12 29z" />
<glyph unicode="&#xcd;" horiz-adv-x="419" d="M133 41v1352q0 17 12 29t29 12h72q17 0 29 -12t12 -29v-1352q0 -17 -12 -29t-29 -12h-72q-17 0 -29 12t-12 29zM152.5 1560q-6.5 12 1.5 23l112 180q24 35 64 35h92q12 0 17.5 -11t-1.5 -22l-141 -184q-23 -33 -66 -33h-59q-13 0 -19.5 12z" />
<glyph unicode="&#xce;" horiz-adv-x="419" d="M3 1560q-7 12 1 23l113 180q24 35 63 35h60q38 0 63 -35l113 -180q8 -11 1 -23t-20 -12h-59q-43 0 -62 37l-67 117l-66 -117q-19 -37 -61 -37h-59q-13 0 -20 12zM133 41v1352q0 17 12 29t29 12h72q17 0 29 -12t12 -29v-1352q0 -17 -12 -29t-29 -12h-72q-17 0 -29 12 t-12 29z" />
<glyph unicode="&#xcf;" horiz-adv-x="419" d="M-29 1649q0 55 24.5 82.5t67.5 27.5q46 0 72.5 -27.5t26.5 -82.5q0 -52 -26.5 -78.5t-72.5 -26.5q-43 0 -67.5 26.5t-24.5 78.5zM133 41v1352q0 17 12 29t29 12h72q17 0 29 -12t12 -29v-1352q0 -17 -12 -29t-29 -12h-72q-17 0 -29 12t-12 29zM260 1649q0 55 24.5 82.5 t67.5 27.5q46 0 72.5 -27.5t26.5 -82.5q0 -52 -26.5 -78.5t-72.5 -26.5q-43 0 -67.5 26.5t-24.5 78.5z" />
<glyph unicode="&#xd0;" horiz-adv-x="1226" d="M14 662v57q0 17 12 29t29 12h78v633q0 17 12 29t29 12h475q210 0 332.5 -121t122.5 -326v-541q0 -205 -122.5 -325.5t-332.5 -120.5h-475q-17 0 -29 12t-12 29v580h-78q-17 0 -29 12t-12 29zM287 141h362q146 0 223.5 85.5t77.5 246.5v488q0 161 -77 245t-224 84h-362 v-530h311q17 0 29 -12t12 -29v-57q0 -17 -12 -29t-29 -12h-311v-480z" />
<glyph unicode="&#xd1;" horiz-adv-x="1273" d="M133 41v1352q0 17 12 29t29 12h111q42 0 61 -37l645 -1184l-4 1180q0 17 12 29t29 12h72q17 0 29 -12t12 -29v-1352q0 -17 -12 -29t-29 -12h-115q-42 0 -61 37l-641 1182l4 -1178q0 -17 -12 -29t-29 -12h-72q-17 0 -29 12t-12 29zM313 1616q9 66 59.5 111t125.5 45 q45 0 101 -22t103.5 -44.5t69.5 -22.5q41 0 62 35q15 24 28.5 31.5t40.5 7.5h23q15 0 27 -13.5t10 -27.5q-11 -68 -58.5 -111.5t-126.5 -43.5q-46 0 -142 44t-134 44q-41 0 -62 -35q-12 -23 -25.5 -31t-41.5 -8h-25q-13 0 -25 13.5t-10 27.5z" />
<glyph unicode="&#xd2;" horiz-adv-x="1257" d="M123 418v598q0 134 68 237t182.5 156t255.5 53t255.5 -53t182.5 -156t68 -237v-598q0 -202 -145 -324.5t-361 -122.5t-361 122.5t-145 324.5zM276 446q0 -158 100 -244.5t253 -86.5t252.5 86.5t99.5 244.5v541q0 158 -99.5 245t-252.5 87t-253 -87t-100 -245v-541z M445 1787q6 11 18 11h92q39 0 63 -35l113 -180q8 -11 1.5 -23t-19.5 -12h-60q-42 0 -65 33l-142 184q-7 11 -1 22z" />
<glyph unicode="&#xd3;" horiz-adv-x="1257" d="M123 418v598q0 134 68 237t182.5 156t255.5 53t255.5 -53t182.5 -156t68 -237v-598q0 -202 -145 -324.5t-361 -122.5t-361 122.5t-145 324.5zM276 446q0 -158 100 -244.5t253 -86.5t252.5 86.5t99.5 244.5v541q0 158 -99.5 245t-252.5 87t-253 -87t-100 -245v-541z M566 1560q-7 12 1 23l113 180q24 35 63 35h93q12 0 17.5 -11t-1.5 -22l-141 -184q-23 -33 -66 -33h-59q-13 0 -20 12z" />
<glyph unicode="&#xd4;" horiz-adv-x="1257" d="M123 418v598q0 134 68 237t182.5 156t255.5 53t255.5 -53t182.5 -156t68 -237v-598q0 -202 -145 -324.5t-361 -122.5t-361 122.5t-145 324.5zM276 446q0 -158 100 -244.5t253 -86.5t252.5 86.5t99.5 244.5v541q0 158 -99.5 245t-252.5 87t-253 -87t-100 -245v-541z M420.5 1560q-6.5 12 1.5 23l113 180q25 35 63 35h59q39 0 64 -35l113 -180q8 -11 1 -23t-20 -12h-59q-43 0 -62 37l-67 117l-66 -117q-19 -37 -61 -37h-60q-13 0 -19.5 12z" />
<glyph unicode="&#xd5;" horiz-adv-x="1257" d="M123 418v598q0 134 68 237t182.5 156t255.5 53t255.5 -53t182.5 -156t68 -237v-598q0 -202 -145 -324.5t-361 -122.5t-361 122.5t-145 324.5zM276 446q0 -158 100 -244.5t253 -86.5t252.5 86.5t99.5 244.5v541q0 158 -99.5 245t-252.5 87t-253 -87t-100 -245v-541z M305 1616q9 66 59 111t125 45q45 0 101.5 -22t104 -44.5t69.5 -22.5q40 0 61 35q15 24 29 31.5t41 7.5h23q15 0 26.5 -13.5t9.5 -27.5q-11 -68 -58 -111.5t-126 -43.5q-46 0 -142.5 44t-133.5 44q-41 0 -62 -35q-12 -23 -25.5 -31t-41.5 -8h-25q-13 0 -25 13.5t-10 27.5z " />
<glyph unicode="&#xd6;" horiz-adv-x="1277" d="M133 418v598q0 134 68 237t182.5 156t255.5 53t255.5 -53t182.5 -156t68 -237v-598q0 -202 -145 -324.5t-361 -122.5t-361 122.5t-145 324.5zM287 446q0 -158 99.5 -244.5t252.5 -86.5t252.5 86.5t99.5 244.5v541q0 158 -99.5 245t-252.5 87t-252.5 -87t-99.5 -245v-541z M322 1649q0 55 24.5 82.5t67.5 27.5q46 0 72 -27.5t26 -82.5q0 -52 -26 -78.5t-72 -26.5q-43 0 -67.5 26.5t-24.5 78.5zM766 1649q0 55 24.5 82.5t67.5 27.5q46 0 72 -27.5t26 -82.5q0 -52 -26 -78.5t-72 -26.5q-43 0 -67.5 26.5t-24.5 78.5z" />
<glyph unicode="&#xd7;" horiz-adv-x="1122" d="M110 186q0 18 11 29l352 352l-352 353q-11 10 -11 28t11 29l31 31q10 10 28 10t29 -10l352 -353l352 353q11 10 29 10t29 -10l30 -31q11 -11 11 -29t-11 -28l-352 -353l352 -352q11 -11 11 -29t-11 -28l-30 -31q-11 -11 -29 -11t-29 11l-352 352l-352 -352 q-11 -11 -29 -11t-28 11l-31 31q-11 10 -11 28z" />
<glyph unicode="&#xd8;" horiz-adv-x="1257" d="M0 160v98q0 42 33 68l90 71v619q0 134 68 237t182.5 156t255.5 53q163 0 290 -73t181 -201l125 100q11 7 21.5 2.5t10.5 -16.5v-98q0 -42 -32 -68l-90 -74v-616q0 -202 -145 -324.5t-361 -122.5q-164 0 -291 73t-182 202l-123 -101q-11 -7 -22 -2t-11 17zM276 522 l693 559q-28 115 -120.5 176.5t-219.5 61.5q-153 0 -253 -87t-100 -245v-465zM287 350q28 -113 121.5 -174t220.5 -61q153 0 252.5 86.5t99.5 244.5v465z" />
<glyph unicode="&#xd9;" horiz-adv-x="1224" d="M129 418v975q0 17 12 29t29 12h72q17 0 29 -12t12 -29v-947q0 -159 87.5 -245t241.5 -86t242 86t88 245v947q0 17 12 29t29 12h72q17 0 29 -12t12 -29v-975q0 -203 -133 -325t-351 -122t-350.5 122t-132.5 325zM445 1787q6 11 18 11h92q39 0 63 -35l113 -180 q8 -11 1.5 -23t-19.5 -12h-60q-42 0 -65 33l-142 184q-7 11 -1 22z" />
<glyph unicode="&#xda;" horiz-adv-x="1224" d="M129 418v975q0 17 12 29t29 12h72q17 0 29 -12t12 -29v-947q0 -159 87.5 -245t241.5 -86t242 86t88 245v947q0 17 12 29t29 12h72q17 0 29 -12t12 -29v-975q0 -203 -133 -325t-351 -122t-350.5 122t-132.5 325zM547.5 1560q-6.5 12 1.5 23l113 180q24 35 63 35h92 q12 0 18 -11t-1 -22l-142 -184q-23 -33 -65 -33h-60q-13 0 -19.5 12z" />
<glyph unicode="&#xdb;" horiz-adv-x="1224" d="M129 418v975q0 17 12 29t29 12h72q17 0 29 -12t12 -29v-947q0 -159 87.5 -245t241.5 -86t242 86t88 245v947q0 17 12 29t29 12h72q17 0 29 -12t12 -29v-975q0 -203 -133 -325t-351 -122t-350.5 122t-132.5 325zM404.5 1560q-6.5 12 1.5 23l112 180q24 35 64 35h59 q39 0 64 -35l112 -180q8 -11 1.5 -23t-19.5 -12h-60q-42 0 -61 37l-68 117l-65 -117q-19 -37 -62 -37h-59q-13 0 -19.5 12z" />
<glyph unicode="&#xdc;" horiz-adv-x="1224" d="M129 418v975q0 17 12 29t29 12h72q17 0 29 -12t12 -29v-947q0 -159 87.5 -245t241.5 -86t242 86t88 245v947q0 17 12 29t29 12h72q17 0 29 -12t12 -29v-975q0 -203 -133 -325t-351 -122t-350.5 122t-132.5 325zM295 1649q0 55 24.5 82.5t67.5 27.5q46 0 72 -27.5 t26 -82.5q0 -52 -26 -78.5t-72 -26.5q-43 0 -67.5 26.5t-24.5 78.5zM739 1649q0 55 24.5 82.5t67.5 27.5q46 0 72.5 -27.5t26.5 -82.5q0 -52 -26.5 -78.5t-72.5 -26.5q-43 0 -67.5 26.5t-24.5 78.5z" />
<glyph unicode="&#xdd;" horiz-adv-x="1095" d="M29 1397q-6 12 1.5 24.5t20.5 12.5h90q41 0 60 -37l348 -750l350 750q19 37 59 37h86q13 0 21 -12.5t2 -24.5l-440 -912v-444q0 -17 -12 -29t-29 -12h-72q-17 0 -29 12t-12 29v440zM469.5 1560q-6.5 12 1.5 23l113 180q24 35 63 35h92q12 0 18 -11t-1 -22l-142 -184 q-23 -33 -65 -33h-60q-13 0 -19.5 12z" />
<glyph unicode="&#xde;" horiz-adv-x="1183" d="M133 41v1352q0 17 12 29t29 12h72q17 0 29 -12t12 -29v-224h338q213 0 333.5 -109t120.5 -308v-70q0 -199 -120.5 -308.5t-333.5 -109.5h-338v-223q0 -17 -12 -29t-29 -12h-72q-17 0 -29 12t-12 29zM287 406h338q301 0 301 305v12q0 156 -76.5 229.5t-224.5 73.5h-338 v-620z" />
<glyph unicode="&#xdf;" horiz-adv-x="1187" d="M10 840v47q0 17 12 29t29 12h103v211q0 197 100.5 307t286.5 110q180 0 273 -79.5t93 -231.5q0 -51 -21.5 -96t-54.5 -76t-70.5 -62t-70.5 -56t-54.5 -56.5t-21.5 -64.5q0 -48 25.5 -87t66 -67t89.5 -55t98.5 -58t90 -67.5t66 -92t25.5 -124.5q0 -141 -100 -226.5 t-293 -85.5q-78 0 -154 13q-15 3 -28 18.5t-13 30.5v51q0 17 11 26t28 5q73 -13 156 -13q103 0 168 43t65 125q0 45 -25 83t-65.5 67.5t-89 58t-97 61t-89 69.5t-65.5 90.5t-25 117.5q0 56 16 100t41 72.5t55.5 52.5t61 45t55.5 43.5t41 54.5t16 72q0 24 -3 43.5t-15.5 44 t-33 41t-60 28t-92.5 11.5q-124 0 -183 -77.5t-59 -233.5v-1073q0 -17 -12 -29t-29 -12h-63q-17 0 -29 12t-12 29v758h-103q-17 0 -29 12t-12 29z" />
<glyph unicode="&#xe0;" horiz-adv-x="1124" d="M121 301q0 162 107.5 238.5t297.5 76.5q71 0 156.5 -14.5t146.5 -34.5v203q0 141 -64.5 203.5t-203.5 62.5q-127 0 -196.5 -65t-69.5 -162q0 -17 -11.5 -26t-29.5 -9h-64q-18 0 -29 11t-11 30q0 65 26.5 127t76 112.5t130 81.5t178.5 31q202 0 308 -91.5t106 -274.5v-760 q0 -17 -12 -29t-29 -12h-47q-17 0 -30.5 12t-14.5 29l-6 84q-67 -67 -162.5 -106t-202.5 -39q-169 0 -259.5 81.5t-90.5 239.5zM268 301q0 -94 60 -144.5t166 -50.5q101 0 191.5 49.5t143.5 118.5v168q-159 50 -315 50q-246 0 -246 -191zM371.5 1500.5q5.5 10.5 17.5 10.5 h92q40 0 64 -34l112 -181q8 -10 1.5 -22t-19.5 -12h-59q-44 0 -66 32l-141 185q-7 11 -1.5 21.5z" />
<glyph unicode="&#xe1;" horiz-adv-x="1124" d="M121 301q0 162 107.5 238.5t297.5 76.5q71 0 156.5 -14.5t146.5 -34.5v203q0 141 -64.5 203.5t-203.5 62.5q-127 0 -196.5 -65t-69.5 -162q0 -17 -11.5 -26t-29.5 -9h-64q-18 0 -29 11t-11 30q0 65 26.5 127t76 112.5t130 81.5t178.5 31q202 0 308 -91.5t106 -274.5v-760 q0 -17 -12 -29t-29 -12h-47q-17 0 -30.5 12t-14.5 29l-6 84q-67 -67 -162.5 -106t-202.5 -39q-169 0 -259.5 81.5t-90.5 239.5zM268 301q0 -94 60 -144.5t166 -50.5q101 0 191.5 49.5t143.5 118.5v168q-159 50 -315 50q-246 0 -246 -191zM484 1274q-7 12 1 22l113 181 q24 34 64 34h92q12 0 17.5 -10.5t-1.5 -21.5l-141 -185q-22 -32 -66 -32h-59q-13 0 -20 12z" />
<glyph unicode="&#xe2;" horiz-adv-x="1124" d="M121 301q0 162 107.5 238.5t297.5 76.5q71 0 156.5 -14.5t146.5 -34.5v203q0 141 -64.5 203.5t-203.5 62.5q-127 0 -196.5 -65t-69.5 -162q0 -17 -11.5 -26t-29.5 -9h-64q-18 0 -29 11t-11 30q0 65 26.5 127t76 112.5t130 81.5t178.5 31q202 0 308 -91.5t106 -274.5v-760 q0 -17 -12 -29t-29 -12h-47q-17 0 -30.5 12t-14.5 29l-6 84q-67 -67 -162.5 -106t-202.5 -39q-169 0 -259.5 81.5t-90.5 239.5zM268 301q0 -94 60 -144.5t166 -50.5q101 0 191.5 49.5t143.5 118.5v168q-159 50 -315 50q-246 0 -246 -191zM365.5 1274q-6.5 12 1.5 22l112 181 q24 34 64 34h59q40 0 64 -34l112 -181q8 -10 1.5 -22t-19.5 -12h-60q-42 0 -61 36l-68 117l-65 -117q-19 -36 -62 -36h-59q-13 0 -19.5 12z" />
<glyph unicode="&#xe3;" horiz-adv-x="1124" d="M121 301q0 162 107.5 238.5t297.5 76.5q71 0 156.5 -14.5t146.5 -34.5v203q0 141 -64.5 203.5t-203.5 62.5q-127 0 -196.5 -65t-69.5 -162q0 -17 -11.5 -26t-29.5 -9h-64q-18 0 -29 11t-11 30q0 65 26.5 127t76 112.5t130 81.5t178.5 31q202 0 308 -91.5t106 -274.5v-760 q0 -17 -12 -29t-29 -12h-47q-17 0 -30.5 12t-14.5 29l-6 84q-67 -67 -162.5 -106t-202.5 -39q-169 0 -259.5 81.5t-90.5 239.5zM256 1329q9 66 59 111t125 45q58 0 155 -44t120 -44q40 0 61 35q15 23 28.5 30.5t41.5 7.5h22q15 0 27 -13t10 -27q-11 -68 -58 -112t-126 -44 q-47 0 -143 44t-134 44q-40 0 -61 -35q-12 -23 -26 -31t-42 -8h-24q-13 0 -25 13.5t-10 27.5zM268 301q0 -94 60 -144.5t166 -50.5q101 0 191.5 49.5t143.5 118.5v168q-159 50 -315 50q-246 0 -246 -191z" />
<glyph unicode="&#xe4;" horiz-adv-x="1124" d="M121 301q0 162 107.5 238.5t297.5 76.5q71 0 156.5 -14.5t146.5 -34.5v203q0 141 -64.5 203.5t-203.5 62.5q-127 0 -196.5 -65t-69.5 -162q0 -17 -11.5 -26t-29.5 -9h-64q-18 0 -29 11t-11 30q0 65 26.5 127t76 112.5t130 81.5t178.5 31q202 0 308 -91.5t106 -274.5v-760 q0 -17 -12 -29t-29 -12h-47q-17 0 -30.5 12t-14.5 29l-6 84q-67 -67 -162.5 -106t-202.5 -39q-169 0 -259.5 81.5t-90.5 239.5zM254 1362q0 55 24.5 83t67.5 28q46 0 72 -28t26 -83q0 -52 -26 -78.5t-72 -26.5q-43 0 -67.5 26.5t-24.5 78.5zM268 301q0 -94 60 -144.5 t166 -50.5q101 0 191.5 49.5t143.5 118.5v168q-159 50 -315 50q-246 0 -246 -191zM698 1362q0 55 25 83t68 28q46 0 72 -28t26 -83q0 -52 -26 -78.5t-72 -26.5q-43 0 -68 26.5t-25 78.5z" />
<glyph unicode="&#xe5;" horiz-adv-x="1124" d="M121 301q0 162 107.5 238.5t297.5 76.5q71 0 156.5 -14.5t146.5 -34.5v203q0 141 -64.5 203.5t-203.5 62.5q-127 0 -196.5 -65t-69.5 -162q0 -17 -11.5 -26t-29.5 -9h-64q-18 0 -29 11t-11 30q0 65 26.5 127t76 112.5t130 81.5t178.5 31q202 0 308 -91.5t106 -274.5v-760 q0 -17 -12 -29t-29 -12h-47q-17 0 -30.5 12t-14.5 29l-6 84q-67 -67 -162.5 -106t-202.5 -39q-169 0 -259.5 81.5t-90.5 239.5zM268 301q0 -94 60 -144.5t166 -50.5q101 0 191.5 49.5t143.5 118.5v168q-159 50 -315 50q-246 0 -246 -191zM418 1395v20q0 68 42 109t111 41 t111.5 -41.5t42.5 -108.5v-20q0 -70 -42 -110t-112 -40t-111.5 40t-41.5 110zM498 1403q0 -86 73 -86q36 0 55 23t19 63q0 88 -74 88q-73 0 -73 -88z" />
<glyph unicode="&#xe6;" horiz-adv-x="1832" d="M121 322q0 164 100 243.5t285 79.5h325v105q0 144 -65.5 215t-202.5 71q-130 0 -197 -65.5t-67 -167.5q0 -17 -12.5 -26t-30.5 -9h-63q-17 0 -28 11t-11 30q0 70 26 133.5t75.5 114t129 80.5t178.5 30q242 0 348 -153q116 153 353 153q200 0 316 -111.5t116 -305.5v-189 q0 -17 -12 -29t-29 -12h-678v-98q0 -153 74 -232t213 -79q133 0 207.5 65.5t74.5 151.5q0 37 39 37h66q18 0 28.5 -10.5t10.5 -28.5q0 -63 -29 -124t-81.5 -111t-135 -80.5t-180.5 -30.5q-257 0 -369 176q-168 -176 -422 -176q-167 0 -259.5 91t-92.5 251zM270 322 q0 -96 61 -153.5t165 -57.5q102 0 192.5 48t142.5 115v246h-329q-232 0 -232 -198zM977 645h573v80q0 153 -73.5 232t-212.5 79q-136 0 -210 -76t-77 -221v-94z" />
<glyph unicode="&#xe7;" horiz-adv-x="1136" d="M141 397v353q0 194 116 305.5t316 111.5q198 0 312 -98.5t114 -249.5q0 -39 -36 -39h-68q-39 0 -39 37q0 96 -74 157.5t-209 61.5q-139 0 -212.5 -79t-73.5 -232v-303q0 -153 73.5 -232t212.5 -79q137 0 210 62t73 155q0 37 39 37h66q38 0 38 -39q0 -128 -92.5 -224 t-253.5 -116l-20 -62q57 -5 93 -35.5t36 -87.5q0 -50 -32.5 -81t-75.5 -41.5t-97 -10.5q-53 0 -78 2q-37 3 -37 31v16q0 15 10 23t25 8h39q43 0 71.5 15.5t28.5 46.5q0 46 -81 59q-19 3 -25.5 15.5t0.5 27.5l25 70q-184 11 -289 120.5t-105 294.5z" />
<glyph unicode="&#xe8;" horiz-adv-x="1142" d="M141 397v353q0 194 116 305.5t316 111.5t316.5 -111.5t116.5 -305.5v-168q0 -17 -12 -29t-29 -12h-678v-119q0 -153 73.5 -232t212.5 -79q74 0 131.5 21.5t89 55.5t47 69.5t15.5 70.5q0 37 39 37h66q38 0 38 -39q0 -63 -29.5 -124t-82.5 -111t-135 -80.5t-179 -30.5 q-200 0 -316 111.5t-116 305.5zM287 670h573v55q0 153 -74 232t-213 79t-212.5 -79t-73.5 -232v-55zM365.5 1500.5q5.5 10.5 17.5 10.5h92q40 0 64 -34l112 -181q8 -10 1.5 -22t-19.5 -12h-60q-43 0 -65 32l-141 185q-7 11 -1.5 21.5z" />
<glyph unicode="&#xe9;" horiz-adv-x="1142" d="M141 397v353q0 194 116 305.5t316 111.5t316.5 -111.5t116.5 -305.5v-168q0 -17 -12 -29t-29 -12h-678v-119q0 -153 73.5 -232t212.5 -79q74 0 131.5 21.5t89 55.5t47 69.5t15.5 70.5q0 37 39 37h66q38 0 38 -39q0 -63 -29.5 -124t-82.5 -111t-135 -80.5t-179 -30.5 q-200 0 -316 111.5t-116 305.5zM287 670h573v55q0 153 -74 232t-213 79t-212.5 -79t-73.5 -232v-55zM521 1274q-7 12 1 22l113 181q24 34 63 34h93q12 0 17.5 -10.5t-1.5 -21.5l-141 -185q-22 -32 -66 -32h-59q-13 0 -20 12z" />
<glyph unicode="&#xea;" horiz-adv-x="1142" d="M141 397v353q0 194 116 305.5t316 111.5t316.5 -111.5t116.5 -305.5v-168q0 -17 -12 -29t-29 -12h-678v-119q0 -153 73.5 -232t212.5 -79q74 0 131.5 21.5t89 55.5t47 69.5t15.5 70.5q0 37 39 37h66q38 0 38 -39q0 -63 -29.5 -124t-82.5 -111t-135 -80.5t-179 -30.5 q-200 0 -316 111.5t-116 305.5zM287 670h573v55q0 153 -74 232t-213 79t-212.5 -79t-73.5 -232v-55zM371.5 1274q-6.5 12 1.5 22l112 181q24 34 64 34h59q40 0 64 -34l112 -181q8 -10 1.5 -22t-19.5 -12h-59q-43 0 -62 36l-67 117l-66 -117q-19 -36 -61 -36h-60 q-13 0 -19.5 12z" />
<glyph unicode="&#xeb;" horiz-adv-x="1142" d="M141 397v353q0 194 116 305.5t316 111.5t316.5 -111.5t116.5 -305.5v-168q0 -17 -12 -29t-29 -12h-678v-119q0 -153 73.5 -232t212.5 -79q74 0 131.5 21.5t89 55.5t47 69.5t15.5 70.5q0 37 39 37h66q38 0 38 -39q0 -63 -29.5 -124t-82.5 -111t-135 -80.5t-179 -30.5 q-200 0 -316 111.5t-116 305.5zM258 1362q0 55 24.5 83t67.5 28q46 0 72.5 -28t26.5 -83q0 -52 -26.5 -78.5t-72.5 -26.5q-43 0 -67.5 26.5t-24.5 78.5zM287 670h573v55q0 153 -74 232t-213 79t-212.5 -79t-73.5 -232v-55zM702 1362q0 55 25 83t68 28q46 0 72 -28t26 -83 q0 -52 -26 -78.5t-72 -26.5q-43 0 -68 26.5t-25 78.5z" />
<glyph unicode="&#xec;" horiz-adv-x="452" d="M-19.5 1500.5q5.5 10.5 17.5 10.5h92q40 0 64 -34l112 -181q8 -10 1.5 -22t-19.5 -12h-60q-43 0 -65 32l-141 185q-7 11 -1.5 21.5zM154 41v1065q0 17 12 29t29 12h63q17 0 29 -12t12 -29v-1065q0 -17 -12 -29t-29 -12h-63q-17 0 -29 12t-12 29z" />
<glyph unicode="&#xed;" horiz-adv-x="452" d="M154 41v1065q0 17 12 29t29 12h63q17 0 29 -12t12 -29v-1065q0 -17 -12 -29t-29 -12h-63q-17 0 -29 12t-12 29zM166.5 1274q-6.5 12 1.5 22l113 181q24 34 63 34h92q12 0 18 -10.5t-1 -21.5l-142 -185q-22 -32 -65 -32h-60q-13 0 -19.5 12z" />
<glyph unicode="&#xee;" horiz-adv-x="452" d="M19 1274q-7 12 1 22l113 181q24 34 64 34h59q39 0 63 -34l113 -181q8 -10 1.5 -22t-19.5 -12h-60q-42 0 -61 36l-68 117l-65 -117q-19 -36 -62 -36h-59q-13 0 -20 12zM154 41v1065q0 17 12 29t29 12h63q17 0 29 -12t12 -29v-1065q0 -17 -12 -29t-29 -12h-63q-17 0 -29 12 t-12 29z" />
<glyph unicode="&#xef;" horiz-adv-x="452" d="M-16 1362q0 55 24.5 83t67.5 28q46 0 72 -28t26 -83q0 -52 -26 -78.5t-72 -26.5q-43 0 -67.5 26.5t-24.5 78.5zM154 41v1065q0 17 12 29t29 12h63q17 0 29 -12t12 -29v-1065q0 -17 -12 -29t-29 -12h-63q-17 0 -29 12t-12 29zM281 1362q0 55 24.5 83t67.5 28q46 0 72 -28 t26 -83q0 -52 -26 -78.5t-72 -26.5q-43 0 -67.5 26.5t-24.5 78.5z" />
<glyph unicode="&#xf0;" horiz-adv-x="1148" d="M141 397v301q0 197 99 302.5t290 105.5q90 0 174.5 -36.5t145.5 -98.5v141q0 123 -53 197l-105 -80q-13 -9 -31 -7t-28 15l-29 39q-11 13 -9 30.5t15 26.5l80 62q-70 28 -158 28q-68 0 -124 -6q-17 -3 -29 7.5t-12 27.5v51q0 18 12 33t29 18q63 13 124 13q170 0 285 -74 l113 86q13 9 31 7t28 -15l29 -39q11 -13 9 -30.5t-15 -26.5l-94 -74q77 -107 77 -260v-744q0 -195 -114 -306t-314 -111q-199 0 -312.5 111t-113.5 306zM287 422q0 -154 71 -232.5t209 -78.5t210.5 79t72.5 232v389q-54 67 -139.5 115.5t-169.5 48.5q-135 0 -194.5 -75.5 t-59.5 -227.5v-250z" />
<glyph unicode="&#xf1;" horiz-adv-x="1140" d="M154 41v1065q0 17 12 29t29 12h47q17 0 30.5 -12t14.5 -29l6 -84q145 145 317 145q190 0 285.5 -104.5t95.5 -302.5v-719q0 -17 -12 -29t-29 -12h-63q-17 0 -29 12t-12 29v692q0 154 -56 228.5t-190 74.5q-86 0 -167.5 -48t-133.5 -116v-831q0 -17 -12 -29t-29 -12h-63 q-17 0 -29 12t-12 29zM254 1329q9 66 59 111t125 45q58 0 155 -44t120 -44q40 0 61 35q15 23 28.5 30.5t41.5 7.5h22q15 0 27 -13t10 -27q-11 -68 -58 -112t-126 -44q-47 0 -143 44t-134 44q-40 0 -61 -35q-12 -23 -26 -31t-42 -8h-24q-13 0 -25 13.5t-10 27.5z" />
<glyph unicode="&#xf2;" horiz-adv-x="1146" d="M141 397v353q0 194 116 305.5t316 111.5t316.5 -111.5t116.5 -305.5v-353q0 -194 -116.5 -305.5t-316.5 -111.5t-316 111.5t-116 305.5zM287 422q0 -153 73.5 -232t212.5 -79t213 79t74 232v303q0 153 -74 232t-213 79t-212.5 -79t-73.5 -232v-303zM390 1500.5 q6 10.5 18 10.5h92q39 0 63 -34l113 -181q8 -10 1 -22t-20 -12h-59q-44 0 -66 32l-141 185q-7 11 -1 21.5z" />
<glyph unicode="&#xf3;" horiz-adv-x="1146" d="M141 397v353q0 194 116 305.5t316 111.5t316.5 -111.5t116.5 -305.5v-353q0 -194 -116.5 -305.5t-316.5 -111.5t-316 111.5t-116 305.5zM287 422q0 -153 73.5 -232t212.5 -79t213 79t74 232v303q0 153 -74 232t-213 79t-212.5 -79t-73.5 -232v-303zM523 1274q-7 12 1 22 l113 181q24 34 63 34h93q12 0 17.5 -10.5t-1.5 -21.5l-141 -185q-22 -32 -66 -32h-59q-13 0 -20 12z" />
<glyph unicode="&#xf4;" horiz-adv-x="1146" d="M141 397v353q0 194 116 305.5t316 111.5t316.5 -111.5t116.5 -305.5v-353q0 -194 -116.5 -305.5t-316.5 -111.5t-316 111.5t-116 305.5zM287 422q0 -153 73.5 -232t212.5 -79t213 79t74 232v303q0 153 -74 232t-213 79t-212.5 -79t-73.5 -232v-303zM365.5 1274 q-6.5 12 1.5 22l112 181q24 34 64 34h59q40 0 64 -34l112 -181q8 -10 1.5 -22t-19.5 -12h-60q-42 0 -61 36l-68 117l-65 -117q-19 -36 -62 -36h-59q-13 0 -19.5 12z" />
<glyph unicode="&#xf5;" horiz-adv-x="1146" d="M141 397v353q0 194 116 305.5t316 111.5t316.5 -111.5t116.5 -305.5v-353q0 -194 -116.5 -305.5t-316.5 -111.5t-316 111.5t-116 305.5zM250 1329q9 66 59 111t125 45q58 0 155 -44t120 -44q40 0 61 35q15 23 28.5 30.5t41.5 7.5h22q15 0 27 -13t10 -27q-11 -68 -58 -112 t-126 -44q-47 0 -143 44t-134 44q-40 0 -61 -35q-12 -23 -26 -31t-42 -8h-24q-13 0 -25 13.5t-10 27.5zM287 422q0 -153 73.5 -232t212.5 -79t213 79t74 232v303q0 153 -74 232t-213 79t-212.5 -79t-73.5 -232v-303z" />
<glyph unicode="&#xf6;" horiz-adv-x="1146" d="M141 397v353q0 194 116 305.5t316 111.5t316.5 -111.5t116.5 -305.5v-353q0 -194 -116.5 -305.5t-316.5 -111.5t-316 111.5t-116 305.5zM256 1362q0 55 24.5 83t67.5 28q46 0 72 -28t26 -83q0 -52 -26 -78.5t-72 -26.5q-43 0 -67.5 26.5t-24.5 78.5zM287 422 q0 -153 73.5 -232t212.5 -79t213 79t74 232v303q0 153 -74 232t-213 79t-212.5 -79t-73.5 -232v-303zM700 1362q0 55 25 83t68 28q46 0 72 -28t26 -83q0 -52 -26 -78.5t-72 -26.5q-43 0 -68 26.5t-25 78.5z" />
<glyph unicode="&#xf7;" horiz-adv-x="1175" d="M92 545v57q0 17 12 29t29 12h909q17 0 29 -12t12 -29v-57q0 -17 -12 -29t-29 -12h-909q-17 0 -29 12t-12 29zM492 84q0 55 24.5 83t67.5 28q46 0 72 -28t26 -83q0 -52 -26 -78t-72 -26q-43 0 -67.5 26t-24.5 78zM492 1057q0 55 24.5 82.5t67.5 27.5q46 0 72 -27.5 t26 -82.5q0 -52 -26 -78.5t-72 -26.5q-43 0 -67.5 26.5t-24.5 78.5z" />
<glyph unicode="&#xf8;" horiz-adv-x="1146" d="M-2 59v99q0 41 33 67l114 92q-4 27 -4 80v353q0 194 116 305.5t316 111.5q133 0 230.5 -51t150.5 -145l162 131q10 7 21.5 2t11.5 -17v-98q0 -41 -33 -67l-117 -95q7 -44 7 -77v-353q0 -194 -116.5 -305.5t-316.5 -111.5q-135 0 -232 50.5t-148 145.5l-162 -131 q-11 -8 -22 -3t-11 17zM287 432l549 442q-63 162 -263 162q-139 0 -212.5 -79t-73.5 -232v-293zM309 270q62 -159 264 -159q139 0 213 79t74 232v293z" />
<glyph unicode="&#xf9;" horiz-adv-x="1132" d="M150 375v731q0 17 11.5 29t28.5 12h64q17 0 29 -12t12 -29v-705q0 -156 48 -223t183 -67q87 0 172 48t136 115v832q0 17 11.5 29t28.5 12h64q17 0 29 -12t12 -29v-1065q0 -17 -12 -29t-29 -12h-47q-17 0 -30.5 12t-14.5 29l-6 84q-67 -67 -154 -106t-176 -39 q-193 0 -276.5 97t-83.5 298zM392 1500.5q6 10.5 18 10.5h92q39 0 63 -34l113 -181q8 -10 1 -22t-20 -12h-59q-43 0 -65 32l-142 185q-7 11 -1 21.5z" />
<glyph unicode="&#xfa;" horiz-adv-x="1132" d="M150 375v731q0 17 11.5 29t28.5 12h64q17 0 29 -12t12 -29v-705q0 -156 49 -223t184 -67q87 0 171 48t135 115v832q0 17 11.5 29t28.5 12h64q17 0 29 -12t12 -29v-1065q0 -17 -12 -29t-29 -12h-47q-17 0 -30.5 12t-14.5 29l-6 84q-67 -67 -153 -106t-175 -39 q-193 0 -277.5 97t-84.5 298zM482 1274q-7 12 1 22l113 181q24 34 63 34h93q12 0 17.5 -10.5t-1.5 -21.5l-141 -185q-22 -32 -66 -32h-59q-13 0 -20 12z" />
<glyph unicode="&#xfb;" horiz-adv-x="1132" d="M150 375v731q0 17 11.5 29t28.5 12h64q17 0 29 -12t12 -29v-705q0 -78 9.5 -129t34.5 -89t70 -55t115 -17q87 0 173 48.5t137 114.5v832q0 17 11.5 29t28.5 12h64q17 0 29 -12t12 -29v-1065q0 -17 -12 -29t-29 -12h-47q-17 0 -30.5 12t-14.5 29l-6 84q-67 -67 -155 -106 t-177 -39q-193 0 -275.5 97t-82.5 298zM357 1274q-7 12 1 22l113 181q24 34 64 34h59q39 0 63 -34l113 -181q8 -10 1.5 -22t-19.5 -12h-60q-42 0 -61 36l-68 117l-65 -117q-19 -36 -62 -36h-59q-13 0 -20 12z" />
<glyph unicode="&#xfc;" horiz-adv-x="1132" d="M150 375v731q0 17 11.5 29t28.5 12h64q17 0 29 -12t12 -29v-705q0 -156 48 -223t183 -67q87 0 172 48t136 115v832q0 17 11.5 29t28.5 12h64q17 0 29 -12t12 -29v-1065q0 -17 -12 -29t-29 -12h-47q-17 0 -30.5 12t-14.5 29l-6 84q-67 -67 -154 -106t-176 -39 q-193 0 -276.5 97t-83.5 298zM252 1362q0 55 24.5 83t67.5 28q46 0 72 -28t26 -83q0 -52 -26 -78.5t-72 -26.5q-43 0 -67.5 26.5t-24.5 78.5zM696 1362q0 55 24.5 83t67.5 28q46 0 72.5 -28t26.5 -83q0 -52 -26.5 -78.5t-72.5 -26.5q-43 0 -67.5 26.5t-24.5 78.5z" />
<glyph unicode="&#xfd;" horiz-adv-x="980" d="M25 1108q-6 13 2.5 26t23.5 13h76q19 0 34 -11t19 -28l312 -938l311 938q4 17 19 28t34 11h74q15 0 23.5 -12.5t2.5 -26.5l-401 -1145q-47 -136 -142 -211t-220 -78q-15 0 -28 13t-13 28v41q0 42 41 45q80 3 137 51.5t86 141.5zM404.5 1274q-6.5 12 1.5 22l112 181 q24 34 64 34h92q12 0 17.5 -10.5t-1.5 -21.5l-141 -185q-22 -32 -66 -32h-59q-13 0 -19.5 12z" />
<glyph unicode="&#xfe;" horiz-adv-x="1148" d="M154 -266v1761q0 17 12 29t29 12h63q17 0 29 -12t12 -29v-469q144 141 319 141q191 0 290.5 -105.5t99.5 -301.5v-373q0 -196 -99.5 -301.5t-290.5 -105.5q-88 0 -173 38.5t-146 100.5v-385q0 -17 -12 -29t-29 -12h-63q-17 0 -29 12t-12 29zM299 274q51 -67 136.5 -115 t172.5 -48q135 0 194.5 75.5t59.5 227.5v319q0 152 -59.5 227.5t-194.5 75.5q-87 0 -172.5 -48.5t-136.5 -115.5v-598z" />
<glyph unicode="&#xff;" horiz-adv-x="980" d="M25 1108q-6 13 2.5 26t23.5 13h76q19 0 34 -11t19 -28l312 -938l311 938q4 17 19 28t34 11h74q15 0 23.5 -12.5t2.5 -26.5l-401 -1145q-47 -136 -142 -211t-220 -78q-15 0 -28 13t-13 28v41q0 42 41 45q80 3 137 51.5t86 141.5zM172 1362q0 55 24.5 83t67.5 28 q46 0 72 -28t26 -83q0 -52 -26 -78.5t-72 -26.5q-43 0 -67.5 26.5t-24.5 78.5zM616 1362q0 55 25 83t68 28q46 0 72 -28t26 -83q0 -52 -26 -78.5t-72 -26.5q-43 0 -68 26.5t-25 78.5z" />
<glyph unicode="&#x152;" horiz-adv-x="1826" d="M133 418v598q0 204 135.5 325t349.5 121q106 0 196 -40t136 -113v84q0 17 12 29t29 12h707q17 0 29 -12t12 -29v-62q0 -17 -12 -29t-29 -12h-594v-526h483q17 0 29 -12t12 -29v-59q0 -17 -12 -29t-29 -12h-483v-482h610q17 0 29 -12t12 -29v-59q0 -17 -12 -29t-29 -12 h-723q-17 0 -29 12t-12 29v78q-64 -80 -144 -114t-188 -34q-214 0 -349.5 121.5t-135.5 325.5zM287 446q0 -160 90 -245.5t241 -85.5q145 0 238.5 87t93.5 240v549q0 153 -93.5 240.5t-238.5 87.5q-151 0 -241 -86t-90 -246v-541z" />
<glyph unicode="&#x153;" horiz-adv-x="1861" d="M141 397v353q0 194 116 305.5t316 111.5q120 0 212 -44t147 -124q56 81 148 124.5t212 43.5q200 0 316 -111.5t116 -305.5v-168q0 -17 -12 -29t-29 -12h-677v-144q0 -144 74 -215t212 -71q74 0 131.5 21.5t89 55.5t47 69.5t15.5 70.5q0 37 39 37h65q18 0 28.5 -10.5 t10.5 -28.5q0 -63 -29.5 -124t-82.5 -111t-135 -80.5t-179 -30.5q-245 0 -360 165q-54 -80 -146 -122.5t-213 -42.5q-200 0 -316 111.5t-116 305.5zM287 422q0 -153 73.5 -232t212.5 -79q137 0 212 71.5t75 214.5v336q0 152 -73.5 227.5t-213.5 75.5q-139 0 -212.5 -79 t-73.5 -232v-303zM1006 670h573v55q0 153 -74 232t-213 79q-140 0 -213 -75.5t-73 -227.5v-63z" />
<glyph unicode="&#x178;" horiz-adv-x="1095" d="M29 1397q-6 12 1.5 24.5t20.5 12.5h90q41 0 60 -37l348 -750l350 750q19 37 59 37h86q13 0 21 -12.5t2 -24.5l-440 -912v-444q0 -17 -12 -29t-29 -12h-72q-17 0 -29 12t-12 29v440zM229 1649q0 55 25 82.5t68 27.5q46 0 72 -27.5t26 -82.5q0 -52 -26 -78.5t-72 -26.5 q-43 0 -68 26.5t-25 78.5zM674 1649q0 55 24.5 82.5t67.5 27.5q46 0 72 -27.5t26 -82.5q0 -52 -26 -78.5t-72 -26.5q-43 0 -67.5 26.5t-24.5 78.5z" />
<glyph unicode="&#x2c6;" horiz-adv-x="681" d="M134 1274q-7 12 1 22l113 181q24 34 63 34h60q39 0 63 -34l113 -181q8 -10 1 -22t-20 -12h-59q-42 0 -61 36l-68 117l-66 -117q-19 -36 -61 -36h-59q-13 0 -20 12z" />
<glyph unicode="&#x2dc;" horiz-adv-x="841" d="M96 1329q9 66 59.5 111t125.5 45q58 0 154.5 -44t119.5 -44q40 0 61 35q15 23 28.5 30.5t41.5 7.5h23q15 0 26.5 -13t9.5 -27q-11 -68 -58 -112t-126 -44q-47 0 -143 44t-133 44q-41 0 -62 -35q-12 -23 -25.5 -31t-41.5 -8h-25q-13 0 -25 13.5t-10 27.5z" />
<glyph unicode="&#x2000;" horiz-adv-x="925" />
<glyph unicode="&#x2001;" horiz-adv-x="1851" />
<glyph unicode="&#x2002;" horiz-adv-x="925" />
<glyph unicode="&#x2003;" horiz-adv-x="1851" />
<glyph unicode="&#x2004;" horiz-adv-x="617" />
<glyph unicode="&#x2005;" horiz-adv-x="462" />
<glyph unicode="&#x2006;" horiz-adv-x="308" />
<glyph unicode="&#x2007;" horiz-adv-x="308" />
<glyph unicode="&#x2008;" horiz-adv-x="231" />
<glyph unicode="&#x2009;" horiz-adv-x="370" />
<glyph unicode="&#x200a;" horiz-adv-x="102" />
<glyph unicode="&#x2010;" horiz-adv-x="796" d="M113 592v57q0 17 12 29t29 12h489q17 0 29 -12t12 -29v-57q0 -17 -12 -29t-29 -12h-489q-17 0 -29 12t-12 29z" />
<glyph unicode="&#x2011;" horiz-adv-x="796" d="M113 592v57q0 17 12 29t29 12h489q17 0 29 -12t12 -29v-57q0 -17 -12 -29t-29 -12h-489q-17 0 -29 12t-12 29z" />
<glyph unicode="&#x2012;" horiz-adv-x="796" d="M113 592v57q0 17 12 29t29 12h489q17 0 29 -12t12 -29v-57q0 -17 -12 -29t-29 -12h-489q-17 0 -29 12t-12 29z" />
<glyph unicode="&#x2013;" horiz-adv-x="1021" d="M10 592v57q0 17 12 29t29 12h920q17 0 29 -12t12 -29v-57q0 -17 -12 -29t-29 -12h-920q-17 0 -29 12t-12 29z" />
<glyph unicode="&#x2014;" horiz-adv-x="1720" d="M10 592v57q0 17 12 29t29 12h1618q17 0 29 -12t12 -29v-57q0 -17 -12 -29t-29 -12h-1618q-17 0 -29 12t-12 29z" />
<glyph unicode="&#x2018;" horiz-adv-x="387" d="M92 1425q0 55 26 83t72 28q43 0 68 -28t25 -83q0 -65 -39 -90q2 -35 19.5 -68t45.5 -50q27 -16 27 -50v-14q0 -29 -33 -29q-64 0 -137.5 90t-73.5 211z" />
<glyph unicode="&#x2019;" horiz-adv-x="387" d="M51 1153v14q0 34 27 50q28 17 45.5 50t19.5 68q-39 25 -39 90q0 55 25 83t68 28q46 0 72 -28t26 -83q0 -121 -73.5 -211t-137.5 -90q-33 0 -33 29z" />
<glyph unicode="&#x201a;" horiz-adv-x="387" d="M51 -174q0 33 27 49q28 17 45.5 50t19.5 69q-39 25 -39 90q0 55 25 83t68 28q46 0 72 -28t26 -83q0 -121 -73.5 -211t-137.5 -90q-33 0 -33 29v14z" />
<glyph unicode="&#x201c;" horiz-adv-x="677" d="M92 1425q0 55 26 83t72 28q43 0 68 -28t25 -83q0 -65 -39 -90q2 -35 19.5 -68t45.5 -50q27 -16 27 -50v-14q0 -29 -33 -29q-64 0 -137.5 90t-73.5 211zM385 1425q0 55 26 83t72 28q41 0 65.5 -28t24.5 -83q0 -66 -38 -90q2 -35 19.5 -68t45.5 -50q27 -16 27 -50v-14 q0 -29 -33 -29q-63 0 -136 90t-73 211z" />
<glyph unicode="&#x201d;" horiz-adv-x="677" d="M51 1153v14q0 34 27 50q28 17 45.5 50t19.5 68q-39 25 -39 90q0 55 25 83t68 28q46 0 72 -28t26 -83q0 -121 -73.5 -211t-137.5 -90q-33 0 -33 29zM344 1153v14q0 34 27 50q28 17 45.5 50t19.5 68q-39 25 -39 90q0 55 24.5 83t67.5 28q45 0 71 -28t26 -83 q0 -121 -73 -211t-136 -90q-33 0 -33 29z" />
<glyph unicode="&#x201e;" horiz-adv-x="675" d="M51 -174q0 33 27 49q28 17 45.5 50t19.5 69q-39 25 -39 90q0 55 25 83t68 28q46 0 72 -28t26 -83q0 -121 -73.5 -211t-137.5 -90q-33 0 -33 29v14zM342 -174q0 33 27 49q28 17 45.5 50t19.5 69q-39 25 -39 90q0 55 24.5 83t67.5 28q45 0 71 -28t26 -83q0 -121 -73 -211 t-136 -90q-33 0 -33 29v14z" />
<glyph unicode="&#x2022;" horiz-adv-x="870" d="M133 657q0 166 78.5 250t216.5 84q144 0 226.5 -84t82.5 -250q0 -157 -82.5 -237t-226.5 -80q-138 0 -216.5 80t-78.5 237z" />
<glyph unicode="&#x2026;" horiz-adv-x="1042" d="M92 84q0 55 24.5 83t67.5 28q46 0 72.5 -28t26.5 -83q0 -52 -26.5 -78t-72.5 -26q-43 0 -67.5 26t-24.5 78zM426 84q0 55 24.5 83t67.5 28q46 0 72 -28t26 -83q0 -52 -26 -78t-72 -26q-43 0 -67.5 26t-24.5 78zM760 84q0 55 24.5 83t67.5 28q94 0 94 -111 q0 -104 -94 -104q-43 0 -67.5 26t-24.5 78z" />
<glyph unicode="&#x202f;" horiz-adv-x="370" />
<glyph unicode="&#x2039;" horiz-adv-x="595" d="M113 557v31q0 41 28 69l314 312q7 7 17.5 2.5t10.5 -15.5v-108q0 -43 -30 -70l-211 -207l211 -204q30 -27 30 -70v-109q0 -11 -10.5 -15t-17.5 3l-314 311q-28 28 -28 70z" />
<glyph unicode="&#x203a;" horiz-adv-x="595" d="M113 188v109q0 43 30 70l209 204l-209 207q-30 27 -30 70v108q0 11 10.5 15.5t17.5 -2.5l314 -312q28 -28 28 -69v-31q0 -42 -28 -70l-314 -311q-7 -7 -17.5 -3t-10.5 15z" />
<glyph unicode="&#x205f;" horiz-adv-x="462" />
<glyph unicode="&#x20ac;" horiz-adv-x="968" d="M6 541l21 41q16 39 57 39h70v198h-123q-14 0 -22.5 13t-2.5 26l21 41q16 39 57 39h70v78q0 201 141.5 323.5t361.5 122.5q80 0 158 -16q17 -3 29 -17.5t12 -31.5v-56q0 -17 -12 -27t-29 -7q-71 12 -158 12q-157 0 -253.5 -87.5t-96.5 -244.5v-49h465q14 0 22.5 -13 t2.5 -26l-21 -41q-16 -39 -57 -39h-412v-198h465q14 0 22.5 -13t2.5 -26l-21 -41q-16 -39 -57 -39h-412v-56q0 -157 96.5 -244t253.5 -87q87 0 158 12q17 3 29 -7.5t12 -27.5v-55q0 -17 -12 -31.5t-29 -17.5q-83 -17 -158 -17q-220 0 -361.5 123t-141.5 324v84h-123 q-14 0 -22.5 13t-2.5 26z" />
<glyph unicode="&#x2122;" horiz-adv-x="1798" d="M51 1374v25q0 17 12 29t29 12h584q17 0 29 -12t12 -29v-25q0 -17 -12 -29t-29 -12h-230v-794q0 -17 -11.5 -29t-28.5 -12h-41q-17 0 -29 12t-12 29v794h-232q-17 0 -29 12t-12 29zM772 539v860q0 17 12 29t29 12h55q43 0 62 -37l301 -531l297 531q19 37 61 37h56 q17 0 29 -12t12 -29v-860q0 -17 -12 -29t-29 -12h-41q-17 0 -29 12t-12 29l4 700l-258 -451q-19 -36 -62 -36h-37q-42 0 -61 36l-258 451l4 -700q0 -17 -12 -29t-29 -12h-41q-17 0 -29 12t-12 29z" />
<glyph unicode="&#xe000;" horiz-adv-x="1146" d="M0 0v1147h1147v-1147h-1147z" />
</font>
</defs>
</svg>
