<?xml version="1.0" standalone="no"?>
<!DOCTYPE svg PUBLIC "-//W3C//DTD SVG 1.1//EN" "http://www.w3.org/Graphics/SVG/1.1/DTD/svg11.dtd" >
<svg xmlns="http://www.w3.org/2000/svg">
<metadata></metadata>
<defs>
<font id="antartida_rounded_boldregular" horiz-adv-x="1148" >
<font-face units-per-em="2048" ascent="1536" descent="-512" />
<missing-glyph horiz-adv-x="569" />
<glyph unicode="&#xfb01;" horiz-adv-x="1122" d="M10 995v86q0 28 19 47t47 19h47v53q0 177 113.5 266.5t312.5 89.5q153 0 315 -36q25 -4 44.5 -29t19.5 -51v-76q0 -27 -18.5 -42.5t-45.5 -10.5q-167 32 -301 32q-166 0 -166 -161v-35h533q28 0 46.5 -19t18.5 -47v-1015q0 -28 -18.5 -47t-46.5 -19h-142q-28 0 -46.5 19 t-18.5 47v866h-328v-866q0 -28 -18.5 -47t-46.5 -19h-142q-28 0 -46.5 19t-18.5 47v866h-47q-28 0 -47 18.5t-19 44.5z" />
<glyph unicode="&#xfb02;" horiz-adv-x="1124" d="M10 934v74q0 28 19 46.5t47 18.5h47v72q0 199 113.5 305t318.5 106q184 0 389 -96q26 -12 43 -38t17 -54v-1302q0 -27 -19.5 -46.5t-46.5 -19.5h-141q-28 0 -47 19t-19 47v1243q-75 30 -156 30q-93 0 -136.5 -51.5t-43.5 -165.5v-49h170q27 0 45.5 -18.5t18.5 -46.5v-74 q0 -28 -19 -47t-45 -19h-170v-802q0 -28 -18.5 -47t-46.5 -19h-142q-28 0 -46.5 19t-18.5 47v802h-47q-28 0 -47 19t-19 47z" />
<glyph unicode="&#xfb03;" horiz-adv-x="1671" d="M10 1008v73q0 28 19 47t47 19h47q0 196 96.5 284.5t290.5 88.5q71 0 150 -24.5t135 -63.5q115 124 342 124q140 0 293 -34q25 -4 43 -28t18 -50v-68q0 -25 -19 -40t-42 -9q-161 33 -267 33q-96 0 -139 -47t-43 -166h504q26 0 44.5 -19t18.5 -47v-1015q0 -28 -18.5 -47 t-44.5 -19h-144q-27 0 -46 19t-19 47v876h-297v-876q0 -28 -19 -47t-47 -19h-141q-28 0 -46.5 19t-18.5 47v876h-312v-876q0 -28 -18.5 -47t-46.5 -19h-142q-28 0 -46.5 19t-18.5 47v876h-47q-28 0 -47 19t-19 47zM395 1147h312q0 63 16 119q-83 49 -164 49 q-90 0 -127 -35.5t-37 -132.5z" />
<glyph unicode="&#xfb04;" horiz-adv-x="1703" d="M10 934v74q0 28 19 46.5t47 18.5h47v57q0 390 409 390q141 0 273 -93q117 129 334 129q185 0 385 -96q26 -12 42.5 -38t16.5 -54v-1302q0 -28 -19.5 -47t-45.5 -19h-142q-28 0 -46.5 19t-18.5 47v1243q-75 30 -152 30q-93 0 -136.5 -53t-43.5 -168v-45h168q27 0 46 -19 t19 -46v-74q0 -28 -19 -47t-46 -19h-168v-802q0 -28 -19 -47t-47 -19h-141q-28 0 -46.5 19t-18.5 47v802h-312v-802q0 -28 -18.5 -47t-46.5 -19h-142q-28 0 -46.5 19t-18.5 47v802h-47q-28 0 -47 19t-19 47zM395 1073h312v66q0 80 16 112q-88 52 -164 52q-91 0 -127.5 -40.5 t-36.5 -152.5v-37z" />
<glyph horiz-adv-x="2048" />
<glyph horiz-adv-x="2048" />
<glyph unicode="&#xd;" horiz-adv-x="2048" />
<glyph unicode=" "  horiz-adv-x="569" />
<glyph unicode="&#x09;" horiz-adv-x="569" />
<glyph unicode="&#xa0;" horiz-adv-x="569" />
<glyph unicode="!" horiz-adv-x="544" d="M127 117q0 64 39 97.5t104 33.5q68 0 108 -33.5t40 -97.5q0 -68 -39.5 -102.5t-108.5 -34.5q-66 0 -104.5 34.5t-38.5 102.5zM135 1067v301q0 27 19.5 46.5t46.5 19.5h141q28 0 47 -19t19 -47v-301l-23 -616q0 -28 -20 -47t-48 -19h-92q-26 0 -46 19t-21 47z" />
<glyph unicode="&#x22;" horiz-adv-x="677" d="M63 1470q-3 26 15.5 46t44.5 20h117q26 0 43.5 -19.5t15.5 -46.5l-20 -278q-3 -28 -23 -47t-47 -19h-57q-26 0 -46.5 19t-23.5 47zM379 1470q-2 26 16.5 46t44.5 20h115q26 0 44.5 -20t16.5 -46l-20 -278q-3 -28 -23.5 -47t-46.5 -19h-57q-28 0 -48.5 19t-21.5 47z" />
<glyph unicode="#" horiz-adv-x="1411" d="M66 449v79q0 26 19.5 45t45.5 19h178l56 250h-136q-28 0 -46.5 18.5t-18.5 44.5v78q0 28 18.5 47t46.5 19h179l69 321q6 28 28.5 46t51.5 18h117q25 0 41 -19.5t12 -44.5l-72 -321h244l70 321q6 28 28 46t50 18h118q25 0 41.5 -20t10.5 -44l-70 -321h133q27 0 46.5 -19.5 t19.5 -46.5v-78q0 -26 -19.5 -44.5t-46.5 -18.5h-178l-55 -250h135q26 0 45.5 -19t19.5 -45v-79q0 -26 -19.5 -46t-45.5 -20h-181l-69 -320q-6 -27 -28.5 -45t-49.5 -18h-117q-25 0 -40.5 19t-10.5 44l70 320h-246l-68 -320q-6 -27 -28.5 -45t-51.5 -18h-114q-25 0 -41 19 t-12 44l71 320h-135q-26 0 -45.5 20t-19.5 46zM555 592h246l53 250h-242z" />
<glyph unicode="$" horiz-adv-x="1251" d="M96 418q0 27 17.5 45t44.5 18h139q26 0 42.5 -16.5t16.5 -42.5q0 -69 51 -129t136 -78v391q-72 14 -130 33t-113 50.5t-92.5 73t-60 101.5t-22.5 135v41q0 170 104.5 277t313.5 125v131q0 28 18.5 46.5t46.5 18.5h43q27 0 45.5 -19t18.5 -46v-135q103 -12 183 -52 t129 -98t74 -126.5t25 -143.5q0 -27 -16.5 -45.5t-42.5 -18.5h-137q-27 0 -43.5 16.5t-16.5 43.5q0 70 -40.5 126t-114.5 77v-390q72 -13 129.5 -29.5t118 -46.5t101 -69t66 -98.5t25.5 -134.5v-50q0 -176 -112.5 -284t-327.5 -125v-129q0 -28 -19 -47t-45 -19h-43 q-28 0 -46.5 19t-18.5 47v131q-140 15 -243 78t-153.5 153t-50.5 195zM387 1042q0 -79 38.5 -119.5t117.5 -60.5v363q-78 -15 -117 -63t-39 -120zM715 207q86 12 132 63t46 136q0 73 -45 111.5t-133 57.5v-368z" />
<glyph unicode="%" horiz-adv-x="1980" d="M94 907v232q0 147 97.5 233t259.5 86q161 0 257.5 -86t96.5 -233v-232q0 -147 -96.5 -234t-257.5 -87q-162 0 -259.5 87t-97.5 234zM346 922q0 -68 28.5 -104t76.5 -36q47 0 74.5 36t27.5 104v200q0 68 -27.5 104t-74.5 36q-48 0 -76.5 -36t-28.5 -104v-200zM390.5 18 q-9.5 18 2.5 35l905 1327q15 23 43.5 38.5t57.5 15.5h157q22 0 31.5 -18.5t-2.5 -35.5l-907 -1327q-17 -24 -45.5 -38.5t-57.5 -14.5h-153q-22 0 -31.5 18zM1176 297v233q0 148 97 234t259 86q160 0 257 -86t97 -234v-233q0 -147 -97 -233.5t-257 -86.5q-162 0 -259 86.5 t-97 233.5zM1425 313q0 -67 29 -103t78 -36q47 0 74.5 36t27.5 103v199q0 69 -27.5 105t-74.5 36q-49 0 -78 -36t-29 -105v-199z" />
<glyph unicode="&#x26;" horiz-adv-x="1361" d="M86 344v25q0 192 268 391q-174 186 -174 342t108 258t302 102q110 0 190.5 -25t128 -71.5t70 -106t22.5 -135.5q0 -50 -15 -96t-38.5 -81.5t-63.5 -73.5t-76 -66t-91 -66l227 -270q46 74 57 176q10 66 74 66h115q25 0 43.5 -20.5t15.5 -45.5q-8 -96 -45.5 -194.5 t-97.5 -176.5l194 -227q13 -13 5 -31t-27 -18h-191q-63 0 -106 49l-47 49q-143 -127 -371 -127q-225 0 -351 95t-126 278zM365 348q0 -83 58.5 -121.5t160.5 -38.5q120 0 209 82l-281 326q-147 -121 -147 -240v-8zM451 1108q0 -53 30 -100t84 -103q40 28 64 47.5t51 46.5 t40 55.5t13 59.5q0 65 -33 100t-110 35q-67 0 -103 -36.5t-36 -104.5z" />
<glyph unicode="'" horiz-adv-x="362" d="M63 1470q-3 26 15.5 46t44.5 20h117q26 0 43.5 -19.5t15.5 -46.5l-20 -278q-3 -28 -23 -47t-47 -19h-57q-26 0 -46.5 19t-23.5 47z" />
<glyph unicode="(" horiz-adv-x="665" d="M119 272v766q0 115 44 214.5t111 162t144 98t147 35.5q25 0 40.5 -15t15.5 -38v-80q0 -36 -14.5 -56.5t-49.5 -35.5q-81 -32 -125.5 -114.5t-44.5 -194.5v-717q0 -112 44.5 -194.5t125.5 -114.5q35 -15 49.5 -35.5t14.5 -56.5v-80q0 -23 -15.5 -38.5t-40.5 -15.5 q-70 0 -147 35.5t-144 98t-111 162t-44 214.5z" />
<glyph unicode=")" horiz-adv-x="665" d="M45 -104q0 36 14.5 56.5t49.5 35.5q81 32 125.5 114.5t44.5 194.5v717q0 112 -44.5 194.5t-125.5 114.5q-35 15 -49.5 35.5t-14.5 56.5v80q0 23 15 38t40 15q70 0 146.5 -35.5t144 -98t111 -162t43.5 -214.5v-766q0 -115 -43.5 -214.5t-111 -162t-144 -98t-146.5 -35.5 q-24 0 -39.5 15t-15.5 39v80z" />
<glyph unicode="*" horiz-adv-x="944" d="M88 1176l23 67q9 25 33 37t49 4l190 -72l-8 203q0 28 18.5 47t44.5 19h72q26 0 44.5 -19t18.5 -47l-8 -198l185 67q26 9 49.5 -2.5t31.5 -36.5l25 -69q7 -25 -5.5 -48.5t-37.5 -31.5l-199 -56l129 -159q16 -20 12.5 -46.5t-26.5 -41.5l-57 -43q-22 -15 -48.5 -10 t-39.5 28l-111 170l-113 -170q-13 -23 -39.5 -28t-48.5 10l-59 45q-22 15 -25.5 41.5t13.5 46.5l131 159l-201 56q-26 6 -39 29.5t-4 48.5z" />
<glyph unicode="+" horiz-adv-x="1187" d="M92 571v99q0 28 19 46.5t45 18.5h313v348q0 28 18.5 47t44.5 19h121q28 0 47 -19t19 -47v-348h311q28 0 47 -18.5t19 -46.5v-99q0 -28 -19 -46.5t-47 -18.5h-311v-348q0 -28 -19 -47t-47 -19h-121q-26 0 -44.5 19t-18.5 47v348h-313q-26 0 -45 19t-19 46z" />
<glyph unicode="," horiz-adv-x="456" d="M33 -172q0 20 8 33.5t31 32.5q54 45 57 114q-57 31 -57 115q0 70 41 107.5t112 37.5q74 0 117 -37.5t43 -107.5q0 -84 -46.5 -167.5t-117.5 -135t-139 -51.5q-49 0 -49 38v21z" />
<glyph unicode="-" horiz-adv-x="831" d="M92 569v95q0 28 19 46.5t45 18.5h520q26 0 44.5 -18.5t18.5 -46.5v-95q0 -28 -18.5 -46.5t-44.5 -18.5h-520q-26 0 -45 19t-19 46z" />
<glyph unicode="." horiz-adv-x="454" d="M72 119q0 75 40.5 112t112.5 37q75 0 116.5 -36.5t41.5 -112.5q0 -72 -42 -109t-116 -37q-71 0 -112 37t-41 109z" />
<glyph unicode="/" horiz-adv-x="1048" d="M35 -166l706 1643q10 26 35.5 42.5t54.5 16.5h144q23 0 35 -18.5t2 -40.5l-705 -1643q-12 -26 -37.5 -42.5t-54.5 -16.5h-139q-23 0 -36 18.5t-5 40.5z" />
<glyph unicode="0" horiz-adv-x="1200" d="M106 428v578q0 210 135.5 333t358.5 123q224 0 360 -123t136 -333v-578q0 -210 -136.5 -333.5t-359.5 -123.5t-358.5 123.5t-135.5 333.5zM385 455q0 -124 57.5 -189t157.5 -65t157.5 65t57.5 189v524q0 124 -57.5 189t-157.5 65t-157.5 -65t-57.5 -189v-524z" />
<glyph unicode="1" horiz-adv-x="624" d="M35 1272v96q0 28 18.5 47t44.5 19h344q28 0 47 -19t19 -47v-1302q0 -28 -19 -47t-47 -19h-147q-28 0 -47 19t-19 47v1140h-131q-26 0 -44.5 19.5t-18.5 46.5z" />
<glyph unicode="2" horiz-adv-x="1189" d="M96 66v26q0 67 43 113l535 606q127 142 127 242q0 79 -51 129.5t-148 50.5q-104 0 -157.5 -68.5t-53.5 -158.5q0 -29 -15.5 -46.5t-43.5 -17.5h-156q-27 0 -45 18.5t-18 45.5q0 90 30.5 171t89.5 145t154 102t215 38q235 0 359 -111.5t124 -295.5q0 -62 -17.5 -120 t-53.5 -114t-69 -96.5t-85 -97.5l-364 -400h544q28 0 47 -19.5t19 -45.5v-96q0 -28 -19 -47t-47 -19h-880q-26 0 -45 19t-19 47z" />
<glyph unicode="3" horiz-adv-x="1187" d="M96 422q0 26 17 43.5t43 17.5h161q60 0 60 -57q0 -95 50.5 -160t156.5 -65q207 0 207 196v33q0 101 -40 159t-110 58h-182q-26 0 -45 19t-19 47v86q0 26 19 44.5t45 18.5h180q42 0 75.5 34t48.5 77t15 82q0 85 -48 134.5t-140 49.5q-93 0 -144 -55.5t-51 -134.5 q0 -58 -59 -58h-156q-27 0 -44 17.5t-17 44.5q0 79 29.5 151t86 130t148.5 93t207 35q226 0 347.5 -113t121.5 -290q0 -76 -38.5 -158.5t-100.5 -134.5q71 -49 116 -137.5t45 -175.5v-60q0 -192 -131 -307t-368 -115q-120 0 -214 35.5t-152.5 97.5t-89 143t-30.5 175z" />
<glyph unicode="4" horiz-adv-x="1208" d="M55 328v20q0 67 27 123l438 905q32 58 94 58h172q23 0 34.5 -18.5t2.5 -39.5l-434 -887h365v433q0 26 18.5 44.5t44.5 18.5h150q28 0 46.5 -18.5t18.5 -44.5v-433h70q28 0 46.5 -18.5t18.5 -46.5v-96q0 -28 -18.5 -47t-46.5 -19h-70v-196q0 -28 -18.5 -47t-46.5 -19h-150 q-26 0 -44.5 19t-18.5 47v196h-635q-26 0 -45 19t-19 47z" />
<glyph unicode="5" horiz-adv-x="1153" d="M80 408q0 28 16.5 45.5t44.5 17.5h162q59 0 59 -59q0 -35 10.5 -69.5t32.5 -67t64 -52.5t98 -20q100 0 153.5 50t53.5 142v135q0 119 -51.5 169.5t-153.5 50.5q-94 0 -188 -48q-65 -32 -139 -32h-72q-25 0 -41.5 19.5t-13.5 45.5l90 633q5 28 26 47t48 19h663 q28 0 47 -19t19 -47v-94q0 -28 -19 -47t-47 -19h-479l-45 -284q34 23 89 36t109 13q205 0 327 -104.5t122 -315.5v-162q0 -191 -130.5 -304.5t-367.5 -113.5q-120 0 -215.5 36t-153.5 97.5t-88 138.5t-30 163z" />
<glyph unicode="6" horiz-adv-x="1220" d="M106 391v615q0 209 135.5 332.5t360.5 123.5q224 0 358 -112t134 -289q0 -28 -18 -47t-46 -19h-153q-27 0 -43.5 18t-16.5 46q0 77 -58 125.5t-157 48.5q-102 0 -159.5 -66t-57.5 -188v-172q49 32 127.5 52t153.5 20q73 0 137.5 -14t122 -45t99 -78t65.5 -116.5 t24 -156.5v-61q0 -140 -65 -240t-177 -148.5t-260 -48.5q-151 0 -262.5 44t-177.5 140t-66 236zM385 422q0 -225 227 -225q103 0 162.5 58t59.5 179q0 117 -48.5 167t-154.5 50q-147 0 -246 -71v-158z" />
<glyph unicode="7" horiz-adv-x="966" d="M18 1272v96q0 28 19 47t45 19h811q26 0 44.5 -19t18.5 -47v-18q0 -67 -24 -127l-490 -1164q-11 -26 -35 -42.5t-53 -16.5h-170q-22 0 -35 19t-4 40l496 1147h-559q-26 0 -45 20t-19 46z" />
<glyph unicode="8" horiz-adv-x="1222" d="M92 393v76q0 87 46.5 172t117.5 131q-61 55 -98 138t-37 159q0 182 129.5 287.5t361.5 105.5q231 0 360.5 -105.5t129.5 -287.5q0 -78 -35.5 -159t-99.5 -136q75 -51 119 -134t44 -171v-76q0 -192 -135 -307t-383 -115q-249 0 -384.5 115t-135.5 307zM383 397 q0 -95 57 -146.5t172 -51.5q113 0 170.5 52t57.5 146v56q0 91 -45 146.5t-111 55.5h-145q-66 0 -111 -55.5t-45 -146.5v-56zM397 1059q0 -83 40.5 -138t101.5 -55h139q62 0 105.5 55.5t43.5 137.5q0 84 -58 133t-157 49q-101 0 -158 -48.5t-57 -133.5z" />
<glyph unicode="9" horiz-adv-x="1214" d="M106 975v55q0 209 135 320.5t363 111.5q230 0 367 -105.5t137 -312.5v-616q0 -209 -135.5 -333t-360.5 -124t-358 113.5t-133 296.5q0 28 17.5 45.5t43.5 17.5h154q28 0 43.5 -16.5t15.5 -44.5q0 -80 58.5 -131t158.5 -51q102 0 159.5 66t57.5 188v170q-107 -58 -274 -58 q-92 0 -170.5 22.5t-142 69.5t-100 127.5t-36.5 188.5zM385 1006q0 -114 48.5 -162.5t154.5 -48.5q145 0 241 55v164q0 223 -225 223q-219 0 -219 -231z" />
<glyph unicode=":" horiz-adv-x="477" d="M82 125q0 74 41 111.5t113 37.5q74 0 116.5 -37.5t42.5 -111.5q0 -72 -42.5 -108.5t-116.5 -36.5q-71 0 -112.5 37t-41.5 108zM82 1016q0 76 41 113.5t113 37.5q75 0 117 -37.5t42 -113.5q0 -72 -42.5 -108t-116.5 -36q-71 0 -112.5 36.5t-41.5 107.5z" />
<glyph unicode=";" horiz-adv-x="481" d="M47 -172q0 20 8 33.5t31 32.5q55 48 55 114q-57 33 -57 115q0 70 41.5 107.5t112.5 37.5q74 0 116.5 -37.5t42.5 -107.5q0 -84 -46.5 -167.5t-117.5 -135t-139 -51.5q-47 0 -47 38v21zM86 1016q0 75 42 113t114 38q73 0 115 -37.5t42 -113.5q0 -71 -42 -107.5t-115 -36.5 q-72 0 -114 36.5t-42 107.5z" />
<glyph unicode="&#x3c;" horiz-adv-x="786" d="M92 551v43q0 68 51 104l500 410q17 11 34 2t17 -29v-163q0 -66 -51 -105l-297 -242l297 -239q51 -36 51 -103v-163q0 -20 -17 -29t-34 2l-500 407q-51 36 -51 105z" />
<glyph unicode="=" horiz-adv-x="1183" d="M92 326v94q0 28 19 46.5t45 18.5h872q27 0 46.5 -19t19.5 -46v-94q0 -27 -19.5 -46.5t-46.5 -19.5h-872q-26 0 -45 19t-19 47zM92 766v94q0 28 19 47t45 19h872q27 0 46.5 -19.5t19.5 -46.5v-94q0 -27 -19.5 -46.5t-46.5 -19.5h-872q-26 0 -45 19t-19 47z" />
<glyph unicode="&#x3e;" horiz-adv-x="786" d="M92 66v163q0 67 51 103l297 239l-297 242q-51 39 -51 105v163q0 20 17 29t34 -2l500 -410q51 -36 51 -104v-43q0 -69 -51 -105l-500 -407q-17 -11 -34 -2t-17 29z" />
<glyph unicode="?" horiz-adv-x="1073" d="M74 1069q0 79 28.5 149t83.5 125t143 87t199 32q217 0 336 -99.5t119 -256.5v-29q0 -65 -14.5 -119t-46.5 -102t-61.5 -81.5t-80.5 -82.5q-81 -76 -115 -135t-34 -135v-27q0 -13 -9.5 -23t-23.5 -10h-203q-15 0 -27 12t-12 27v37q0 52 5 93.5t20 77.5t27 60t41.5 56.5 t47 49t58.5 54.5q70 61 105.5 122t35.5 145q0 143 -168 143q-91 0 -134.5 -49t-43.5 -121q0 -29 -16.5 -46t-44.5 -17h-154q-26 0 -43.5 18.5t-17.5 44.5zM340 109q0 68 43.5 103.5t112.5 35.5q68 0 110.5 -35.5t42.5 -103.5q0 -65 -43 -100.5t-110 -35.5q-69 0 -112.5 35.5 t-43.5 100.5z" />
<glyph unicode="@" horiz-adv-x="1540" d="M96 420l82 588q14 101 78.5 185.5t160 139.5t213 85t240.5 30q164 0 300.5 -54t214 -158t59.5 -235l-62 -440q-18 -121 -88 -189.5t-190 -68.5q-135 0 -184 100q-44 -42 -108.5 -71t-119.5 -29q-141 0 -205 75t-45 216l31 237q19 137 99.5 212t205.5 75q52 0 101.5 -19 t81.5 -48l2 14q5 18 19 29.5t32 11.5h59q25 0 42 -20.5t13 -45.5l-67 -493q-7 -57 5.5 -81t49.5 -24q78 0 96 119l62 432q10 76 -21.5 137t-92.5 98.5t-139 57t-165 19.5q-118 0 -226.5 -34t-189 -109t-94.5 -177l-78 -557q-11 -75 20 -136t92 -98.5t138.5 -57t163.5 -19.5 q165 0 299 45q22 6 39 -8.5t14 -38.5l-4 -25q-3 -28 -20.5 -50.5t-46.5 -31.5q-122 -35 -293 -35q-164 0 -301 54t-214.5 158t-58.5 235zM610 602q-22 -164 101 -164q48 0 97.5 25.5t78.5 62.5l55 381q-24 32 -66 55t-81 23q-132 0 -154 -174z" />
<glyph unicode="A" horiz-adv-x="1280" d="M16 61l465 1311q9 26 33.5 44t52.5 18h142q28 0 52.5 -18t35.5 -44l467 -1311q4 -9 4 -18q0 -13 -8 -24q-14 -19 -39 -19h-170q-29 0 -53 17t-33 44l-93 285h-473l-90 -283q-7 -28 -30.5 -45.5t-51.5 -17.5h-168q-25 0 -39 19q-8 11 -8 24q0 9 4 18zM467 567h336 l-170 533z" />
<glyph unicode="B" horiz-adv-x="1239" d="M115 66v1302q0 28 18.5 47t46.5 19h473q232 0 353.5 -98t121.5 -289v-62q0 -71 -38 -146t-105 -114q73 -32 123.5 -111t50.5 -174v-71q0 -167 -114.5 -268t-337.5 -101h-527q-28 0 -46.5 19t-18.5 47zM399 229h303q87 0 129.5 44t42.5 118v39q0 78 -39.5 124t-111.5 46 h-324v-371zM399 813h306q64 0 100.5 46.5t36.5 141.5v15q0 102 -44.5 144t-140.5 42h-258v-389z" />
<glyph unicode="C" horiz-adv-x="1245" d="M106 438v559q0 211 145.5 338t375.5 127q227 0 372.5 -115.5t145.5 -293.5v-52q0 -27 -18.5 -45t-45.5 -18h-159q-28 0 -44 16.5t-16 44.5v31q0 89 -65 144t-170 55q-107 0 -171.5 -67.5t-64.5 -190.5v-508q0 -123 64.5 -190.5t171.5 -67.5q105 0 170 55.5t65 147.5v43 q0 28 16 44.5t44 16.5h159q27 0 45.5 -18t18.5 -45v-66q0 -179 -145.5 -295.5t-372.5 -116.5q-230 0 -375.5 128t-145.5 339z" />
<glyph unicode="D" horiz-adv-x="1265" d="M115 66v1302q0 28 18.5 47t46.5 19h486q228 0 360.5 -125.5t132.5 -339.5v-504q0 -214 -132.5 -339.5t-360.5 -125.5h-486q-28 0 -46.5 19t-18.5 47zM399 231h267q101 0 154.5 66t53.5 192v455q0 126 -53 191t-155 65h-267v-969z" />
<glyph unicode="E" horiz-adv-x="1085" d="M115 66v1302q0 28 18.5 47t46.5 19h762q26 0 45 -19t19 -47v-104q0 -26 -19 -45t-45 -19h-543v-387h441q26 0 44.5 -18.5t18.5 -46.5v-101q0 -26 -18.5 -45.5t-44.5 -19.5h-441v-351h557q28 0 47 -18.5t19 -44.5v-102q0 -28 -19 -47t-47 -19h-776q-28 0 -46.5 19 t-18.5 47z" />
<glyph unicode="F" horiz-adv-x="1060" d="M115 66v1302q0 28 18.5 47t46.5 19h764q28 0 47 -19t19 -47v-104q0 -26 -19 -45t-47 -19h-545v-407h443q26 0 45.5 -19t19.5 -45v-102q0 -27 -19.5 -46.5t-45.5 -19.5h-443v-495q0 -28 -18.5 -47t-44.5 -19h-156q-28 0 -46.5 19t-18.5 47z" />
<glyph unicode="G" horiz-adv-x="1269" d="M106 438v559q0 211 147.5 338t379.5 127q233 0 381.5 -111.5t148.5 -293.5v-39q0 -27 -18 -45.5t-45 -18.5h-160q-26 0 -42.5 17t-16.5 45v22q0 87 -67.5 139t-180.5 52q-109 0 -175.5 -67.5t-66.5 -190.5v-508q0 -125 64.5 -191.5t183.5 -66.5q150 0 238 106v203h-215 q-28 0 -47 19t-19 47v98q0 28 19 46.5t47 18.5h436q28 0 46.5 -18.5t18.5 -46.5v-621q0 -26 -18.5 -44.5t-46.5 -18.5h-119q-29 0 -51.5 17.5t-28.5 45.5l-4 25q-50 -52 -130.5 -81.5t-166.5 -29.5q-211 0 -351.5 128.5t-140.5 338.5z" />
<glyph unicode="H" horiz-adv-x="1273" d="M115 66v1302q0 28 18.5 47t46.5 19h156q26 0 44.5 -19t18.5 -47v-557h475v557q0 28 19 47t47 19h156q26 0 44.5 -19t18.5 -47v-1302q0 -28 -18.5 -47t-44.5 -19h-156q-28 0 -47 19t-19 47v512h-475v-512q0 -28 -18.5 -47t-44.5 -19h-156q-28 0 -46.5 19t-18.5 47z" />
<glyph unicode="I" horiz-adv-x="514" d="M115 66v1302q0 28 18.5 47t46.5 19h156q26 0 44.5 -19t18.5 -47v-1302q0 -28 -18.5 -47t-44.5 -19h-156q-28 0 -46.5 19t-18.5 47z" />
<glyph unicode="J" horiz-adv-x="616" d="M4 37v90q0 40 13 59t51 37q151 42 151 248v897q0 28 19 47t47 19h155q27 0 46.5 -19.5t19.5 -46.5v-928q0 -201 -118 -328.5t-316 -127.5q-30 0 -49 14.5t-19 38.5z" />
<glyph unicode="K" horiz-adv-x="1204" d="M115 66v1302q0 28 18.5 47t46.5 19h152q26 0 45.5 -19t19.5 -47v-543h47l400 555q38 54 104 54h189q21 0 29.5 -18.5t-3.5 -33.5l-536 -686l553 -647q6 -9 6 -18q0 -7 -3 -14q-8 -17 -28 -17h-211q-67 0 -106 51l-394 494h-47v-479q0 -28 -19.5 -47t-45.5 -19h-152 q-28 0 -46.5 19t-18.5 47z" />
<glyph unicode="L" horiz-adv-x="1024" d="M115 66v1302q0 28 18.5 47t46.5 19h156q26 0 44.5 -19t18.5 -47v-1137h537q28 0 46.5 -18.5t18.5 -44.5v-102q0 -28 -18.5 -47t-46.5 -19h-756q-28 0 -46.5 19t-18.5 47z" />
<glyph unicode="M" horiz-adv-x="1654" d="M115 66v1302q0 28 18.5 47t46.5 19h170q29 0 55 -16t41 -42l383 -708l381 708q12 26 38.5 42t56.5 16h170q27 0 46 -19t19 -47v-1302q0 -28 -19 -47t-46 -19h-150q-28 0 -46.5 19t-18.5 47l8 909l-291 -551q-12 -26 -38.5 -42.5t-55.5 -16.5h-115q-29 0 -54.5 16.5 t-37.5 42.5l-291 551l10 -909q0 -28 -19.5 -47t-45.5 -19h-150q-28 0 -46.5 19t-18.5 47z" />
<glyph unicode="N" horiz-adv-x="1310" d="M115 66v1302q0 28 18.5 47t46.5 19h168q29 0 56 -16t42 -42l476 -860l-7 852q-1 28 17.5 47t46.5 19h151q27 0 46.5 -19.5t19.5 -46.5v-1302q0 -27 -19.5 -46.5t-46.5 -19.5h-174q-63 0 -96 57l-473 856l8 -847q0 -28 -18.5 -47t-44.5 -19h-152q-28 0 -46.5 19t-18.5 47z " />
<glyph unicode="O" horiz-adv-x="1296" d="M106 438v559q0 141 73.5 248t196 162t273.5 55q150 0 272.5 -55t195.5 -162t73 -248v-559q0 -141 -73 -248.5t-195.5 -163t-272.5 -55.5q-151 0 -274 55.5t-196 163t-73 248.5zM393 463q0 -122 72 -190t184 -68q111 0 183.5 68t72.5 190v508q0 123 -72.5 190.5 t-183.5 67.5q-112 0 -184 -67.5t-72 -190.5v-508z" />
<glyph unicode="P" horiz-adv-x="1243" d="M115 66v1302q0 28 18.5 47t46.5 19h486q228 0 360.5 -125.5t132.5 -339.5v-92q0 -214 -132.5 -339.5t-360.5 -125.5h-267v-346q0 -28 -18.5 -47t-44.5 -19h-156q-28 0 -46.5 19t-18.5 47zM399 643h267q101 0 154.5 66t53.5 192v43q0 126 -53 191t-155 65h-267v-557z" />
<glyph unicode="Q" horiz-adv-x="1296" d="M106 438v559q0 210 155 337.5t388 127.5q151 0 273.5 -55.5t195 -162.5t72.5 -247v-559q0 -125 -58.5 -223.5t-160.5 -159.5l135 -217q11 -19 1 -37t-32 -18h-121q-29 0 -56 15t-40 40l-88 146q-85 -13 -121 -13q-152 0 -275 56t-195.5 163.5t-72.5 247.5zM393 459 q0 -120 67 -185t181 -73l-96 149q-10 20 0.5 39t32.5 19h116q29 0 55.5 -16t41.5 -42l40 -63q74 61 74 172v516q0 122 -72.5 190t-183.5 68q-113 0 -184.5 -68t-71.5 -190v-516z" />
<glyph unicode="R" horiz-adv-x="1263" d="M115 66v1302q0 28 18.5 47t46.5 19h486q231 0 362 -117t131 -330v-76q0 -149 -69.5 -253.5t-200.5 -145.5l285 -457q4 -9 4 -17q0 -10 -6 -20q-10 -18 -31 -18h-199q-30 0 -56.5 15.5t-39.5 41.5l-242 410h-205v-401q0 -28 -18.5 -47t-44.5 -19h-156q-28 0 -46.5 19 t-18.5 47zM399 694h267q208 0 208 242v27q0 122 -52.5 179.5t-155.5 57.5h-267v-506z" />
<glyph unicode="S" horiz-adv-x="1257" d="M92 418q0 26 18 44.5t44 18.5h161q26 0 43 -16.5t17 -42.5q0 -76 74 -145.5t192 -69.5t181 55.5t63 149.5q0 87 -67.5 127.5t-190.5 52.5q-506 53 -506 412v43q0 187 126 300t376 113q127 0 228 -37t162 -99.5t92.5 -140.5t31.5 -165q0 -27 -17.5 -45.5t-44.5 -18.5h-160 q-26 0 -42.5 17t-16.5 43q0 81 -58.5 147t-174.5 66q-108 0 -165 -52.5t-57 -138.5q0 -44 14.5 -77.5t37.5 -53.5t60 -34t72 -20t83 -11q497 -52 497 -396v-49q0 -195 -134.5 -308.5t-389.5 -113.5q-127 0 -232 35t-173.5 96t-106 141.5t-37.5 172.5z" />
<glyph unicode="T" horiz-adv-x="1071" d="M16 1266v102q0 28 19 47t45 19h911q26 0 45 -19t19 -47v-102q0 -26 -19 -45t-45 -19h-313v-1136q0 -28 -19 -47t-47 -19h-155q-26 0 -45 19t-19 47v1136h-313q-26 0 -45 19t-19 45z" />
<glyph unicode="U" horiz-adv-x="1261" d="M111 436v932q0 28 18.5 47t46.5 19h156q26 0 44.5 -19t18.5 -47v-905q0 -124 63.5 -191t172.5 -67t172 67t63 191v905q0 28 19 47t47 19h155q26 0 45 -19t19 -47v-932q0 -213 -142.5 -339t-377.5 -126t-377.5 126t-142.5 339z" />
<glyph unicode="V" horiz-adv-x="1243" d="M14 1372q-3 8 -3 16q0 14 9 26q14 20 39 20h170q29 0 52.5 -18t31.5 -46l318 -1036l305 1036q8 28 30.5 46t51.5 18h166q22 0 36 -20q9 -13 9 -27q0 -7 -2 -15l-447 -1311q-9 -26 -33.5 -43.5t-52.5 -17.5h-139q-29 0 -53 17t-33 44z" />
<glyph unicode="W" horiz-adv-x="1902" d="M12 1372q-2 7 -2 15q0 15 10 27q14 20 39 20h174q29 0 51.5 -18t30.5 -46l244 -958l232 958q6 28 28.5 46t50.5 18h170q28 0 51 -18t29 -46l232 -960l245 960q7 28 30.5 46t51.5 18h164q25 0 39 -20q10 -13 10 -27q0 -7 -2 -15l-389 -1311q-9 -26 -32.5 -43.5 t-51.5 -17.5h-170q-29 0 -51.5 17.5t-30.5 45.5l-223 916l-221 -916q-7 -28 -30.5 -45.5t-51.5 -17.5h-156q-28 0 -51.5 17.5t-32.5 43.5z" />
<glyph unicode="X" horiz-adv-x="1214" d="M26 18q-5 9 -5 19t6 20l348 619l-344 700q-9 21 2.5 39.5t34.5 18.5h178q29 0 54.5 -17t37.5 -43l248 -545h26l269 547q14 25 39.5 41.5t54.5 16.5h176q21 0 33 -19q6 -10 7 -21q0 -9 -5 -18l-371 -698l371 -623q6 -10 6 -20q0 -9 -4 -17q-10 -18 -33 -18h-188 q-31 0 -57.5 15.5t-39.5 41.5l-262 480h-24l-248 -480q-14 -26 -39.5 -41.5t-56.5 -15.5h-181q-22 0 -33 18z" />
<glyph unicode="Y" horiz-adv-x="1185" d="M23 1376q-4 9 -4 18q0 11 6 22q11 18 34 18h177q29 0 53 -16.5t35 -43.5l274 -631l272 631q12 27 37 43.5t54 16.5h165q23 0 34 -18q7 -11 7 -22q0 -9 -4 -18l-426 -880v-430q0 -28 -18.5 -47t-46.5 -19h-156q-26 0 -44.5 19t-18.5 47v426z" />
<glyph unicode="Z" d="M55 66v59q0 63 35 121l621 956h-568q-26 0 -45.5 19t-19.5 45v102q0 28 19 47t46 19h854q28 0 47 -19t19 -47v-59q0 -63 -35 -121l-618 -957h618q28 0 47 -18.5t19 -44.5v-102q0 -28 -19 -47t-47 -19h-907q-28 0 -47 19t-19 47z" />
<glyph unicode="[" horiz-adv-x="589" d="M121 -160v1630q0 28 19.5 47t45.5 19h299q28 0 47 -19t19 -47v-86q0 -26 -19 -44.5t-47 -18.5h-116v-1331h116q28 0 47 -19t19 -45v-86q0 -28 -19 -46.5t-47 -18.5h-299q-27 0 -46 19t-19 46z" />
<glyph unicode="\" horiz-adv-x="1052" d="M37 1477q-9 22 3.5 40.5t35.5 18.5h141q29 0 54.5 -16.5t37.5 -42.5l707 -1643q9 -22 -3.5 -40.5t-35.5 -18.5h-141q-29 0 -54 16.5t-37 42.5z" />
<glyph unicode="]" horiz-adv-x="589" d="M39 -74q0 26 19.5 45t45.5 19h117v1331h-117q-26 0 -45.5 18.5t-19.5 44.5v86q0 28 19.5 47t45.5 19h299q28 0 47 -19t19 -47v-1630q0 -28 -19 -46.5t-47 -18.5h-299q-27 0 -46 19t-19 46v86z" />
<glyph unicode="^" horiz-adv-x="897" d="M82 1049l221 405q33 57 96 57h97q30 0 56.5 -15.5t39.5 -41.5l221 -405q11 -19 0 -38.5t-33 -19.5h-125q-29 0 -54 17t-36 43l-119 268l-120 -268q-11 -26 -36 -43t-54 -17h-119q-22 0 -33.5 19.5t-1.5 38.5z" />
<glyph unicode="_" horiz-adv-x="1038" d="M10 -154q0 28 19 47t47 19h889q26 0 44.5 -19t18.5 -47v-45q0 -28 -18.5 -46.5t-44.5 -18.5h-889q-28 0 -47 18.5t-19 46.5v45z" />
<glyph unicode="`" horiz-adv-x="651" d="M125.5 1511q7.5 17 26.5 17h163q30 0 58 -14.5t45 -38.5l108 -160q12 -17 3 -35t-29 -18h-105q-64 0 -108 47l-156 172q-13 13 -5.5 30z" />
<glyph unicode="a" horiz-adv-x="1126" d="M88 301q0 158 100.5 240t286.5 82q136 0 262 -33v164q0 103 -42 149.5t-132 46.5q-86 0 -130 -46.5t-44 -110.5q0 -27 -16.5 -41.5t-44.5 -14.5h-148q-27 0 -45 17.5t-18 44.5q0 53 17 105t53.5 99.5t88 84t126 58t161.5 21.5q216 0 331.5 -104t115.5 -295v-702 q0 -28 -19 -47t-47 -19h-110q-28 0 -51 18.5t-27 44.5l-6 41q-52 -55 -143 -89.5t-191 -34.5q-154 0 -241 87t-87 234zM362 313q0 -61 40.5 -95t105.5 -34q137 0 229 103v131q-109 33 -217 33q-78 0 -118 -36.5t-40 -101.5z" />
<glyph unicode="b" horiz-adv-x="1155" d="M121 66v1404q0 28 19.5 47t45.5 19h142q28 0 46.5 -19t18.5 -47v-415q49 49 123 80.5t150 31.5q198 0 286 -102.5t88 -310.5v-361q0 -208 -88 -310.5t-286 -102.5q-82 0 -160 36.5t-131 92.5l-4 -46q-5 -26 -26.5 -44.5t-49.5 -18.5h-109q-26 0 -45.5 19t-19.5 47z M393 313q40 -46 98.5 -77t114.5 -31q88 0 125 49.5t37 159.5v319q0 110 -37 159.5t-125 49.5q-56 0 -114.5 -31t-98.5 -77v-521z" />
<glyph unicode="c" horiz-adv-x="1138" d="M109 412v323q0 201 124.5 315.5t341.5 114.5q215 0 337 -105t122 -278q0 -26 -17.5 -44.5t-43.5 -18.5h-148q-29 0 -45 17t-16 46q0 74 -48 120t-141 46q-94 0 -144 -60.5t-50 -176.5v-275q0 -116 50 -176.5t144 -60.5t141.5 46.5t47.5 119.5q0 29 16 46t45 17h146 q28 0 45.5 -17.5t17.5 -45.5q0 -169 -123 -276t-336 -107q-217 0 -341.5 114.5t-124.5 315.5z" />
<glyph unicode="d" horiz-adv-x="1155" d="M115 393v361q0 208 88 310.5t284 102.5q77 0 152 -31.5t121 -78.5v413q0 28 19 47t46 19h144q26 0 44.5 -19t18.5 -47v-1404q0 -28 -18.5 -47t-44.5 -19h-109q-29 0 -50 18t-26 45l-6 46q-53 -56 -130.5 -92.5t-160.5 -36.5q-196 0 -284 102.5t-88 310.5zM387 414 q0 -110 37 -159.5t125 -49.5q56 0 113.5 30.5t97.5 77.5v521q-40 46 -98 77t-113 31q-88 0 -125 -49.5t-37 -159.5v-319z" />
<glyph unicode="e" horiz-adv-x="1144" d="M109 412v323q0 201 124.5 316.5t341.5 115.5q214 0 338.5 -115.5t124.5 -316.5v-147q0 -26 -18.5 -45t-44.5 -19h-594v-104q0 -225 194 -225q93 0 140 45t47 98q0 55 59 55h154q26 0 41.5 -16.5t15.5 -44.5q0 -60 -30 -121t-85.5 -113t-145 -85t-196.5 -33 q-217 0 -341.5 115.5t-124.5 316.5zM379 694l389 6v27q0 110 -49 167.5t-144 57.5t-145.5 -57.5t-50.5 -171.5v-29z" />
<glyph unicode="f" horiz-adv-x="739" d="M10 1008v73q0 28 19 47t47 19h47v37q0 186 111 279t317 93q61 0 113 -6q26 -3 45.5 -25.5t19.5 -47.5v-88q0 -26 -17.5 -42.5t-43.5 -13.5q-49 6 -97 6q-176 0 -176 -161v-31h221q26 0 45 -19t19 -47v-73q0 -28 -19 -47t-45 -19h-221v-876q0 -28 -18.5 -47t-46.5 -19 h-142q-28 0 -46.5 19t-18.5 47v876h-47q-28 0 -47 19t-19 47z" />
<glyph unicode="g" horiz-adv-x="1032" d="M37 2q0 83 43 151.5t115 104.5q-25 52 -25 104q0 77 41 142q-52 29 -88.5 90.5t-36.5 118.5v127q0 137 115.5 232t298.5 95q132 0 221 -47q43 40 43 117q0 4 -1 13.5t-1 13.5q0 21 12 33t33 12h123q52 0 59 -49q6 -18 6 -58q0 -136 -112 -219q32 -60 32 -143v-127 q0 -120 -109 -207.5t-286 -87.5q-53 0 -84 8q-28 -24 -28 -66q0 -43 26 -69q18 2 64 2h139q171 0 269 -76t98 -215q0 -162 -106.5 -246t-297.5 -84h-160q-192 0 -297.5 84t-105.5 246zM299 -10q0 -123 154 -123h133q151 0 151 123q0 61 -37 90t-114 29h-133q-78 0 -116 -29 t-38 -90zM348 737q0 -59 43.5 -96t108.5 -37q67 0 110 37t43 96v101q0 59 -43 95t-110 36q-66 0 -109 -36t-43 -95v-101z" />
<glyph unicode="h" d="M121 66v1404q0 28 19.5 47t45.5 19h142q28 0 46.5 -19t18.5 -47v-415q53 51 124 81.5t145 30.5q195 0 282.5 -98t87.5 -291v-712q0 -28 -19 -47t-46 -19h-144q-26 0 -44.5 19t-18.5 47v688q0 100 -36.5 144t-123.5 44q-56 0 -111 -30.5t-96 -77.5v-768q0 -28 -18.5 -47 t-46.5 -19h-142q-26 0 -45.5 19t-19.5 47z" />
<glyph unicode="i" horiz-adv-x="516" d="M98 1395q0 141 156 141q160 0 160 -141q0 -138 -160 -138q-156 0 -156 138zM121 66v1015q0 27 19.5 46.5t45.5 19.5h142q28 0 46.5 -19t18.5 -47v-1015q0 -28 -18.5 -47t-46.5 -19h-142q-26 0 -45.5 19t-19.5 47z" />
<glyph unicode="j" horiz-adv-x="532" d="M-66 -205q0 37 14.5 56.5t49.5 31.5q71 17 105 69.5t34 147.5v981q0 27 19.5 46.5t46.5 19.5h141q28 0 47 -19t19 -47v-1005q0 -184 -118.5 -292t-293.5 -108q-25 0 -44.5 15t-19.5 39v65zM115 1409q0 141 153 141q160 0 160 -141q0 -137 -160 -137q-153 0 -153 137z" />
<glyph unicode="k" horiz-adv-x="1079" d="M121 66v1404q0 28 19.5 47t45.5 19h142q28 0 46.5 -19t18.5 -47v-786h45l291 410q37 53 100 53h175q20 0 29 -18t-3 -35l-399 -527l426 -516q8 -9 8 -20q0 -6 -3 -13q-8 -18 -28 -18h-188q-69 0 -105 51l-305 389h-43v-374q0 -28 -18.5 -47t-46.5 -19h-142 q-26 0 -45.5 19t-19.5 47z" />
<glyph unicode="l" horiz-adv-x="516" d="M121 66v1404q0 28 19.5 47t45.5 19h142q28 0 46.5 -19t18.5 -47v-1404q0 -28 -18.5 -47t-46.5 -19h-142q-26 0 -45.5 19t-19.5 47z" />
<glyph unicode="m" horiz-adv-x="1693" d="M121 66v1015q0 27 19.5 46.5t45.5 19.5h111q28 0 49.5 -19t24.5 -47l4 -43q122 129 274 129q219 0 297 -147q130 147 291 147q99 0 166 -25t105 -77t53.5 -120.5t15.5 -166.5v-712q0 -28 -19 -47t-47 -19h-141q-28 0 -46.5 19t-18.5 47v688q0 104 -26.5 146t-107.5 42 q-103 0 -186 -98q4 -25 4 -86v-692q0 -28 -18.5 -47t-44.5 -19h-142q-26 0 -45.5 19t-19.5 47v682q0 105 -27 149.5t-108 44.5q-102 0 -191 -108v-768q0 -28 -18.5 -47t-46.5 -19h-142q-26 0 -45.5 19t-19.5 47z" />
<glyph unicode="n" horiz-adv-x="1140" d="M121 66v1015q0 27 19.5 46.5t45.5 19.5h111q28 0 49.5 -19t24.5 -47l4 -43q122 129 282 129q195 0 281 -98t86 -291v-712q0 -27 -19.5 -46.5t-46.5 -19.5h-141q-28 0 -46.5 19t-18.5 47v688q0 100 -35 144t-123 44q-54 0 -107 -30t-94 -78v-768q0 -28 -18.5 -47 t-46.5 -19h-142q-26 0 -45.5 19t-19.5 47z" />
<glyph unicode="o" d="M109 412v323q0 201 124.5 316.5t341.5 115.5q214 0 338.5 -115.5t124.5 -316.5v-323q0 -201 -124.5 -316.5t-338.5 -115.5q-217 0 -341.5 115.5t-124.5 316.5zM381 434q0 -116 50 -176.5t144 -60.5q93 0 142 60.5t49 176.5v279q0 116 -49 176.5t-142 60.5 q-94 0 -144 -60.5t-50 -176.5v-279z" />
<glyph unicode="p" horiz-adv-x="1155" d="M121 -242v1323q0 27 19.5 46.5t45.5 19.5h109q28 0 49.5 -19t26.5 -45l4 -45q53 56 131 92.5t160 36.5q198 0 286 -102.5t88 -310.5v-361q0 -208 -88 -310.5t-286 -102.5q-76 0 -150 30.5t-123 79.5v-332q0 -28 -18.5 -46.5t-46.5 -18.5h-142q-27 0 -46 19t-19 46z M393 313q40 -46 98.5 -77t114.5 -31q88 0 125 49.5t37 159.5v319q0 110 -37 159.5t-125 49.5q-56 0 -114.5 -31t-98.5 -77v-521z" />
<glyph unicode="q" horiz-adv-x="1155" d="M115 393v361q0 208 88 310.5t284 102.5q83 0 160.5 -36.5t130.5 -92.5l6 45q5 26 27.5 45t50.5 19h107q26 0 44.5 -19t18.5 -47v-1323q0 -28 -18.5 -46.5t-44.5 -18.5h-144q-27 0 -46 19t-19 46v334q-49 -49 -122.5 -80.5t-150.5 -31.5q-196 0 -284 102.5t-88 310.5z M387 414q0 -110 37 -159.5t125 -49.5q56 0 113.5 30.5t97.5 77.5v521q-40 47 -97.5 77.5t-113.5 30.5q-88 0 -125 -49.5t-37 -159.5v-319z" />
<glyph unicode="r" horiz-adv-x="718" d="M121 66v1015q0 27 19.5 46.5t45.5 19.5h105q29 0 50 -18.5t26 -45.5l8 -69q42 64 118.5 108.5t139.5 44.5q51 0 51 -51v-133q0 -24 -14.5 -37.5t-38.5 -13.5q-68 0 -133.5 -34.5t-104.5 -94.5v-737q0 -28 -18.5 -47t-46.5 -19h-142q-26 0 -45.5 19t-19.5 47z" />
<glyph unicode="s" horiz-adv-x="1073" d="M82 309q0 26 15.5 42t41.5 16h140q61 0 61 -54q0 -49 56.5 -91t148.5 -42q88 0 133 39t45 103q0 38 -19.5 65.5t-61.5 46t-86 29t-114 22.5q-346 62 -346 326v31q0 151 110.5 239t321.5 88q87 0 160 -19.5t122.5 -51.5t84 -75t50.5 -89t16 -94q0 -26 -16 -42t-42 -16 h-137q-59 0 -59 54q0 48 -45.5 89.5t-133.5 41.5q-81 0 -120 -39t-39 -103q0 -68 55.5 -99.5t183.5 -55.5q66 -12 117.5 -27t103.5 -40.5t86 -58.5t55 -82.5t21 -111.5v-39q0 -149 -117.5 -241.5t-328.5 -92.5q-212 0 -337.5 97.5t-125.5 234.5z" />
<glyph unicode="t" horiz-adv-x="741" d="M20 1008v73q0 28 19 47t45 19h57l21 221q3 28 24.5 47t49.5 19h100q28 0 46.5 -19t18.5 -47v-221h230q28 0 46.5 -19t18.5 -47v-73q0 -28 -18.5 -47t-46.5 -19h-230v-553q0 -102 40 -149t128 -47q45 0 88 6q26 3 43 -12t17 -40v-88q0 -27 -19.5 -48.5t-46.5 -24.5 q-65 -9 -129 -9q-393 0 -393 410v555h-45q-26 0 -45 19t-19 47z" />
<glyph unicode="u" horiz-adv-x="1132" d="M117 369v712q0 27 19.5 46.5t45.5 19.5h142q28 0 46.5 -19t18.5 -47v-688q0 -102 31.5 -145t116.5 -43q109 0 202 108v768q0 28 19 47t47 19h141q27 0 46.5 -19.5t19.5 -46.5v-1015q0 -27 -19.5 -46.5t-46.5 -19.5h-112q-27 0 -48 19t-26 47l-2 43q-122 -129 -287 -129 q-193 0 -273.5 97t-80.5 292z" />
<glyph unicode="v" horiz-adv-x="1042" d="M16 1085q-4 9 -4 18q0 13 8 25q14 20 39 19h160q28 0 51.5 -18t30.5 -46l227 -770l224 770q6 28 28.5 46t50.5 18h152q25 1 39 -19q8 -12 8 -25q0 -9 -4 -18l-358 -1024q-9 -27 -33 -44t-53 -17h-119q-29 0 -53 17t-35 44z" />
<glyph unicode="w" horiz-adv-x="1632" d="M12 1085q-2 7 -2 15q0 16 10 28q14 20 39 19h158q28 0 50 -18t30 -46l186 -768l179 768q6 28 27.5 46t49.5 18h146q29 0 51.5 -18t30.5 -46l192 -768l184 768q6 28 28 46t50 18h152q25 1 39 -19q9 -12 9 -27q0 -8 -3 -16l-313 -1024q-8 -26 -31.5 -43.5t-52.5 -17.5h-156 q-28 0 -51 18t-29 45l-182 732l-164 -732q-6 -28 -28 -45.5t-50 -17.5h-158q-28 0 -51.5 17.5t-32.5 43.5z" />
<glyph unicode="x" horiz-adv-x="1083" d="M30 18q-4 8 -5 17q0 10 6 20l301 500l-293 535q-10 20 1.5 38.5t33.5 18.5h170q29 0 55.5 -17t38.5 -43l186 -387h25l196 390q14 25 40 41t55 16h166q21 0 31 -18t1 -39l-305 -529l320 -506q6 -10 6 -20q0 -9 -5 -17q-10 -18 -32 -18h-180q-30 0 -57 15.5t-40 41.5 l-200 367h-27l-194 -367q-13 -26 -39.5 -41.5t-55.5 -15.5h-168q-21 0 -31 18z" />
<glyph unicode="y" horiz-adv-x="1042" d="M16 1085q-3 9 -3 17q0 13 8 26q13 19 38 19h160q28 0 51.5 -18t30.5 -46l227 -770l224 770q8 28 29.5 46t49.5 18h152q25 0 38 -19q8 -13 8 -26q0 -8 -3 -17l-379 -1085q-51 -149 -171 -234.5t-290 -89.5h-4q-21 0 -39 18q-20 19 -20 44v74q0 66 63 75q73 9 124 49 t73 105z" />
<glyph unicode="z" horiz-adv-x="983" d="M59 66v45q0 67 37 120l467 703h-428q-27 0 -46 19t-19 46v82q0 27 19 46.5t46 19.5h711q26 0 44.5 -19t18.5 -47v-45q0 -63 -35 -121l-466 -702h460q27 0 46.5 -19.5t19.5 -46.5v-81q0 -27 -19.5 -46.5t-46.5 -19.5h-743q-28 0 -47 19t-19 47z" />
<glyph unicode="{" horiz-adv-x="722" d="M70 602v107q0 26 15.5 43.5t41.5 17.5h16q51 0 84 39.5t33 118.5v299q0 164 82.5 236.5t259.5 72.5q29 0 44.5 -15t15.5 -42v-95q0 -27 -15 -45t-41 -18q-82 0 -82 -109v-280q0 -94 -36 -166t-105 -111q67 -36 104 -110.5t37 -167.5v-279q0 -53 19 -80.5t63 -27.5 q25 0 40.5 -18.5t15.5 -45.5v-94q0 -27 -15.5 -42t-44.5 -15q-177 0 -259.5 72.5t-82.5 236.5v299q0 79 -33 118.5t-84 39.5h-16q-26 0 -41.5 17.5t-15.5 43.5z" />
<glyph unicode="|" horiz-adv-x="489" d="M125 -283v1794q0 28 18.5 47t44.5 19h113q26 0 45 -19t19 -47v-1794q0 -27 -18.5 -46t-45.5 -19h-113q-26 0 -44.5 18.5t-18.5 46.5z" />
<glyph unicode="}" horiz-adv-x="722" d="M61 -74q0 27 15.5 45.5t42.5 18.5q44 0 62 27t18 81v279q0 93 37 167.5t104 110.5q-69 39 -105 111t-36 166v280q0 54 -18 81.5t-62 27.5q-27 0 -42.5 18t-15.5 45v95q0 26 16.5 41.5t45.5 15.5q176 0 259 -73t83 -236v-299q0 -79 32 -118.5t83 -39.5h18q24 0 40.5 -18 t16.5 -43v-107q0 -25 -16.5 -43t-40.5 -18h-18q-51 0 -83 -39.5t-32 -118.5v-299q0 -163 -83 -236t-259 -73q-29 0 -45.5 15.5t-16.5 41.5v94z" />
<glyph unicode="~" horiz-adv-x="1208" d="M102 588q6 96 89 169.5t206 73.5q69 0 148 -28t145.5 -56t106.5 -28q61 0 98 55q24 29 41.5 39t50.5 10h68q23 0 37.5 -13.5t13.5 -35.5q-6 -102 -86 -173t-211 -71q-55 0 -114.5 17.5t-102 39t-93 39t-89.5 17.5q-62 0 -99 -55q-22 -29 -40 -40t-50 -11h-69 q-23 0 -37.5 14.5t-12.5 36.5z" />
<glyph unicode="&#xa1;" horiz-adv-x="544" d="M127 1317q0 68 38.5 102.5t104.5 34.5q69 0 108.5 -34.5t39.5 -102.5q0 -64 -40 -97.5t-108 -33.5q-65 0 -104 33.5t-39 97.5zM135 66v301l23 616q1 28 21 47t46 19h92q28 0 48 -19t20 -47l23 -616v-301q0 -28 -19 -47t-47 -19h-141q-27 0 -46.5 19.5t-19.5 46.5z" />
<glyph unicode="&#xa2;" horiz-adv-x="1142" d="M113 588v258q0 186 104.5 298.5t292.5 129.5v108q0 52 49 52h43q49 0 49 -52v-108q183 -17 285 -118.5t102 -252.5q0 -26 -16.5 -43.5t-42.5 -17.5h-137q-60 0 -60 59q0 54 -34 96t-97 56v-672q65 14 98 56t33 98q0 28 16 43.5t44 15.5h137q26 0 42.5 -18t16.5 -46 q0 -147 -102 -249.5t-285 -120.5v-109q0 -51 -49 -51h-43q-49 0 -49 51v107q-188 19 -292.5 131t-104.5 299zM373 610q0 -195 137 -229v670q-137 -30 -137 -228v-213z" />
<glyph unicode="&#xa3;" horiz-adv-x="1187" d="M63 66v36q0 40 12 66.5t42 52.5q49 44 77.5 104t28.5 124v139h-94q-28 0 -47 18.5t-19 44.5v90q0 28 19 47t47 19h94v199q0 215 112 335.5t335 120.5q220 0 330 -109.5t110 -295.5q0 -28 -18 -47t-45 -19h-154q-28 0 -43.5 17.5t-15.5 46.5q0 79 -39 128.5t-125 49.5 q-93 0 -130.5 -59.5t-37.5 -188.5v-178h215q28 0 46.5 -19t18.5 -47v-90q0 -26 -18.5 -44.5t-46.5 -18.5h-215v-109q0 -144 -86 -252h643q27 0 46 -19t19 -46v-96q0 -28 -18.5 -47t-46.5 -19h-930q-28 0 -47 19t-19 47z" />
<glyph unicode="&#xa4;" horiz-adv-x="1243" d="M108 322q0 27 19 47l96 94q-39 79 -39 188v86q0 100 39 183l-98 98q-17 20 -17 46.5t19 45.5l78 78q19 19 46 19t46 -19l96 -96q96 49 230 49q133 0 227 -49l96 96q19 19 46 19t46 -19l78 -78q19 -19 19 -45.5t-19 -46.5l-98 -98q39 -77 39 -183v-86q0 -102 -39 -188 l98 -94q19 -20 19 -47t-19 -46l-78 -77q-19 -19 -46 -19t-46 19l-96 96q-96 -49 -227 -49q-134 0 -230 49l-96 -96q-19 -20 -45 -20.5t-45 18.5l-80 79q-19 19 -19 46zM420 668q0 -102 56.5 -155.5t146.5 -53.5q89 0 144.5 53.5t55.5 155.5v49q0 103 -55.5 158t-144.5 55 q-90 0 -146.5 -55t-56.5 -158v-49z" />
<glyph unicode="&#xa5;" horiz-adv-x="1196" d="M41 1376q-10 20 1.5 39t33.5 19h176q29 0 54.5 -16.5t39.5 -41.5l260 -514l260 514q12 25 39 41.5t56 16.5h159q22 0 33.5 -19t1.5 -39l-364 -686h247q28 0 47 -18.5t19 -46.5v-60q0 -28 -19 -46.5t-47 -18.5h-295v-131h295q28 0 47 -19t19 -47v-59q0 -28 -19 -47 t-47 -19h-295v-112q0 -28 -18.5 -47t-44.5 -19h-152q-26 0 -45.5 19t-19.5 47v112h-295q-26 0 -45 19t-19 47v59q0 28 19 47t45 19h295v131h-295q-26 0 -45 19t-19 46v60q0 27 19 46t45 19h246z" />
<glyph unicode="&#xa6;" horiz-adv-x="489" d="M125 -283v594q0 27 18.5 46.5t44.5 19.5h113q26 0 45 -20t19 -46v-594q0 -27 -18.5 -46t-45.5 -19h-113q-26 0 -44.5 18.5t-18.5 46.5zM125 911v600q0 28 18.5 47t44.5 19h113q26 0 45 -19t19 -47v-600q0 -27 -18.5 -46t-45.5 -19h-113q-26 0 -44.5 18.5t-18.5 46.5z" />
<glyph unicode="&#xa7;" horiz-adv-x="1097" d="M92 629q0 83 38 152t101 108q-52 36 -83 92t-31 119v35q0 146 107 236.5t311 90.5q103 0 184 -28.5t130 -76.5t74 -106.5t25 -124.5q0 -26 -14.5 -41.5t-40.5 -15.5h-145q-60 0 -60 53q0 55 -37 92t-116 37q-76 0 -108 -33.5t-32 -95.5q0 -35 15.5 -60.5t46.5 -42.5 t63.5 -27.5t79.5 -20.5q63 -12 113 -26t107.5 -39.5t96 -58.5t64 -84t25.5 -114v-35q0 -57 -45.5 -123t-106.5 -108q57 -35 91 -91.5t34 -125.5v-33q0 -145 -116 -240.5t-320 -95.5q-104 0 -189.5 29t-140 77t-84 108.5t-29.5 125.5q0 25 16 40.5t42 15.5h147q60 0 60 -52 t46 -92.5t132 -40.5q81 0 120 37.5t39 99.5q0 60 -51 92.5t-145 49.5q-67 13 -119.5 27.5t-110.5 42t-96 62t-63 89t-25 121.5zM369 643q0 -18 4 -33.5t14.5 -28t20 -22t28.5 -18t32.5 -14.5t39 -12.5t40.5 -10.5t45.5 -10.5t45.5 -10.5q39 26 64.5 63.5t25.5 74.5 q0 36 -20.5 62.5t-58 41.5t-71 24t-78.5 17.5t-63 13.5q-30 -21 -49.5 -54.5t-19.5 -70.5v-12z" />
<glyph unicode="&#xa8;" horiz-adv-x="935" d="M78 1389q0 69 35 109t102 40q70 0 105.5 -39.5t35.5 -109.5q0 -67 -35.5 -106.5t-105.5 -39.5q-67 0 -102 39.5t-35 106.5zM582 1389q0 70 34 109.5t101 39.5q70 0 105.5 -39.5t35.5 -109.5q0 -67 -35.5 -106.5t-105.5 -39.5q-67 0 -101 39.5t-34 106.5z" />
<glyph unicode="&#xa9;" horiz-adv-x="1464" d="M106 428v571q0 104 51 191t137.5 144t199.5 88.5t239 31.5q99 0 191.5 -19.5t171 -58.5t137.5 -93t92 -127.5t33 -156.5v-571q0 -105 -51 -192t-137.5 -144.5t-199.5 -89t-237 -31.5q-169 0 -310.5 53.5t-229 159t-87.5 244.5zM291 426q0 -89 66.5 -156t165.5 -99 t210 -32q109 0 207 32t164.5 99t66.5 156v573q0 88 -66.5 155t-164.5 99.5t-207 32.5q-111 0 -210 -32.5t-165.5 -99.5t-66.5 -155v-573zM428 580q0 -133 81.5 -211t223.5 -78q138 0 219.5 71.5t81.5 184.5v28q0 22 -13.5 36t-33.5 14h-106q-45 0 -45 -47v-17 q0 -44 -27.5 -69t-75.5 -25q-50 0 -77 29t-27 84v268q0 56 27.5 84.5t76.5 28.5q46 0 74.5 -25t28.5 -66v-6q0 -49 45 -49h106q20 0 33.5 14.5t13.5 34.5v17q0 111 -81.5 183.5t-219.5 72.5q-142 0 -223.5 -78t-81.5 -209v-270z" />
<glyph unicode="&#xaa;" horiz-adv-x="894" d="M94 797q0 254 338 254q61 0 176 -25v94q0 174 -151 174q-72 0 -109 -37t-37 -94q0 -21 -12 -33t-33 -12h-102q-20 0 -33.5 14t-13.5 33q0 125 89.5 208t250.5 83q166 0 255 -82.5t89 -234.5v-543q0 -25 -16 -39t-42 -14h-77q-21 0 -35.5 13.5t-14.5 33.5v18 q-43 -35 -107 -57.5t-128 -22.5q-133 0 -210 69t-77 200zM291 797q0 -52 31.5 -78.5t87.5 -26.5q59 0 111.5 21.5t86.5 58.5v107q-90 22 -186 22q-64 0 -97.5 -27.5t-33.5 -76.5z" />
<glyph unicode="&#xab;" horiz-adv-x="1058" d="M92 557v29q0 66 47 110l320 308q13 12 30 5t17 -26v-158q0 -65 -49 -108l-160 -146l160 -145q49 -40 49 -109v-157q0 -19 -17 -26t-30 5l-320 307q-47 47 -47 111zM551 557v29q0 64 49 110l320 308q14 12 30.5 5t16.5 -26v-158q0 -65 -49 -108l-160 -146l160 -145 q49 -40 49 -109v-157q0 -19 -16.5 -26t-30.5 5l-320 307q-49 49 -49 111z" />
<glyph unicode="&#xac;" horiz-adv-x="1314" d="M98 756v96q0 26 19 44.5t47 18.5h987q28 0 47 -18.5t19 -44.5v-393q0 -26 -19 -45t-47 -19h-135q-26 0 -46 19t-20 45v233h-786q-28 0 -47 19t-19 45z" />
<glyph unicode="&#xad;" horiz-adv-x="823" d="M127 569v95q0 28 18.5 46.5t44.5 18.5h521q26 0 44.5 -18.5t18.5 -46.5v-95q0 -28 -18.5 -46.5t-44.5 -18.5h-521q-26 0 -44.5 18.5t-18.5 46.5z" />
<glyph unicode="&#xae;" horiz-adv-x="1464" d="M106 428v571q0 104 51 191t137.5 144t199.5 88.5t239 31.5q99 0 191.5 -19.5t171 -58.5t137.5 -93t92 -127.5t33 -156.5v-571q0 -105 -51 -192t-137.5 -144.5t-199.5 -89t-237 -31.5q-169 0 -310.5 53.5t-229 159t-87.5 244.5zM291 426q0 -89 66.5 -156t165.5 -99 t210 -32q109 0 207 32t164.5 99t66.5 156v573q0 88 -66.5 155t-164.5 99.5t-207 32.5q-111 0 -210 -32.5t-165.5 -99.5t-66.5 -155v-573zM434 371v688q0 28 19 46.5t47 18.5h258q136 0 212.5 -64.5t76.5 -187.5v-43q0 -83 -38.5 -142t-111.5 -85l147 -240q9 -21 -1 -39 t-31 -18h-97q-30 0 -56 16t-38 41l-116 213h-70v-204q0 -27 -19.5 -46.5t-46.5 -19.5h-69q-28 0 -47 19t-19 47zM635 729h96q60 0 88.5 27t28.5 94q0 66 -28.5 91.5t-88.5 25.5h-96v-238z" />
<glyph unicode="&#xaf;" horiz-adv-x="821" d="M86 1333v94q0 28 19 47t47 19h518q28 0 46.5 -19t18.5 -47v-94q0 -27 -19 -46t-46 -19h-518q-28 0 -47 19t-19 46z" />
<glyph unicode="&#xb0;" horiz-adv-x="749" d="M86 1157v33q0 125 78 201.5t205 76.5q136 0 215.5 -75.5t79.5 -202.5v-33q0 -131 -78.5 -203.5t-216.5 -72.5q-128 0 -205.5 73t-77.5 203zM252 1169q0 -66 30 -102.5t87 -36.5q129 0 129 139q0 144 -129 144q-117 0 -117 -144z" />
<glyph unicode="&#xb1;" horiz-adv-x="1200" d="M98 106v78q0 26 19 45t47 19h872q28 0 47 -19t19 -45v-78q0 -26 -19 -44.5t-47 -18.5h-872q-28 0 -47 18.5t-19 44.5zM98 705v79q0 28 19 47t47 19h319v231q0 28 19 47t47 19h102q28 0 47 -19t19 -47v-231h319q28 0 47 -19t19 -47v-79q0 -27 -19.5 -46.5t-46.5 -19.5 h-319v-231q0 -28 -19 -47t-47 -19h-102q-28 0 -47 19t-19 47v231h-319q-27 0 -46.5 19.5t-19.5 46.5z" />
<glyph unicode="&#xb2;" horiz-adv-x="882" d="M94 539v18q0 48 41 96l344 369q80 83 80 149q0 44 -29.5 73.5t-85.5 29.5q-61 0 -94 -41t-33 -90q0 -45 -45 -45h-118q-19 0 -33.5 13.5t-14.5 33.5q0 59 20.5 113.5t60.5 98.5t106.5 70.5t150.5 26.5q160 0 246 -77.5t86 -202.5q0 -142 -151 -293l-215 -222h315 q27 0 46.5 -19t19.5 -46v-49q0 -26 -20 -45t-46 -19h-569q-26 0 -44 16.5t-18 41.5z" />
<glyph unicode="&#xb3;" horiz-adv-x="866" d="M94 760q0 21 12 33t33 12h123q45 0 45 -43q0 -47 31.5 -83t89.5 -36t90.5 30.5t32.5 86.5v24q0 129 -76 129h-94q-23 0 -37 13.5t-14 38.5v43q0 23 14 37t37 14h92q35 0 52.5 35.5t17.5 79.5q0 45 -29 74.5t-84 29.5q-54 0 -82.5 -32t-28.5 -77q0 -41 -45 -41h-118 q-19 0 -33 13.5t-14 34.5q0 51 19 99t57 89t102.5 65.5t146.5 24.5q155 0 238.5 -76t83.5 -198q0 -50 -21 -100.5t-57 -86.5q41 -29 67.5 -85.5t26.5 -112.5v-39q0 -134 -90.5 -213.5t-253.5 -79.5t-248.5 85.5t-85.5 211.5z" />
<glyph unicode="&#xb4;" horiz-adv-x="651" d="M121.5 1280q-9.5 18 1.5 35l110 160q17 24 45 38.5t58 14.5h164q19 0 25.5 -17t-5.5 -30l-155 -172q-47 -47 -111 -47h-102q-21 0 -30.5 18z" />
<glyph unicode="&#xb5;" horiz-adv-x="1146" d="M121 -242v1323q0 27 19.5 46.5t45.5 19.5h142q28 0 46.5 -19t18.5 -47v-694q2 -97 36.5 -139.5t119.5 -42.5q54 0 109 30.5t96 77.5v768q0 28 18.5 47t46.5 19h142q28 0 46.5 -19t18.5 -47v-1015q0 -28 -18.5 -47t-46.5 -19h-121q-27 0 -46.5 19.5t-19.5 46.5l-2 43 q-55 -61 -127.5 -95t-146.5 -34q-79 0 -125 32l4 -254q0 -28 -18.5 -46.5t-45.5 -18.5h-127q-27 0 -46 19t-19 46z" />
<glyph unicode="&#xb6;" horiz-adv-x="1193" d="M106 961v53q0 202 120.5 311t346.5 109h435q28 0 46.5 -19t18.5 -47v-1528q0 -28 -18.5 -46.5t-46.5 -18.5h-35q-27 0 -46.5 19t-19.5 46v1417h-164v-1417q0 -28 -18.5 -46.5t-44.5 -18.5h-35q-27 0 -46 19t-19 46v701h-35q-199 0 -319 110.5t-120 309.5z" />
<glyph unicode="&#xb7;" horiz-adv-x="454" d="M72 684q0 76 41 114t112 38q74 0 116 -38t42 -114q0 -72 -42 -107.5t-116 -35.5q-71 0 -112 36t-41 107z" />
<glyph unicode="&#xb8;" horiz-adv-x="544" d="M86 -268q0 30 33 30h43q40 0 63 13.5t23 36.5q0 43 -70 51q-25 4 -33.5 21t0.5 40l21 49q9 27 41 27h121q13 0 17 -9t-1 -20l-14 -39q129 -18 129 -129q0 -41 -21.5 -71t-57.5 -45t-74 -22t-81 -7q-59 0 -90 4q-49 6 -49 39v31z" />
<glyph unicode="&#xb9;" horiz-adv-x="530" d="M66 1323v47q0 28 19 47t46 19h240q28 0 46.5 -19t18.5 -47v-825q0 -27 -19 -45.5t-46 -18.5h-82q-28 0 -47 19t-19 45v715h-92q-26 0 -45.5 18.5t-19.5 44.5z" />
<glyph unicode="&#xba;" horiz-adv-x="901" d="M94 864v256q0 155 96.5 245.5t260.5 90.5t260 -90.5t96 -245.5v-256q0 -155 -96 -245.5t-260 -90.5t-260.5 90.5t-96.5 245.5zM291 883q0 -189 160 -189q163 0 163 189v217q0 194 -163 194q-160 0 -160 -194v-217z" />
<glyph unicode="&#xbb;" horiz-adv-x="1058" d="M92 160v157q0 69 49 109l158 145l-158 146q-49 43 -49 108v158q0 19 17 26t30 -5l320 -308q47 -44 47 -110v-29q0 -64 -47 -111l-320 -307q-13 -12 -30 -5t-17 26zM551 160v157q0 68 51 109l158 145l-158 146q-51 44 -51 108v158q0 19 17.5 26t31.5 -5l320 -308 q47 -44 47 -110v-29q0 -64 -47 -111l-320 -307q-14 -12 -31.5 -5t-17.5 26z" />
<glyph unicode="&#xbc;" horiz-adv-x="1814" d="M72 1323v47q0 26 19 45t46 19h240q26 0 44.5 -19t18.5 -45v-825q0 -28 -18.5 -47t-44.5 -19h-82q-28 0 -47 19t-19 47v712h-92q-28 0 -46.5 19t-18.5 47zM272 18q-10 18 2 37l891 1323q37 56 101 56h159q21 0 31 -18.5t-2 -37.5l-895 -1323q-36 -55 -100 -55h-156 q-21 0 -31 18zM948 229v7q0 47 23 106l248 553q11 28 35 44.5t55 16.5h88q24 0 37.5 -19.5t5.5 -41.5l-232 -547h215v236q0 28 18.5 46.5t45.5 18.5h82q28 0 46.5 -18.5t18.5 -46.5v-236h29q20 0 31.5 -13t11.5 -34v-84q0 -21 -11.5 -34t-31.5 -13h-29v-104q0 -28 -18.5 -47 t-46.5 -19h-82q-26 0 -45 19t-19 47v104h-415q-25 0 -42.5 17t-17.5 42z" />
<glyph unicode="&#xbd;" horiz-adv-x="1880" d="M72 1323v47q0 28 18.5 47t46.5 19h240q26 0 44.5 -19t18.5 -47v-825q0 -26 -18.5 -45t-44.5 -19h-82q-28 0 -47 19t-19 45v715h-92q-28 0 -46.5 18.5t-18.5 44.5zM234.5 18q-9.5 18 1.5 37l890 1323q37 56 103 56h160q20 0 30 -18.5t-2 -37.5l-895 -1323 q-36 -55 -100 -55h-156q-22 0 -31.5 18zM1075 59v19q0 44 43 94l342 369q80 86 80 149q0 44 -29.5 73.5t-85.5 29.5q-61 0 -94 -41t-33 -90q0 -46 -45 -46h-116q-21 0 -35.5 14.5t-14.5 35.5q0 59 21 113t61 98.5t106.5 71t149.5 26.5q160 0 247 -79t87 -204 q0 -136 -153 -293l-213 -221h313q28 0 47 -18.5t19 -44.5v-49q0 -28 -19 -47t-47 -19h-569q-25 0 -43.5 16.5t-18.5 42.5z" />
<glyph unicode="&#xbe;" horiz-adv-x="2035" d="M106 760q0 21 12.5 33t33.5 12h122q45 0 45 -43q0 -47 31.5 -83t89.5 -36t90.5 30.5t32.5 86.5v24q0 129 -76 129h-92q-25 0 -39 13.5t-14 38.5v43q0 23 14 37t39 14h90q35 0 52.5 35.5t17.5 79.5q0 45 -29 74.5t-84 29.5q-54 0 -82 -32t-28 -77q0 -41 -45 -41h-119 q-19 0 -33 13.5t-14 34.5q0 51 19 99t57 89t102.5 65.5t146.5 24.5q155 0 238.5 -76t83.5 -198q0 -50 -21 -100.5t-57 -86.5q41 -29 67.5 -85.5t26.5 -112.5v-39q0 -134 -90.5 -213.5t-253.5 -79.5t-248.5 85.5t-85.5 211.5zM497.5 18q-9.5 18 2.5 37l891 1323q37 56 100 56 h160q20 0 30 -18.5t-2 -37.5l-895 -1323q-36 -55 -100 -55h-156q-21 0 -30.5 18zM1171 229v7q0 52 21 106l248 553q10 27 35 44t55 17h90q23 0 36 -19.5t5 -41.5l-231 -547h215v236q0 28 18.5 46.5t44.5 18.5h82q28 0 46.5 -18.5t18.5 -46.5v-236h29q20 0 32.5 -13.5 t12.5 -33.5v-84q0 -20 -12.5 -33.5t-32.5 -13.5h-29v-104q0 -28 -18.5 -47t-46.5 -19h-82q-26 0 -44.5 19t-18.5 47v104h-416q-25 0 -41.5 17t-16.5 42z" />
<glyph unicode="&#xbf;" horiz-adv-x="1073" d="M92 328v28q0 65 14 119t45.5 102t61 81.5t80.5 82.5q80 76 114.5 135.5t34.5 135.5v26q0 14 10 23.5t23 9.5h203q15 0 27 -12t12 -27v-37q0 -62 -10 -112t-23 -83t-43.5 -71t-52.5 -60t-70 -65q-70 -61 -105.5 -121.5t-35.5 -144.5q0 -143 170 -143q91 0 134.5 49 t43.5 121q0 29 15.5 46t43.5 17h154q26 0 43.5 -18.5t17.5 -44.5q0 -79 -28.5 -149t-83 -125.5t-142.5 -87.5t-198 -32q-218 0 -336.5 100t-118.5 257zM424 1325q0 65 43.5 100t112.5 35q67 0 110 -35t43 -100q0 -68 -42.5 -103.5t-110.5 -35.5q-69 0 -112.5 35.5 t-43.5 103.5z" />
<glyph unicode="&#xc0;" horiz-adv-x="1280" d="M16 61l465 1311q9 26 33.5 44t52.5 18h142q28 0 52.5 -18t35.5 -44l467 -1311q9 -23 -4.5 -42t-38.5 -19h-170q-29 0 -53 17t-33 44l-93 285h-473l-90 -283q-7 -28 -30.5 -45.5t-51.5 -17.5h-168q-25 0 -38.5 19t-4.5 42zM375 1797.5q7 17.5 26 17.5h164q29 0 57.5 -14.5 t45.5 -39.5l108 -159q12 -17 3 -35.5t-29 -18.5h-105q-64 0 -108 47l-156 172q-13 13 -6 30.5zM467 567h336l-170 533z" />
<glyph unicode="&#xc1;" horiz-adv-x="1280" d="M16 61l465 1311q9 26 33.5 44t52.5 18h142q28 0 52.5 -18t35.5 -44l467 -1311q9 -23 -4.5 -42t-38.5 -19h-170q-29 0 -53 17t-33 44l-93 285h-473l-90 -283q-7 -28 -30.5 -45.5t-51.5 -17.5h-168q-25 0 -38.5 19t-4.5 42zM467 567h336l-170 533zM542 1566.5 q-9 18.5 3 35.5l110 159q38 54 103 54h164q19 0 25.5 -17.5t-5.5 -30.5l-158 -172q-44 -47 -108 -47h-105q-20 0 -29 18.5z" />
<glyph unicode="&#xc2;" horiz-adv-x="1280" d="M16 61l465 1311q9 26 33.5 44t52.5 18h142q28 0 52.5 -18t35.5 -44l467 -1311q9 -23 -4.5 -42t-38.5 -19h-170q-29 0 -53 17t-33 44l-93 285h-473l-90 -283q-7 -28 -30.5 -45.5t-51.5 -17.5h-168q-25 0 -38.5 19t-4.5 42zM355.5 1566q-8.5 18 2.5 33l125 164 q42 52 105 52h90q62 0 104 -52l125 -164q12 -15 4 -33t-28 -18h-97q-30 0 -57.5 15t-42.5 41l-53 84l-51 -84q-15 -26 -43 -41t-58 -15h-98q-19 0 -27.5 18zM467 567h336l-170 533z" />
<glyph unicode="&#xc3;" horiz-adv-x="1280" d="M16 61l465 1311q9 26 33.5 44t52.5 18h142q28 0 52.5 -18t35.5 -44l467 -1311q9 -23 -4.5 -42t-38.5 -19h-170q-29 0 -53 17t-33 44l-93 285h-473l-90 -283q-7 -28 -30.5 -45.5t-51.5 -17.5h-168q-25 0 -38.5 19t-4.5 42zM225 1630q14 95 73.5 155t152.5 60 q60 0 128.5 -23t123.5 -46t81 -23q51 0 68 33q17 31 33 40t51 9h51q25 0 43.5 -20.5t16.5 -45.5q-14 -98 -71 -156.5t-157 -58.5q-47 0 -98.5 14.5t-88.5 32t-77.5 32t-67.5 14.5q-52 0 -69 -33q-17 -31 -33 -40t-53 -9h-51q-23 0 -41 21t-15 44zM467 567h336l-170 533z" />
<glyph unicode="&#xc4;" horiz-adv-x="1280" d="M16 61l465 1311q9 26 33.5 44t52.5 18h142q28 0 52.5 -18t35.5 -44l467 -1311q9 -23 -4.5 -42t-38.5 -19h-170q-29 0 -53 17t-33 44l-93 285h-473l-90 -283q-7 -28 -30.5 -45.5t-51.5 -17.5h-168q-25 0 -38.5 19t-4.5 42zM246 1675q0 70 34 110t101 40q70 0 105.5 -40 t35.5 -110q0 -67 -35.5 -106t-105.5 -39q-67 0 -101 39t-34 106zM467 567h336l-170 533zM750 1675q0 70 33.5 110t99.5 40q71 0 106 -40t35 -110q0 -67 -35 -106t-106 -39q-66 0 -99.5 39t-33.5 106z" />
<glyph unicode="&#xc5;" horiz-adv-x="1280" d="M16 61l465 1311q9 26 33.5 44t52.5 18h142q28 0 52.5 -18t35.5 -44l467 -1311q9 -23 -4.5 -42t-38.5 -19h-170q-29 0 -53 17t-33 44l-93 285h-473l-90 -283q-7 -28 -30.5 -45.5t-51.5 -17.5h-168q-25 0 -38.5 19t-4.5 42zM463 1665v21q0 72 49.5 116.5t124.5 44.5 t124.5 -44.5t49.5 -116.5v-21q0 -75 -49 -118.5t-125 -43.5t-125 43.5t-49 118.5zM467 567h336l-170 533zM573 1673q0 -74 64 -74q63 0 63 74q0 76 -63 76q-64 0 -64 -76z" />
<glyph unicode="&#xc6;" horiz-adv-x="1953" d="M14 57l723 1319q13 26 40 42t57 16h972q28 0 47 -19t19 -47v-104q0 -26 -19 -45t-47 -19h-551v-465h449q27 0 46 -19t19 -46v-95q0 -26 -19.5 -45.5t-45.5 -19.5h-449v-279h566q28 0 46.5 -18.5t18.5 -44.5v-102q0 -28 -18.5 -47t-46.5 -19h-789q-26 0 -45.5 19t-19.5 47 v452h-400l-241 -461q-14 -25 -40 -41t-55 -16h-182q-23 0 -34.5 18.5t-0.5 38.5zM670 735h297v467h-56z" />
<glyph unicode="&#xc7;" horiz-adv-x="1245" d="M106 438v559q0 211 145.5 338t375.5 127q227 0 372.5 -115.5t145.5 -293.5v-52q0 -27 -18.5 -45t-45.5 -18h-159q-28 0 -44 16.5t-16 44.5v31q0 89 -65 144t-170 55q-107 0 -171.5 -67.5t-64.5 -190.5v-508q0 -123 64.5 -190.5t171.5 -67.5q105 0 170 55.5t65 147.5v43 q0 28 16 44.5t44 16.5h159q27 0 45.5 -18t18.5 -45v-66q0 -159 -118 -270t-308 -136l-19 -45q129 -18 129 -129q0 -41 -21 -71t-57 -45t-74 -22t-81 -7q-59 0 -90 4q-49 6 -49 39v31q0 30 32 30h43q40 0 63 13.5t23 36.5q0 43 -69 51q-25 4 -33.5 21t0.5 40l23 53 q-195 25 -314 148.5t-119 312.5z" />
<glyph unicode="&#xc8;" horiz-adv-x="1087" d="M115 66v1302q0 28 18.5 47t46.5 19h762q26 0 45 -19t19 -47v-104q0 -26 -19 -45t-45 -19h-543v-387h441q26 0 44.5 -18.5t18.5 -46.5v-101q0 -26 -18.5 -45.5t-44.5 -19.5h-441v-351h557q28 0 47 -18.5t19 -44.5v-102q0 -28 -19 -47t-47 -19h-776q-28 0 -46.5 19 t-18.5 47zM330.5 1797.5q6.5 17.5 25.5 17.5h164q29 0 57.5 -14.5t45.5 -39.5l110 -159q11 -17 2 -35.5t-30 -18.5h-103q-63 0 -110 47l-156 172q-12 13 -5.5 30.5z" />
<glyph unicode="&#xc9;" horiz-adv-x="1087" d="M115 66v1302q0 28 18.5 47t46.5 19h762q26 0 45 -19t19 -47v-104q0 -26 -19 -45t-45 -19h-543v-387h441q26 0 44.5 -18.5t18.5 -46.5v-101q0 -26 -18.5 -45.5t-44.5 -19.5h-441v-351h557q28 0 47 -18.5t19 -44.5v-102q0 -28 -19 -47t-47 -19h-776q-28 0 -46.5 19 t-18.5 47zM437.5 1566.5q-9.5 18.5 2.5 35.5l109 159q38 54 102 54h164q19 0 26.5 -17.5t-5.5 -30.5l-156 -172q-44 -47 -109 -47h-104q-20 0 -29.5 18.5z" />
<glyph unicode="&#xca;" horiz-adv-x="1087" d="M115 66v1302q0 28 18.5 47t46.5 19h762q26 0 45 -19t19 -47v-104q0 -26 -19 -45t-45 -19h-543v-387h441q26 0 44.5 -18.5t18.5 -46.5v-101q0 -26 -18.5 -45.5t-44.5 -19.5h-441v-351h557q28 0 47 -18.5t19 -44.5v-102q0 -28 -19 -47t-47 -19h-776q-28 0 -46.5 19 t-18.5 47zM293.5 1566q-8.5 18 3.5 33l125 164q17 23 46 37.5t58 14.5h88q29 0 58.5 -14.5t46.5 -37.5l127 -164q11 -15 2.5 -33t-27.5 -18h-98q-63 0 -100 56l-52 84l-51 -84q-37 -56 -100 -56h-98q-20 0 -28.5 18z" />
<glyph unicode="&#xcb;" horiz-adv-x="1087" d="M115 66v1302q0 28 18.5 47t46.5 19h762q26 0 45 -19t19 -47v-104q0 -26 -19 -45t-45 -19h-543v-387h441q26 0 44.5 -18.5t18.5 -46.5v-101q0 -26 -18.5 -45.5t-44.5 -19.5h-441v-351h557q28 0 47 -18.5t19 -44.5v-102q0 -28 -19 -47t-47 -19h-776q-28 0 -46.5 19 t-18.5 47zM164 1675q0 70 34.5 110t102.5 40q69 0 104 -40t35 -110q0 -67 -35.5 -106t-103.5 -39t-102.5 39t-34.5 106zM668 1675q0 70 34 110t101 40q70 0 104.5 -40t34.5 -110q0 -67 -34.5 -106t-104.5 -39q-67 0 -101 39t-34 106z" />
<glyph unicode="&#xcc;" horiz-adv-x="514" d="M12 1796.5q9 18.5 29 18.5h164q29 0 55.5 -16.5t40.5 -41.5l82 -151q11 -20 -0.5 -39t-34.5 -19h-102q-67 0 -105 51l-127 164q-11 15 -2 33.5zM115 66v1302q0 28 18.5 47t46.5 19h156q26 0 44.5 -19t18.5 -47v-1302q0 -28 -18.5 -47t-44.5 -19h-156q-28 0 -46.5 19 t-18.5 47z" />
<glyph unicode="&#xcd;" horiz-adv-x="514" d="M115 66v1302q0 28 18.5 47t46.5 19h156q26 0 44.5 -19t18.5 -47v-1302q0 -28 -18.5 -47t-44.5 -19h-156q-28 0 -46.5 19t-18.5 47zM152 1567q-11 19 0 39l79 151q14 25 41 41.5t56 16.5h127q20 0 28 -18.5t-4 -33.5l-127 -164q-41 -51 -104 -51h-62q-23 0 -34 19z" />
<glyph unicode="&#xce;" horiz-adv-x="514" d="M23 1566.5q-10 18.5 2 37.5l90 153q15 26 42 42t56 16h86q30 0 57.5 -16t40.5 -42l92 -153q11 -19 1 -37.5t-31 -18.5h-76q-28 0 -53 17t-37 45l-37 78l-35 -78q-10 -27 -35 -44.5t-53 -17.5h-78q-22 0 -32 18.5zM115 66v1302q0 28 18.5 47t46.5 19h156q26 0 44.5 -19 t18.5 -47v-1302q0 -28 -18.5 -47t-44.5 -19h-156q-28 0 -46.5 19t-18.5 47z" />
<glyph unicode="&#xcf;" horiz-adv-x="514" d="M-45 1675q0 70 32 110t99 40q135 0 135 -150q0 -68 -33 -106.5t-102 -38.5q-66 0 -98.5 38.5t-32.5 106.5zM115 66v1302q0 28 18.5 47t46.5 19h156q26 0 44.5 -19t18.5 -47v-1302q0 -28 -18.5 -47t-44.5 -19h-156q-28 0 -46.5 19t-18.5 47zM299 1675q0 70 32 110t97 40 q135 0 135 -150q0 -68 -33 -106.5t-102 -38.5q-65 0 -97 39t-32 106z" />
<glyph unicode="&#xd0;" horiz-adv-x="1267" d="M14 649v86q0 27 19.5 46.5t46.5 19.5h35v567q0 28 18.5 47t46.5 19h486q228 0 361.5 -125.5t133.5 -339.5v-504q0 -214 -133.5 -339.5t-361.5 -125.5h-486q-28 0 -46.5 19t-18.5 47v518h-35q-28 0 -47 19t-19 46zM399 231h267q102 0 156.5 66.5t54.5 191.5v455 q0 125 -54.5 190.5t-156.5 65.5h-267v-399h211q26 0 46 -20t20 -46v-86q0 -26 -20 -45.5t-46 -19.5h-211v-353z" />
<glyph unicode="&#xd1;" horiz-adv-x="1310" d="M115 66v1302q0 28 18.5 47t46.5 19h168q29 0 56 -16t42 -42l476 -860l-7 852q-1 28 17.5 47t46.5 19h151q27 0 46.5 -19.5t19.5 -46.5v-1302q0 -27 -19.5 -46.5t-46.5 -19.5h-174q-63 0 -96 57l-473 856l8 -847q0 -28 -18.5 -47t-44.5 -19h-152q-28 0 -46.5 19t-18.5 47z M244 1630q14 95 73 155t152 60q60 0 129 -23t124 -46t81 -23q50 0 67 33q17 31 33 40t51 9h52q25 0 42.5 -20.5t14.5 -45.5q-13 -98 -69 -156.5t-156 -58.5q-47 0 -98.5 14.5t-88.5 32t-78 32t-69 14.5q-51 0 -68 -33q-17 -31 -33 -40t-53 -9h-51q-23 0 -40.5 21t-14.5 44z " />
<glyph unicode="&#xd2;" horiz-adv-x="1296" d="M106 438v559q0 141 73.5 248t196 162t273.5 55q150 0 272.5 -55t195.5 -162t73 -248v-559q0 -141 -73 -248.5t-195.5 -163t-272.5 -55.5q-151 0 -274 55.5t-196 163t-73 248.5zM369.5 1797.5q6.5 17.5 25.5 17.5h164q29 0 57.5 -14.5t45.5 -39.5l110 -159 q11 -17 1.5 -35.5t-30.5 -18.5h-104q-62 0 -109 47l-155 172q-12 13 -5.5 30.5zM393 463q0 -122 72 -190t184 -68q111 0 183.5 68t72.5 190v508q0 123 -72.5 190.5t-183.5 67.5q-112 0 -184 -67.5t-72 -190.5v-508z" />
<glyph unicode="&#xd3;" horiz-adv-x="1296" d="M106 438v559q0 141 73.5 248t196 162t273.5 55q150 0 272.5 -55t195.5 -162t73 -248v-559q0 -141 -73 -248.5t-195.5 -163t-272.5 -55.5q-151 0 -274 55.5t-196 163t-73 248.5zM393 463q0 -122 72 -190t184 -68q111 0 183.5 68t72.5 190v508q0 123 -72.5 190.5 t-183.5 67.5q-112 0 -184 -67.5t-72 -190.5v-508zM566.5 1566.5q-9.5 18.5 2.5 35.5l109 159q38 54 102 54h164q19 0 26.5 -17.5t-5.5 -30.5l-156 -172q-44 -47 -109 -47h-104q-20 0 -29.5 18.5z" />
<glyph unicode="&#xd4;" horiz-adv-x="1296" d="M106 438v559q0 141 73.5 248t196 162t273.5 55q150 0 272.5 -55t195.5 -162t73 -248v-559q0 -141 -73 -248.5t-195.5 -163t-272.5 -55.5q-151 0 -274 55.5t-196 163t-73 248.5zM370.5 1566q-8.5 18 4.5 33l123 164q45 52 106 52h88q63 0 105 -52l127 -164q12 -15 2.5 -33 t-29.5 -18h-96q-64 0 -101 56l-53 84l-49 -84q-37 -56 -100 -56h-99q-20 0 -28.5 18zM393 463q0 -122 72 -190t184 -68q111 0 183.5 68t72.5 190v508q0 123 -72.5 190.5t-183.5 67.5q-112 0 -184 -67.5t-72 -190.5v-508z" />
<glyph unicode="&#xd5;" horiz-adv-x="1296" d="M106 438v559q0 141 73.5 248t196 162t273.5 55q150 0 272.5 -55t195.5 -162t73 -248v-559q0 -141 -73 -248.5t-195.5 -163t-272.5 -55.5q-151 0 -274 55.5t-196 163t-73 248.5zM240 1630q14 95 73 155t152 60q60 0 129 -23t124 -46t81 -23q50 0 67 33q17 31 32.5 40 t51.5 9h51q25 0 43 -20.5t15 -45.5q-13 -98 -69 -156.5t-156 -58.5q-47 0 -98.5 14.5t-88.5 32t-78 32t-69 14.5q-51 0 -68 -33q-17 -31 -33 -40t-53 -9h-51q-23 0 -40.5 21t-14.5 44zM393 463q0 -122 72 -190t184 -68q111 0 183.5 68t72.5 190v508q0 123 -72.5 190.5 t-183.5 67.5q-112 0 -184 -67.5t-72 -190.5v-508z" />
<glyph unicode="&#xd6;" horiz-adv-x="1302" d="M109 438v559q0 141 73.5 248t196.5 162t274 55q150 0 272.5 -55t195.5 -162t73 -248v-559q0 -141 -73 -248.5t-195.5 -163t-272.5 -55.5q-151 0 -274 55.5t-196.5 163t-73.5 248.5zM262 1675q0 70 34 110t101 40q70 0 106 -40t36 -110q0 -67 -36 -106t-106 -39 q-67 0 -101 39t-34 106zM395 463q0 -122 73 -190t185 -68q109 0 182.5 68.5t73.5 189.5v508q0 122 -73 190t-183 68q-112 0 -185 -67.5t-73 -190.5v-508zM764 1675q0 69 34.5 109.5t100.5 40.5q70 0 105.5 -40t35.5 -110q0 -67 -35.5 -106t-105.5 -39q-66 0 -100.5 39 t-34.5 106z" />
<glyph unicode="&#xd7;" horiz-adv-x="1177" d="M103 220q0 27 20 46l301 301l-301 303q-20 19 -20 46.5t20 46.5l72 71q19 19 46 19t46 -19l301 -303l303 303q19 19 46 19t46 -19l72 -71q19 -19 19 -46.5t-19 -46.5l-303 -303l303 -301q19 -19 19 -46t-19 -46l-72 -72q-19 -20 -46 -20t-46 20l-303 301l-301 -301 q-19 -20 -46 -20t-46 20l-72 72q-20 19 -20 46z" />
<glyph unicode="&#xd8;" horiz-adv-x="1296" d="M20 115v186q0 64 50 107l36 28v559q0 140 73 247.5t196 163.5t274 56t271 -56.5t186 -160.5l121 96q13 12 31 4t18 -28v-187q0 -65 -49 -108l-37 -29v-555q0 -140 -73 -247.5t-195.5 -163.5t-272.5 -56q-151 0 -272.5 56.5t-188.5 158.5l-118 -96q-14 -12 -32 -3.5 t-18 28.5zM393 670l494 399q-26 76 -90 118t-148 42q-112 0 -184 -68.5t-72 -191.5v-299zM408 362q26 -76 90.5 -116.5t150.5 -40.5q111 0 183.5 68.5t72.5 191.5v299z" />
<glyph unicode="&#xd9;" horiz-adv-x="1261" d="M111 436v932q0 28 18.5 47t46.5 19h156q26 0 44.5 -19t18.5 -47v-905q0 -124 63.5 -191t172.5 -67t172 67t63 191v905q0 28 19 47t47 19h155q26 0 45 -19t19 -47v-932q0 -213 -142.5 -339t-377.5 -126t-377.5 126t-142.5 339zM363 1797.5q7 17.5 26 17.5h164 q64 0 102 -54l109 -159q12 -17 2.5 -35.5t-29.5 -18.5h-104q-65 0 -109 47l-155 172q-13 13 -6 30.5z" />
<glyph unicode="&#xda;" horiz-adv-x="1261" d="M111 436v932q0 28 18.5 47t46.5 19h156q26 0 44.5 -19t18.5 -47v-905q0 -124 63.5 -191t172.5 -67t172 67t63 191v905q0 28 19 47t47 19h155q26 0 45 -19t19 -47v-932q0 -213 -142.5 -339t-377.5 -126t-377.5 126t-142.5 339zM545 1566.5q-9 18.5 2 35.5l110 159 q17 25 45.5 39.5t57.5 14.5h164q19 0 25.5 -17.5t-5.5 -30.5l-156 -172q-47 -47 -110 -47h-103q-21 0 -30 18.5z" />
<glyph unicode="&#xdb;" horiz-adv-x="1261" d="M111 436v932q0 28 18.5 47t46.5 19h156q26 0 44.5 -19t18.5 -47v-905q0 -124 63.5 -191t172.5 -67t172 67t63 191v905q0 28 19 47t47 19h155q26 0 45 -19t19 -47v-932q0 -213 -142.5 -339t-377.5 -126t-377.5 126t-142.5 339zM352 1566q-9 18 2 33l125 164q42 52 105 52 h90q62 0 104 -52l125 -164q12 -15 4 -33t-28 -18h-97q-63 0 -100 56l-53 84l-51 -84q-15 -26 -42.5 -41t-58.5 -15h-96q-20 0 -29 18z" />
<glyph unicode="&#xdc;" horiz-adv-x="1261" d="M111 436v932q0 28 18.5 47t46.5 19h156q26 0 44.5 -19t18.5 -47v-905q0 -124 63.5 -191t172.5 -67t172 67t63 191v905q0 28 19 47t47 19h155q26 0 45 -19t19 -47v-932q0 -213 -142.5 -339t-377.5 -126t-377.5 126t-142.5 339zM242 1675q0 70 34 110t101 40 q70 0 105.5 -40t35.5 -110q0 -67 -35.5 -106t-105.5 -39q-67 0 -101 39t-34 106zM745 1675q0 70 34 110t100 40q71 0 106 -40t35 -110q0 -67 -35 -106t-106 -39q-66 0 -100 39t-34 106z" />
<glyph unicode="&#xdd;" horiz-adv-x="1185" d="M23 1376q-9 21 2 39.5t34 18.5h177q29 0 53 -16.5t35 -43.5l274 -631l272 631q12 27 37 43.5t54 16.5h165q23 0 34.5 -18.5t2.5 -39.5l-426 -880v-430q0 -28 -18.5 -47t-46.5 -19h-156q-26 0 -44.5 19t-18.5 47v426zM482.5 1566.5q-9.5 18.5 2.5 35.5l109 159 q38 54 102 54h164q19 0 26 -17.5t-5 -30.5l-156 -172q-47 -47 -109 -47h-104q-20 0 -29.5 18.5z" />
<glyph unicode="&#xde;" horiz-adv-x="1226" d="M115 66v1302q0 28 18.5 47t46.5 19h156q26 0 44.5 -19t18.5 -47v-180h244q231 0 363.5 -114.5t132.5 -323.5v-66q0 -209 -132.5 -323.5t-363.5 -114.5h-244v-180q0 -28 -18.5 -47t-44.5 -19h-156q-28 0 -46.5 19t-18.5 47zM399 475h244q209 0 209 232v20q0 229 -209 229 h-244v-481z" />
<glyph unicode="&#xdf;" horiz-adv-x="1204" d="M10 791v96q0 27 16.5 43t43.5 16h55v178q0 203 110 317.5t312 114.5q175 0 278 -79t103 -228q0 -54 -19 -102.5t-45.5 -83.5t-53.5 -67.5t-46 -68t-19 -71.5q0 -42 20.5 -80.5t53.5 -69.5t73 -63t79.5 -68t72.5 -75.5t53.5 -93.5t20.5 -115q0 -144 -99.5 -232t-307.5 -88 q-83 0 -144 13q-63 13 -63 63v111q0 26 18.5 39.5t44.5 7.5q67 -12 123 -12q66 0 112 29t46 87q0 35 -19.5 68t-51 61t-69.5 58t-76 64.5t-69.5 73t-51 91.5t-19.5 113q0 55 18 101.5t43.5 79.5t51 64t43.5 69t18 81q0 46 -27 78t-96 32q-78 0 -113 -55t-35 -172v-1050 q0 -28 -18.5 -47t-44.5 -19h-144q-26 0 -44.5 19t-18.5 47v665h-55q-27 0 -43.5 16.5t-16.5 43.5z" />
<glyph unicode="&#xe0;" horiz-adv-x="1126" d="M88 301q0 158 100.5 240t286.5 82q136 0 262 -33v164q0 103 -42 149.5t-132 46.5q-86 0 -130 -46.5t-44 -110.5q0 -27 -16.5 -41.5t-44.5 -14.5h-148q-27 0 -45 17.5t-18 44.5q0 53 17 105t53.5 99.5t88 84t126 58t161.5 21.5q216 0 331.5 -104t115.5 -295v-702 q0 -28 -19 -47t-47 -19h-110q-28 0 -51 18.5t-27 44.5l-6 41q-52 -55 -143 -89.5t-191 -34.5q-154 0 -241 87t-87 234zM318.5 1511q6.5 17 25.5 17h164q65 0 102 -53l111 -160q11 -17 1.5 -35t-30.5 -18h-102q-64 0 -111 47l-155 172q-12 13 -5.5 30zM362 313 q0 -61 40.5 -95t105.5 -34q137 0 229 103v131q-109 33 -217 33q-78 0 -118 -36.5t-40 -101.5z" />
<glyph unicode="&#xe1;" horiz-adv-x="1126" d="M88 301q0 158 100.5 240t286.5 82q136 0 262 -33v164q0 103 -42 149.5t-132 46.5q-86 0 -130 -46.5t-44 -110.5q0 -27 -16.5 -41.5t-44.5 -14.5h-148q-27 0 -45 17.5t-18 44.5q0 53 17 105t53.5 99.5t88 84t126 58t161.5 21.5q216 0 331.5 -104t115.5 -295v-702 q0 -28 -19 -47t-47 -19h-110q-28 0 -51 18.5t-27 44.5l-6 41q-52 -55 -143 -89.5t-191 -34.5q-154 0 -241 87t-87 234zM362 313q0 -61 40.5 -95t105.5 -34q137 0 229 103v131q-109 33 -217 33q-78 0 -118 -36.5t-40 -101.5zM462.5 1280q-9.5 18 2.5 35l108 160 q17 24 45 38.5t58 14.5h164q19 0 25.5 -17t-5.5 -30l-155 -172q-44 -47 -109 -47h-104q-20 0 -29.5 18z" />
<glyph unicode="&#xe2;" horiz-adv-x="1126" d="M88 301q0 158 100.5 240t286.5 82q136 0 262 -33v164q0 103 -42 149.5t-132 46.5q-86 0 -130 -46.5t-44 -110.5q0 -27 -16.5 -41.5t-44.5 -14.5h-148q-27 0 -45 17.5t-18 44.5q0 53 17 105t53.5 99.5t88 84t126 58t161.5 21.5q216 0 331.5 -104t115.5 -295v-702 q0 -28 -19 -47t-47 -19h-110q-28 0 -51 18.5t-27 44.5l-6 41q-52 -55 -143 -89.5t-191 -34.5q-154 0 -241 87t-87 234zM305.5 1280q-8.5 18 3.5 33l125 164q17 23 46 37t59 14h88q65 0 106 -51l125 -164q12 -15 4 -33t-28 -18h-97q-31 0 -58 14.5t-42 40.5l-53 84l-52 -84 q-36 -55 -100 -55h-98q-20 0 -28.5 18zM362 313q0 -61 40.5 -95t105.5 -34q137 0 229 103v131q-109 33 -217 33q-78 0 -118 -36.5t-40 -101.5z" />
<glyph unicode="&#xe3;" horiz-adv-x="1126" d="M88 301q0 158 100.5 240t286.5 82q136 0 262 -33v164q0 103 -42 149.5t-132 46.5q-86 0 -130 -46.5t-44 -110.5q0 -27 -16.5 -41.5t-44.5 -14.5h-148q-27 0 -45 17.5t-18 44.5q0 53 17 105t53.5 99.5t88 84t126 58t161.5 21.5q216 0 331.5 -104t115.5 -295v-702 q0 -28 -19 -47t-47 -19h-110q-28 0 -51 18.5t-27 44.5l-6 41q-52 -55 -143 -89.5t-191 -34.5q-154 0 -241 87t-87 234zM172 1343q14 95 73 155.5t152 60.5q60 0 129 -23.5t124 -46.5t81 -23q49 0 66 33q19 31 34.5 40t51.5 9h51q25 0 42.5 -20t14.5 -45 q-13 -98 -69.5 -156.5t-157.5 -58.5q-58 0 -123 23t-120 46t-89 23q-50 0 -67 -33q-17 -31 -33 -40t-53 -9h-52q-23 0 -40.5 21t-14.5 44zM362 313q0 -61 40.5 -95t105.5 -34q137 0 229 103v131q-109 33 -217 33q-78 0 -118 -36.5t-40 -101.5z" />
<glyph unicode="&#xe4;" horiz-adv-x="1126" d="M88 301q0 158 100.5 240t286.5 82q136 0 262 -33v164q0 103 -42 149.5t-132 46.5q-86 0 -130 -46.5t-44 -110.5q0 -27 -16.5 -41.5t-44.5 -14.5h-148q-27 0 -45 17.5t-18 44.5q0 53 17 105t53.5 99.5t88 84t126 58t161.5 21.5q216 0 331.5 -104t115.5 -295v-702 q0 -28 -19 -47t-47 -19h-110q-28 0 -51 18.5t-27 44.5l-6 41q-52 -55 -143 -89.5t-191 -34.5q-154 0 -241 87t-87 234zM190 1389q0 69 35.5 109t102.5 40q69 0 105 -40t36 -109q0 -67 -36 -106.5t-105 -39.5q-67 0 -102.5 39.5t-35.5 106.5zM362 313q0 -61 40.5 -95 t105.5 -34q137 0 229 103v131q-109 33 -217 33q-78 0 -118 -36.5t-40 -101.5zM694 1389q0 70 34 109.5t101 39.5q70 0 106 -39.5t36 -109.5q0 -67 -36 -106.5t-106 -39.5q-67 0 -101 39.5t-34 106.5z" />
<glyph unicode="&#xe5;" horiz-adv-x="1126" d="M88 301q0 158 100.5 240t286.5 82q136 0 262 -33v164q0 103 -42 149.5t-132 46.5q-86 0 -130 -46.5t-44 -110.5q0 -27 -16.5 -41.5t-44.5 -14.5h-148q-27 0 -45 17.5t-18 44.5q0 53 17 105t53.5 99.5t88 84t126 58t161.5 21.5q216 0 331.5 -104t115.5 -295v-702 q0 -28 -19 -47t-47 -19h-110q-28 0 -51 18.5t-27 44.5l-6 41q-52 -55 -143 -89.5t-191 -34.5q-154 0 -241 87t-87 234zM362 313q0 -61 40.5 -95t105.5 -34q137 0 229 103v131q-109 33 -217 33q-78 0 -118 -36.5t-40 -101.5zM395 1399v20q0 73 49 117.5t125 44.5 q75 0 123.5 -44.5t48.5 -117.5v-20q0 -75 -48.5 -118.5t-123.5 -43.5q-77 0 -125.5 43.5t-48.5 118.5zM506 1407q0 -74 63 -74q30 0 46 20t16 54q0 76 -62 76q-63 0 -63 -76z" />
<glyph unicode="&#xe6;" horiz-adv-x="1773" d="M88 315q0 159 98 242.5t283 83.5h268v104q0 205 -174 205q-86 0 -130 -48t-44 -114q0 -26 -16.5 -39.5t-44.5 -13.5h-146q-28 0 -45.5 17t-17.5 43q0 70 28 135t80.5 119t139.5 86t196 32q212 0 320 -137q113 137 321 137q214 0 338.5 -115.5t124.5 -316.5v-168 q0 -28 -18.5 -46.5t-44.5 -18.5h-594v-96q0 -211 194 -211q87 0 138 40.5t51 92.5q0 57 57 57h154q26 0 41.5 -16.5t15.5 -44.5q0 -59 -30 -118.5t-85 -110.5t-144.5 -83t-197.5 -32q-252 0 -370 157q-82 -85 -183 -121t-229 -36q-161 0 -247.5 92.5t-86.5 242.5zM365 328 q0 -66 37 -105t108 -39q68 0 127 28.5t100 74.5v180l-221 2q-151 0 -151 -141zM1008 672l389 6v33q0 114 -49.5 177.5t-143.5 63.5q-92 0 -143.5 -63t-52.5 -178v-39z" />
<glyph unicode="&#xe7;" horiz-adv-x="1138" d="M109 412v323q0 201 124.5 315.5t341.5 114.5q215 0 337 -105t122 -278q0 -26 -17.5 -44.5t-43.5 -18.5h-148q-29 0 -45 17t-16 46q0 74 -48 120t-141 46q-94 0 -144 -60.5t-50 -176.5v-275q0 -116 50 -176.5t144 -60.5t141.5 46.5t47.5 119.5q0 29 16 46t45 17h146 q28 0 45.5 -17.5t17.5 -45.5q0 -148 -96.5 -251t-267.5 -126l-21 -56q129 -17 129 -129q0 -41 -21 -71t-57 -45t-74 -22t-81 -7q-57 0 -90 4q-49 6 -49 39v31q0 30 34 30h43q40 0 63 13.5t23 36.5q0 43 -71 51q-24 4 -32 21t1 40l25 64q-181 20 -282 131.5t-101 292.5z" />
<glyph unicode="&#xe8;" horiz-adv-x="1144" d="M109 412v323q0 201 124.5 316.5t341.5 115.5q214 0 338.5 -115.5t124.5 -316.5v-147q0 -26 -18.5 -45t-44.5 -19h-594v-104q0 -225 194 -225q93 0 140 45t47 98q0 55 59 55h154q26 0 41.5 -16.5t15.5 -44.5q0 -60 -30 -121t-85.5 -113t-145 -85t-196.5 -33 q-217 0 -341.5 115.5t-124.5 316.5zM306 1511q7 17 26 17h164q65 0 102 -53l111 -160q12 -17 2.5 -35t-31.5 -18h-102q-64 0 -111 47l-156 172q-12 13 -5 30zM379 694l389 6v27q0 110 -49 167.5t-144 57.5t-145.5 -57.5t-50.5 -171.5v-29z" />
<glyph unicode="&#xe9;" horiz-adv-x="1144" d="M109 412v323q0 201 124.5 316.5t341.5 115.5q214 0 338.5 -115.5t124.5 -316.5v-147q0 -26 -18.5 -45t-44.5 -19h-594v-104q0 -225 194 -225q93 0 140 45t47 98q0 55 59 55h154q26 0 41.5 -16.5t15.5 -44.5q0 -60 -30 -121t-85.5 -113t-145 -85t-196.5 -33 q-217 0 -341.5 115.5t-124.5 316.5zM379 694l389 6v27q0 110 -49 167.5t-144 57.5t-145.5 -57.5t-50.5 -171.5v-29zM484.5 1280q-9.5 18 2.5 35l111 160q37 53 102 53h164q19 0 26 -17t-5 -30l-156 -172q-47 -47 -111 -47h-102q-22 0 -31.5 18z" />
<glyph unicode="&#xea;" horiz-adv-x="1144" d="M109 412v323q0 201 124.5 316.5t341.5 115.5q214 0 338.5 -115.5t124.5 -316.5v-147q0 -26 -18.5 -45t-44.5 -19h-594v-104q0 -225 194 -225q93 0 140 45t47 98q0 55 59 55h154q26 0 41.5 -16.5t15.5 -44.5q0 -60 -30 -121t-85.5 -113t-145 -85t-196.5 -33 q-217 0 -341.5 115.5t-124.5 316.5zM313.5 1280q-8.5 18 3.5 33l125 164q17 23 46 37t59 14h88q29 0 58 -14t46 -37l127 -164q11 -15 2.5 -33t-28.5 -18h-97q-64 0 -100 55l-51 84l-51 -84q-36 -55 -101 -55h-98q-20 0 -28.5 18zM379 694l389 6v27q0 110 -49 167.5 t-144 57.5t-145.5 -57.5t-50.5 -171.5v-29z" />
<glyph unicode="&#xeb;" horiz-adv-x="1144" d="M109 412v323q0 201 124.5 316.5t341.5 115.5q214 0 338.5 -115.5t124.5 -316.5v-147q0 -26 -18.5 -45t-44.5 -19h-594v-104q0 -225 194 -225q93 0 140 45t47 98q0 55 59 55h154q26 0 41.5 -16.5t15.5 -44.5q0 -60 -30 -121t-85.5 -113t-145 -85t-196.5 -33 q-217 0 -341.5 115.5t-124.5 316.5zM211 1389q0 70 34 109.5t101 39.5q70 0 105.5 -39.5t35.5 -109.5q0 -67 -35.5 -106.5t-105.5 -39.5q-67 0 -101 39.5t-34 106.5zM379 694l389 6v27q0 110 -49 167.5t-144 57.5t-145.5 -57.5t-50.5 -171.5v-29zM713 1389q0 70 34 109.5 t101 39.5q70 0 105.5 -39.5t35.5 -109.5q0 -67 -35.5 -106.5t-105.5 -39.5q-67 0 -101 39.5t-34 106.5z" />
<glyph unicode="&#xec;" horiz-adv-x="516" d="M-14.5 1510q8.5 18 28.5 18h164q29 0 55.5 -16.5t40.5 -41.5l80 -151q11 -20 -0.5 -38.5t-34.5 -18.5h-102q-29 0 -58 14t-46 37l-125 164q-11 15 -2.5 33zM121 66v1015q0 27 19.5 46.5t45.5 19.5h142q28 0 46.5 -19t18.5 -47v-1015q0 -28 -18.5 -47t-46.5 -19h-142 q-26 0 -45.5 19t-19.5 47z" />
<glyph unicode="&#xed;" horiz-adv-x="516" d="M121 66v1015q0 27 19.5 46.5t45.5 19.5h142q28 0 46.5 -19t18.5 -47v-1015q0 -28 -18.5 -47t-46.5 -19h-142q-26 0 -45.5 19t-19.5 47zM158 1280q-10 18 2 37l100 156q15 25 42 40t56 15h152q19 0 27 -17t-2 -34l-136 -166q-40 -49 -106 -49h-103q-22 0 -32 18z" />
<glyph unicode="&#xee;" horiz-adv-x="516" d="M23 1280q-10 18 2 37l90 153q15 26 42 42t56 16h88q29 0 56 -16t42 -42l93 -153q10 -19 -0.5 -37t-32.5 -18h-68q-29 0 -54.5 16.5t-37.5 42.5l-41 82l-41 -82q-12 -26 -37.5 -42.5t-54.5 -16.5h-70q-22 0 -32 18zM121 66v1015q0 27 19.5 46.5t45.5 19.5h142 q28 0 46.5 -19t18.5 -47v-1015q0 -28 -18.5 -47t-46.5 -19h-142q-26 0 -45.5 19t-19.5 47z" />
<glyph unicode="&#xef;" horiz-adv-x="516" d="M-31 1389q0 62 31.5 98.5t91.5 36.5q61 0 93 -36.5t32 -98.5q0 -60 -32 -94.5t-93 -34.5q-60 0 -91.5 34.5t-31.5 94.5zM121 66v1015q0 27 19.5 46.5t45.5 19.5h142q28 0 46.5 -19t18.5 -47v-1015q0 -28 -18.5 -47t-46.5 -19h-142q-26 0 -45.5 19t-19.5 47zM299 1389 q0 62 30.5 98.5t90.5 36.5q63 0 95 -36.5t32 -98.5q0 -60 -32 -94.5t-95 -34.5q-60 0 -90.5 34.5t-30.5 94.5z" />
<glyph unicode="&#xf0;" horiz-adv-x="1136" d="M109 379v307q0 197 101.5 294t295.5 97q73 0 142 -25.5t116 -66.5v113q0 79 -27 129l-80 -62q-18 -13 -40 -7.5t-37 28.5l-23 33q-38 48 4 79l49 37q-40 19 -110 19q-56 0 -115 -6q-28 -3 -45.5 12t-17.5 43v72q0 27 18.5 50t44.5 27q68 15 131 15q166 0 289 -68l88 66 q44 30 82 -11l26 -32q19 -20 17.5 -43.5t-23.5 -40.5l-57 -45q38 -44 62 -113t24 -145v-736q0 -200 -120.5 -309.5t-348.5 -109.5q-203 0 -324.5 103t-121.5 296zM356 440q0 -136 48 -198t155 -62q108 0 156.5 62t48.5 198v328q-36 46 -99 77.5t-124 31.5q-101 0 -143 -60 t-42 -192v-185z" />
<glyph unicode="&#xf1;" horiz-adv-x="1140" d="M121 66v1015q0 27 19.5 46.5t45.5 19.5h111q28 0 49.5 -19t24.5 -47l4 -43q122 129 282 129q194 0 280.5 -101t86.5 -294v-706q0 -27 -19.5 -46.5t-46.5 -19.5h-141q-28 0 -46.5 19t-18.5 47v682q0 101 -35.5 147.5t-122.5 46.5q-54 0 -107 -30t-94 -78v-768 q0 -28 -18.5 -47t-46.5 -19h-142q-26 0 -45.5 19t-19.5 47zM168 1343q14 95 73 155.5t152 60.5q60 0 129 -23.5t124 -46.5t81 -23q51 0 68 33q17 31 33 40t51 9h51q25 0 43 -20t16 -45q-14 -98 -71 -156.5t-156 -58.5q-59 0 -124.5 23t-120.5 46t-89 23q-51 0 -68 -33 q-17 -31 -33 -40t-53 -9h-51q-23 0 -40.5 21t-14.5 44z" />
<glyph unicode="&#xf2;" d="M109 412v323q0 201 124.5 316.5t341.5 115.5q214 0 338.5 -115.5t124.5 -316.5v-323q0 -201 -124.5 -316.5t-338.5 -115.5q-217 0 -341.5 115.5t-124.5 316.5zM306 1511q7 17 26 17h164q65 0 102 -53l111 -160q11 -17 1.5 -35t-30.5 -18h-102q-64 0 -111 47l-156 172 q-12 13 -5 30zM381 434q0 -116 50 -176.5t144 -60.5q93 0 142 60.5t49 176.5v279q0 116 -49 176.5t-142 60.5q-94 0 -144 -60.5t-50 -176.5v-279z" />
<glyph unicode="&#xf3;" d="M109 412v323q0 201 124.5 316.5t341.5 115.5q214 0 338.5 -115.5t124.5 -316.5v-323q0 -201 -124.5 -316.5t-338.5 -115.5q-217 0 -341.5 115.5t-124.5 316.5zM381 434q0 -116 50 -176.5t144 -60.5q93 0 142 60.5t49 176.5v279q0 116 -49 176.5t-142 60.5 q-94 0 -144 -60.5t-50 -176.5v-279zM478.5 1280q-9.5 18 2.5 35l109 160q37 53 102 53h164q19 0 26 -17t-5 -30l-156 -172q-44 -47 -109 -47h-104q-20 0 -29.5 18z" />
<glyph unicode="&#xf4;" d="M109 412v323q0 201 124.5 316.5t341.5 115.5q214 0 338.5 -115.5t124.5 -316.5v-323q0 -201 -124.5 -316.5t-338.5 -115.5q-217 0 -341.5 115.5t-124.5 316.5zM295.5 1280q-8.5 18 3.5 33l125 164q41 51 104 51h88q64 0 105 -51l127 -164q12 -15 3 -33t-28 -18h-98 q-61 0 -100 55l-52 84l-51 -84q-36 -55 -100 -55h-98q-20 0 -28.5 18zM381 434q0 -116 50 -176.5t144 -60.5q93 0 142 60.5t49 176.5v279q0 116 -49 176.5t-142 60.5q-94 0 -144 -60.5t-50 -176.5v-279z" />
<glyph unicode="&#xf5;" d="M109 412v323q0 201 124.5 316.5t341.5 115.5q214 0 338.5 -115.5t124.5 -316.5v-323q0 -201 -124.5 -316.5t-338.5 -115.5q-217 0 -341.5 115.5t-124.5 316.5zM164 1343q12 94 71.5 155t151.5 61q61 0 130 -23.5t124 -46.5t82 -23q48 0 65 33q17 31 33 40t51 9h54 q24 0 42 -20.5t15 -44.5q-13 -97 -70 -156t-157 -59q-58 0 -123 23t-120 46t-89 23q-51 0 -68 -33q-19 -31 -35 -40t-53 -9h-51q-22 0 -39.5 21t-13.5 44zM381 434q0 -116 50 -176.5t144 -60.5q93 0 142 60.5t49 176.5v279q0 116 -49 176.5t-142 60.5q-94 0 -144 -60.5 t-50 -176.5v-279z" />
<glyph unicode="&#xf6;" d="M109 412v323q0 201 124.5 316.5t341.5 115.5q214 0 338.5 -115.5t124.5 -316.5v-323q0 -201 -124.5 -316.5t-338.5 -115.5q-217 0 -341.5 115.5t-124.5 316.5zM184 1389q0 70 34 109.5t101 39.5q70 0 106 -39.5t36 -109.5q0 -67 -36 -106.5t-106 -39.5q-67 0 -101 39.5 t-34 106.5zM381 434q0 -116 50 -176.5t144 -60.5q93 0 142 60.5t49 176.5v279q0 116 -49 176.5t-142 60.5q-94 0 -144 -60.5t-50 -176.5v-279zM686 1389q0 69 34.5 109t100.5 40q71 0 106.5 -39.5t35.5 -109.5q0 -67 -35.5 -106.5t-106.5 -39.5q-66 0 -100.5 39.5 t-34.5 106.5z" />
<glyph unicode="&#xf7;" horiz-adv-x="1181" d="M84 526v95q0 28 19 46.5t47 18.5h882q28 0 47 -18.5t19 -46.5v-95q0 -28 -19 -46.5t-47 -18.5h-882q-28 0 -47 18.5t-19 46.5zM422 125q0 74 42 111.5t114 37.5q73 0 115 -37.5t42 -111.5q0 -72 -42 -108.5t-115 -36.5q-72 0 -114 37t-42 108zM422 1016q0 75 42 113 t114 38q73 0 115 -37.5t42 -113.5q0 -71 -42 -107.5t-115 -36.5q-72 0 -114 36.5t-42 107.5z" />
<glyph unicode="&#xf8;" d="M6 23v182q0 62 51 106l56 43q-4 18 -4 58v323q0 201 124.5 316.5t341.5 115.5q242 0 361 -147l156 127q15 12 33 4t18 -27v-182q0 -65 -51 -106l-56 -45q2 -16 2 -56v-323q0 -201 -124.5 -316.5t-338.5 -115.5q-241 0 -364 145l-156 -125q-13 -12 -31 -4t-18 27zM379 573 l360 285q-48 92 -164 92q-94 0 -145 -61.5t-51 -177.5v-138zM410 287q48 -92 165 -92q93 0 144 62.5t51 178.5v137z" />
<glyph unicode="&#xf9;" horiz-adv-x="1132" d="M117 371v710q0 27 19.5 46.5t45.5 19.5h142q28 0 46.5 -19t18.5 -47v-686q0 -102 31.5 -146t116.5 -44q109 0 202 108v768q0 28 19 47t47 19h141q27 0 46.5 -19.5t19.5 -46.5v-1015q0 -27 -19.5 -46.5t-46.5 -19.5h-112q-27 0 -48 19t-26 47l-2 43q-122 -129 -287 -129 q-193 0 -273.5 98t-80.5 293zM314 1511q7 17 26 17h164q65 0 102 -53l111 -160q11 -17 1.5 -35t-30.5 -18h-102q-64 0 -111 47l-156 172q-12 13 -5 30z" />
<glyph unicode="&#xfa;" horiz-adv-x="1132" d="M117 371v710q0 27 19.5 46.5t45.5 19.5h142q28 0 46.5 -19t18.5 -47v-686q0 -102 32 -146t118 -44q54 0 106.5 30t93.5 78v768q0 28 19 47t47 19h141q27 0 46.5 -19.5t19.5 -46.5v-1015q0 -27 -19.5 -46.5t-46.5 -19.5h-112q-27 0 -48 19t-26 47l-2 43 q-122 -129 -287 -129q-193 0 -273.5 98t-80.5 293zM444.5 1280q-9.5 18 1.5 35l111 160q37 53 102 53h164q19 0 26 -17t-5 -30l-156 -172q-47 -47 -110 -47h-103q-21 0 -30.5 18z" />
<glyph unicode="&#xfb;" horiz-adv-x="1132" d="M117 371v710q0 27 19.5 46.5t45.5 19.5h142q28 0 46.5 -19t18.5 -47v-686q0 -103 31 -146.5t117 -43.5q109 0 202 108v768q0 28 19 47t47 19h141q27 0 46.5 -19.5t19.5 -46.5v-1015q0 -27 -19.5 -46.5t-46.5 -19.5h-112q-27 0 -48 19t-26 47l-2 43q-57 -60 -131.5 -94.5 t-155.5 -34.5q-194 0 -274 98t-80 293zM283 1280q-8 18 4 33l125 164q17 23 46 37t58 14h88q30 0 59 -14t46 -37l127 -164q11 -15 3 -33t-28 -18h-98q-30 0 -57 14.5t-42 40.5l-53 84l-51 -84q-36 -55 -100 -55h-99q-20 0 -28 18z" />
<glyph unicode="&#xfc;" horiz-adv-x="1132" d="M117 371v710q0 27 19.5 46.5t45.5 19.5h142q28 0 46.5 -19t18.5 -47v-686q0 -102 31.5 -146t116.5 -44q109 0 202 108v768q0 28 19 47t47 19h141q27 0 46.5 -19.5t19.5 -46.5v-1015q0 -27 -19.5 -46.5t-46.5 -19.5h-112q-27 0 -48 19t-26 47l-2 43q-122 -129 -287 -129 q-193 0 -273.5 98t-80.5 293zM172 1389q0 70 34 109.5t101 39.5q70 0 106 -39.5t36 -109.5q0 -67 -36 -106.5t-106 -39.5q-67 0 -101 39.5t-34 106.5zM676 1389q0 70 33.5 109.5t99.5 39.5q71 0 106 -39.5t35 -109.5q0 -67 -35 -106.5t-106 -39.5q-65 0 -99 39.5t-34 106.5z " />
<glyph unicode="&#xfd;" horiz-adv-x="1042" d="M16 1085q-8 23 5 42.5t38 19.5h160q28 0 51.5 -18t30.5 -46l227 -770l224 770q8 28 29.5 46t49.5 18h152q25 0 38 -19.5t5 -42.5l-379 -1085q-51 -149 -171 -234.5t-290 -89.5q-23 -2 -43 17.5t-20 44.5v74q0 66 63 75q73 9 124 49t73 105zM407 1280q-9 18 3 35l110 160 q37 53 103 53h163q19 0 26 -17t-5 -30l-158 -172q-44 -47 -108 -47h-103q-22 0 -31 18z" />
<glyph unicode="&#xfe;" horiz-adv-x="1157" d="M121 -242v1712q0 28 19.5 47t45.5 19h142q28 0 46.5 -19t18.5 -47v-413q55 50 128 80t149 30q196 0 284 -102.5t88 -310.5v-361q0 -208 -88 -310.5t-284 -102.5q-77 0 -153 32t-124 80v-334q0 -28 -18.5 -46.5t-46.5 -18.5h-142q-27 0 -46 19t-19 46zM393 313 q40 -46 99 -77t116 -31q88 0 125 49.5t37 159.5v319q0 110 -37 159.5t-125 49.5q-57 0 -116 -31t-99 -77v-521z" />
<glyph unicode="&#xff;" horiz-adv-x="1042" d="M16 1085q-8 23 5 42.5t38 19.5h160q28 0 51.5 -18t30.5 -46l227 -770l224 770q8 28 29.5 46t49.5 18h152q25 0 38 -19.5t5 -42.5l-379 -1085q-51 -149 -171 -234.5t-290 -89.5q-23 -2 -43 17.5t-20 44.5v74q0 66 63 75q73 9 124 49t73 105zM137 1389q0 70 34.5 109.5 t102.5 39.5q69 0 104.5 -40t35.5 -109q0 -67 -36 -106.5t-104 -39.5t-102.5 39.5t-34.5 106.5zM641 1389q0 70 34 109.5t101 39.5q70 0 104.5 -39.5t34.5 -109.5q0 -67 -35 -106.5t-104 -39.5q-67 0 -101 39.5t-34 106.5z" />
<glyph unicode="&#x152;" horiz-adv-x="1806" d="M109 438v557q0 215 135.5 341t363.5 126q73 0 147.5 -26.5t114.5 -69.5v31q0 15 11 26t26 11h754q26 0 44.5 -19t18.5 -47v-104q0 -26 -18.5 -45t-44.5 -19h-506v-414h401q28 0 47 -18.5t19 -46.5v-100q0 -27 -19.5 -46.5t-46.5 -19.5h-401v-324h520q28 0 47 -18.5 t19 -44.5v-102q0 -28 -19 -47t-47 -19h-770q-13 0 -24 11t-11 24v28q-92 -92 -262 -92q-228 0 -363.5 126t-135.5 341zM395 463q0 -123 65.5 -190.5t172.5 -67.5q103 0 170 68t67 186v516q0 118 -67 186t-170 68q-108 0 -173 -67t-65 -191v-508z" />
<glyph unicode="&#x153;" horiz-adv-x="1802" d="M109 412v323q0 201 124.5 316.5t341.5 115.5q210 0 328 -139q109 139 330 139q214 0 338.5 -115.5t124.5 -316.5v-147q0 -26 -19 -45t-45 -19h-594v-110q0 -219 195 -219q93 0 140.5 45t47.5 98q0 55 58 55h153q26 0 42 -16.5t16 -44.5q0 -60 -30 -121t-85.5 -113 t-145 -85t-196.5 -33q-108 0 -195 34.5t-135 102.5q-111 -137 -328 -137t-341.5 115.5t-124.5 316.5zM381 434q0 -116 50 -176.5t144 -60.5q191 0 191 206v336q0 211 -191 211q-94 0 -144 -60.5t-50 -176.5v-279zM1038 694h387v35q0 109 -48.5 166t-143.5 57 q-92 0 -143.5 -49t-51.5 -149v-60z" />
<glyph unicode="&#x178;" horiz-adv-x="1185" d="M23 1376q-9 21 2 39.5t34 18.5h177q29 0 53 -16.5t35 -43.5l274 -631l272 631q12 27 37 43.5t54 16.5h165q23 0 34.5 -18.5t2.5 -39.5l-426 -880v-430q0 -28 -18.5 -47t-46.5 -19h-156q-26 0 -44.5 19t-18.5 47v426zM207 1675q0 70 34 110t101 40q70 0 105.5 -40 t35.5 -110q0 -67 -35.5 -106t-105.5 -39q-67 0 -101 39t-34 106zM711 1675q0 70 33.5 110t99.5 40q71 0 106 -40t35 -110q0 -67 -35 -106t-106 -39q-66 0 -99.5 39t-33.5 106z" />
<glyph unicode="&#x2c6;" horiz-adv-x="800" d="M123 1280q-9 18 2 33l125 164q41 51 104 51h90q64 0 105 -51l125 -164q12 -15 3.5 -33t-28.5 -18h-96q-64 0 -100 55l-54 84l-51 -84q-15 -26 -41.5 -40.5t-56.5 -14.5h-98q-20 0 -29 18z" />
<glyph unicode="&#x2dc;" horiz-adv-x="987" d="M84 1343q14 95 73 155.5t152 60.5q60 0 129 -23.5t124 -46.5t81 -23q51 0 68 33q17 31 32.5 40t51.5 9h51q25 0 42.5 -20t14.5 -45q-13 -98 -69 -156.5t-156 -58.5q-59 0 -124.5 23t-120.5 46t-89 23q-51 0 -68 -33q-17 -31 -33 -40t-53 -9h-51q-23 0 -40.5 21t-14.5 44z " />
<glyph unicode="&#x2000;" horiz-adv-x="923" />
<glyph unicode="&#x2001;" horiz-adv-x="1847" />
<glyph unicode="&#x2002;" horiz-adv-x="923" />
<glyph unicode="&#x2003;" horiz-adv-x="1847" />
<glyph unicode="&#x2004;" horiz-adv-x="615" />
<glyph unicode="&#x2005;" horiz-adv-x="461" />
<glyph unicode="&#x2006;" horiz-adv-x="307" />
<glyph unicode="&#x2007;" horiz-adv-x="307" />
<glyph unicode="&#x2008;" horiz-adv-x="230" />
<glyph unicode="&#x2009;" horiz-adv-x="369" />
<glyph unicode="&#x200a;" horiz-adv-x="102" />
<glyph unicode="&#x2010;" horiz-adv-x="831" d="M92 569v95q0 28 19 46.5t45 18.5h520q26 0 44.5 -18.5t18.5 -46.5v-95q0 -28 -18.5 -46.5t-44.5 -18.5h-520q-26 0 -45 19t-19 46z" />
<glyph unicode="&#x2011;" horiz-adv-x="831" d="M92 569v95q0 28 19 46.5t45 18.5h520q26 0 44.5 -18.5t18.5 -46.5v-95q0 -28 -18.5 -46.5t-44.5 -18.5h-520q-26 0 -45 19t-19 46z" />
<glyph unicode="&#x2012;" horiz-adv-x="831" d="M92 569v95q0 28 19 46.5t45 18.5h520q26 0 44.5 -18.5t18.5 -46.5v-95q0 -28 -18.5 -46.5t-44.5 -18.5h-520q-26 0 -45 19t-19 46z" />
<glyph unicode="&#x2013;" horiz-adv-x="1048" d="M10 569v95q0 28 19 46.5t47 18.5h897q28 0 46.5 -18.5t18.5 -46.5v-95q0 -28 -18.5 -46.5t-46.5 -18.5h-897q-28 0 -47 18.5t-19 46.5z" />
<glyph unicode="&#x2014;" horiz-adv-x="1687" d="M10 569v95q0 28 19 46.5t47 18.5h1538q26 0 44.5 -18.5t18.5 -46.5v-95q0 -28 -18.5 -46.5t-44.5 -18.5h-1538q-28 0 -47 18.5t-19 46.5z" />
<glyph unicode="&#x2018;" horiz-adv-x="460" d="M72 1389q0 71 43 109t116 38q71 0 112.5 -38t41.5 -109q0 -78 -57 -115q0 -31 15 -62t40 -51q23 -20 31 -33t8 -34v-19q0 -39 -47 -39q-68 0 -139 51.5t-117.5 134.5t-46.5 167z" />
<glyph unicode="&#x2019;" horiz-adv-x="479" d="M57 1075v19q0 21 7.5 34t29.5 33q26 20 42 51t16 62q-58 38 -58 115q0 71 41.5 109t112.5 38q74 0 117 -38t43 -109q0 -84 -47 -167t-118 -134.5t-139 -51.5q-47 0 -47 39z" />
<glyph unicode="&#x201a;" horiz-adv-x="460" d="M57 -172q0 19 8 32.5t29 33.5q58 48 58 114q-26 15 -42 46t-16 69q0 70 41.5 107.5t112.5 37.5q74 0 117 -37.5t43 -107.5q0 -84 -47 -167.5t-118 -135t-139 -51.5q-47 0 -47 38v21z" />
<glyph unicode="&#x201c;" horiz-adv-x="880" d="M72 1389q0 71 43 109t116 38q71 0 112.5 -38t41.5 -109q0 -78 -57 -115q0 -31 15 -62t40 -51q23 -20 31 -33t8 -34v-19q0 -39 -47 -39q-68 0 -139 51.5t-117.5 134.5t-46.5 167zM473 1389q0 71 43 109t117 38q70 0 111.5 -38t41.5 -109q0 -78 -57 -115q2 -32 17 -62.5 t40 -50.5q23 -20 31 -33t8 -34v-19q0 -39 -49 -39q-68 0 -139 51.5t-117.5 134.5t-46.5 167z" />
<glyph unicode="&#x201d;" horiz-adv-x="880" d="M57 1075v19q0 21 7.5 34t29.5 33q26 20 42 51t16 62q-58 38 -58 115q0 71 41.5 109t112.5 38q74 0 117 -38t43 -109q0 -84 -47 -167t-118 -134.5t-139 -51.5q-47 0 -47 39zM459 1075v19q0 21 8 34t31 33q25 20 40 51t15 62q-57 37 -57 115q0 71 41.5 109t113.5 38 t116 -38.5t44 -108.5q0 -84 -46.5 -167t-118 -134.5t-140.5 -51.5q-47 0 -47 39z" />
<glyph unicode="&#x201e;" horiz-adv-x="880" d="M57 -172q0 19 8 32.5t29 33.5q58 48 58 114q-26 15 -42 46t-16 69q0 70 41.5 107.5t112.5 37.5q74 0 117 -37.5t43 -107.5q0 -84 -47 -167.5t-118 -135t-139 -51.5q-47 0 -47 38v21zM459 -172q0 19 8 32.5t29 33.5q57 47 57 114q-57 33 -57 115q0 70 41 107.5t112 37.5 q74 0 117 -37.5t43 -107.5q0 -84 -46.5 -167.5t-117.5 -135t-139 -51.5q-47 0 -47 38v21z" />
<glyph unicode="&#x2022;" horiz-adv-x="905" d="M106 659q0 176 90.5 265.5t249.5 89.5q164 0 258.5 -89.5t94.5 -265.5q0 -167 -95 -253.5t-258 -86.5q-158 0 -249 86.5t-91 253.5z" />
<glyph unicode="&#x2026;" horiz-adv-x="1191" d="M72 119q0 72 37.5 110.5t105.5 38.5q69 0 107 -38.5t38 -110.5q0 -68 -38 -107t-107 -39q-67 0 -105 39t-38 107zM451 119q0 71 38.5 110t106.5 39q69 0 107 -38.5t38 -110.5q0 -68 -38 -107t-107 -39q-67 0 -106 39t-39 107zM831 119q0 71 38.5 110t105.5 39 q71 0 109 -38.5t38 -110.5q0 -68 -38.5 -107t-108.5 -39q-66 0 -105 39.5t-39 106.5z" />
<glyph unicode="&#x202f;" horiz-adv-x="369" />
<glyph unicode="&#x2039;" horiz-adv-x="598" d="M92 557v29q0 66 47 110l320 308q13 12 30 5t17 -26v-158q0 -65 -49 -108l-160 -146l160 -145q49 -40 49 -109v-157q0 -19 -17 -26t-30 5l-320 307q-47 47 -47 111z" />
<glyph unicode="&#x203a;" horiz-adv-x="598" d="M92 160v157q0 69 49 109l158 145l-158 146q-49 43 -49 108v158q0 19 17 26t30 -5l320 -308q47 -44 47 -110v-29q0 -64 -47 -111l-320 -307q-13 -12 -30 -5t-17 26z" />
<glyph unicode="&#x205f;" horiz-adv-x="461" />
<glyph unicode="&#x20ac;" horiz-adv-x="1048" d="M31 526l32 72q22 49 72 49h33v148h-96q-23 0 -36.5 18.5t-4.5 40.5l32 70q23 51 72 51h33v35q0 95 41.5 179t112 144t168.5 94.5t208 34.5q96 0 187 -16q26 -5 45.5 -27.5t19.5 -48.5v-88q0 -27 -19 -43.5t-46 -13.5q-49 8 -160 8q-130 0 -203 -63.5t-73 -168.5v-26h391 q23 0 35.5 -20t3.5 -42l-27 -59q-26 -59 -90 -59h-316v-148h394q23 0 35.5 -18.5t3.5 -40.5l-27 -62q-12 -27 -36.5 -44t-53.5 -17h-313v-25q0 -105 76 -172t200 -67q95 0 160 8q28 3 46.5 -13t18.5 -44v-89q0 -26 -19.5 -48t-45.5 -27q-89 -17 -187 -17q-147 0 -268 58 t-191.5 163.5t-70.5 235.5v37h-100q-23 0 -35 19.5t-2 41.5z" />
<glyph unicode="&#x2122;" horiz-adv-x="1875" d="M66 1323v47q0 28 18.5 47t44.5 19h588q28 0 46.5 -19t18.5 -47v-47q0 -26 -18.5 -44.5t-46.5 -18.5h-187v-715q0 -27 -19 -45.5t-46 -18.5h-82q-26 0 -46 19t-20 45v715h-188q-26 0 -44.5 18.5t-18.5 44.5zM840 545v825q0 28 18.5 47t46.5 19h76q29 0 56 -16t40 -42 l238 -413l231 413q15 26 42.5 42t56.5 16h79q28 0 47 -19t19 -47v-825q0 -26 -19 -45t-47 -19h-84q-26 0 -44.5 19t-18.5 45l4 491l-149 -262q-15 -26 -42 -41.5t-57 -15.5h-41q-30 0 -56.5 15.5t-39.5 41.5l-147 258l4 -487q0 -26 -19 -45t-47 -19h-82q-27 0 -46 18.5 t-19 45.5z" />
<glyph unicode="&#xe000;" horiz-adv-x="1146" d="M0 0v1147h1147v-1147h-1147z" />
</font>
</defs>
</svg>
